<?xml version="1.0" encoding="UTF-8"?>
<svg id="Logo" xmlns="http://www.w3.org/2000/svg" viewBox="0 0 331.42 146.6">
  <defs>
    <style>
      .cls-1 {
        fill: #000d25;
      }
    </style>
  </defs>
  <path class="cls-1" d="M223.39,49.01h13.48c.44,0,.8.36.8.8v46.79c0,.44-.36.8-.8.8h-13.47c-.44,0-.8-.36-.8-.8v-46.79c0-.44.36-.79.79-.79Z"/>
  <path class="cls-1" d="M219.15,60.95h-27.28c-.46,0-.73.2-.86.73l-3.12,15-3.18-15c-.07-.46-.4-.73-.86-.73h-12.75c-.46,0-.8.27-.86.73l-3.18,15.13-2.99-15.13c-.13-.53-.4-.73-.86-.73h-21.84v-11.35c0-.6-.4-.86-1.06-.66l-13.08,4.25c-.46.13-.73.53-.73.99v4.98c0,1.4-.73,1.99-2.12,1.99h-2.85c-.46,0-.79.33-.79.8v9.76c0,.46.33.8.79.8h4.78v12.28c0,8.56,3.12,13.14,13.41,13.14,3.98,0,7.1-.66,8.83-1.46.53-.27.66-.6.66-1.13v-9.56c0-.53-.46-.8-1.13-.46-.86.4-1.73.6-2.72.6-2.65,0-3.98-.99-3.98-4.31v-9.09h6.97c.46,0,.8-.33.8-.8v-8.5l8.83,33.52c.13.46.46.66.99.66h0s13.01,0,13.01,0c.46,0,.66-.2.8-.66l4.25-15.33,4.12,15.33c.13.46.33.66.8.66h13.21c.53,0,.86-.2.99-.66l8.76-33.25v33.12c0,.46.33.8.8.8h13.47c.46,0,.8-.33.8-.8v-34.85c0-.46-.33-.79-.8-.79Z"/>
  <path class="cls-1" d="M205.67,49.01h13.47c.44,0,.8.36.8.8v7.97c0,.44-.36.79-.79.79h-13.48c-.44,0-.79-.36-.79-.79v-7.97c0-.44.36-.8.8-.8Z"/>
  <path class="cls-1" d="M241.18,49.01h13.48c.44,0,.8.36.8.8v7.96c0,.44-.36.8-.8.8h-13.47c-.44,0-.8-.36-.8-.8v-7.97c0-.44.36-.79.79-.79Z"/>
  <path class="cls-1" d="M241.12,60.95h13.48c.44,0,.8.36.8.8v34.85c0,.44-.36.8-.8.8h-13.47c-.44,0-.8-.36-.8-.8v-34.85c0-.44.36-.79.79-.79Z"/>
  <path class="cls-1" d="M277.62,60.36c-12.14,0-20.18,7.5-20.18,18.32v.86c0,10.82,8.03,18.39,20.18,18.39s20.18-7.57,20.18-18.39v-.86c0-10.82-8.03-18.32-20.18-18.32ZM282.6,79.34c0,4.91-2.06,6.9-4.98,6.9s-4.98-1.99-4.98-6.9v-.46c0-4.98,2.06-6.97,4.98-6.97s4.98,1.99,4.98,6.97v.46Z"/>
  <path class="cls-1" d="M73.72,33.37c-22.05,0-39.92,17.87-39.92,39.92s17.87,39.92,39.92,39.92,39.92-17.87,39.92-39.92-17.87-39.92-39.92-39.92ZM73.72,102.77c-16.28,0-29.47-13.19-29.47-29.47s13.19-29.47,29.47-29.47,29.47,13.19,29.47,29.47-13.19,29.47-29.47,29.47Z"/>
  <circle class="cls-1" cx="63.8" cy="63.31" r="8.33"/>
  <circle class="cls-1" cx="83.68" cy="63.31" r="8.33" transform="translate(-9.06 14.22) rotate(-9.22)"/>
  <circle class="cls-1" cx="63.8" cy="83.25" r="8.33"/>
  <circle class="cls-1" cx="83.68" cy="83.25" r="8.33" transform="translate(-12.26 14.48) rotate(-9.22)"/>
</svg>