<svg xmlns="http://www.w3.org/2000/svg" fill="currentColor" viewBox="0 0 72 72" class="icon--decorative" role="presentation">
  <title>A pair of chat bubbles</title>
  <g class="messaging_chat-bubble--pair">
    <path fill-rule="evenodd" d="M6.54 9.853A1.54 1.54 0 0 0 5 11.393v31.743a1.541 1.541 0 0 0 1.54 1.54h7.08a2 2 0 0 1 2 2v6.622l3.87-2.903.01-.008 5.654-4.296a2 2 0 1 1 2.42 3.185L21.9 53.587l-7.08 5.31a2 2 0 0 1-3.2-1.599v-8.622H6.54A5.54 5.54 0 0 1 1 43.136V11.393a5.54 5.54 0 0 1 5.54-5.54h46.02a5.54 5.54 0 0 1 5.539 5.54v11.861a2 2 0 1 1-4 0v-11.86a1.541 1.541 0 0 0-1.54-1.541H6.54Zm28.613 21.661a4.205 4.205 0 0 1 2.974-1.232h28.668A4.205 4.205 0 0 1 71 34.489v19.775a4.206 4.206 0 0 1-4.205 4.205h-2.41v5.679a2 2 0 0 1-3.314 1.508l-8.256-7.187H38.127a4.205 4.205 0 0 1-4.206-4.206V34.489c0-1.115.443-2.185 1.232-2.974Zm2.974 2.768a.205.205 0 0 0-.206.206v19.775a.206.206 0 0 0 .206.205h15.436a2 2 0 0 1 1.313.492l5.508 4.794v-3.286a2 2 0 0 1 2-2h4.41a.205.205 0 0 0 .206-.206V34.489a.206.206 0 0 0-.205-.206H38.126Z" class="fill-path path-fill" clip-rule="evenodd"/>
  </g>
</svg>
