<svg width="43" height="43" viewBox="0 0 43 43" fill="none" xmlns="http://www.w3.org/2000/svg">
<path d="M22.3641 24.4824C22.2388 24.3572 22.0894 24.2588 21.925 24.1932C21.7568 24.1169 21.5742 24.0774 21.3895 24.0774C21.2048 24.0774 21.0223 24.1169 20.8541 24.1932C20.6859 24.2516 20.535 24.351 20.415 24.4824L13.7216 31.1758C13.5969 31.3001 13.498 31.4478 13.4305 31.6105C13.363 31.7731 13.3282 31.9475 13.3282 32.1236C13.3282 32.2996 13.363 32.474 13.4305 32.6366C13.498 32.7993 13.5969 32.947 13.7216 33.0713C13.9754 33.318 14.3154 33.456 14.6693 33.456C15.0233 33.456 15.3633 33.318 15.6171 33.0713L20.0187 28.659V41.5104C20.0187 41.8654 20.1598 42.2059 20.4108 42.457C20.6619 42.708 21.0024 42.8491 21.3574 42.8491C21.7124 42.8491 22.0529 42.708 22.304 42.457C22.555 42.2059 22.6961 41.8654 22.6961 41.5104V28.659L27.1084 33.0713C27.2324 33.1944 27.3794 33.2919 27.5412 33.358C27.7029 33.4242 27.8761 33.4578 28.0508 33.4569C28.4065 33.4569 28.7483 33.3187 29.0039 33.0713C29.2506 32.8175 29.3885 32.4775 29.3885 32.1236C29.3885 31.7696 29.2506 31.4296 29.0039 31.1758L22.3641 24.4824Z" fill="#DB132A"/>
<path d="M32.8278 9.36091C31.422 9.36105 30.0318 9.65659 28.7475 10.2284C27.9559 7.76024 26.5269 5.54477 24.6048 3.80582C22.6827 2.06688 20.3357 0.866069 17.8009 0.324735C15.2661 -0.216599 12.6334 -0.0792788 10.1686 0.72282C7.70388 1.52492 5.49453 2.96337 3.76379 4.89284C2.03306 6.82231 0.842271 9.17442 0.311752 11.7115C-0.218767 14.2486 -0.070223 16.8808 0.742379 19.3421C1.55498 21.8034 3.00285 24.0066 4.93968 25.7291C6.87651 27.4515 9.23368 28.6323 11.773 29.152C11.9453 29.1871 12.1228 29.188 12.2954 29.1546C12.4681 29.1211 12.6324 29.054 12.7791 28.9571C12.9258 28.8601 13.0519 28.7352 13.1503 28.5895C13.2487 28.4438 13.3175 28.2801 13.3527 28.1078C13.3878 27.9355 13.3887 27.758 13.3552 27.5854C13.3218 27.4128 13.2547 27.2484 13.1577 27.1017C13.0608 26.9551 12.9359 26.8289 12.7902 26.7305C12.6444 26.6321 12.4808 26.5633 12.3085 26.5282C10.167 26.0941 8.18384 25.0859 6.57133 23.6113C4.95883 22.1368 3.77769 20.2515 3.15433 18.1573C2.53097 16.063 2.48888 13.8387 3.03255 11.7224C3.57622 9.60604 4.68519 7.67741 6.24075 6.14292C7.79631 4.60843 9.73987 3.52586 11.8634 3.0111C13.987 2.49633 16.2105 2.56875 18.296 3.22061C20.3816 3.87247 22.2506 5.07922 23.703 6.71168C25.1554 8.34414 26.1366 10.3408 26.5414 12.4881C26.5821 12.7077 26.6772 12.9137 26.818 13.0872C26.9587 13.2607 27.1407 13.3962 27.3472 13.4814C27.5538 13.5665 27.7783 13.5987 28.0005 13.5748C28.2226 13.551 28.4352 13.4719 28.619 13.3448C29.8489 12.4924 31.31 12.0365 32.8064 12.0383C33.7969 12.0005 34.7849 12.163 35.7111 12.5159C36.6374 12.8689 37.4829 13.4052 38.197 14.0926C38.9112 14.78 39.4793 15.6045 39.8673 16.5166C40.2553 17.4287 40.4554 18.4098 40.4554 19.401C40.4554 20.3923 40.2553 21.3733 39.8673 22.2854C39.4793 23.1976 38.9112 24.022 38.197 24.7094C37.4829 25.3969 36.6374 25.9331 35.7111 26.2861C34.7849 26.6391 33.7969 26.8016 32.8064 26.7638H30.7823C30.4273 26.7638 30.0868 26.9048 29.8357 27.1559C29.5847 27.4069 29.4436 27.7474 29.4436 28.1025C29.4436 28.4575 29.5847 28.798 29.8357 29.0491C30.0868 29.3001 30.4273 29.4411 30.7823 29.4411H32.8064C35.4125 29.356 37.8833 28.2609 39.6967 26.3873C41.5101 24.5137 42.5239 22.0085 42.5239 19.401C42.5239 16.7936 41.5101 14.2883 39.6967 12.4147C37.8833 10.5411 35.4125 9.44603 32.8064 9.36091H32.8278Z" fill="#DB132A"/>
</svg>
