<svg width="43" height="38" viewBox="0 0 43 38" fill="none" xmlns="http://www.w3.org/2000/svg">
<path d="M21.3771 24.0608C20.0533 24.0608 18.7592 24.4534 17.6585 25.1888C16.5577 25.9243 15.6998 26.9697 15.1932 28.1927C14.6866 29.4158 14.5541 30.7616 14.8123 32.06C15.0706 33.3584 15.7081 34.5511 16.6442 35.4872C17.5803 36.4233 18.7729 37.0607 20.0713 37.319C21.3697 37.5773 22.7155 37.4447 23.9386 36.9381C25.1616 36.4315 26.207 35.5736 26.9425 34.4729C27.678 33.3721 28.0705 32.078 28.0705 30.7542C28.0705 28.979 27.3653 27.2765 26.1101 26.0212C24.8548 24.766 23.1523 24.0608 21.3771 24.0608ZM21.3771 34.7703C20.5828 34.7703 19.8064 34.5347 19.1459 34.0934C18.4855 33.6521 17.9708 33.0249 17.6668 32.2911C17.3628 31.5572 17.2833 30.7497 17.4382 29.9707C17.5932 29.1917 17.9757 28.4761 18.5374 27.9144C19.099 27.3528 19.8146 26.9703 20.5936 26.8153C21.3727 26.6604 22.1802 26.7399 22.914 27.0439C23.6478 27.3478 24.2751 27.8626 24.7164 28.523C25.1576 29.1834 25.3932 29.9599 25.3932 30.7542C25.3932 31.8193 24.9701 32.8408 24.2169 33.594C23.4637 34.3471 22.4423 34.7703 21.3771 34.7703Z" fill="#DB132A"/>
<path d="M10.9578 20.3453C10.7696 20.6016 10.6787 20.9165 10.7014 21.2336C10.7242 21.5508 10.8591 21.8495 11.082 22.0763C11.3049 22.303 11.6012 22.443 11.9179 22.4712C12.2347 22.4995 12.5511 22.414 12.8105 22.2302C15.0728 19.9759 18.1363 18.7102 21.3299 18.7102C24.5236 18.7102 27.587 19.9759 29.8493 22.2302C29.9713 22.3567 30.1178 22.4571 30.2798 22.5252C30.4418 22.5933 30.616 22.6278 30.7917 22.6264C31.0562 22.6269 31.3149 22.549 31.5351 22.4026C31.7554 22.2563 31.9274 22.0479 32.0293 21.8039C32.1313 21.5598 32.1587 21.2911 32.1081 21.0315C32.0574 20.7719 31.931 20.5331 31.7449 20.3453C28.9821 17.6005 25.2458 16.0601 21.3513 16.0601C17.4569 16.0601 13.7206 17.6005 10.9578 20.3453Z" fill="#DB132A"/>
<path d="M5.31368 14.6573C5.06382 14.9116 4.92383 15.2539 4.92383 15.6104C4.92383 15.9669 5.06382 16.3092 5.31368 16.5636C5.43803 16.6882 5.58575 16.7871 5.74839 16.8546C5.91102 16.9221 6.08538 16.9568 6.26146 16.9568C6.43755 16.9568 6.6119 16.9221 6.77453 16.8546C6.93717 16.7871 7.08489 16.6882 7.20925 16.5636C10.9793 12.8045 16.0861 10.6936 21.41 10.6936C26.7339 10.6936 31.8406 12.8045 35.6107 16.5636C35.7327 16.6901 35.8792 16.7904 36.0412 16.8586C36.2032 16.9267 36.3774 16.9611 36.5532 16.9598C36.8887 16.9439 37.206 16.8025 37.4421 16.5636C37.6887 16.3097 37.8267 15.9697 37.8267 15.6158C37.8267 15.2618 37.6887 14.9218 37.4421 14.668C33.1724 10.4261 27.3987 8.04449 21.3801 8.04248C15.3615 8.04048 9.58618 10.4183 5.31368 14.6573Z" fill="#DB132A"/>
<path d="M42.3681 8.23281C36.6593 2.94052 29.1621 0 21.3776 0C13.5931 0 6.09585 2.94052 0.387047 8.23281C0.14421 8.47825 0.00559783 8.80803 0.00016587 9.15327C-0.00526609 9.4985 0.1229 9.83248 0.357894 10.0854C0.592889 10.3384 0.916536 10.4908 1.26123 10.5108C1.60593 10.5307 1.94501 10.4168 2.20765 10.1926C7.42137 5.35951 14.2683 2.67412 21.3776 2.67412C28.4869 2.67412 35.3338 5.35951 40.5475 10.1926C40.8102 10.4168 41.1492 10.5307 41.4939 10.5108C41.8386 10.4908 42.1623 10.3384 42.3973 10.0854C42.6323 9.83248 42.7604 9.4985 42.755 9.15327C42.7496 8.80803 42.611 8.47825 42.3681 8.23281Z" fill="#DB132A"/>
</svg>
