<svg width="40" height="40" viewBox="0 0 40 40" fill="#FFFFFF" class="icon--decorative" role="presentation" xmlns="http://www.w3.org/2000/svg">
<title>Dial</title>
<g clip-path="url(#clip0_690_1538)">
<path clip-rule="evenodd" class="path-fill" fill-rule="evenodd" d="M19.9956 0C8.97544 0 0 8.97544 0 19.9956C0 31.0157 8.97544 39.9911 19.9956 39.9911C31.0157 39.9911 39.9911 31.0157 39.9911 19.9956C39.9911 8.97544 31.0246 0 19.9956 0ZM19.9956 37.3445C10.4359 37.3445 2.65545 29.5641 2.65545 20.0044C2.65545 10.4448 10.4359 2.65545 19.9956 2.65545C29.5552 2.65545 37.3357 10.4359 37.3357 19.9956C37.3357 29.5552 29.5552 37.3357 19.9956 37.3357V37.3445Z"/>
<path clip-rule="evenodd" class="path-fill" fill-rule="evenodd" d="M19.9942 4.9834C18.9232 4.9834 18.0469 5.8597 18.0469 6.93073C18.0469 8.00177 18.9232 8.87806 19.9942 8.87806C21.0652 8.87806 21.9415 8.00177 21.9415 6.93073C21.9415 5.8597 21.0652 4.9834 19.9942 4.9834Z"/>
<path clip-rule="evenodd" class="path-fill" fill-rule="evenodd" d="M29.2364 12.7023C30.3119 12.7023 31.1837 11.8304 31.1837 10.755C31.1837 9.67947 30.3119 8.80762 29.2364 8.80762C28.1609 8.80762 27.2891 9.67947 27.2891 10.755C27.2891 11.8304 28.1609 12.7023 29.2364 12.7023Z"/>
<path clip-rule="evenodd" class="path-fill" fill-rule="evenodd" d="M33.0684 21.9425C34.1439 21.9425 35.0158 21.0707 35.0158 19.9952C35.0158 18.9197 34.1439 18.0479 33.0684 18.0479C31.9929 18.0479 31.1211 18.9197 31.1211 19.9952C31.1211 21.0707 31.9929 21.9425 33.0684 21.9425Z"/>
<path clip-rule="evenodd" class="path-fill" fill-rule="evenodd" d="M29.2364 27.2891C28.1654 27.2891 27.2891 28.1654 27.2891 29.2364C27.2891 29.7586 27.4926 30.2455 27.8556 30.6172C28.2273 30.989 28.7142 31.1926 29.2364 31.1926C30.3074 31.1926 31.1837 30.3163 31.1837 29.2364C31.1837 28.1654 30.3074 27.2891 29.2364 27.2891Z"/>
<path clip-rule="evenodd" class="path-fill" fill-rule="evenodd" d="M19.9942 31.1221C18.9232 31.1221 18.0469 31.9984 18.0469 33.0694C18.0469 33.5916 18.2505 34.0785 18.6134 34.4502C18.9851 34.822 19.472 35.0256 19.9942 35.0256C20.5164 35.0256 21.0033 34.822 21.375 34.4502C21.7468 34.0785 21.9415 33.5916 21.9415 33.0694C21.9415 31.9984 21.0652 31.1221 19.9942 31.1221Z"/>
<path clip-rule="evenodd" class="path-fill" fill-rule="evenodd" d="M8.81641 29.2452C8.81641 30.3163 9.69271 31.1926 10.7637 31.1926V27.2891C9.69271 27.2891 8.81641 28.1654 8.81641 29.2364V29.2452Z"/>
<path clip-rule="evenodd" class="path-fill" fill-rule="evenodd" d="M10.7656 27.2979V31.2014C11.8455 31.2014 12.713 30.3251 12.713 29.2452C12.713 28.1742 11.8367 27.2979 10.7656 27.2979Z"/>
<path clip-rule="evenodd" class="path-fill" fill-rule="evenodd" d="M6.93171 21.9425C8.00719 21.9425 8.87904 21.0707 8.87904 19.9952C8.87904 18.9197 8.00719 18.0479 6.93171 18.0479C5.85623 18.0479 4.98438 18.9197 4.98438 19.9952C4.98438 21.0707 5.85623 21.9425 6.93171 21.9425Z"/>
<path clip-rule="evenodd" class="path-fill" fill-rule="evenodd" d="M10.7559 12.7023C11.8314 12.7023 12.7033 11.8304 12.7033 10.755C12.7033 9.67947 11.8314 8.80762 10.7559 8.80762C9.68044 8.80762 8.80859 9.67947 8.80859 10.755C8.80859 11.8304 9.68044 12.7023 10.7559 12.7023Z"/>
</g>
<defs>
<clipPath id="clip0_690_1538">
<rect width="40" height="40" fill="white"/>
</clipPath>
</defs>
</svg>
