<svg xmlns="http://www.w3.org/2000/svg" fill="currentColor" viewBox="0 0 72 72" class="icon--decorative" role="presentation">
  <title>A document with a checkmark</title>
  <g class="documents_document--checkmark">
    <path fill-rule="evenodd" d="M10.216 4c-.537 0-1.085.229-1.514.692A2.738 2.738 0 0 0 8 6.548v50.034c0 .723.268 1.388.702 1.857.429.463.977.691 1.514.691H27.08a2 2 0 0 1 0 4H10.216c-1.7 0-3.296-.73-4.448-1.972C4.621 59.92 4 58.272 4 56.582V6.548c0-1.69.62-3.338 1.768-4.575C6.92.73 8.516 0 10.216 0h29.875c1.699 0 3.294.73 4.446 1.971l8.073 8.71c1.146 1.237 1.767 2.884 1.767 4.573v9.489a2 2 0 0 1-4 0v-9.488c0-.722-.268-1.387-.7-1.855l-8.074-8.71c-.429-.462-.977-.69-1.513-.691H10.216Zm28.261 33.486c3.675-3.801 8.673-5.95 13.9-5.95 5.226 0 10.225 2.149 13.9 5.95 3.67 3.8 5.723 8.938 5.723 14.282 0 5.344-2.052 10.483-5.724 14.282-3.674 3.801-8.672 5.95-13.9 5.95-5.226 0-10.224-2.149-13.899-5.95-3.672-3.799-5.723-8.938-5.723-14.282 0-5.344 2.051-10.483 5.723-14.282Zm13.9-1.95c-4.121 0-8.088 1.693-11.024 4.73-2.937 3.04-4.6 7.176-4.6 11.502 0 4.327 1.663 8.463 4.6 11.502C44.29 66.307 48.256 68 52.377 68c4.121 0 8.088-1.693 11.023-4.73 2.938-3.04 4.6-7.175 4.6-11.502 0-4.326-1.662-8.462-4.6-11.502-2.935-3.037-6.902-4.73-11.023-4.73Zm9.71 8.917a2 2 0 0 1 .437 2.794L53.95 59.004l-.002.002c-.355.49-.812.9-1.343 1.199a4.135 4.135 0 0 1-3.526.257 4.196 4.196 0 0 1-1.5-.994l-.005-.005-4.337-4.427a2 2 0 0 1 2.857-2.8l4.356 4.447a.19.19 0 0 0 .07.047.14.14 0 0 0 .06.01.147.147 0 0 0 .062-.02.228.228 0 0 0 .07-.065l8.58-11.764a2 2 0 0 1 2.794-.437Z" class="path-fill" clip-rule="evenodd"/>
  </g>
</svg>
