<svg xmlns="http://www.w3.org/2000/svg" fill="#FFFFFF" viewBox="0 0 72 72" class="icon--decorative" role="presentation">
  <title>Globe</title>
  <g class="globes_earth--tabletop">
      <path class="path-fill fill-path" d="M32.998 52.376c6.431 0 12.476-2.468 17.022-6.952 4.546-4.484 7.047-10.447 7.047-16.792 0-.264-.01-.519-.02-.773v-.04c-.208-6.04-2.68-11.68-7.027-15.979-4.348-4.298-10.6-6.952-17.023-6.952-6.421 0-12.476 2.468-17.022 6.952-4.546 4.485-7.047 10.457-7.047 16.792 0 6.335 2.501 12.308 7.047 16.792 4.546 4.484 10.59 6.952 17.023 6.952Zm20.426-26.25a2.858 2.858 0 0 1-1.052-.627L48.938 22.1a6.207 6.207 0 0 0-4.387-1.791h-2.62a2.79 2.79 0 0 1-1.221-.284 2.778 2.778 0 0 1-.963-.793l-2.71-3.545a2.621 2.621 0 0 1-.516-1.978c.1-.705.467-1.331 1.042-1.772.913-.695 1.916-1.469 2.898-2.232a20.575 20.575 0 0 1 7.107 4.562 20.034 20.034 0 0 1 5.856 11.858ZM18.427 14.268c3.89-3.838 9.062-5.953 14.56-5.953 1.102 0 2.184.108 3.256.274-.278.206-.556.431-.824.627a6.1 6.1 0 0 0-2.362 4.024 6.067 6.067 0 0 0 1.181 4.504l2.71 3.545a6.188 6.188 0 0 0 2.193 1.801 6.345 6.345 0 0 0 2.77.646h2.62c.725 0 1.41.284 1.926.794l3.434 3.397a6.207 6.207 0 0 0 3.623 1.743 20.036 20.036 0 0 1-5.986 13.336c-3.89 3.838-9.061 5.953-14.56 5.953-2.859 0-5.618-.578-8.169-1.665l1.39-1.028a6.117 6.117 0 0 0 2.163-2.957l.923-2.722a5.974 5.974 0 0 0 .15-3.339 6.11 6.11 0 0 0-1.648-2.917l-3.435-3.398a2.644 2.644 0 0 1-.804-1.9v-4.787a6.04 6.04 0 0 0-1.816-4.328 6.207 6.207 0 0 0-4.387-1.792H15.37c.853-1.38 1.846-2.673 3.037-3.838l.02-.02Zm-4.725 7.265h3.653c.724 0 1.41.284 1.925.784.517.509.804 1.184.804 1.91v4.787c0 .813.16 1.596.467 2.34a6.01 6.01 0 0 0 1.35 1.988l3.444 3.397c.357.353.605.793.725 1.283.119.49.089.999-.07 1.469l-.923 2.721a2.72 2.72 0 0 1-.953 1.303l-2.66 1.968a20.84 20.84 0 0 1-3.047-2.477c-3.89-3.839-6.035-8.94-6.035-14.364 0-2.468.467-4.857 1.31-7.099l.01-.01Z"/>
      <path class="path-fill fill-path" d="M56.333 51.661C62.566 45.512 66 37.336 66 28.641c0-8.126-2.998-15.792-8.467-21.775L59.5 4.928a1.71 1.71 0 0 0 0-2.429 1.767 1.767 0 0 0-2.462 0l-3.156 3.114a1.71 1.71 0 0 0 0 2.428c5.578 5.503 8.645 12.817 8.645 20.591 0 7.784-3.077 15.098-8.645 20.6-5.578 5.494-12.983 8.529-20.864 8.529h-.04c-7.88 0-15.295-3.035-20.863-8.528-.03-.03-.05-.04-.08-.069a1.676 1.676 0 0 0-.813-.401h-.04a1.434 1.434 0 0 0-.575 0h-.04a1.766 1.766 0 0 0-.814.401c-.03.03-.06.04-.09.069l-3.156 3.113a1.697 1.697 0 0 0 0 2.419c.338.333.784.5 1.231.5.447 0 .893-.167 1.23-.5l1.966-1.939c5.638 5.023 12.754 7.921 20.337 8.313v5.434H15.132a1.72 1.72 0 0 0-1.737 1.714c0 .95.774 1.713 1.737 1.713h35.731a1.72 1.72 0 0 0 1.737-1.713 1.72 1.72 0 0 0-1.736-1.714h-16.13V61.14c8.16-.411 15.782-3.75 21.599-9.488v.01Z"/>
  </g>
</svg>