<svg width="40" height="40" viewBox="0 0 40 40" fill="#FFFFFF" class="icon--decorative" role="presentation" xmlns="http://www.w3.org/2000/svg">
<title>Headset question support icon</title>
<path d="M34.9417 13.8666C34.3583 6.12491 27.8917 0 20 0C12.1083 0 5.64167 6.12491 5.05833 13.8666C2.18333 14.4249 0 16.9583 0 20V25C0 28.45 2.8 31.25 6.25 31.25H7.5C8.875 31.25 10 30.125 10 28.75V16.25C10 14.8917 8.90833 13.7917 7.56667 13.7583C8.19167 7.45001 13.5333 2.5 20 2.5C26.4667 2.5 31.8083 7.44167 32.4333 13.7583C31.0833 13.7917 30 14.8917 30 16.25V28.75C30 30.125 31.125 31.25 32.5 31.25C32.5 33.3167 30.8167 35 28.75 35H26.0167C25.5 33.55 24.125 32.5 22.5 32.5H20C17.9333 32.5 16.25 34.1833 16.25 36.25C16.25 38.3167 17.9333 40 20 40H22.5C24.125 40 25.5 38.95 26.0167 37.5H28.75C32.2 37.5 35 34.7 35 31.25V31.1249C37.85 30.5415 40 28.0167 40 25V20C40 16.9583 37.8167 14.4249 34.9417 13.8666ZM6.25 28.75C4.18333 28.75 2.5 27.0667 2.5 25V20C2.5 17.9333 4.18333 16.25 6.25 16.25H7.5V28.75H6.25ZM22.5 37.5H20C19.3083 37.5 18.75 36.9417 18.75 36.25C18.75 35.5583 19.3083 35 20 35H22.5C23.1917 35 23.75 35.5583 23.75 36.25C23.75 36.9417 23.1917 37.5 22.5 37.5ZM37.5 25C37.5 27.0667 35.8167 28.75 33.75 28.75H32.5V16.25H33.75C35.8167 16.25 37.5 17.9333 37.5 20V25Z" fill-rule="evenodd" class="path-fill" clip-rule="evenodd"/>
<path d="M17.3422 11.1004C18.0505 10.392 18.9922 10.0005 19.9922 10.0005C20.9922 10.0005 21.9339 10.392 22.6422 11.1004C23.3505 11.8087 23.7422 12.7505 23.7422 13.7505C23.7422 15.3339 22.7339 16.7589 21.2422 17.2839C19.7505 17.8172 18.7422 19.2338 18.7422 20.8172V21.2422C18.7422 21.9339 19.3005 22.4922 19.9922 22.4922C20.6839 22.4922 21.2422 21.9339 21.2422 21.2422V20.8172C21.2422 20.2922 21.5755 19.817 22.0755 19.6337C24.5672 18.7504 26.2422 16.3839 26.2422 13.7422C26.2422 12.0755 25.5922 10.5005 24.4089 9.32548C23.2255 8.14215 21.6589 7.49219 19.9922 7.49219C18.3255 7.49219 16.7505 8.14215 15.5755 9.32548C14.4005 10.5088 13.7422 12.0755 13.7422 13.7422C13.7422 14.4339 14.3005 14.9922 14.9922 14.9922C15.6839 14.9922 16.2422 14.4339 16.2422 13.7422C16.2422 12.7422 16.6339 11.8004 17.3422 11.092V11.1004Z" fill-rule="evenodd" class="path-fill" clip-rule="evenodd"/>
<path d="M20 28.75C21.0355 28.75 21.875 27.9105 21.875 26.875C21.875 25.8395 21.0355 25 20 25C18.9645 25 18.125 25.8395 18.125 26.875C18.125 27.9105 18.9645 28.75 20 28.75Z" fill-rule="evenodd" class="path-fill" clip-rule="evenodd"/>
</svg>
