<svg width="43" height="43" viewBox="0 0 43 43" fill="none" xmlns="http://www.w3.org/2000/svg">
<path d="M34.7668 42.7988C33.1177 42.7974 31.5089 42.2891 30.1584 41.3428C28.8079 40.3964 27.7809 39.0579 27.2166 37.5084L23.1149 41.6208C22.3586 42.3709 21.3366 42.7918 20.2715 42.7918C19.2063 42.7918 18.1843 42.3709 17.4281 41.6208L13.6691 37.8511C13.5222 37.6955 13.4148 37.5071 13.3557 37.3015C13.2967 37.0959 13.2878 36.8792 13.3297 36.6694C13.3717 36.4597 13.4633 36.263 13.5968 36.0959C13.7304 35.9289 13.9021 35.7962 14.0975 35.7092C14.9062 35.3681 15.6187 34.8335 16.1722 34.1524C16.7258 33.4712 17.1034 32.6645 17.2719 31.8031C17.4403 30.9417 17.3945 30.0522 17.1384 29.2127C16.8822 28.3732 16.4237 27.6095 15.8031 26.9889C15.1825 26.3683 14.4188 25.9097 13.5793 25.6536C12.7398 25.3975 11.8502 25.3516 10.9889 25.5201C10.1275 25.6886 9.32073 26.0662 8.6396 26.6197C7.95847 27.1733 7.42385 27.8858 7.08279 28.6945C6.99572 28.8899 6.86309 29.0615 6.69602 29.1951C6.52896 29.3287 6.33233 29.4203 6.12257 29.4623C5.91282 29.5042 5.69605 29.4953 5.49046 29.4362C5.28486 29.3772 5.09642 29.2697 4.9409 29.1229L1.17118 25.3638C0.421054 24.6076 0.000127415 23.5856 0.000127415 22.5205C0.000127415 21.4553 0.421054 20.4333 1.17118 19.6771L5.27289 15.5754C4.00555 15.1118 2.87545 14.3364 1.98691 13.3208C1.09836 12.3051 0.480024 11.082 0.189001 9.7643C-0.102022 8.44659 -0.0563451 7.0768 0.32179 5.7814C0.699926 4.48601 1.39835 3.30676 2.35256 2.35255C3.30677 1.39834 4.486 0.699918 5.7814 0.321783C7.0768 -0.0563525 8.4466 -0.102018 9.76431 0.189006C11.082 0.480029 12.3051 1.09836 13.3208 1.9869C14.3364 2.87545 15.1118 4.00556 15.5754 5.27289L19.6771 1.17117C20.4333 0.421047 21.4553 0.000136411 22.5205 0.000136411C23.5856 0.000136411 24.6076 0.421047 25.3638 1.17117L29.1229 4.9409C29.2697 5.09642 29.3772 5.28487 29.4362 5.49046C29.4953 5.69606 29.5042 5.91282 29.4623 6.12257C29.4203 6.33232 29.3287 6.52897 29.1951 6.69604C29.0616 6.8631 28.8899 6.99573 28.6945 7.0828C27.8858 7.42386 27.1733 7.95848 26.6197 8.63961C26.0662 9.32074 25.6886 10.1275 25.5201 10.9889C25.3516 11.8502 25.3975 12.7398 25.6536 13.5793C25.9097 14.4188 26.3683 15.1824 26.9889 15.8031C27.6095 16.4237 28.3732 16.8822 29.2127 17.1384C30.0522 17.3945 30.9417 17.4403 31.8031 17.2719C32.6645 17.1034 33.4713 16.7258 34.1524 16.1722C34.8335 15.6187 35.3681 14.9062 35.7092 14.0975C35.7963 13.9021 35.9289 13.7304 36.096 13.5968C36.263 13.4633 36.4597 13.3717 36.6694 13.3297C36.8792 13.2878 37.0959 13.2967 37.3015 13.3557C37.5071 13.4148 37.6956 13.5222 37.8511 13.6691L41.6208 17.4281C42.3709 18.1843 42.7919 19.2063 42.7919 20.2715C42.7919 21.3366 42.3709 22.3586 41.6208 23.1149L37.5191 27.2166C39.2957 27.8614 40.788 29.1121 41.7336 30.7486C42.6791 32.3851 43.0172 34.3026 42.6884 36.1639C42.3597 38.0251 41.3851 39.7107 39.9362 40.9243C38.4872 42.1379 36.6568 42.8017 34.7668 42.7988ZM28.0733 33.4281C28.2503 33.4274 28.4254 33.4639 28.5874 33.5352C28.8326 33.634 29.0423 33.8043 29.1894 34.024C29.3364 34.2436 29.414 34.5024 29.412 34.7667C29.412 35.8258 29.7261 36.8611 30.3145 37.7417C30.9028 38.6223 31.7391 39.3086 32.7176 39.7139C33.696 40.1192 34.7727 40.2252 35.8114 40.0186C36.8501 39.812 37.8042 39.302 38.5531 38.5531C39.302 37.8042 39.812 36.8501 40.0186 35.8114C40.2252 34.7727 40.1191 33.696 39.7139 32.7176C39.3086 31.7391 38.6223 30.9028 37.7417 30.3145C36.8611 29.7261 35.8258 29.412 34.7668 29.412C34.5009 29.4156 34.24 29.3393 34.018 29.1929C33.796 29.0466 33.623 28.837 33.5215 28.5912C33.42 28.3455 33.3946 28.0749 33.4486 27.8146C33.5025 27.5542 33.6334 27.316 33.8243 27.1309L39.7252 21.2193C39.8499 21.0949 39.9488 20.9472 40.0163 20.7846C40.0838 20.6219 40.1185 20.4476 40.1185 20.2715C40.1185 20.0954 40.0838 19.9211 40.0163 19.7584C39.9488 19.5958 39.8499 19.4481 39.7252 19.3237L37.1978 16.7963C36.5107 17.7249 35.6314 18.4944 34.6199 19.0523C33.6083 19.6102 32.4884 19.9433 31.3363 20.029C30.1843 20.1146 29.0274 19.9508 27.9445 19.5486C26.8616 19.1464 25.8781 18.5154 25.0613 17.6986C24.2445 16.8817 23.6134 15.8983 23.2112 14.8154C22.8091 13.7324 22.6452 12.5755 22.7309 11.4235C22.8165 10.2715 23.1496 9.15152 23.7075 8.13997C24.2654 7.12843 25.0349 6.24913 25.9636 5.56205L23.4362 3.03462C23.3118 2.90995 23.1641 2.81104 23.0014 2.74355C22.8388 2.67607 22.6644 2.64133 22.4884 2.64133C22.3123 2.64133 22.1379 2.67607 21.9753 2.74355C21.8126 2.81104 21.6649 2.90995 21.5406 3.03462L15.629 8.93553C15.4438 9.1264 15.2057 9.2573 14.9453 9.31129C14.6849 9.36527 14.4144 9.33986 14.1686 9.23832C13.9229 9.13679 13.7132 8.96383 13.5669 8.74182C13.4206 8.51981 13.3443 8.25897 13.3478 7.9931C13.3478 6.93403 13.0338 5.89875 12.4454 5.01817C11.857 4.13758 11.0207 3.45126 10.0423 3.04597C9.06382 2.64069 7.98715 2.53464 6.94843 2.74126C5.90972 2.94787 4.95562 3.45786 4.20675 4.20673C3.45788 4.9556 2.94787 5.90973 2.74126 6.94844C2.53464 7.98716 2.6407 9.06381 3.04599 10.0423C3.45128 11.0207 4.13758 11.857 5.01816 12.4454C5.89874 13.0338 6.93404 13.3478 7.9931 13.3478C8.25898 13.3442 8.51982 13.4206 8.74183 13.5669C8.96384 13.7132 9.13681 13.9229 9.23834 14.1686C9.33988 14.4144 9.36528 14.6849 9.31129 14.9453C9.25731 15.2057 9.12641 15.4438 8.93554 15.6289L3.03462 21.5406C2.90995 21.6649 2.81103 21.8126 2.74354 21.9753C2.67606 22.1379 2.64135 22.3123 2.64135 22.4884C2.64135 22.6644 2.67606 22.8388 2.74354 23.0014C2.81103 23.1641 2.90995 23.3118 3.03462 23.4361L5.56207 25.9636C6.73143 24.3865 8.43795 23.2923 10.3592 22.8877C12.2804 22.4832 14.2832 22.7964 15.9892 23.768C17.6953 24.7397 18.9864 26.3026 19.6185 28.1614C20.2506 30.0202 20.1801 32.0461 19.4201 33.8564C18.8664 35.1885 17.9591 36.344 16.7963 37.1978L19.3237 39.7252C19.5775 39.9719 19.9176 40.1098 20.2715 40.1098C20.6254 40.1098 20.9654 39.9719 21.2193 39.7252L27.1309 33.8243C27.2537 33.6988 27.4003 33.5991 27.5621 33.531C27.724 33.463 27.8978 33.428 28.0733 33.4281Z" fill="#DB132A"/>
</svg>
