<svg xmlns="http://www.w3.org/2000/svg" fill="#FFFFFF" viewBox="0 0 72 72" class="icon--decorative" role="presentation">
  <title>A document with a lightbulb</title>
  <g class="documents_document--idea">
    <path fill-rule="evenodd" d="M8.176 7.711a2.14 2.14 0 0 0-1.526.648A2.3 2.3 0 0 0 6 9.969v46.826a2.3 2.3 0 0 0 .65 1.609c.412.42.961.647 1.526.647h25.06a2 2 0 0 1 0 4H8.176a6.137 6.137 0 0 1-4.38-1.846A6.299 6.299 0 0 1 2 56.795V9.968c0-1.647.641-3.234 1.795-4.41A6.137 6.137 0 0 1 8.176 3.71h29.596c1.649 0 3.223.669 4.378 1.845l7.998 8.151a6.3 6.3 0 0 1 1.794 4.409v8.88a2 2 0 0 1-4 0v-8.88a2.3 2.3 0 0 0-.65-1.608l-7.996-8.15a2.137 2.137 0 0 0-1.524-.647H8.176Zm3.221 13.365a2 2 0 0 1 2-2h25.06a2 2 0 1 1 0 4h-25.06a2 2 0 0 1-2-2Zm48.24 3.746a2 2 0 0 1 .846 2.7l-1.753 3.353a2 2 0 0 1-3.545-1.853l1.754-3.354a2 2 0 0 1 2.699-.846Zm-48.24 4.308a2 2 0 0 1 2-2h16.707a2 2 0 1 1 0 4H13.397a2 2 0 0 1-2-2Zm33.687 3.387a12.275 12.275 0 0 1 12.789 12.279 12.27 12.27 0 0 1-2.001 6.714c-1.06 1.621-4.153 3.922-4.153 3.922v3.757a2 2 0 0 1-2 2h-8.214a2 2 0 0 1-2-2v-3.753s-2.845-2.06-3.874-3.493a12.274 12.274 0 0 1 9.453-19.426Zm4.453 4.987a8.274 8.274 0 1 0-7.235 14.866 2 2 0 0 1 1.203 1.835v2.984h4.214v-2.984a2 2 0 0 1 1.198-1.832 8.274 8.274 0 0 0 4.956-7.58v-.002a8.274 8.274 0 0 0-4.336-7.287Zm-38.14-.468a2 2 0 0 1 2-2h8.353a2 2 0 0 1 0 4h-8.353a2 2 0 0 1-2-2Zm58.511.073a2 2 0 0 1-1.31 2.507l-3.61 1.13a2 2 0 0 1-1.196-3.817l3.61-1.13a2 2 0 0 1 2.506 1.31Zm-8.322 12.343a2 2 0 0 1 2.698-.845l3.354 1.754a2 2 0 1 1-1.853 3.544l-3.354-1.754a2 2 0 0 1-.845-2.699ZM39.506 66.29a2 2 0 0 1 2-2h8.213a2 2 0 1 1 0 4h-8.214a2 2 0 0 1-2-2Z" class="path-fill" clip-rule="evenodd"/>
  </g>
</svg>
