<svg xmlns="http://www.w3.org/2000/svg" fill="#FFFFFF" viewBox="0 0 72 72" class="icon--decorative" role="presentation">
  <title>Pencil and ruler</title>
  <g class="etc_pencil-ruler">
    <path fill-rule="evenodd" d="M36.2 64.6a6.4 6.4 0 0 0 6.4 6.4h17.6a6.4 6.4 0 0 0 6.4-6.4V7.4A6.4 6.4 0 0 0 60.2 1H42.6a6.4 6.4 0 0 0-6.4 6.4v57.2Zm4-57.2A2.4 2.4 0 0 1 42.6 5h17.6a2.4 2.4 0 0 1 2.4 2.4v57.2a2.4 2.4 0 0 1-2.4 2.4H42.6a2.4 2.4 0 0 1-2.4-2.4v-6.8h8.267a2 2 0 1 0 0-4H40.2v-9.2h8.267a2 2 0 0 0 0-4H40.2v-9.2h8.267a2 2 0 1 0 0-4H40.2v-9.2h8.267a2 2 0 1 0 0-4H40.2V7.4ZM5.402 19.782a2.033 2.033 0 0 0-.002.085V60.2A10.8 10.8 0 0 0 16.2 71v-2l.013 2a10.8 10.8 0 0 0 10.728-10.8v-4.65a2.007 2.007 0 0 0 0-.966V20.349a2.005 2.005 0 0 0-.02-1.043 10.799 10.799 0 0 0-1.13-4.178l-.002-.003-5.864-11.729-.002-.004a4.2 4.2 0 0 0-7.504 0l-.003.004-5.864 11.73-.001.002a10.8 10.8 0 0 0-1.15 4.654ZM16.066 5.109a.2.2 0 0 1 .283.08l5.865 11.73.002.004c.154.305.284.62.389.944H9.736a6.8 6.8 0 0 1 .39-.944l.002-.005L15.991 5.19a.2.2 0 0 1 .074-.08ZM9.4 60.199v-3.132h13.541V60.2a6.8 6.8 0 0 1-6.748 6.8A6.8 6.8 0 0 1 9.4 60.2Zm0-38.332v31.2h13.541v-31.2H9.4Z" class="path-fill fill-path" clip-rule="evenodd"/>
  </g>
</svg>
