<svg width="40" height="40" viewBox="0 0 40 40" fill="#FFFFFF" class="icon--decorative" role="presentation" xmlns="http://www.w3.org/2000/svg">
  <title>People connect</title>
<g clip-path="url(#clip0_690_1455)">
<path d="M10.0454 6.1518C10.3375 6.1518 10.6385 6.05444 10.8775 5.8597C16.1618 1.58442 23.8361 1.58442 29.1205 5.8597C29.687 6.31998 30.5279 6.23147 30.9881 5.66497C31.4484 5.09847 31.3599 4.25758 30.7934 3.7973C24.5354 -1.26577 15.4626 -1.26577 9.20455 3.7973C8.63806 4.25758 8.54954 5.09847 9.00982 5.66497C9.27537 5.99248 9.65598 6.16066 10.0454 6.16066V6.1518Z" fill-rule="evenodd" class="path-fill" clip-rule="evenodd"/>
<path d="M13.3569 9.79878C12.7904 10.2591 12.7019 11.0999 13.1622 11.6664C13.6224 12.2418 14.4633 12.3215 15.0298 11.8612C17.9154 9.53323 22.0933 9.53323 24.9789 11.8612C25.2268 12.0559 25.5189 12.1533 25.811 12.1533C26.2004 12.1533 26.5811 11.9851 26.8466 11.6576C27.3069 11.0911 27.2184 10.2502 26.6519 9.78993C22.8015 6.67419 17.2162 6.67419 13.3657 9.78993L13.3569 9.79878Z" fill-rule="evenodd" class="path-fill" clip-rule="evenodd"/>
<path d="M39.4429 29.0244C38.9207 28.6527 38.3542 28.334 37.77 28.0773C37.6195 28.0153 37.4602 27.9622 37.3097 27.9091C38.9207 26.9001 39.9917 25.1209 39.9917 23.0851C39.9917 19.9516 37.4425 17.4024 34.309 17.4024C31.1756 17.4024 28.6263 19.9516 28.6263 23.0851C28.6263 25.1209 29.6974 26.9001 31.3084 27.9003C29.6443 28.5022 28.1572 29.5998 27.1039 31.1134C25.4133 29.7591 23.3508 28.8916 21.1291 28.6704C22.5454 28.4402 23.8554 27.7764 24.891 26.7407C26.201 25.4307 26.918 23.687 26.918 21.837C26.918 19.987 26.201 18.2433 24.891 16.9332C23.581 15.6232 21.8461 14.9062 19.9873 14.9062C18.1373 14.9062 16.3936 15.6232 15.0924 16.9332C13.7824 18.2433 13.0654 19.9782 13.0654 21.837C13.0654 23.687 13.7824 25.4307 15.0924 26.7407C16.1369 27.7852 17.4557 28.4491 18.8808 28.6792C18.7481 28.6969 18.6153 28.6969 18.4737 28.7146C16.3759 28.9979 14.4639 29.8565 12.8795 31.1222C11.8262 29.6175 10.3391 28.5199 8.66618 27.9091C10.2772 26.9001 11.3482 25.1209 11.3482 23.0939C11.3482 19.9605 8.79895 17.4112 5.66552 17.4112C2.54979 17.4024 0.000548629 19.9516 0.000548629 23.0851C0.000548629 25.1209 1.08043 26.9001 2.68256 27.9091C2.53208 27.9622 2.37275 28.0153 2.22228 28.0773C1.62923 28.3251 1.07158 28.6438 0.549343 29.0244C-0.043709 29.4493 -0.185333 30.2813 0.248391 30.8744C0.673264 31.4674 1.50531 31.6091 2.09836 31.1753C2.46127 30.9098 2.85074 30.6885 3.26676 30.5115C4.77152 29.8653 6.44445 29.8476 7.96691 30.4584C9.25038 30.9718 10.2949 31.8835 10.9853 33.0607C9.79918 34.6009 8.99369 36.442 8.72814 38.4601C8.63078 39.186 9.14416 39.8587 9.86999 39.956C9.93195 39.956 9.98506 39.9649 10.047 39.9649C10.702 39.9649 11.2685 39.4781 11.357 38.8142C11.8793 34.9284 14.9508 31.8569 18.8366 31.3347C23.6164 30.6885 27.9979 34.0521 28.6441 38.8142C28.7414 39.54 29.4053 40.0534 30.14 39.956C30.8658 39.8587 31.3792 39.186 31.2818 38.4601C31.0074 36.4154 30.1931 34.5832 29.0247 33.0519C29.7062 31.8746 30.7507 30.9629 32.0342 30.4495C33.5566 29.8388 35.2296 29.8565 36.7343 30.5026C37.1415 30.6797 37.5398 30.9009 37.9027 31.1665C38.4958 31.5914 39.3278 31.4586 39.7527 30.8655C40.1776 30.2725 40.0448 29.4404 39.4518 29.0156L39.4429 29.0244ZM5.68322 20.0578C7.35616 20.0578 8.71044 21.421 8.71044 23.0851C8.71044 24.7491 7.34731 26.1123 5.68322 26.1123C4.01914 26.1123 2.656 24.7491 2.656 23.0851C2.656 21.4121 4.01914 20.0578 5.68322 20.0578ZM15.7208 21.8458C15.7208 20.704 16.1634 19.633 16.9689 18.8186C17.7744 18.0131 18.8454 17.5706 19.9873 17.5706C21.1291 17.5706 22.2001 18.0131 23.0056 18.8186C23.8111 19.6241 24.2537 20.704 24.2537 21.8458C24.2537 22.9877 23.8111 24.0587 23.0056 24.8642C22.2001 25.6697 21.1291 26.1123 19.9873 26.1123C18.8454 26.1123 17.7744 25.6697 16.9689 24.8554C16.1634 24.0499 15.7208 22.9788 15.7208 21.837V21.8458ZM34.309 20.0578C35.982 20.0578 37.3362 21.4121 37.3362 23.0851C37.3362 24.758 35.9731 26.1123 34.309 26.1123C32.6449 26.1123 31.2818 24.7491 31.2818 23.0851C31.2818 21.421 32.6449 20.0578 34.309 20.0578Z" fill-rule="evenodd" class="path-fill" clip-rule="evenodd"/>
</g>
<defs>
<clipPath id="clip0_690_1455">
<rect width="40" height="39.9734" fill="white"/>
</clipPath>
</defs>
</svg>
