<svg width="40" height="40" viewBox="0 0 40 40" fill="#FFFFFF" class="icon--decorative" role="presentation" xmlns="http://www.w3.org/2000/svg">
  <title>Person chat</title>
<path d="M32.2436 0.258124C31.5104 0.0914928 30.7522 0 30.0024 0H29.9524C24.4869 0 20.0212 4.43231 19.9962 9.90616C19.9878 12.1557 20.7293 14.322 22.1041 16.08L21.1043 21.812C21.0209 22.2952 21.2292 22.7868 21.6375 23.0618C21.8458 23.2034 22.0957 23.2784 22.3373 23.2784C22.5623 23.2784 22.7956 23.2201 22.9955 23.0951L28.2778 19.8373C33.4683 20.7538 38.5423 17.4379 39.742 12.239C40.9751 6.8735 37.6175 1.49953 32.2519 0.258124H32.2436ZM37.3009 11.6809C36.3761 15.705 32.3436 18.2295 28.3194 17.2964C28.0028 17.2214 27.6612 17.2797 27.3863 17.4546L24.0453 19.5125L24.6619 15.9466C24.7285 15.5716 24.6202 15.1884 24.3702 14.9051C23.1538 13.5304 22.4873 11.7641 22.4956 9.92284C22.5123 5.8237 25.8533 2.49947 29.9524 2.49947H30.0024C30.5689 2.49947 31.1355 2.56611 31.6854 2.69108C35.7095 3.61589 38.234 7.6484 37.3009 11.6726V11.6809Z" fill-rule="evenodd" class="path-fill" clip-rule="evenodd"/>
<path d="M11.2525 28.7442C15.0433 28.7442 18.126 25.6615 18.126 21.8706C18.126 18.0798 15.0433 14.9971 11.2525 14.9971C7.46159 14.9971 4.37891 18.0798 4.37891 21.8706C4.37891 25.6615 7.46159 28.7442 11.2525 28.7442ZM11.2525 17.4965C13.6686 17.4965 15.6265 19.4628 15.6265 21.8706C15.6265 24.2784 13.6686 26.2447 11.2525 26.2447C8.8363 26.2447 6.87838 24.2784 6.87838 21.8706C6.87838 19.4628 8.8363 17.4965 11.2525 17.4965Z" fill-rule="evenodd" class="path-fill" clip-rule="evenodd"/>
<path d="M18.124 31.077C15.7162 29.2441 12.7335 28.4524 9.73412 28.8524C4.68518 29.5272 0.686013 33.5265 0.0111554 38.5755C-0.080492 39.2586 0.402747 39.8918 1.08594 39.9834C1.14426 39.9834 1.20258 39.9918 1.25257 39.9918C1.8691 39.9918 2.40232 39.5335 2.48564 38.9086C3.01052 34.9761 6.13487 31.8517 10.0674 31.3268C12.4086 31.0186 14.7331 31.6268 16.6077 33.0599C18.4823 34.4929 19.6903 36.5675 20.0069 38.9086C20.0986 39.5918 20.7235 40.0751 21.415 39.9834C22.0982 39.8918 22.5814 39.2586 22.4898 38.5755C22.0898 35.5761 20.5402 32.91 18.1323 31.0687L18.124 31.077Z" fill-rule="evenodd" class="path-fill" clip-rule="evenodd"/>
</svg>
