<svg width="43" height="43" viewBox="0 0 43 43" fill="none" xmlns="http://www.w3.org/2000/svg">
<path d="M32.1971 42.8287C30.0582 42.8279 27.9648 42.2107 26.1677 41.0509H26.1141C16.5231 34.5857 8.2689 26.3315 1.80364 16.7405C0.404888 14.5891 -0.209701 12.0215 0.0633955 9.46997C0.336492 6.91847 1.48059 4.53905 3.30297 2.73249L4.68449 1.35097C5.55354 0.485752 6.72992 0 7.95623 0C9.18254 0 10.3589 0.485752 11.228 1.35097L17.0539 7.17691C17.9042 8.02996 18.3818 9.18528 18.3819 10.3897C18.3834 10.9979 18.265 11.6003 18.0334 12.1626C17.8019 12.7249 17.4618 13.2361 17.0325 13.6668C16.6676 14.034 16.4627 14.5307 16.4627 15.0484C16.4627 15.566 16.6676 16.0627 17.0325 16.4299L26.339 25.7471C26.7078 26.1093 27.2036 26.313 27.7205 26.3147C27.9769 26.3162 28.231 26.2667 28.4682 26.1693C28.7053 26.0719 28.9208 25.9284 29.1021 25.7471C29.9715 24.8786 31.1502 24.3908 32.3792 24.3908C33.6081 24.3908 34.7868 24.8786 35.6562 25.7471L41.4715 31.5624C41.9012 31.992 42.2421 32.502 42.4746 33.0634C42.7072 33.6248 42.8269 34.2265 42.8269 34.8341C42.8269 35.4417 42.7072 36.0434 42.4746 36.6048C42.2421 37.1661 41.9012 37.6762 41.4715 38.1058L40.09 39.4981C39.0586 40.5458 37.8304 41.3794 36.4759 41.951C35.1213 42.5225 33.6672 42.8208 32.1971 42.8287ZM27.592 38.7912C29.2329 39.8335 31.1794 40.2867 33.112 40.0765C35.0445 39.8664 36.8481 39.0052 38.2265 37.6346L39.6402 36.2745C40.0051 35.9073 40.2099 35.4107 40.2099 34.893C40.2099 34.3753 40.0051 33.8787 39.6402 33.5115L33.8142 27.6962C33.6331 27.5143 33.4178 27.3699 33.1807 27.2713C32.9437 27.1728 32.6894 27.1221 32.4327 27.1221C32.176 27.1221 31.9217 27.1728 31.6847 27.2713C31.4476 27.3699 31.2323 27.5143 31.0512 27.6962C30.1821 28.5615 29.0057 29.0472 27.7794 29.0472C26.5531 29.0472 25.3767 28.5615 24.5077 27.6962L15.1905 18.379C14.3272 17.5068 13.8429 16.3291 13.8429 15.1019C13.8429 13.8747 14.3272 12.6971 15.1905 11.8248C15.3717 11.6435 15.5152 11.4281 15.6127 11.1909C15.7101 10.9538 15.7595 10.6997 15.7581 10.4433C15.7595 10.1869 15.7101 9.93282 15.6127 9.69568C15.5152 9.45854 15.3717 9.24308 15.1905 9.06178L9.3431 3.2037C8.9741 2.83812 8.47567 2.63302 7.95623 2.63302C7.43679 2.63302 6.93836 2.83812 6.56935 3.2037L5.19854 4.58522C3.81482 5.95343 2.94364 7.75583 2.7311 9.69013C2.51856 11.6244 2.97759 13.573 4.03121 15.209C10.2928 24.5197 18.2928 32.5341 27.592 38.8127V38.7912Z" fill="#DB132A"/>
</svg>
