<svg xmlns="http://www.w3.org/2000/svg" fill="#FFFFFF" viewBox="0 0 72 72" class="icon--decorative" role="presentation">
  <title>Robot</title>
  <g class="etc_robot">
    <path fill-rule="evenodd" d="M16.473 10.753C21.65 4.26 29.795 2 35.997 2c6.2.002 14.345 2.263 19.523 8.754 2.926 3.666 4.771 8.507 4.896 14.713H68a2 2 0 1 1 0 4h-7.731c-.298 3.305-1.036 6.944-2.29 10.94a10.534 10.534 0 0 1 10.06 12.06l-2.327 15.824a2 2 0 0 1-3.957-.582l2.326-15.824a6.536 6.536 0 0 0-6.465-7.485H14.38a6.55 6.55 0 0 0-6.476 7.487v.003l2.329 15.819a2 2 0 0 1-3.957.582l-2.33-15.823v-.005a10.55 10.55 0 0 1 10.069-12.056c-1.254-3.996-1.993-7.635-2.29-10.94H4a2 2 0 0 1 0-4h7.579c.124-6.206 1.969-11.048 4.894-14.714ZM18.218 40.4h35.558c1.669-4.983 2.469-9.265 2.621-12.936 0-.052.002-.103.006-.153.235-6.387-1.497-10.914-4.01-14.063C48.213 8.007 41.423 6.001 35.998 6m-17.78 34.4C13.61 26.639 15.63 18.223 19.6 13.247 23.78 8.005 30.57 6 35.997 6M25.07 19.544a6.267 6.267 0 1 1 4.796 11.58 6.267 6.267 0 0 1-4.796-11.58Zm2.398 3.523a2.267 2.267 0 1 0 0 4.533 2.267 2.267 0 0 0 0-4.533Zm12.635-2.165a6.267 6.267 0 1 1 8.863 8.863 6.267 6.267 0 0 1-8.863-8.863Zm4.431 2.165a2.266 2.266 0 1 0 0 4.532 2.266 2.266 0 0 0 0-4.532ZM14.8 55.2a2 2 0 0 1 2-2h21.333a2 2 0 0 1 2 2V68a2 2 0 0 1-2 2H16.8a2 2 0 0 1-2-2V55.2Zm4 2V66h17.333v-8.8H18.8Zm25.867-2a2 2 0 0 1 2-2H55.2a2 2 0 1 1 0 4h-8.533a2 2 0 0 1-2-2Zm0 8.533a2 2 0 0 1 2-2H55.2a2 2 0 0 1 0 4h-8.533a2 2 0 0 1-2-2Z" class="path-fill" clip-rule="evenodd"/>
  </g>
</svg>
