<svg xmlns="http://www.w3.org/2000/svg" fill="#FFFFFF" viewBox="0 0 72 72" class="icon--decorative" role="presentation">
  <title>Rocketship</title>
  <g class="transportation_rocket-speed">
      <path class="path-fill fill-path" d="m70.22 10.072.767-6.892-1.934-.214-.214-1.934-6.9.768a25.871 25.871 0 0 0-15.465 7.436L27.852 27.849l-2.877-.953a21.048 21.048 0 0 0-11.528-.515 21.13 21.13 0 0 0-10.079 5.618l-.739.738a4.322 4.322 0 0 0-1.108 1.886 4.277 4.277 0 0 0-.048 2.187 4.334 4.334 0 0 0 2.848 3.12l11.138 3.713L28.357 56.55l3.713 11.14a4.321 4.321 0 0 0 3.12 2.847 4.39 4.39 0 0 0 2.187-.049 4.29 4.29 0 0 0 1.876-1.108l.748-.738a21.14 21.14 0 0 0 5.618-10.08c.904-3.82.72-7.804-.515-11.527l-.953-2.867 18.633-18.623a25.925 25.925 0 0 0 7.435-15.464v-.01ZM4.932 38.073l.612-1.847a.517.517 0 0 1-.194-.127.514.514 0 0 1-.107-.204.435.435 0 0 1 0-.223.404.404 0 0 1 .117-.195l-1.37-1.38h-.01l1.39 1.37.738-.738a17.267 17.267 0 0 1 8.223-4.588 17.21 17.21 0 0 1 9.408.418l1.03.34-8.786 8.787-10.439-3.48-.612 1.847v.02Zm38.295 9.573-1.808.603a17.305 17.305 0 0 1 .428 9.408 17.267 17.267 0 0 1-4.588 8.223l-.738.739 1.36 1.36h.01l-1.38-1.36a.403.403 0 0 1-.194.117.434.434 0 0 1-.224 0 .452.452 0 0 1-.33-.301l-1.847.612h.039l1.807-.613-3.48-10.439 8.797-8.776.34 1.01 1.895-.631-.087.029v.02Zm25.038-37.8-1.915-.213a22.04 22.04 0 0 1-6.318 13.141l1.497 1.497-.233-.233-1.264-1.274L30.057 52.73 19.26 41.922l29.965-29.945a22.04 22.04 0 0 1 13.14-6.318l4.482-.496-.496 4.48 1.944.215h-.03v-.01Z"/>
      <path class="path-fill fill-path" d="M22 55.248a1.95 1.95 0 0 0-1.943 1.944c0 .69-.136 1.37-.399 2.002a5.279 5.279 0 0 1-1.137 1.701l1.37 1.38h-.01l-1.36-1.38c-.418.418-1.507 1.07-3.246 1.847-1.643.739-3.616 1.477-5.53 2.138-1.39.476-2.732.914-3.889 1.273.36-1.156.797-2.498 1.274-3.888.66-1.914 1.4-3.887 2.138-5.53.777-1.74 1.429-2.828 1.837-3.236l-1.38-1.38 1.37 1.38a5.194 5.194 0 0 1 3.363-1.527 1.948 1.948 0 0 0-.252-3.887 9.13 9.13 0 0 0-5.861 2.653c-.992.982-1.886 2.712-2.644 4.403-.797 1.788-1.584 3.878-2.265 5.851a142.037 142.037 0 0 0-1.691 5.24c-.214.69-.38 1.263-.496 1.661-.058.204-.107.36-.136.467-.02.058-.029.097-.039.126v.03s.01 0 1.167.33l-1.167-.33a1.942 1.942 0 0 0 2.4 2.4L2.95 69.04l.525 1.876h.03c.028 0 .067-.02.126-.039.106-.03.262-.078.466-.136.399-.117.972-.282 1.662-.496 1.38-.418 3.266-1.01 5.239-1.69 1.963-.681 4.053-1.459 5.851-2.266 1.701-.758 3.421-1.652 4.413-2.643a9.126 9.126 0 0 0 1.983-2.965c.456-1.108.7-2.294.69-3.499a1.95 1.95 0 0 0-1.944-1.944l.01.01ZM70.987 3.17a1.935 1.935 0 0 0-2.148-2.148l.214 1.935 1.934.214Z"/>
  </g>
</svg>
