<svg width="40" height="40" viewBox="0 0 40 40" fill="#FFFFFF" class="icon--decorative" role="presentation" xmlns="http://www.w3.org/2000/svg">
<title>Settings icon</title>
<path d="M21.5077 27.6179C22.5239 26.8019 22.8821 25.4113 22.374 24.2123C21.8909 23.0633 20.7747 22.3389 19.5586 22.3639H18.3092C18.3092 22.3639 18.151 22.3639 18.1093 22.3639C17.8844 22.3389 17.7095 22.139 17.7345 21.9059C17.7345 21.8642 17.7345 21.831 17.7345 21.7894V20.5653C17.7595 19.3163 17.0348 18.2007 15.9187 17.7344C14.7443 17.2098 13.3449 17.5178 12.5203 18.4754L11.6707 19.4246C11.4625 19.6161 11.1376 19.6079 10.9461 19.3997L10.1548 18.5337C9.3135 17.5595 7.91416 17.2514 6.77303 17.7593C5.62358 18.2422 4.89892 19.358 4.92391 20.5737V21.8226C4.92391 21.8226 4.92391 21.9392 4.92391 21.9642C4.90725 22.1141 4.82396 22.2056 4.77398 22.239C4.724 22.2723 4.61572 22.3472 4.46579 22.3305C4.41581 22.3305 4.37417 22.3305 4.32419 22.3305H3.09977C1.84203 22.3056 0.734224 23.03 0.284437 24.1207C-0.290291 25.3281 0.0178932 26.7602 1.10071 27.6595L2.00029 28.3257C2.12523 28.4589 2.13356 28.617 2.13356 28.692C2.13356 28.7752 2.10025 28.9252 1.98363 29.0417L1.0674 29.8577C0.092857 30.6904 -0.215331 32.0976 0.292762 33.2383C0.775867 34.3874 1.92533 35.1201 3.1081 35.0868H4.35751C4.35751 35.0868 4.43247 35.0868 4.44913 35.0868C4.59906 35.1034 4.69069 35.1866 4.724 35.2366C4.76565 35.2865 4.83228 35.3948 4.81562 35.5447C4.81562 35.5863 4.81562 35.6363 4.81562 35.6863V36.9102C4.79063 38.1592 5.51529 39.275 6.63143 39.7412C7.01458 39.9161 7.42272 39.9994 7.82253 39.9994C8.65547 39.9994 9.47175 39.6496 10.0215 39.0002L10.8711 38.0509C11.0793 37.8594 11.4042 37.8678 11.5874 38.0676L12.4204 39.0002C13.2783 39.9494 14.636 40.2325 15.7604 39.7162C16.9099 39.2333 17.6346 38.1176 17.6096 36.9019V35.6529C17.6096 35.6529 17.6096 35.578 17.6096 35.5613C17.6262 35.4115 17.7095 35.3199 17.7678 35.2783C17.8178 35.2366 17.9261 35.17 18.076 35.1867C18.126 35.1867 18.1676 35.1867 18.2176 35.1867H19.442C20.6748 35.2033 21.8076 34.4872 22.274 33.3715C22.7988 32.1974 22.4906 30.7986 21.5327 29.9743L20.5832 29.125C20.3916 28.9168 20.3999 28.5921 20.5998 28.4089L21.5077 27.6013V27.6179ZM18.7424 30.8319C18.8007 30.8986 18.859 30.9568 18.9339 31.0234L19.8835 31.8728C20.0251 31.9893 20.0667 32.1892 19.9751 32.389C19.8918 32.5888 19.7086 32.7221 19.4587 32.7054H18.2676C17.5179 32.6471 16.7933 32.8636 16.2019 33.3299C15.5939 33.8128 15.2107 34.5122 15.1274 35.2866C15.1108 35.4198 15.1108 35.5447 15.1108 35.6446V36.9186C15.1108 37.135 14.9941 37.3265 14.7526 37.4181C14.586 37.4931 14.3944 37.4514 14.2695 37.3182L13.4199 36.3691C12.2954 35.1451 10.3797 35.0701 9.15524 36.1942C9.09693 36.2441 9.03863 36.3024 8.97199 36.3773L8.12239 37.3265C8.00578 37.4681 7.80588 37.5097 7.60597 37.4181C7.40607 37.3349 7.28112 37.1434 7.28945 36.9019V35.7113C7.35609 34.9619 7.13119 34.2375 6.66475 33.6463C6.1983 33.0551 5.48198 32.6554 4.71567 32.5722C4.5824 32.5555 4.44913 32.5472 4.34918 32.5555H3.07478C2.83323 32.5388 2.66664 32.439 2.57502 32.2058C2.50006 32.0393 2.5417 31.8394 2.69996 31.7062L3.64951 30.8568C4.2409 30.3156 4.59073 29.5663 4.62405 28.767C4.65737 27.9593 4.37416 27.1932 3.83275 26.602C3.77445 26.5354 3.70782 26.4772 3.64951 26.4189C3.61619 26.3939 3.58287 26.3606 3.54956 26.3356L2.64166 25.6611C2.49173 25.5362 2.45008 25.3365 2.55836 25.1033C2.64165 24.9035 2.83323 24.7952 3.07478 24.7869H4.26589C5.83181 24.9201 7.23115 23.7794 7.40606 22.2141C7.42272 22.0475 7.43105 21.8893 7.42273 21.7894V20.5154C7.42273 20.2989 7.53934 20.1074 7.77256 20.0158C7.93915 19.9409 8.13905 19.9825 8.28065 20.149L9.09693 21.0483C10.2214 22.2723 12.1372 22.3472 13.3616 21.2231C13.4199 21.1732 13.4782 21.1149 13.5448 21.04L14.3944 20.0908C14.511 19.9492 14.7109 19.9076 14.9108 19.9992C15.1108 20.0824 15.2357 20.2739 15.2274 20.5154V21.7144C15.1107 23.2881 16.2852 24.6703 17.8595 24.8201C18.0177 24.8368 18.1843 24.8368 18.3426 24.8201H19.567C19.7919 24.8201 19.9751 24.9367 20.0584 25.1366C20.1334 25.3114 20.0751 25.5113 19.9335 25.6279C19.9085 25.6445 19.8835 25.6612 19.8668 25.6861L18.9173 26.5354C17.6929 27.6595 17.6179 29.5746 18.734 30.7903L18.7424 30.8319Z" fill-rule="evenodd" class="path-fill" clip-rule="evenodd"/>
<path d="M11.2819 24.5791C8.98297 24.5791 7.11719 26.4442 7.11719 28.7423C7.11719 31.0405 8.98297 32.9056 11.2819 32.9056C13.5808 32.9056 15.4466 31.0405 15.4466 28.7423C15.4466 26.4442 13.5808 24.5791 11.2819 24.5791ZM11.2819 30.4076C10.3657 30.4076 9.616 29.6583 9.616 28.7423C9.616 27.8264 10.3657 27.077 11.2819 27.077C12.1981 27.077 12.9478 27.8264 12.9478 28.7423C12.9478 29.6583 12.1981 30.4076 11.2819 30.4076Z" fill-rule="evenodd" class="path-fill" clip-rule="evenodd"/>
<path d="M38.0517 11.6733C37.9267 11.5401 37.9101 11.3818 37.9184 11.3069C37.9184 11.2236 37.9517 11.0738 38.0683 10.9572L38.9846 10.1412C39.9591 9.30026 40.2673 7.90137 39.7592 6.76064C39.2761 5.61158 38.1516 4.90385 36.9439 4.91218H35.6945C35.6945 4.91218 35.5779 4.91218 35.5529 4.91218C35.328 4.8872 35.1614 4.679 35.1864 4.45418C35.1864 4.40422 35.1864 4.36266 35.1864 4.3127V3.08863C35.2114 1.83965 34.4867 0.723884 33.3706 0.257601C32.1961 -0.275294 30.7968 0.0411244 29.9722 0.998671L29.1226 1.9479C28.9143 2.13941 28.5978 2.13107 28.4062 1.93123L27.615 0.990336C26.757 0.0411163 25.3993 -0.241972 24.2749 0.27427C23.1254 0.757206 22.4008 1.87296 22.4258 3.08863V4.3376C22.4258 4.3376 22.4258 4.41253 22.4258 4.42918C22.4091 4.57906 22.3258 4.67071 22.2758 4.70402C22.2258 4.74565 22.1176 4.80392 21.9676 4.7956C21.9177 4.7956 21.876 4.7956 21.826 4.7956H20.6016C19.3522 4.77062 18.2361 5.49497 17.7696 6.61072C17.2449 7.78475 17.5531 9.18367 18.5109 10.008L19.4605 10.8573C19.5854 10.9905 19.6021 11.1487 19.5938 11.2236C19.5854 11.2986 19.5604 11.4568 19.4438 11.5734L18.5109 12.406C17.5614 13.2636 17.2782 14.6209 17.7946 15.7533C18.2777 16.9023 19.4355 17.635 20.6099 17.6017H21.8594C21.8594 17.6017 21.9593 17.6017 21.9676 17.6017C22.1176 17.6267 22.2009 17.7183 22.2342 17.7682C22.2675 17.8182 22.3258 17.9348 22.3008 18.0763C22.2925 18.1429 22.2841 18.2179 22.2841 18.2928V19.5168C22.2592 20.7657 22.9838 21.8815 24.1 22.3478C25.2744 22.8724 26.6737 22.5643 27.4983 21.6067L28.3479 20.6575C28.5562 20.466 28.881 20.4743 29.0643 20.6742L29.8806 21.5902C30.4469 22.248 31.2799 22.606 32.1045 22.606C32.496 22.606 32.8958 22.5227 33.2623 22.3645C34.4117 21.8815 35.1364 20.7658 35.1114 19.5501V18.3011C35.1114 18.3011 35.1114 18.1429 35.1114 18.1013C35.1281 17.9514 35.2114 17.8599 35.2613 17.8182C35.3113 17.7766 35.4196 17.71 35.5695 17.7267C35.6112 17.7267 35.6445 17.7267 35.6861 17.7267H36.9106C38.1433 17.7433 39.2761 17.0272 39.7425 15.9114C40.2673 14.7374 39.9591 13.3386 39.0012 12.5143L38.0517 11.665V11.6733ZM37.452 14.9206C37.3687 15.1205 37.1938 15.237 36.9355 15.237H35.7361C34.9865 15.1788 34.2535 15.4118 33.6704 15.8948C33.0707 16.3944 32.6959 17.0938 32.6293 17.8598C32.6126 18.018 32.6126 18.1846 32.6293 18.3511V19.5751C32.6293 19.7916 32.5126 19.9831 32.2794 20.0747C32.1128 20.1496 31.9129 20.108 31.7797 19.9498L30.9301 19.0005C30.3387 18.3594 29.5224 18.0264 28.7061 18.0264C27.9731 18.0264 27.2401 18.2928 26.6654 18.8174C26.6071 18.8757 26.5488 18.9339 26.4738 19.0089L25.6242 19.9581C25.5076 20.0997 25.3077 20.1413 25.1078 20.0497C24.9079 19.9664 24.783 19.7749 24.7913 19.5334V18.376C24.8829 17.6516 24.708 16.9189 24.2832 16.3194C23.8334 15.6866 23.1671 15.262 22.4008 15.1288C22.2092 15.0955 22.0259 15.0871 21.8594 15.0871H20.5849C20.3517 15.0871 20.1768 14.9705 20.0852 14.7374C20.0102 14.5708 20.0519 14.3794 20.1851 14.2545L21.1347 13.4135C21.7261 12.8723 22.0759 12.1229 22.1092 11.3235C22.1425 10.5159 21.8594 9.74985 21.3179 9.15867C21.2596 9.09206 21.193 9.03379 21.1264 8.96718L20.1768 8.11786C20.0352 8.00129 19.9936 7.80146 20.0852 7.60162C20.1685 7.40178 20.3767 7.28521 20.6016 7.28521H21.7927C22.5424 7.35182 23.267 7.12701 23.8584 6.66072C24.4664 6.17779 24.8496 5.47839 24.9329 4.71235C24.9496 4.57913 24.9496 4.44585 24.9496 4.34593V3.07196C24.9496 2.85547 25.0662 2.66398 25.3077 2.57239C25.4743 2.49745 25.6659 2.53915 25.7658 2.63907L26.5488 3.57163C26.5488 3.57163 26.5738 3.59655 26.5904 3.6132C27.7149 4.83719 29.6307 4.9122 30.8551 3.78813C30.9134 3.73817 30.9717 3.6798 31.0383 3.60487L31.8879 2.65563C32.0045 2.51408 32.2045 2.47246 32.4044 2.56405C32.6043 2.64732 32.7292 2.83882 32.7209 3.08029V4.27103C32.5876 5.8364 33.7287 7.23527 35.303 7.41013C35.4612 7.42678 35.6278 7.43512 35.7195 7.4268H36.9939C37.2187 7.4268 37.402 7.5433 37.4936 7.77644C37.5686 7.94297 37.5269 8.14279 37.3687 8.27601L36.4191 9.117C35.8277 9.65822 35.4779 10.4076 35.4446 11.207C35.4113 12.0146 35.6945 12.7806 36.2359 13.3718C36.2942 13.4384 36.3608 13.4968 36.4275 13.5634L37.377 14.4126C37.5186 14.5292 37.5602 14.7291 37.4686 14.929L37.452 14.9206Z" fill-rule="evenodd" class="path-fill" clip-rule="evenodd"/>
<path d="M28.7702 7.09375C26.4713 7.09375 24.6055 8.95888 24.6055 11.257C24.6055 13.5551 26.4713 15.4202 28.7702 15.4202C31.0691 15.4202 32.9349 13.5551 32.9349 11.257C32.9349 8.95888 31.0691 7.09375 28.7702 7.09375ZM28.7702 12.9223C27.8539 12.9223 27.1043 12.1729 27.1043 11.257C27.1043 10.3411 27.8539 9.5917 28.7702 9.5917C29.6864 9.5917 30.436 10.3411 30.436 11.257C30.436 12.1729 29.6864 12.9223 28.7702 12.9223Z" fill-rule="evenodd" class="path-fill" clip-rule="evenodd"/>
</svg>
