<svg xmlns="http://www.w3.org/2000/svg" fill="#FFFFFF" viewBox="0 0 72 72" class="icon--decorative" role="presentation">
  <title>Shield with lightning bolt</title>
  <g class="security_shield--lightning-power">
    <path fill-rule="evenodd" d="M36 1.003a65.65 65.65 0 0 1 26.885 5.493 6.362 6.362 0 0 1 3.714 5.82v22.327A36.925 36.925 0 0 1 42.93 69.107l-3.054 1.173a10.8 10.8 0 0 1-7.754 0l-3.053-1.173A36.928 36.928 0 0 1 5.401 34.643V12.316a6.362 6.362 0 0 1 3.746-5.834A65.65 65.65 0 0 1 36 1.002ZM10.766 10.14A2.361 2.361 0 0 0 9.4 12.296v22.347a32.926 32.926 0 0 0 21.105 30.73l3.052 1.173a6.802 6.802 0 0 0 4.883 0l3.053-1.172A32.926 32.926 0 0 0 62.6 34.644V12.295a2.361 2.361 0 0 0-1.365-2.156 61.65 61.65 0 0 0-25.253-5.137 61.65 61.65 0 0 0-25.215 5.137Zm29.7 5.551a2 2 0 0 1 1.285 1.868v12.235h4.542a2.971 2.971 0 0 1 1.53.444c.463.288.844.702 1.089 1.206l.004.01a2.845 2.845 0 0 1-.472 3.156l-14.64 16.314a2 2 0 0 1-3.488-1.336V37.353h-4.484a2.972 2.972 0 0 1-1.555-.425 2.916 2.916 0 0 1-1.122-1.225l-.004-.009a2.844 2.844 0 0 1 .472-3.157l14.64-16.314a2 2 0 0 1 2.203-.532Zm-12.2 17.662h4.05a2 2 0 0 1 2 2v9.012l9.485-10.57h-4.05a2 2 0 0 1-2-2v-9.013l-9.485 10.57Z" class="path-fill" clip-rule="evenodd"/>
  </g>
</svg>