<svg xmlns="http://www.w3.org/2000/svg" fill="#FFFFFF" viewBox="0 0 72 72" class="icon--decorative" role="presentation">
<title>Sound wave</title>
  <g class="voice_voice-symbol--framed">
    <path fill-rule="evenodd" d="M8.17 5.778A2.393 2.393 0 0 0 5.778 8.17v17.126a1.889 1.889 0 0 1-3.778 0V8.17A6.17 6.17 0 0 1 8.17 2h17.126a1.889 1.889 0 1 1 0 3.778H8.17Zm36.645-1.89A1.89 1.89 0 0 1 46.704 2H63.83A6.17 6.17 0 0 1 70 8.17v17.126a1.889 1.889 0 0 1-3.778 0V8.17a2.393 2.393 0 0 0-2.392-2.392H46.704a1.889 1.889 0 0 1-1.89-1.89ZM36 19.127a1.89 1.89 0 0 1 1.889 1.889v29.97a1.889 1.889 0 0 1-3.778 0v-29.97A1.89 1.89 0 0 1 36 19.126Zm-10.704 6.422a1.89 1.89 0 0 1 1.89 1.889v17.126a1.889 1.889 0 0 1-3.779 0V27.437a1.89 1.89 0 0 1 1.89-1.889Zm21.408 0a1.89 1.89 0 0 1 1.889 1.889v17.126a1.889 1.889 0 0 1-3.778 0V27.437a1.89 1.89 0 0 1 1.889-1.889ZM14.593 29.83c1.043 0 1.889.845 1.889 1.889v8.563a1.889 1.889 0 0 1-3.778 0v-8.563c0-1.044.845-1.89 1.889-1.89Zm42.814 0c1.044 0 1.89.845 1.89 1.889v8.563a1.889 1.889 0 0 1-3.778 0v-8.563c0-1.044.845-1.89 1.888-1.89ZM3.89 44.815a1.89 1.89 0 0 1 1.889 1.889V63.83a2.392 2.392 0 0 0 2.392 2.392h17.126a1.889 1.889 0 0 1 0 3.778H8.17A6.17 6.17 0 0 1 2 63.83V46.704a1.89 1.89 0 0 1 1.889-1.89Zm64.222 0a1.89 1.89 0 0 1 1.889 1.889V63.83A6.17 6.17 0 0 1 63.83 70H46.704a1.889 1.889 0 0 1 0-3.778H63.83a2.392 2.392 0 0 0 2.392-2.392V46.704a1.89 1.89 0 0 1 1.89-1.89Z" class="path-fill logo-fill" clip-rule="evenodd"/>
  </g>
</svg>
