<svg xmlns="http://www.w3.org/2000/svg" fill="#FFFFFF" viewBox="0 0 72 72" class="icon--decorative" role="presentation">
  <title>Speedometer</title>
  <g class="transportation_speedometer">
    <path fill-rule="evenodd" d="M22.53 15.283a35.986 35.986 0 0 1 13.456-2.713h.028c9.333.068 18.265 3.748 24.83 10.246 6.564 6.497 10.223 15.28 10.155 24.422v5.95a6.188 6.188 0 0 1-1.878 4.432 6.41 6.41 0 0 1-4.474 1.81H7.353a6.41 6.41 0 0 1-4.474-1.81A6.188 6.188 0 0 1 1 53.189v-5.943a33.71 33.71 0 0 1 2.586-13.201 34.36 34.36 0 0 1 7.566-11.226 35.304 35.304 0 0 1 11.378-7.536Zm5.718 40.259H42.65c-.817-3.523-3.803-6.028-7.2-6.028-3.399 0-6.385 2.505-7.202 6.028Zm18.359 0h18.04c.67 0 1.301-.26 1.76-.707a2.299 2.299 0 0 0 .703-1.646v-5.974c.062-8.08-3.17-15.864-9.002-21.635-5.83-5.77-13.78-9.057-22.108-9.122-4.12.033-8.194.855-11.986 2.42a31.416 31.416 0 0 0-10.125 6.704 30.472 30.472 0 0 0-6.71 9.955 29.821 29.821 0 0 0-2.29 11.686v5.966a2.3 2.3 0 0 0 .705 1.646 2.52 2.52 0 0 0 1.759.707H24.29c.88-5.554 5.46-9.917 11.158-9.917.59 0 1.167.047 1.73.137l13.304-15.965a1.944 1.944 0 0 1 2.988 2.49L41.059 47.18c2.912 1.748 4.986 4.812 5.548 8.362ZM36 22.486c1.074 0 1.944.87 1.944 1.944v6.612a1.944 1.944 0 1 1-3.888 0V24.43c0-1.073.87-1.944 1.944-1.944Zm-17.903 7.18a1.945 1.945 0 0 1 2.75 0l4.958 4.959a1.945 1.945 0 0 1-2.75 2.75l-4.958-4.958a1.943 1.943 0 0 1 0-2.75Zm-8.282 15.7c0-1.074.87-1.945 1.944-1.945h6.611a1.944 1.944 0 1 1 0 3.89h-6.61a1.944 1.944 0 0 1-1.945-1.945Zm41.87 0c0-1.074.87-1.945 1.945-1.945h6.61a1.944 1.944 0 1 1 0 3.89h-6.61a1.944 1.944 0 0 1-1.945-1.945Z" class="path-fill fill-path" clip-rule="evenodd"/>
  </g>
</svg>
