<svg width="40" height="40" viewBox="0 0 40 40" fill="#FFFFFF" class="icon--decorative" role="presentation" xmlns="http://www.w3.org/2000/svg">
<title>Star outline</title>
<path clip-rule="evenodd" class="path-fill" fill-rule="evenodd" d="M39.9907 15.6507C40.049 14.9588 39.8323 14.2919 39.3822 13.7584C38.9321 13.2332 38.307 12.9082 37.6402 12.8498L27.5884 11.8578L22.3208 1.42114C22.0708 0.929317 21.6791 0.537539 21.1873 0.28746C20.5622 -0.0293064 19.8537 -0.0876093 19.1953 0.129126C18.5285 0.345861 17.9867 0.804286 17.67 1.42948L12.4107 11.8578L2.37561 12.8498C1.75884 12.8998 1.18372 13.1665 0.750313 13.6083C0.266893 14.1001 -0.00815072 14.7504 0.000184099 15.4423C0.000184099 16.1342 0.275244 16.7843 0.766999 17.2762L9.08513 25.5204L6.00127 36.7239C5.83457 37.3408 5.90123 37.9911 6.19295 38.5662C6.50967 39.1914 7.0431 39.6499 7.70155 39.8666C8.36 40.0833 9.06847 40.0334 9.68524 39.7249L19.9954 34.615L30.3139 39.7249C30.6807 39.9083 31.0807 40 31.4808 40C31.7058 40 31.9309 39.975 32.1476 39.9167C32.8227 39.7416 33.3811 39.3081 33.7312 38.7079C34.0813 38.1077 34.173 37.4075 33.9896 36.7239L30.9057 25.5288L39.2239 17.2845C39.6656 16.851 39.9323 16.2759 39.9823 15.659L39.9907 15.6507ZM28.6386 24.2617C28.3219 24.5785 28.1969 25.0452 28.3136 25.4787L31.5892 37.3658C31.6058 37.4158 31.5641 37.4825 31.4308 37.4825L20.5455 32.0892C20.1955 31.9141 19.7871 31.9141 19.437 32.0892L8.56004 37.4742C8.51836 37.4992 8.44336 37.4742 8.41002 37.3658L11.6856 25.462C11.8023 25.0286 11.6856 24.5618 11.3605 24.245L2.51729 15.4839C2.51729 15.4839 2.48397 15.3839 2.59233 15.3256L13.3276 14.2585C13.7526 14.2169 14.1277 13.9585 14.3194 13.575L19.8871 2.53813C19.8871 2.53813 19.9537 2.47982 19.9954 2.47982C20.0121 2.47982 20.0288 2.47983 20.0371 2.48817C20.0621 2.4965 20.0788 2.51312 20.0871 2.53813L25.6631 13.5833C25.8548 13.9667 26.2299 14.2252 26.655 14.2669L37.4069 15.3339C37.4485 15.3339 37.4902 15.3922 37.4652 15.4922L28.6303 24.2534L28.6386 24.2617Z"/>
</svg>
