<svg xmlns="http://www.w3.org/2000/svg" fill="currentColor" viewBox="0 0 72 72" class="icon--decorative" role="presentation">
<title>Cell phone with voice wave</title>
  <g class="phones_cell-phone--voice">
    <path fill-rule="evenodd" d="M17.625 4C15.893 4 14.2 5.587 14.2 7.914v48.753H51v-2.534a2 2 0 0 1 4 0v9.952C55 68.291 51.834 72 47.575 72h-29.95c-4.26 0-7.425-3.71-7.425-7.915V7.915C10.2 3.708 13.366 0 17.625 0h29.95C51.835 0 55 3.71 55 7.914v13.353a2 2 0 0 1-4 0V7.914C51 5.587 49.307 4 47.575 4h-29.95ZM14.2 60.667v3.418c0 2.328 1.693 3.915 3.425 3.915h29.95C49.307 68 51 66.413 51 64.085v-3.418H14.2ZM32.043 14.2a2.567 2.567 0 1 0-.02 0h.009M53 27.2a2 2 0 0 1 2 2v18.133a2 2 0 1 1-4 0V29.2a2 2 0 0 1 2-2Zm-8.5 3.886a2 2 0 0 1 2 2v10.362a2 2 0 1 1-4 0V33.086a2 2 0 0 1 2-2Zm17 0a2 2 0 0 1 2 2v10.362a2 2 0 1 1-4 0V33.086a2 2 0 0 1 2-2ZM36 33.676a2 2 0 0 1 2 2v5.181a2 2 0 1 1-4 0v-5.18a2 2 0 0 1 2-2Zm34 0a2 2 0 0 1 2 2v5.181a2 2 0 1 1-4 0v-5.18a2 2 0 0 1 2-2Z" class="path-fill fill-path" clip-rule="evenodd"/>
  </g>
</svg>
