<svg xmlns="http://www.w3.org/2000/svg" fill="#FFFFFF" viewBox="0 0 72 72" class="icon--decorative" role="presentation">
<title>Wrench and screwdriver</title>
  <g class="etc_wrench-screwdriver">
      <path class="path-fill fill-path" fill-rule="evenodd" d="M57.847 20.266a6.292 6.292 0 0 1-2.909-.705l-23.96 24.07 3.32 3.334c.367.37.57.856.57 1.37a1.96 1.96 0 0 1-.57 1.382L15.596 68.482a8.45 8.45 0 0 1-6.04 2.508h-.01a8.46 8.46 0 0 1-6.04-2.518A8.553 8.553 0 0 1 1 62.405c0-2.285.89-4.453 2.507-6.067l18.7-18.765a1.933 1.933 0 0 1 2.74 0l3.296 3.31 23.96-24.078a6.348 6.348 0 0 1-.696-2.908c0-1.701.658-3.305 1.859-4.501l7.782-7.827a1.933 1.933 0 0 1 2.74 0L70.12 7.82a1.933 1.933 0 0 1 0 2.742l-7.792 7.826a6.275 6.275 0 0 1-4.482 1.867v.01Zm-2.478-6.369c0 .662.262 1.284.726 1.75l.004.004c.93.93 2.553.939 3.49-.003L66.008 9.2l-3.49-3.505-6.422 6.442a2.476 2.476 0 0 0-.726 1.76ZM6.237 59.09l17.335-17.395 6.611 6.64L12.857 65.73a4.662 4.662 0 0 1-3.31 1.371 4.623 4.623 0 0 1-3.3-1.37 4.673 4.673 0 0 1-1.375-3.326c0-1.254.484-2.43 1.365-3.316Z" clip-rule="evenodd"/>
      <path class="path-fill fill-path" d="M21.84 30.64c.377.38.87.574 1.365.574l.01.02c.493 0 .987-.195 1.364-.574a1.954 1.954 0 0 0 0-2.752l-4.627-4.647a1.925 1.925 0 0 0-2.08-.438 9.06 9.06 0 0 1-4.066.603 8.97 8.97 0 0 1-7.163-4.716 10.9 10.9 0 0 0 2.923.068 10.75 10.75 0 0 0 6.37-3.092 10.877 10.877 0 0 0 3.068-6.407c.106-.982.077-1.974-.078-2.946a8.952 8.952 0 0 1 2.081 1.536 9.01 9.01 0 0 1 2.469 4.58 9.144 9.144 0 0 1-.436 5.192c-.28.72-.107 1.536.436 2.08l6.727 6.777a1.933 1.933 0 0 0 2.74 0 1.954 1.954 0 0 0 0-2.751l-5.886-5.921a13.06 13.06 0 0 0 .213-6.175 12.989 12.989 0 0 0-3.523-6.543 12.86 12.86 0 0 0-7.754-3.675 1.928 1.928 0 0 0-1.839.904 1.933 1.933 0 0 0 0 2.061 6.99 6.99 0 0 1 .997 4.434 6.912 6.912 0 0 1-1.965 4.093A6.884 6.884 0 0 1 9.111 14.9a6.835 6.835 0 0 1-4.413-1.002 1.95 1.95 0 0 0-2.053 0 1.933 1.933 0 0 0-.9 1.848 13.172 13.172 0 0 0 1.936 5.58 12.953 12.953 0 0 0 4.201 4.133 12.905 12.905 0 0 0 5.595 1.828c1.53.126 3.097-.03 4.578-.447l3.785 3.801ZM58.04 71c-2.516 0-4.994-.739-7.104-2.13a13.061 13.061 0 0 1-5.246-6.932 13.076 13.076 0 0 1-.126-7.467l-4.365-4.385a1.954 1.954 0 0 1 0-2.752 1.933 1.933 0 0 1 2.739 0l5.217 5.231c.542.545.716 1.371.436 2.09a9.182 9.182 0 0 0-.204 6.107 9.123 9.123 0 0 0 3.679 4.861 9.053 9.053 0 0 0 5.904 1.44 9.08 9.08 0 0 0 5.488-2.626 9.153 9.153 0 0 0 2.614-5.513c.213-2.08-.3-4.18-1.433-5.93a9.055 9.055 0 0 0-10.918-3.491 1.91 1.91 0 0 1-2.072-.438l-7.375-7.409a1.954 1.954 0 0 1 0-2.751 1.933 1.933 0 0 1 2.739 0l6.534 6.563a12.99 12.99 0 0 1 7.433.126 13.015 13.015 0 0 1 6.902 5.27 13.128 13.128 0 0 1 2.052 8.459 13.042 13.042 0 0 1-3.727 7.866A12.936 12.936 0 0 1 58.06 71h-.02Z"/>
      <path class="path-fill fill-path" d="M60.286 58.069a2.425 2.425 0 0 1-2.42 2.43 2.425 2.425 0 0 1-2.42-2.43 2.425 2.425 0 0 1 2.42-2.431 2.425 2.425 0 0 1 2.42 2.43Z"/>
  </g>
</svg>