<svg width="246" height="258" viewBox="0 0 246 258" fill="none" xmlns="http://www.w3.org/2000/svg">
<path d="M140.445 247.099L140.424 255.789L1.95327 175.843C1.06639 175.33 0.620865 174.66 0.625029 173.986L0.645848 165.296C0.645848 165.966 1.08721 166.637 1.97409 167.153L140.445 247.099Z" fill="white"/>
<path d="M235.157 194.063C234.812 194.063 234.533 194.342 234.533 194.683C234.533 195.145 234.179 195.603 233.538 195.978L146.498 246.562C144.949 247.461 142.318 247.461 140.761 246.562L2.29008 166.612C1.64053 166.237 1.26995 165.758 1.27411 165.3C1.27411 164.954 0.995142 164.676 0.649549 164.676C0.303955 164.676 0.0249826 164.954 0.0249826 165.3L0 173.985C0 174.918 0.578765 175.772 1.64053 176.384L140.103 256.326C140.103 256.326 140.107 256.33 140.111 256.334C141.094 256.9 142.351 257.184 143.609 257.184C144.866 257.184 146.123 256.9 147.102 256.33L234.141 205.746C235.182 205.142 235.757 204.301 235.757 203.377L235.778 194.687C235.778 194.342 235.499 194.063 235.153 194.058L235.157 194.063ZM1.24913 173.99L1.26579 167.436C1.3907 167.523 1.52394 167.611 1.66551 167.694L139.824 247.461L139.807 254.71L2.26509 175.301C1.61554 174.926 1.24497 174.448 1.24913 173.99Z" fill="#5D0A18"/>
<path d="M234.142 192.289L95.6717 112.342C93.7064 111.206 90.6335 111.206 88.6807 112.342L1.64119 162.927C0.596085 163.535 0.0214844 164.38 0.0214844 165.304C0.0214844 166.233 0.604413 167.082 1.66201 167.694L140.132 247.64C141.115 248.207 142.373 248.49 143.63 248.49C144.888 248.49 146.145 248.207 147.123 247.64L234.163 197.056C235.208 196.448 235.783 195.607 235.779 194.679C235.779 193.746 235.196 192.897 234.138 192.289H234.142Z" fill="#EF223A"/>
<path d="M241.349 81.2609L234.987 84.9582L96.1086 4.77872C95.2176 4.26243 94.4098 4.21663 93.8311 4.55388L100.193 0.856559C100.776 0.519303 101.58 0.565103 102.471 1.0814L241.345 81.2609H241.349Z" fill="white"/>
<path d="M241.658 80.7197C241.462 80.6073 241.224 80.6073 241.033 80.7197L234.671 84.417C234.479 84.5294 234.358 84.7334 234.358 84.9583C234.358 85.1831 234.479 85.3871 234.671 85.4996C236.236 86.4031 237.556 88.6848 237.552 90.4876L237.265 191.452C237.265 192.197 237.04 192.734 236.64 192.968C236.34 193.143 236.24 193.521 236.415 193.821C236.532 194.021 236.74 194.133 236.957 194.133C237.065 194.133 237.173 194.104 237.269 194.05L243.631 190.353C244.431 189.891 244.872 188.971 244.876 187.759L245.163 86.7903C245.168 84.5253 243.631 81.8564 241.658 80.7197Z" fill="#EF223A"/>
<path d="M241.665 80.6991L102.787 0.527899C101.721 -0.0883216 100.688 -0.167431 99.8806 0.303062L93.5225 4.00039C93.5225 4.00039 93.5225 4.00039 93.5184 4.00039C93.4892 4.01704 93.4601 4.03786 93.4351 4.05868C92.6939 4.5375 92.2776 5.42852 92.2776 6.59434L91.9903 107.563C91.9819 109.828 93.5225 112.497 95.4962 113.634L234.371 193.813C234.978 194.163 235.574 194.338 236.123 194.338C236.536 194.338 236.923 194.238 237.269 194.038C238.072 193.576 238.518 192.651 238.518 191.44L238.805 90.4712C238.813 88.5392 237.689 86.3158 236.136 84.996L241.649 81.7899C241.828 81.6942 241.953 81.511 241.974 81.3028C241.999 81.0572 241.878 80.8198 241.665 80.6991ZM234.987 84.2257L96.4247 4.22939C96.2873 4.15028 96.1499 4.0795 96.0166 4.02121C96.0083 4.02121 96.0042 4.01288 95.9958 4.01288L100.509 1.38978C100.909 1.15661 101.513 1.23988 102.162 1.61461L240.104 81.257L234.987 84.2299V84.2257Z" fill="#5D0A18"/>
<path d="M232.825 94.3804L232.559 178.49C232.554 180.372 231.222 181.134 229.581 180.185L100.925 105.91C99.2845 104.964 97.9646 102.67 97.9688 100.788L98.2352 16.6741C98.2394 14.7921 99.5718 14.0302 101.212 14.9795L229.869 89.2591C231.509 90.2043 232.829 92.4984 232.825 94.3804Z" fill="white"/>
<path d="M230.915 180.801C230.469 180.801 229.982 180.655 229.482 180.364L100.826 106.084C99.1353 105.106 97.7612 102.733 97.7696 100.788L98.0361 16.674C98.0361 15.6914 98.3816 14.9502 99.0062 14.5921C99.6349 14.2299 100.455 14.3049 101.313 14.8003L229.969 89.0799C231.66 90.0542 233.034 92.4317 233.026 94.3803L232.759 178.49C232.759 179.473 232.414 180.214 231.789 180.572C231.527 180.722 231.231 180.797 230.915 180.797V180.801ZM99.8806 14.7712C99.6349 14.7712 99.4059 14.8295 99.2061 14.9419C98.7147 15.225 98.4399 15.8412 98.4358 16.674L98.1693 100.788C98.1651 102.603 99.4434 104.823 101.026 105.735L229.682 180.014C230.411 180.435 231.089 180.51 231.585 180.226C232.076 179.943 232.351 179.327 232.355 178.494L232.622 94.3844C232.626 92.5691 231.348 90.3498 229.765 89.438L101.109 15.1542C100.672 14.9003 100.251 14.7712 99.8806 14.7712Z" fill="#5D0A18"/>
<path d="M57.9811 182.542C55.1747 184.166 55.1789 188.217 57.9894 189.837L106.273 217.608C107.58 218.362 109.191 218.354 110.495 217.596L123.727 209.864C126.517 208.236 126.504 204.201 123.71 202.586L75.5939 174.802C74.2906 174.048 72.6875 174.048 71.3843 174.802L57.9811 182.546V182.542Z" fill="#5D0A18"/>
<path d="M108.371 218.791C107.538 218.791 106.706 218.578 105.96 218.15L57.6772 190.378C56.1616 189.508 55.2539 187.942 55.2539 186.194C55.2539 184.445 56.1533 182.879 57.6689 182.005L71.0721 174.26C72.5627 173.399 74.4156 173.399 75.9062 174.26L124.023 202.045C125.53 202.915 126.434 204.476 126.438 206.221C126.438 207.961 125.547 209.527 124.044 210.405L110.807 218.137C110.057 218.574 109.212 218.795 108.367 218.795L108.371 218.791ZM58.2935 183.083C57.1692 183.733 56.4989 184.894 56.503 186.189C56.5072 187.484 57.1776 188.646 58.3018 189.295L106.585 217.067C107.697 217.704 109.075 217.7 110.182 217.055L123.419 209.323C124.535 208.669 125.201 207.511 125.197 206.217C125.193 204.922 124.522 203.768 123.407 203.123L75.29 175.339C74.1824 174.702 72.8084 174.702 71.705 175.339L58.3018 183.083H58.2935Z" fill="#5D0A18"/>
<path d="M205.648 95.6757L205.632 101.359L205.49 145.885C205.49 147.009 204.691 147.463 203.712 146.897L126.907 102.554C125.929 101.988 125.137 100.622 125.142 99.4979L125.3 49.2843C125.3 48.1601 126.099 47.7062 127.078 48.2725L203.883 92.6154C204.861 93.1817 205.652 94.5474 205.648 95.6716V95.6757Z" fill="#EF223A"/>
<path d="M204.512 147.763C204.158 147.763 203.775 147.655 203.4 147.438L126.595 103.095C125.425 102.421 124.513 100.839 124.518 99.4938L124.676 49.2801C124.676 48.5182 124.98 47.9061 125.509 47.6022C126.037 47.2982 126.724 47.344 127.391 47.7271L204.196 92.07C205.366 92.7445 206.277 94.3267 206.273 95.6716L206.115 145.881C206.115 146.643 205.811 147.255 205.282 147.559C205.049 147.692 204.787 147.759 204.512 147.759V147.763ZM126.283 48.6556C126.225 48.6556 126.175 48.6681 126.133 48.6889C126.008 48.7597 125.929 48.9928 125.925 49.2884L125.767 99.5021C125.767 100.41 126.429 101.559 127.22 102.017L204.025 146.36C204.287 146.51 204.533 146.56 204.658 146.485C204.783 146.414 204.862 146.185 204.862 145.885L205.02 95.6716C205.02 94.7639 204.358 93.6147 203.567 93.1567L126.762 48.8138C126.583 48.7097 126.408 48.6556 126.279 48.6556H126.283Z" fill="#5D0A18"/>
<path d="M200.898 94.2183C200.957 94.1308 201.023 94.0559 201.111 94.0059C201.623 93.7103 202.443 94.1725 202.947 95.0427C203.447 95.9087 203.438 96.8538 202.926 97.1495C202.86 97.1869 202.785 97.2119 202.706 97.2286C202.202 97.316 201.523 96.8663 201.09 96.1169C200.674 95.3966 200.615 94.6346 200.894 94.2224L200.898 94.2183Z" fill="#5D0A18"/>
<path d="M197.197 92.1863C197.255 92.0989 197.322 92.0239 197.409 91.974C197.921 91.6783 198.742 92.1405 199.246 93.0107C199.745 93.8767 199.737 94.8219 199.225 95.1175C199.158 95.155 199.083 95.18 199.008 95.1966C198.5 95.2841 197.826 94.8344 197.393 94.0849C196.976 93.3646 196.918 92.6027 197.197 92.1905V92.1863Z" fill="#5D0A18"/>
<path d="M193.611 89.7714C193.669 89.684 193.74 89.609 193.823 89.559C194.336 89.2634 195.156 89.7256 195.66 90.5958C196.159 91.4618 196.151 92.407 195.639 92.7026C195.572 92.7401 195.497 92.7651 195.422 92.7817C194.914 92.8691 194.24 92.4195 193.807 91.67C193.39 90.9497 193.332 90.1878 193.611 89.7756V89.7714Z" fill="#5D0A18"/>
<path d="M178.034 99.9559C178.846 97.4868 177.106 93.3398 174.079 91.233C174.687 89.6508 174.162 87.6773 172.551 85.6454C170.352 82.8807 166.072 77.7053 163.453 78.0509C163.153 78.0925 162.953 78.2174 162.695 78.3132C161.887 77.1391 161.071 76.1439 159.93 75.5444C157.599 74.3119 154.372 74.5826 152.556 75.0198C151.145 75.3612 150.762 76.9933 151.345 79.0085C148.351 77.8968 146.615 80.216 147.489 83.6219C145.769 84.4962 145.574 87.1901 146.977 90.0339C145.324 91.7327 146.173 95.5799 148.722 98.5194C148.692 101.03 149.642 103.612 151.79 106.01C152.086 106.339 152.598 106.759 152.81 107.034C153.019 107.301 153.306 108.025 153.527 108.387C155.725 112.051 159.639 114.137 161.892 112.951L162.953 112.06C164.644 116.386 169.203 119.604 171.947 118.434C172.309 118.28 172.717 117.735 172.971 117.66C173.2 117.593 173.871 117.726 174.195 117.697C176.194 117.527 177.152 115.824 176.985 113.375C179.583 113.346 180.304 110.207 178.647 106.868C180.021 105.535 179.783 102.65 178.034 99.9517V99.9559Z" fill="white"/>
<path d="M170.686 119.3C169.986 119.3 169.233 119.134 168.446 118.805C166.118 117.83 163.936 115.632 162.708 113.076L162.287 113.429C162.254 113.459 162.217 113.484 162.175 113.504C159.573 114.874 155.363 112.68 152.986 108.712C152.877 108.533 152.769 108.308 152.657 108.067C152.544 107.838 152.394 107.521 152.315 107.421C152.228 107.309 152.028 107.122 151.849 106.955C151.662 106.78 151.47 106.601 151.32 106.43C149.238 104.107 148.122 101.459 148.089 98.7526C145.562 95.7256 144.787 91.9367 146.236 89.9423C144.954 87.1027 145.179 84.5004 146.777 83.3304C146.403 81.4484 146.777 79.808 147.81 78.8795C148.518 78.2383 149.459 77.9926 150.516 78.1508C150.371 77.1182 150.492 76.2189 150.879 75.5527C151.216 74.9698 151.745 74.5784 152.407 74.4202C153.177 74.237 157.17 73.3918 160.218 74.9989C161.363 75.6027 162.2 76.5603 162.916 77.5513C163.045 77.5013 163.195 77.4597 163.37 77.4347C166.131 77.0683 169.995 81.4235 173.043 85.2582C174.637 87.2692 175.258 89.2844 174.816 90.9957C177.652 93.1941 179.401 97.1496 178.718 99.8601C180.371 102.554 180.625 105.369 179.392 106.976C180.342 109.099 180.425 111.214 179.592 112.576C179.147 113.305 178.464 113.775 177.635 113.937C177.623 116.477 176.365 118.139 174.254 118.322C174.054 118.338 173.817 118.322 173.567 118.293C173.451 118.28 173.263 118.263 173.163 118.263C173.105 118.309 173.009 118.397 172.938 118.459C172.722 118.659 172.48 118.884 172.193 119.005C171.735 119.2 171.231 119.3 170.694 119.3H170.686ZM162.95 111.435C162.999 111.435 163.054 111.443 163.104 111.456C163.299 111.506 163.458 111.647 163.532 111.835C164.528 114.383 166.697 116.719 168.933 117.656C170.003 118.105 170.961 118.176 171.698 117.86C171.785 117.822 171.964 117.656 172.085 117.543C172.314 117.331 172.53 117.135 172.797 117.056C173.034 116.985 173.334 117.014 173.675 117.048C173.842 117.064 174.05 117.081 174.142 117.073C176.361 116.881 176.432 114.454 176.361 113.417C176.349 113.246 176.407 113.076 176.523 112.951C176.64 112.826 176.802 112.751 176.977 112.751C177.668 112.742 178.185 112.464 178.518 111.922C179.167 110.86 179.001 108.983 178.085 107.147C177.964 106.905 178.014 106.609 178.21 106.422C179.355 105.31 179.051 102.675 177.51 100.293C177.406 100.135 177.381 99.9392 177.439 99.7602C178.126 97.6784 176.682 93.8062 173.721 91.7452C173.484 91.5828 173.392 91.2747 173.496 91.0082C174.025 89.6342 173.517 87.8646 172.06 86.0326C168.009 80.9321 165.14 78.4589 163.532 78.6713C163.412 78.6879 163.308 78.7337 163.162 78.7962C163.079 78.8295 162.999 78.867 162.908 78.9003C162.641 79.0002 162.337 78.9045 162.175 78.6713C161.376 77.5138 160.639 76.6311 159.631 76.0981C157.578 75.0156 154.609 75.1655 152.694 75.6277C152.365 75.7068 152.12 75.8858 151.953 76.1731C151.62 76.7477 151.612 77.7178 151.936 78.8337C152.003 79.0585 151.936 79.3042 151.761 79.4665C151.587 79.6289 151.341 79.6789 151.12 79.5956C150.079 79.2084 149.222 79.2833 148.643 79.8038C147.881 80.4908 147.673 81.8606 148.089 83.4678C148.16 83.7509 148.027 84.0466 147.768 84.1798C146.407 84.871 146.307 87.2692 147.531 89.7591C147.648 89.9964 147.602 90.2796 147.419 90.4711C146.028 91.8992 146.836 95.3967 149.188 98.1114C149.288 98.228 149.342 98.3737 149.342 98.5278C149.313 100.997 150.321 103.437 152.253 105.593C152.369 105.723 152.544 105.885 152.707 106.043C152.936 106.26 153.152 106.464 153.298 106.651C153.46 106.859 153.614 107.184 153.781 107.525C153.877 107.729 153.981 107.938 154.056 108.067C156.2 111.639 159.748 113.296 161.538 112.426L162.546 111.581C162.658 111.485 162.804 111.435 162.945 111.435H162.95Z" fill="#5D0A18"/>
<path d="M147.248 83.1721C147.136 83.1721 147.024 83.1429 146.919 83.0763L139.375 78.3839C139.192 78.2714 139.079 78.0716 139.079 77.8551V67.2336C139.079 66.888 139.358 66.609 139.704 66.609C140.049 66.609 140.328 66.888 140.328 67.2336V77.5095L147.582 82.0187C147.873 82.2019 147.965 82.585 147.781 82.8806C147.665 83.0721 147.461 83.1762 147.253 83.1762L147.248 83.1721Z" fill="#5D0A18"/>
<path d="M138.575 65.6887C138.633 65.6013 138.704 65.5263 138.792 65.4764C139.308 65.1807 140.132 65.6429 140.636 66.5131C141.14 67.3792 141.132 68.3243 140.615 68.6199C140.549 68.6574 140.474 68.6824 140.395 68.699C139.887 68.7865 139.208 68.3368 138.767 67.5873C138.35 66.867 138.288 66.1051 138.571 65.6929L138.575 65.6887Z" fill="#5D0A18"/>
<path d="M136.813 81.6938C136.872 81.6063 136.942 81.5314 137.026 81.4814C137.538 81.1858 138.358 81.648 138.862 82.5182C139.361 83.3842 139.353 84.3294 138.841 84.625C138.774 84.6625 138.699 84.6874 138.624 84.7041C138.116 84.7915 137.442 84.3419 137.009 83.5924C136.593 82.8721 136.534 82.1101 136.813 81.6979V81.6938Z" fill="#5D0A18"/>
<path d="M146.253 89.0175C146.141 89.0175 146.028 88.9884 145.924 88.9218L138.379 84.2293C138.088 84.0461 137.996 83.6631 138.18 83.3675C138.363 83.076 138.746 82.9844 139.041 83.1676L146.586 87.86C146.878 88.0432 146.969 88.4263 146.786 88.7219C146.669 88.9135 146.465 89.0175 146.257 89.0175H146.253Z" fill="#5D0A18"/>
<path d="M138.237 99.1605C138.295 99.0731 138.366 98.9982 138.449 98.9482C138.962 98.6526 139.782 99.1147 140.286 99.985C140.785 100.851 140.777 101.796 140.265 102.092C140.198 102.129 140.123 102.154 140.048 102.171C139.54 102.258 138.866 101.809 138.433 101.059C138.016 100.339 137.958 99.5769 138.237 99.1647V99.1605Z" fill="#5D0A18"/>
<path d="M139.357 101.142C139.011 101.142 138.732 100.864 138.732 100.518V89.7465C138.732 89.5217 138.853 89.3094 139.053 89.2011C139.249 89.0929 139.494 89.097 139.686 89.2178L146.581 93.5063C146.873 93.6895 146.964 94.0726 146.781 94.3682C146.598 94.6597 146.215 94.7513 145.919 94.5681L139.982 90.8749V100.522C139.982 100.868 139.703 101.147 139.357 101.147V101.142Z" fill="#5D0A18"/>
<path d="M186.246 126.699C185.901 126.699 185.622 126.42 185.622 126.074V115.798L179.114 111.751C178.822 111.568 178.731 111.185 178.914 110.889C179.097 110.598 179.48 110.506 179.776 110.69L186.579 114.924C186.763 115.036 186.875 115.236 186.875 115.453V126.074C186.875 126.42 186.596 126.699 186.25 126.699H186.246Z" fill="#5D0A18"/>
<path d="M187.375 127.623C187.316 127.711 187.246 127.786 187.158 127.836C186.642 128.131 185.817 127.669 185.314 126.799C184.81 125.933 184.818 124.988 185.334 124.692C185.401 124.654 185.476 124.63 185.555 124.613C186.063 124.525 186.742 124.975 187.183 125.725C187.6 126.445 187.662 127.207 187.379 127.619L187.375 127.623Z" fill="#5D0A18"/>
<path d="M189.136 111.614C189.078 111.701 189.007 111.776 188.924 111.826C188.412 112.122 187.592 111.66 187.088 110.79C186.588 109.924 186.597 108.978 187.109 108.683C187.175 108.645 187.25 108.62 187.325 108.604C187.833 108.516 188.508 108.966 188.941 109.715C189.357 110.436 189.415 111.198 189.136 111.61V111.614Z" fill="#5D0A18"/>
<path d="M187.241 110.236C187.129 110.236 187.017 110.207 186.912 110.14L179.368 105.448C179.076 105.264 178.985 104.881 179.168 104.586C179.351 104.29 179.734 104.203 180.03 104.386L187.574 109.078C187.866 109.261 187.958 109.644 187.774 109.94C187.658 110.132 187.454 110.236 187.246 110.236H187.241Z" fill="#5D0A18"/>
<path d="M187.711 94.1515C187.652 94.2389 187.582 94.3139 187.498 94.3638C186.986 94.6595 186.166 94.1973 185.662 93.3271C185.162 92.4611 185.171 91.5159 185.683 91.2203C185.75 91.1828 185.824 91.1578 185.899 91.1412C186.407 91.0537 187.082 91.5034 187.515 92.2529C187.931 92.9732 187.99 93.7351 187.711 94.1473V94.1515Z" fill="#5D0A18"/>
<path d="M186.591 104.186C186.474 104.186 186.362 104.153 186.262 104.09L177.897 98.8856C177.606 98.7024 177.514 98.3194 177.697 98.0237C177.88 97.7281 178.263 97.6407 178.559 97.8239L185.966 102.433V92.7859C185.966 92.4403 186.245 92.1613 186.591 92.1613C186.937 92.1613 187.216 92.4403 187.216 92.7859V103.557C187.216 103.782 187.095 103.994 186.895 104.103C186.799 104.157 186.695 104.182 186.591 104.182V104.186Z" fill="#5D0A18"/>
<path d="M112.556 161.065L124.298 154.279L109.421 145.702L97.6787 152.488L112.556 161.065Z" fill="#5D0A18"/>
<path d="M105.744 128.701L95.0262 122.51C93.5355 121.648 91.6827 121.648 90.192 122.51L80.9609 127.844L94.1101 135.426L105.748 128.697L105.744 128.701Z" fill="#5D0A18"/>
<path d="M109.421 144.257L121.046 137.537L106.993 129.422L95.3555 136.15L109.421 144.257Z" fill="#5D0A18"/>
<path d="M128.128 170.042L139.866 163.251L125.547 154.999L113.805 161.786L128.128 170.042Z" fill="#5D0A18"/>
<path d="M92.8571 136.15L79.7787 128.61C79.7537 128.597 79.7371 128.581 79.7162 128.564L67.9619 135.355L81.1153 142.937L92.8571 136.15Z" fill="#5D0A18"/>
<path d="M79.8656 143.661L66.7122 136.075L54.3125 143.241L67.47 150.827L79.8656 143.661Z" fill="#5D0A18"/>
<path d="M108.171 144.977L94.1061 136.87L82.3643 143.657L96.4295 151.768L108.171 144.977Z" fill="#5D0A18"/>
<path d="M144.945 179.739L156.679 172.948L141.11 163.972L129.377 170.763L144.945 179.739Z" fill="#5D0A18"/>
<path d="M191.305 191.468L202.868 184.782L187.904 176.142L176.324 182.833L191.305 191.468Z" fill="#5D0A18"/>
<path d="M157.929 172.224L169.508 165.521L153.956 156.54L142.36 163.251L157.929 172.224Z" fill="#5D0A18"/>
<path d="M81.1153 144.382L68.7197 151.547L82.7808 159.658L95.1805 152.488L81.1153 144.382Z" fill="#5D0A18"/>
<path d="M175.075 182.113L186.654 175.422L170.757 166.241L159.178 172.944L175.075 182.113Z" fill="#5D0A18"/>
<path d="M162.079 189.62L173.825 182.833L157.928 173.669L146.194 180.46L162.079 189.62Z" fill="#5D0A18"/>
<path d="M110.67 144.977L125.547 153.554L137.16 146.842L122.291 138.257C122.291 138.257 122.279 138.265 122.27 138.269L110.67 144.977Z" fill="#5D0A18"/>
<path d="M141.111 162.531L152.707 155.819L138.409 147.563L126.796 154.275L141.111 162.531Z" fill="#5D0A18"/>
<path d="M165.914 207.586L181.395 216.513L193.728 209.31L178.314 200.42L165.914 207.586Z" fill="#5D0A18"/>
<path d="M154.589 214.135L167.717 221.688C168.463 222.117 169.295 222.329 170.128 222.329C170.961 222.329 171.814 222.109 172.568 221.672L180.154 217.241L164.669 208.315L154.593 214.14L154.589 214.135Z" fill="#5D0A18"/>
<path d="M149.676 198.226L164.665 206.866L177.065 199.7L162.08 191.06L149.676 198.226Z" fill="#5D0A18"/>
<path d="M163.329 190.34L178.315 198.98L190.056 192.189L175.075 183.553L163.329 190.34Z" fill="#5D0A18"/>
<path d="M214.594 194.333C214.594 192.593 213.686 191.031 212.179 190.161L204.117 185.506L192.555 192.189L207.894 201.032L212.199 198.518C213.707 197.639 214.602 196.074 214.598 194.333H214.594Z" fill="#5D0A18"/>
<path d="M179.563 199.7L194.969 208.581L206.649 201.757L191.305 192.909L179.563 199.7Z" fill="#5D0A18"/>
<path d="M144.946 181.184L132.559 188.354L148.427 197.506L160.831 190.34L144.946 181.184Z" fill="#5D0A18"/>
<path d="M128.129 171.487L115.737 178.657L131.31 187.634L143.697 180.464L128.129 171.487Z" fill="#5D0A18"/>
<path d="M112.556 162.51L100.16 169.676L114.488 177.936L126.879 170.767L112.556 162.51Z" fill="#5D0A18"/>
<path d="M67.4705 152.272L57.2734 158.163L71.3553 166.262L81.5316 160.379L67.4705 152.272Z" fill="#5D0A18"/>
<path d="M148.426 198.946L138.329 204.784L153.34 213.415L163.416 207.59L148.426 198.946Z" fill="#5D0A18"/>
<path d="M96.429 153.209L84.0293 160.378L98.9106 168.956L111.306 161.786L96.429 153.209Z" fill="#5D0A18"/>
<path d="M82.7808 161.099L72.6045 166.982L137.076 204.063L147.178 198.226L82.7808 161.099Z" fill="#5D0A18"/>
<path d="M53.0637 143.965L50.1074 145.673C48.5918 146.547 47.6924 148.112 47.6924 149.861C47.6924 151.61 48.6001 153.175 50.1157 154.05L56.0199 157.447L66.217 151.552L53.0595 143.965H53.0637Z" fill="#5D0A18"/>
<path d="M206.649 201.757L207.89 201.032L192.551 192.189L204.113 185.506L202.864 184.786L191.301 191.469L176.324 182.833L187.904 176.146L186.655 175.426L175.075 182.117L159.178 172.949L170.757 166.245L169.508 165.525L157.929 172.228L142.365 163.256L153.961 156.548L152.712 155.828L141.116 162.539L126.8 154.287L138.413 147.575L137.164 146.855L125.551 153.567L110.674 144.99L122.274 138.282C122.274 138.282 122.287 138.274 122.295 138.27L121.05 137.549L109.425 144.269L95.3598 136.163L106.998 129.434L105.748 128.714L94.1107 135.442L80.9615 127.86L79.7207 128.577C79.7415 128.593 79.7623 128.61 79.7831 128.622L92.8615 136.163L81.1197 142.949L67.9663 135.367L66.7172 136.088L79.8706 143.67L67.4708 150.835L54.3175 143.249L53.0684 143.97L66.2259 151.556L56.0288 157.451L57.2821 158.172L67.4792 152.276L81.5444 160.383L71.3681 166.266L72.6214 166.986L82.7977 161.103L147.195 198.23L137.093 204.068L138.342 204.788L148.444 198.955L163.433 207.599L153.357 213.423L154.61 214.144L164.687 208.319L180.172 217.246L181.413 216.521L165.932 207.599L178.331 200.433L193.746 209.318L194.986 208.594L179.58 199.713L191.322 192.926L206.666 201.774L206.649 201.757ZM173.826 182.833L162.08 189.62L146.195 180.46L157.929 173.669L173.826 182.833ZM156.68 172.949L144.946 179.74L129.378 170.763L141.116 163.972L156.68 172.944V172.949ZM139.866 163.251L128.129 170.042L113.805 161.786L125.547 154.999L139.862 163.251H139.866ZM124.298 154.279L112.556 161.066L97.679 152.488L109.421 145.702L124.298 154.279ZM94.1065 136.871L108.172 144.977L96.4299 151.764L82.3647 143.657L94.1065 136.871ZM68.72 151.547L81.1197 144.382L95.1849 152.488L82.7852 159.654L68.7241 151.547H68.72ZM96.4299 153.209L111.307 161.786L98.9073 168.951L84.0302 160.374L96.4299 153.209ZM112.556 162.51L126.88 170.767L114.488 177.937L100.161 169.676L112.56 162.51H112.556ZM128.129 171.487L143.697 180.464L131.31 187.638L115.737 178.661L128.129 171.491V171.487ZM132.559 188.354L144.946 181.18L160.831 190.336L148.427 197.502L132.559 188.35V188.354ZM164.666 206.866L149.676 198.222L162.08 191.056L177.066 199.696L164.666 206.862V206.866ZM178.315 198.98L163.329 190.34L175.075 183.553L190.057 192.189L178.315 198.976V198.98Z" fill="#EF223A"/>
<path d="M151.787 97.2076L156.084 86.1073C156.167 85.8908 156.304 85.8159 156.488 85.9117L158.611 87.0109C158.786 87.1025 158.923 87.3356 158.99 87.5563L163.212 102.929C163.291 103.207 163.187 103.461 163.016 103.374L160.935 102.329C160.739 102.229 160.589 102.025 160.506 101.696L160.094 100.135C159.931 99.5768 159.819 99.4102 159.481 99.2395L155.538 97.2493C155.134 97.0453 155.051 97.116 154.914 97.5199L154.506 98.6733C154.422 98.9272 154.298 98.9897 154.098 98.8939L151.991 97.8364C151.816 97.7489 151.704 97.4158 151.783 97.1993L151.787 97.2076ZM157.699 91.2328C157.62 90.9538 157.587 90.8622 157.504 90.8206C157.42 90.779 157.387 90.8331 157.329 91.0413L156.421 93.3854C156.396 93.4479 156.375 93.5436 156.375 93.6186C156.375 93.8934 156.454 94.0266 156.583 94.0932L158.457 95.0467C158.595 95.1175 158.653 95.055 158.653 94.7802C158.653 94.7095 158.64 94.6095 158.62 94.5054L157.704 91.2328H157.699Z" fill="#5D0A18"/>
<path d="M172.639 94.7886V97.6324C172.639 97.9031 172.489 98.0405 172.315 97.953L169.879 96.6998C169.729 96.6207 169.625 96.7497 169.625 96.9496V102.441C169.625 102.675 169.725 102.891 169.875 102.966L172.315 104.203C172.489 104.29 172.639 104.582 172.639 104.852V107.696C172.639 108.004 172.489 108.125 172.315 108.037L164.462 104.094C164.287 104.007 164.149 103.736 164.149 103.428V100.555C164.154 100.281 164.295 100.135 164.466 100.222L166.927 101.471C167.043 101.53 167.16 101.426 167.16 101.188V95.6797C167.164 95.4798 167.052 95.2383 166.935 95.18L164.474 93.9143C164.299 93.8268 164.162 93.5354 164.162 93.2648V90.3918C164.166 90.117 164.308 89.9546 164.478 90.0462L172.31 94.11C172.485 94.2016 172.635 94.5097 172.635 94.7803L172.639 94.7886Z" fill="#5D0A18"/>
</svg>
