<svg width="342" height="298" viewBox="0 0 342 298" fill="none" xmlns="http://www.w3.org/2000/svg">
<g filter="url(#filter0_f_2166_7425)">
<path d="M12.6654 34.4523C9.70376 34.4523 7.9494 32.2452 7.9494 27.8688V27.6047C7.9494 23.2471 9.70376 21.0211 12.6654 21.0211C15.6271 21.0211 17.3814 23.2471 17.3814 27.6047V27.8688C17.3814 32.2452 15.6271 34.4523 12.6654 34.4523ZM12.6654 32.698C14.3632 32.698 15.3818 31.302 15.3818 27.8122V27.6801C15.3818 24.1714 14.3632 22.7755 12.6654 22.7755C10.9488 22.7755 9.94899 24.1714 9.94899 27.6801V27.8122C9.94899 31.302 10.9488 32.698 12.6654 32.698ZM12.6654 29.1138C11.892 29.1138 11.4393 28.7365 11.4393 27.7367C11.4393 26.6992 11.892 26.3219 12.6654 26.3219C13.4388 26.3219 13.8916 26.6992 13.8916 27.7367C13.8916 28.7365 13.4388 29.1138 12.6654 29.1138ZM12.6654 57.4523C9.70376 57.4523 7.9494 55.2452 7.9494 50.8688V50.6047C7.9494 46.2471 9.70376 44.0211 12.6654 44.0211C15.6271 44.0211 17.3814 46.2471 17.3814 50.6047V50.8688C17.3814 55.2452 15.6271 57.4523 12.6654 57.4523ZM12.6654 55.698C14.3632 55.698 15.3818 54.302 15.3818 50.8122V50.6801C15.3818 47.1714 14.3632 45.7755 12.6654 45.7755C10.9488 45.7755 9.94899 47.1714 9.94899 50.6801V50.8122C9.94899 54.302 10.9488 55.698 12.6654 55.698ZM12.6654 52.1138C11.892 52.1138 11.4393 51.7365 11.4393 50.7367C11.4393 49.6992 11.892 49.3219 12.6654 49.3219C13.4388 49.3219 13.8916 49.6992 13.8916 50.7367C13.8916 51.7365 13.4388 52.1138 12.6654 52.1138ZM8.08145 80.1882V78.3207H12.0618V69.4169L8.1569 72.454V70.3223L12.0052 67.2852H14.1934V78.3207H17.6644V80.1882H8.08145ZM8.08145 103.188V101.321H12.0618V92.4169L8.1569 95.454V93.3223L12.0052 90.2852H14.1934V101.321H17.6644V103.188H8.08145ZM8.08145 126.188V124.321H12.0618V115.417L8.1569 118.454V116.322L12.0052 113.285H14.1934V124.321H17.6644V126.188H8.08145ZM12.6654 149.452C9.70376 149.452 7.9494 147.245 7.9494 142.869V142.605C7.9494 138.247 9.70376 136.021 12.6654 136.021C15.6271 136.021 17.3814 138.247 17.3814 142.605V142.869C17.3814 147.245 15.6271 149.452 12.6654 149.452ZM12.6654 147.698C14.3632 147.698 15.3818 146.302 15.3818 142.812V142.68C15.3818 139.171 14.3632 137.775 12.6654 137.775C10.9488 137.775 9.94899 139.171 9.94899 142.68V142.812C9.94899 146.302 10.9488 147.698 12.6654 147.698ZM12.6654 144.114C11.892 144.114 11.4393 143.737 11.4393 142.737C11.4393 141.699 11.892 141.322 12.6654 141.322C13.4388 141.322 13.8916 141.699 13.8916 142.737C13.8916 143.737 13.4388 144.114 12.6654 144.114ZM8.08145 172.188V170.321H12.0618V161.417L8.1569 164.454V162.322L12.0052 159.285H14.1934V170.321H17.6644V172.188H8.08145ZM8.08145 195.188V193.321H12.0618V184.417L8.1569 187.454V185.322L12.0052 182.285H14.1934V193.321H17.6644V195.188H8.08145ZM12.6654 218.452C9.70376 218.452 7.9494 216.245 7.9494 211.869V211.605C7.9494 207.247 9.70376 205.021 12.6654 205.021C15.6271 205.021 17.3814 207.247 17.3814 211.605V211.869C17.3814 216.245 15.6271 218.452 12.6654 218.452ZM12.6654 216.698C14.3632 216.698 15.3818 215.302 15.3818 211.812V211.68C15.3818 208.171 14.3632 206.775 12.6654 206.775C10.9488 206.775 9.94899 208.171 9.94899 211.68V211.812C9.94899 215.302 10.9488 216.698 12.6654 216.698ZM12.6654 213.114C11.892 213.114 11.4393 212.737 11.4393 211.737C11.4393 210.699 11.892 210.322 12.6654 210.322C13.4388 210.322 13.8916 210.699 13.8916 211.737C13.8916 212.737 13.4388 213.114 12.6654 213.114Z" fill="#EF223A"/>
</g>
<g filter="url(#filter1_f_2166_7425)">
<path d="M33.5626 126.251V124.672H36.9283V117.143L33.6264 119.711V117.909L36.8805 115.341H38.7308V124.672H41.6659V126.251H33.5626ZM33.5626 145.251V143.672H36.9283V136.143L33.6264 138.711V136.909L36.8805 134.341H38.7308V143.672H41.6659V145.251H33.5626ZM37.4388 164.475C34.9344 164.475 33.4509 162.608 33.4509 158.908V158.684C33.4509 155 34.9344 153.117 37.4388 153.117C39.9431 153.117 41.4266 155 41.4266 158.684V158.908C41.4266 162.608 39.9431 164.475 37.4388 164.475ZM37.4388 162.991C38.8744 162.991 39.7358 161.811 39.7358 158.86V158.748C39.7358 155.781 38.8744 154.601 37.4388 154.601C35.9872 154.601 35.1418 155.781 35.1418 158.748V158.86C35.1418 161.811 35.9872 162.991 37.4388 162.991ZM37.4388 159.961C36.7847 159.961 36.4019 159.642 36.4019 158.796C36.4019 157.919 36.7847 157.6 37.4388 157.6C38.0928 157.6 38.4756 157.919 38.4756 158.796C38.4756 159.642 38.0928 159.961 37.4388 159.961ZM37.4388 183.475C34.9344 183.475 33.4509 181.608 33.4509 177.908V177.684C33.4509 174 34.9344 172.117 37.4388 172.117C39.9431 172.117 41.4266 174 41.4266 177.684V177.908C41.4266 181.608 39.9431 183.475 37.4388 183.475ZM37.4388 181.991C38.8744 181.991 39.7358 180.811 39.7358 177.86V177.748C39.7358 174.781 38.8744 173.601 37.4388 173.601C35.9872 173.601 35.1418 174.781 35.1418 177.748V177.86C35.1418 180.811 35.9872 181.991 37.4388 181.991ZM37.4388 178.961C36.7847 178.961 36.4019 178.642 36.4019 177.796C36.4019 176.919 36.7847 176.6 37.4388 176.6C38.0928 176.6 38.4756 176.919 38.4756 177.796C38.4756 178.642 38.0928 178.961 37.4388 178.961ZM33.5626 202.251V200.672H36.9283V193.143L33.6264 195.711V193.909L36.8805 191.341H38.7308V200.672H41.6659V202.251H33.5626ZM37.4388 221.475C34.9344 221.475 33.4509 219.608 33.4509 215.908V215.684C33.4509 212 34.9344 210.117 37.4388 210.117C39.9431 210.117 41.4266 212 41.4266 215.684V215.908C41.4266 219.608 39.9431 221.475 37.4388 221.475ZM37.4388 219.991C38.8744 219.991 39.7358 218.811 39.7358 215.86V215.748C39.7358 212.781 38.8744 211.601 37.4388 211.601C35.9872 211.601 35.1418 212.781 35.1418 215.748V215.86C35.1418 218.811 35.9872 219.991 37.4388 219.991ZM37.4388 216.961C36.7847 216.961 36.4019 216.642 36.4019 215.796C36.4019 214.919 36.7847 214.6 37.4388 214.6C38.0928 214.6 38.4756 214.919 38.4756 215.796C38.4756 216.642 38.0928 216.961 37.4388 216.961ZM37.4388 240.475C34.9344 240.475 33.4509 238.608 33.4509 234.908V234.684C33.4509 231 34.9344 229.117 37.4388 229.117C39.9431 229.117 41.4266 231 41.4266 234.684V234.908C41.4266 238.608 39.9431 240.475 37.4388 240.475ZM37.4388 238.991C38.8744 238.991 39.7358 237.811 39.7358 234.86V234.748C39.7358 231.781 38.8744 230.601 37.4388 230.601C35.9872 230.601 35.1418 231.781 35.1418 234.748V234.86C35.1418 237.811 35.9872 238.991 37.4388 238.991ZM37.4388 235.961C36.7847 235.961 36.4019 235.642 36.4019 234.796C36.4019 233.919 36.7847 233.6 37.4388 233.6C38.0928 233.6 38.4756 233.919 38.4756 234.796C38.4756 235.642 38.0928 235.961 37.4388 235.961ZM33.5626 259.251V257.672H36.9283V250.143L33.6264 252.711V250.909L36.8805 248.341H38.7308V257.672H41.6659V259.251H33.5626ZM37.4388 278.475C34.9344 278.475 33.4509 276.608 33.4509 272.908V272.684C33.4509 269 34.9344 267.117 37.4388 267.117C39.9431 267.117 41.4266 269 41.4266 272.684V272.908C41.4266 276.608 39.9431 278.475 37.4388 278.475ZM37.4388 276.991C38.8744 276.991 39.7358 275.811 39.7358 272.86V272.748C39.7358 269.781 38.8744 268.601 37.4388 268.601C35.9872 268.601 35.1418 269.781 35.1418 272.748V272.86C35.1418 275.811 35.9872 276.991 37.4388 276.991ZM37.4388 273.961C36.7847 273.961 36.4019 273.642 36.4019 272.796C36.4019 271.919 36.7847 271.6 37.4388 271.6C38.0928 271.6 38.4756 271.919 38.4756 272.796C38.4756 273.642 38.0928 273.961 37.4388 273.961Z" fill="#EF223A"/>
</g>
<g filter="url(#filter2_f_2166_7425)">
<path d="M130.581 45.0769V42.753H135.534V31.6736L130.675 35.4528V32.8003L135.464 29.0211H138.187V42.753H142.506V45.0769H130.581ZM130.581 73.0769V70.753H135.534V59.6736L130.675 63.4528V60.8003L135.464 57.0211H138.187V70.753H142.506V73.0769H130.581ZM136.285 101.406C132.6 101.406 130.417 98.6591 130.417 93.2133V92.8847C130.417 87.4623 132.6 84.6925 136.285 84.6925C139.971 84.6925 142.154 87.4623 142.154 92.8847V93.2133C142.154 98.6591 139.971 101.406 136.285 101.406ZM136.285 99.2225C138.398 99.2225 139.665 97.4855 139.665 93.1429V92.9786C139.665 88.6125 138.398 86.8755 136.285 86.8755C134.149 86.8755 132.905 88.6125 132.905 92.9786V93.1429C132.905 97.4855 134.149 99.2225 136.285 99.2225ZM136.285 94.7626C135.323 94.7626 134.76 94.2931 134.76 93.049C134.76 91.758 135.323 91.2885 136.285 91.2885C137.248 91.2885 137.811 91.758 137.811 93.049C137.811 94.2931 137.248 94.7626 136.285 94.7626ZM136.285 129.406C132.6 129.406 130.417 126.659 130.417 121.213V120.885C130.417 115.462 132.6 112.692 136.285 112.692C139.971 112.692 142.154 115.462 142.154 120.885V121.213C142.154 126.659 139.971 129.406 136.285 129.406ZM136.285 127.223C138.398 127.223 139.665 125.485 139.665 121.143V120.979C139.665 116.613 138.398 114.875 136.285 114.875C134.149 114.875 132.905 116.613 132.905 120.979V121.143C132.905 125.485 134.149 127.223 136.285 127.223ZM136.285 122.763C135.323 122.763 134.76 122.293 134.76 121.049C134.76 119.758 135.323 119.288 136.285 119.288C137.248 119.288 137.811 119.758 137.811 121.049C137.811 122.293 137.248 122.763 136.285 122.763ZM130.581 157.077V154.753H135.534V143.674L130.675 147.453V144.8L135.464 141.021H138.187V154.753H142.506V157.077H130.581ZM136.285 185.406C132.6 185.406 130.417 182.659 130.417 177.213V176.885C130.417 171.462 132.6 168.692 136.285 168.692C139.971 168.692 142.154 171.462 142.154 176.885V177.213C142.154 182.659 139.971 185.406 136.285 185.406ZM136.285 183.223C138.398 183.223 139.665 181.485 139.665 177.143V176.979C139.665 172.613 138.398 170.875 136.285 170.875C134.149 170.875 132.905 172.613 132.905 176.979V177.143C132.905 181.485 134.149 183.223 136.285 183.223ZM136.285 178.763C135.323 178.763 134.76 178.293 134.76 177.049C134.76 175.758 135.323 175.288 136.285 175.288C137.248 175.288 137.811 175.758 137.811 177.049C137.811 178.293 137.248 178.763 136.285 178.763ZM136.285 213.406C132.6 213.406 130.417 210.659 130.417 205.213V204.885C130.417 199.462 132.6 196.692 136.285 196.692C139.971 196.692 142.154 199.462 142.154 204.885V205.213C142.154 210.659 139.971 213.406 136.285 213.406ZM136.285 211.223C138.398 211.223 139.665 209.485 139.665 205.143V204.979C139.665 200.613 138.398 198.875 136.285 198.875C134.149 198.875 132.905 200.613 132.905 204.979V205.143C132.905 209.485 134.149 211.223 136.285 211.223ZM136.285 206.763C135.323 206.763 134.76 206.293 134.76 205.049C134.76 203.758 135.323 203.288 136.285 203.288C137.248 203.288 137.811 203.758 137.811 205.049C137.811 206.293 137.248 206.763 136.285 206.763ZM130.581 241.077V238.753H135.534V227.674L130.675 231.453V228.8L135.464 225.021H138.187V238.753H142.506V241.077H130.581ZM136.285 269.406C132.6 269.406 130.417 266.659 130.417 261.213V260.885C130.417 255.462 132.6 252.692 136.285 252.692C139.971 252.692 142.154 255.462 142.154 260.885V261.213C142.154 266.659 139.971 269.406 136.285 269.406ZM136.285 267.223C138.398 267.223 139.665 265.485 139.665 261.143V260.979C139.665 256.613 138.398 254.875 136.285 254.875C134.149 254.875 132.905 256.613 132.905 260.979V261.143C132.905 265.485 134.149 267.223 136.285 267.223ZM136.285 262.763C135.323 262.763 134.76 262.293 134.76 261.049C134.76 259.758 135.323 259.288 136.285 259.288C137.248 259.288 137.811 259.758 137.811 261.049C137.811 262.293 137.248 262.763 136.285 262.763Z" fill="#EF223A"/>
</g>
<g filter="url(#filter3_f_2166_7425)">
<path d="M265.83 43.3433V42.1396H268.396V36.401L265.879 38.3584V36.9846L268.359 35.0271H269.769V42.1396H272.007V43.3433H265.83ZM265.83 58.3433V57.1396H268.396V51.401L265.879 53.3584V51.9846L268.359 50.0271H269.769V57.1396H272.007V58.3433H265.83ZM268.785 73.5135C266.876 73.5135 265.745 72.091 265.745 69.2703V69.1001C265.745 66.2916 266.876 64.8569 268.785 64.8569C270.693 64.8569 271.824 66.2916 271.824 69.1001V69.2703C271.824 72.091 270.693 73.5135 268.785 73.5135ZM268.785 72.3828C269.879 72.3828 270.535 71.4831 270.535 69.2338V69.1487C270.535 66.8873 269.879 65.9876 268.785 65.9876C267.678 65.9876 267.034 66.8873 267.034 69.1487V69.2338C267.034 71.4831 267.678 72.3828 268.785 72.3828ZM268.785 70.0727C268.286 70.0727 267.994 69.8296 267.994 69.1852C267.994 68.5165 268.286 68.2733 268.785 68.2733C269.283 68.2733 269.575 68.5165 269.575 69.1852C269.575 69.8296 269.283 70.0727 268.785 70.0727ZM268.785 88.5135C266.876 88.5135 265.745 87.091 265.745 84.2703V84.1001C265.745 81.2916 266.876 79.8569 268.785 79.8569C270.693 79.8569 271.824 81.2916 271.824 84.1001V84.2703C271.824 87.091 270.693 88.5135 268.785 88.5135ZM268.785 87.3828C269.879 87.3828 270.535 86.4831 270.535 84.2338V84.1487C270.535 81.8873 269.879 80.9876 268.785 80.9876C267.678 80.9876 267.034 81.8873 267.034 84.1487V84.2338C267.034 86.4831 267.678 87.3828 268.785 87.3828ZM268.785 85.0727C268.286 85.0727 267.994 84.8296 267.994 84.1852C267.994 83.5165 268.286 83.2733 268.785 83.2733C269.283 83.2733 269.575 83.5165 269.575 84.1852C269.575 84.8296 269.283 85.0727 268.785 85.0727ZM265.83 103.343V102.14H268.396V96.401L265.879 98.3584V96.9846L268.359 95.0271H269.769V102.14H272.007V103.343H265.83ZM268.785 118.513C266.876 118.513 265.745 117.091 265.745 114.27V114.1C265.745 111.292 266.876 109.857 268.785 109.857C270.693 109.857 271.824 111.292 271.824 114.1V114.27C271.824 117.091 270.693 118.513 268.785 118.513ZM268.785 117.383C269.879 117.383 270.535 116.483 270.535 114.234V114.149C270.535 111.887 269.879 110.988 268.785 110.988C267.678 110.988 267.034 111.887 267.034 114.149V114.234C267.034 116.483 267.678 117.383 268.785 117.383ZM268.785 115.073C268.286 115.073 267.994 114.83 267.994 114.185C267.994 113.516 268.286 113.273 268.785 113.273C269.283 113.273 269.575 113.516 269.575 114.185C269.575 114.83 269.283 115.073 268.785 115.073ZM268.785 133.513C266.876 133.513 265.745 132.091 265.745 129.27V129.1C265.745 126.292 266.876 124.857 268.785 124.857C270.693 124.857 271.824 126.292 271.824 129.1V129.27C271.824 132.091 270.693 133.513 268.785 133.513ZM268.785 132.383C269.879 132.383 270.535 131.483 270.535 129.234V129.149C270.535 126.887 269.879 125.988 268.785 125.988C267.678 125.988 267.034 126.887 267.034 129.149V129.234C267.034 131.483 267.678 132.383 268.785 132.383ZM268.785 130.073C268.286 130.073 267.994 129.83 267.994 129.185C267.994 128.516 268.286 128.273 268.785 128.273C269.283 128.273 269.575 128.516 269.575 129.185C269.575 129.83 269.283 130.073 268.785 130.073ZM265.83 148.343V147.14H268.396V141.401L265.879 143.358V141.985L268.359 140.027H269.769V147.14H272.007V148.343H265.83ZM268.785 163.513C266.876 163.513 265.745 162.091 265.745 159.27V159.1C265.745 156.292 266.876 154.857 268.785 154.857C270.693 154.857 271.824 156.292 271.824 159.1V159.27C271.824 162.091 270.693 163.513 268.785 163.513ZM268.785 162.383C269.879 162.383 270.535 161.483 270.535 159.234V159.149C270.535 156.887 269.879 155.988 268.785 155.988C267.678 155.988 267.034 156.887 267.034 159.149V159.234C267.034 161.483 267.678 162.383 268.785 162.383ZM268.785 160.073C268.286 160.073 267.994 159.83 267.994 159.185C267.994 158.516 268.286 158.273 268.785 158.273C269.283 158.273 269.575 158.516 269.575 159.185C269.575 159.83 269.283 160.073 268.785 160.073Z" fill="#EF223A"/>
</g>
<g filter="url(#filter4_f_2166_7425)">
<path d="M313.757 175.46V174.774H315.22V171.5L313.785 172.617V171.833L315.199 170.716H316.004V174.774H317.28V175.46H313.757ZM313.757 183.46V182.774H315.22V179.5L313.785 180.617V179.833L315.199 178.716H316.004V182.774H317.28V183.46H313.757ZM315.442 191.557C314.353 191.557 313.708 190.746 313.708 189.137V189.04C313.708 187.438 314.353 186.619 315.442 186.619C316.531 186.619 317.176 187.438 317.176 189.04V189.137C317.176 190.746 316.531 191.557 315.442 191.557ZM315.442 190.912C316.066 190.912 316.441 190.399 316.441 189.116V189.068C316.441 187.778 316.066 187.264 315.442 187.264C314.811 187.264 314.443 187.778 314.443 189.068V189.116C314.443 190.399 314.811 190.912 315.442 190.912ZM315.442 189.595C315.158 189.595 314.991 189.456 314.991 189.088C314.991 188.707 315.158 188.568 315.442 188.568C315.726 188.568 315.893 188.707 315.893 189.088C315.893 189.456 315.726 189.595 315.442 189.595ZM315.442 199.557C314.353 199.557 313.708 198.746 313.708 197.137V197.04C313.708 195.438 314.353 194.619 315.442 194.619C316.531 194.619 317.176 195.438 317.176 197.04V197.137C317.176 198.746 316.531 199.557 315.442 199.557ZM315.442 198.912C316.066 198.912 316.441 198.399 316.441 197.116V197.068C316.441 195.778 316.066 195.264 315.442 195.264C314.811 195.264 314.443 195.778 314.443 197.068V197.116C314.443 198.399 314.811 198.912 315.442 198.912ZM315.442 197.595C315.158 197.595 314.991 197.456 314.991 197.088C314.991 196.707 315.158 196.568 315.442 196.568C315.726 196.568 315.893 196.707 315.893 197.088C315.893 197.456 315.726 197.595 315.442 197.595ZM313.757 207.46V206.774H315.22V203.5L313.785 204.617V203.833L315.199 202.716H316.004V206.774H317.28V207.46H313.757ZM315.442 215.557C314.353 215.557 313.708 214.746 313.708 213.137V213.04C313.708 211.438 314.353 210.619 315.442 210.619C316.531 210.619 317.176 211.438 317.176 213.04V213.137C317.176 214.746 316.531 215.557 315.442 215.557ZM315.442 214.912C316.066 214.912 316.441 214.399 316.441 213.116V213.068C316.441 211.778 316.066 211.264 315.442 211.264C314.811 211.264 314.443 211.778 314.443 213.068V213.116C314.443 214.399 314.811 214.912 315.442 214.912ZM315.442 213.595C315.158 213.595 314.991 213.456 314.991 213.088C314.991 212.707 315.158 212.568 315.442 212.568C315.726 212.568 315.893 212.707 315.893 213.088C315.893 213.456 315.726 213.595 315.442 213.595ZM315.442 223.557C314.353 223.557 313.708 222.746 313.708 221.137V221.04C313.708 219.438 314.353 218.619 315.442 218.619C316.531 218.619 317.176 219.438 317.176 221.04V221.137C317.176 222.746 316.531 223.557 315.442 223.557ZM315.442 222.912C316.066 222.912 316.441 222.399 316.441 221.116V221.068C316.441 219.778 316.066 219.264 315.442 219.264C314.811 219.264 314.443 219.778 314.443 221.068V221.116C314.443 222.399 314.811 222.912 315.442 222.912ZM315.442 221.595C315.158 221.595 314.991 221.456 314.991 221.088C314.991 220.707 315.158 220.568 315.442 220.568C315.726 220.568 315.893 220.707 315.893 221.088C315.893 221.456 315.726 221.595 315.442 221.595ZM313.757 231.46V230.774H315.22V227.5L313.785 228.617V227.833L315.199 226.716H316.004V230.774H317.28V231.46H313.757ZM315.442 239.557C314.353 239.557 313.708 238.746 313.708 237.137V237.04C313.708 235.438 314.353 234.619 315.442 234.619C316.531 234.619 317.176 235.438 317.176 237.04V237.137C317.176 238.746 316.531 239.557 315.442 239.557ZM315.442 238.912C316.066 238.912 316.441 238.399 316.441 237.116V237.068C316.441 235.778 316.066 235.264 315.442 235.264C314.811 235.264 314.443 235.778 314.443 237.068V237.116C314.443 238.399 314.811 238.912 315.442 238.912ZM315.442 237.595C315.158 237.595 314.991 237.456 314.991 237.088C314.991 236.707 315.158 236.568 315.442 236.568C315.726 236.568 315.893 236.707 315.893 237.088C315.893 237.456 315.726 237.595 315.442 237.595Z" fill="#EF223A"/>
</g>
<g filter="url(#filter5_f_2166_7425)">
<path d="M78.5966 51.2111C77.5818 51.2111 76.9807 50.4549 76.9807 48.9553V48.8649C76.9807 47.3718 77.5818 46.6091 78.5966 46.6091C79.6113 46.6091 80.2124 47.3718 80.2124 48.8649V48.9553C80.2124 50.4549 79.6113 51.2111 78.5966 51.2111ZM78.5966 50.61C79.1783 50.61 79.5273 50.1317 79.5273 48.9359V48.8907C79.5273 47.6885 79.1783 47.2102 78.5966 47.2102C78.0084 47.2102 77.6658 47.6885 77.6658 48.8907V48.9359C77.6658 50.1317 78.0084 50.61 78.5966 50.61ZM78.5966 49.3819C78.3316 49.3819 78.1764 49.2527 78.1764 48.9101C78.1764 48.5546 78.3316 48.4253 78.5966 48.4253C78.8616 48.4253 79.0167 48.5546 79.0167 48.9101C79.0167 49.2527 78.8616 49.3819 78.5966 49.3819ZM78.5966 59.2111C77.5818 59.2111 76.9807 58.4549 76.9807 56.9553V56.8649C76.9807 55.3718 77.5818 54.6091 78.5966 54.6091C79.6113 54.6091 80.2124 55.3718 80.2124 56.8649V56.9553C80.2124 58.4549 79.6113 59.2111 78.5966 59.2111ZM78.5966 58.61C79.1783 58.61 79.5273 58.1317 79.5273 56.9359V56.8907C79.5273 55.6885 79.1783 55.2102 78.5966 55.2102C78.0084 55.2102 77.6658 55.6885 77.6658 56.8907V56.9359C77.6658 58.1317 78.0084 58.61 78.5966 58.61ZM78.5966 57.3819C78.3316 57.3819 78.1764 57.2527 78.1764 56.9101C78.1764 56.5546 78.3316 56.4253 78.5966 56.4253C78.8616 56.4253 79.0167 56.5546 79.0167 56.9101C79.0167 57.2527 78.8616 57.3819 78.5966 57.3819ZM77.0259 67.1206V66.4807H78.3897V63.43L77.0518 64.4706V63.7402L78.3703 62.6996H79.1201V66.4807H80.3094V67.1206H77.0259ZM77.0259 75.1206V74.4807H78.3897V71.43L77.0518 72.4706V71.7402L78.3703 70.6996H79.1201V74.4807H80.3094V75.1206H77.0259ZM77.0259 83.1206V82.4807H78.3897V79.43L77.0518 80.4706V79.7402L78.3703 78.6996H79.1201V82.4807H80.3094V83.1206H77.0259ZM78.5966 91.2111C77.5818 91.2111 76.9807 90.4549 76.9807 88.9553V88.8649C76.9807 87.3718 77.5818 86.6091 78.5966 86.6091C79.6113 86.6091 80.2124 87.3718 80.2124 88.8649V88.9553C80.2124 90.4549 79.6113 91.2111 78.5966 91.2111ZM78.5966 90.61C79.1783 90.61 79.5273 90.1317 79.5273 88.9359V88.8907C79.5273 87.6885 79.1783 87.2102 78.5966 87.2102C78.0084 87.2102 77.6658 87.6885 77.6658 88.8907V88.9359C77.6658 90.1317 78.0084 90.61 78.5966 90.61ZM78.5966 89.3819C78.3316 89.3819 78.1764 89.2527 78.1764 88.9101C78.1764 88.5546 78.3316 88.4253 78.5966 88.4253C78.8616 88.4253 79.0167 88.5546 79.0167 88.9101C79.0167 89.2527 78.8616 89.3819 78.5966 89.3819ZM77.0259 99.1206V98.4807H78.3897V95.43L77.0518 96.4706V95.7402L78.3703 94.6996H79.1201V98.4807H80.3094V99.1206H77.0259ZM78.5966 107.211C77.5818 107.211 76.9807 106.455 76.9807 104.955V104.865C76.9807 103.372 77.5818 102.609 78.5966 102.609C79.6113 102.609 80.2124 103.372 80.2124 104.865V104.955C80.2124 106.455 79.6113 107.211 78.5966 107.211ZM78.5966 106.61C79.1783 106.61 79.5273 106.132 79.5273 104.936V104.891C79.5273 103.688 79.1783 103.21 78.5966 103.21C78.0084 103.21 77.6658 103.688 77.6658 104.891V104.936C77.6658 106.132 78.0084 106.61 78.5966 106.61ZM78.5966 105.382C78.3316 105.382 78.1764 105.253 78.1764 104.91C78.1764 104.555 78.3316 104.425 78.5966 104.425C78.8616 104.425 79.0167 104.555 79.0167 104.91C79.0167 105.253 78.8616 105.382 78.5966 105.382ZM78.5966 115.211C77.5818 115.211 76.9807 114.455 76.9807 112.955V112.865C76.9807 111.372 77.5818 110.609 78.5966 110.609C79.6113 110.609 80.2124 111.372 80.2124 112.865V112.955C80.2124 114.455 79.6113 115.211 78.5966 115.211ZM78.5966 114.61C79.1783 114.61 79.5273 114.132 79.5273 112.936V112.891C79.5273 111.688 79.1783 111.21 78.5966 111.21C78.0084 111.21 77.6658 111.688 77.6658 112.891V112.936C77.6658 114.132 78.0084 114.61 78.5966 114.61ZM78.5966 113.382C78.3316 113.382 78.1764 113.253 78.1764 112.91C78.1764 112.555 78.3316 112.425 78.5966 112.425C78.8616 112.425 79.0167 112.555 79.0167 112.91C79.0167 113.253 78.8616 113.382 78.5966 113.382Z" fill="#EF223A"/>
</g>
<g filter="url(#filter6_f_2166_7425)">
<path d="M334.064 68.6996C332.425 68.6996 331.454 67.4785 331.454 65.0573V64.9111C331.454 62.5003 332.425 61.2688 334.064 61.2688C335.702 61.2688 336.673 62.5003 336.673 64.9111V65.0573C336.673 67.4785 335.702 68.6996 334.064 68.6996ZM334.064 67.729C335.003 67.729 335.566 66.9567 335.566 65.0259V64.9529C335.566 63.0117 335.003 62.2394 334.064 62.2394C333.114 62.2394 332.561 63.0117 332.561 64.9529V65.0259C332.561 66.9567 333.114 67.729 334.064 67.729ZM334.064 65.7461C333.636 65.7461 333.385 65.5373 333.385 64.9842C333.385 64.4102 333.636 64.2015 334.064 64.2015C334.491 64.2015 334.742 64.4102 334.742 64.9842C334.742 65.5373 334.491 65.7461 334.064 65.7461ZM334.064 81.6996C332.425 81.6996 331.454 80.4785 331.454 78.0573V77.9111C331.454 75.5003 332.425 74.2688 334.064 74.2688C335.702 74.2688 336.673 75.5003 336.673 77.9111V78.0573C336.673 80.4785 335.702 81.6996 334.064 81.6996ZM334.064 80.729C335.003 80.729 335.566 79.9567 335.566 78.0259V77.9529C335.566 76.0117 335.003 75.2394 334.064 75.2394C333.114 75.2394 332.561 76.0117 332.561 77.9529V78.0259C332.561 79.9567 333.114 80.729 334.064 80.729ZM334.064 78.7461C333.636 78.7461 333.385 78.5373 333.385 77.9842C333.385 77.4102 333.636 77.2015 334.064 77.2015C334.491 77.2015 334.742 77.4102 334.742 77.9842C334.742 78.5373 334.491 78.7461 334.064 78.7461ZM331.528 94.5535V93.5203H333.73V88.5943L331.569 90.2745V89.0952L333.698 87.4149H334.909V93.5203H336.829V94.5535H331.528ZM331.528 107.553V106.52H333.73V101.594L331.569 103.275V102.095L333.698 100.415H334.909V106.52H336.829V107.553H331.528ZM331.528 120.553V119.52H333.73V114.594L331.569 116.275V115.095L333.698 113.415H334.909V119.52H336.829V120.553H331.528ZM334.064 133.7C332.425 133.7 331.454 132.479 331.454 130.057V129.911C331.454 127.5 332.425 126.269 334.064 126.269C335.702 126.269 336.673 127.5 336.673 129.911V130.057C336.673 132.479 335.702 133.7 334.064 133.7ZM334.064 132.729C335.003 132.729 335.566 131.957 335.566 130.026V129.953C335.566 128.012 335.003 127.239 334.064 127.239C333.114 127.239 332.561 128.012 332.561 129.953V130.026C332.561 131.957 333.114 132.729 334.064 132.729ZM334.064 130.746C333.636 130.746 333.385 130.537 333.385 129.984C333.385 129.41 333.636 129.201 334.064 129.201C334.491 129.201 334.742 129.41 334.742 129.984C334.742 130.537 334.491 130.746 334.064 130.746ZM331.528 146.553V145.52H333.73V140.594L331.569 142.275V141.095L333.698 139.415H334.909V145.52H336.829V146.553H331.528ZM334.064 159.7C332.425 159.7 331.454 158.479 331.454 156.057V155.911C331.454 153.5 332.425 152.269 334.064 152.269C335.702 152.269 336.673 153.5 336.673 155.911V156.057C336.673 158.479 335.702 159.7 334.064 159.7ZM334.064 158.729C335.003 158.729 335.566 157.957 335.566 156.026V155.953C335.566 154.012 335.003 153.239 334.064 153.239C333.114 153.239 332.561 154.012 332.561 155.953V156.026C332.561 157.957 333.114 158.729 334.064 158.729ZM334.064 156.746C333.636 156.746 333.385 156.537 333.385 155.984C333.385 155.41 333.636 155.201 334.064 155.201C334.491 155.201 334.742 155.41 334.742 155.984C334.742 156.537 334.491 156.746 334.064 156.746ZM334.064 172.7C332.425 172.7 331.454 171.479 331.454 169.057V168.911C331.454 166.5 332.425 165.269 334.064 165.269C335.702 165.269 336.673 166.5 336.673 168.911V169.057C336.673 171.479 335.702 172.7 334.064 172.7ZM334.064 171.729C335.003 171.729 335.566 170.957 335.566 169.026V168.953C335.566 167.012 335.003 166.239 334.064 166.239C333.114 166.239 332.561 167.012 332.561 168.953V169.026C332.561 170.957 333.114 171.729 334.064 171.729ZM334.064 169.746C333.636 169.746 333.385 169.537 333.385 168.984C333.385 168.41 333.636 168.201 334.064 168.201C334.491 168.201 334.742 168.41 334.742 168.984C334.742 169.537 334.491 169.746 334.064 169.746Z" fill="#EF223A"/>
</g>
<g filter="url(#filter7_f_2166_7425)">
<path d="M294.639 84.1434C292.502 84.1434 291.237 82.5512 291.237 79.3939V79.2034C291.237 76.0597 292.502 74.4539 294.639 74.4539C296.775 74.4539 298.041 76.0597 298.041 79.2034V79.3939C298.041 82.5512 296.775 84.1434 294.639 84.1434ZM294.639 82.8778C295.864 82.8778 296.599 81.8707 296.599 79.3531V79.2578C296.599 76.7266 295.864 75.7195 294.639 75.7195C293.4 75.7195 292.679 76.7266 292.679 79.2578V79.3531C292.679 81.8707 293.4 82.8778 294.639 82.8778ZM294.639 80.2921C294.081 80.2921 293.754 80.0199 293.754 79.2986C293.754 78.5502 294.081 78.278 294.639 78.278C295.197 78.278 295.523 78.5502 295.523 79.2986C295.523 80.0199 295.197 80.2921 294.639 80.2921ZM294.639 100.143C292.502 100.143 291.237 98.5512 291.237 95.3939V95.2034C291.237 92.0597 292.502 90.4539 294.639 90.4539C296.775 90.4539 298.041 92.0597 298.041 95.2034V95.3939C298.041 98.5512 296.775 100.143 294.639 100.143ZM294.639 98.8778C295.864 98.8778 296.599 97.8707 296.599 95.3531V95.2578C296.599 92.7266 295.864 91.7195 294.639 91.7195C293.4 91.7195 292.679 92.7266 292.679 95.2578V95.3531C292.679 97.8707 293.4 98.8778 294.639 98.8778ZM294.639 96.2921C294.081 96.2921 293.754 96.0199 293.754 95.2986C293.754 94.5502 294.081 94.278 294.639 94.278C295.197 94.278 295.523 94.5502 295.523 95.2986C295.523 96.0199 295.197 96.2921 294.639 96.2921ZM291.332 115.953V114.606H294.203V108.182L291.386 110.373V108.835L294.163 106.644H295.741V114.606H298.245V115.953H291.332ZM291.332 131.953V130.606H294.203V124.182L291.386 126.373V124.835L294.163 122.644H295.741V130.606H298.245V131.953H291.332ZM291.332 147.953V146.606H294.203V140.182L291.386 142.373V140.835L294.163 138.644H295.741V146.606H298.245V147.953H291.332ZM294.639 164.143C292.502 164.143 291.237 162.551 291.237 159.394V159.203C291.237 156.06 292.502 154.454 294.639 154.454C296.775 154.454 298.041 156.06 298.041 159.203V159.394C298.041 162.551 296.775 164.143 294.639 164.143ZM294.639 162.878C295.864 162.878 296.599 161.871 296.599 159.353V159.258C296.599 156.727 295.864 155.72 294.639 155.72C293.4 155.72 292.679 156.727 292.679 159.258V159.353C292.679 161.871 293.4 162.878 294.639 162.878ZM294.639 160.292C294.081 160.292 293.754 160.02 293.754 159.299C293.754 158.55 294.081 158.278 294.639 158.278C295.197 158.278 295.523 158.55 295.523 159.299C295.523 160.02 295.197 160.292 294.639 160.292ZM291.332 179.953V178.606H294.203V172.182L291.386 174.373V172.835L294.163 170.644H295.741V178.606H298.245V179.953H291.332ZM294.639 196.143C292.502 196.143 291.237 194.551 291.237 191.394V191.203C291.237 188.06 292.502 186.454 294.639 186.454C296.775 186.454 298.041 188.06 298.041 191.203V191.394C298.041 194.551 296.775 196.143 294.639 196.143ZM294.639 194.878C295.864 194.878 296.599 193.871 296.599 191.353V191.258C296.599 188.727 295.864 187.72 294.639 187.72C293.4 187.72 292.679 188.727 292.679 191.258V191.353C292.679 193.871 293.4 194.878 294.639 194.878ZM294.639 192.292C294.081 192.292 293.754 192.02 293.754 191.299C293.754 190.55 294.081 190.278 294.639 190.278C295.197 190.278 295.523 190.55 295.523 191.299C295.523 192.02 295.197 192.292 294.639 192.292ZM294.639 212.143C292.502 212.143 291.237 210.551 291.237 207.394V207.203C291.237 204.06 292.502 202.454 294.639 202.454C296.775 202.454 298.041 204.06 298.041 207.203V207.394C298.041 210.551 296.775 212.143 294.639 212.143ZM294.639 210.878C295.864 210.878 296.599 209.871 296.599 207.353V207.258C296.599 204.727 295.864 203.72 294.639 203.72C293.4 203.72 292.679 204.727 292.679 207.258V207.353C292.679 209.871 293.4 210.878 294.639 210.878ZM294.639 208.292C294.081 208.292 293.754 208.02 293.754 207.299C293.754 206.55 294.081 206.278 294.639 206.278C295.197 206.278 295.523 206.55 295.523 207.299C295.523 208.02 295.197 208.292 294.639 208.292Z" fill="#EF223A"/>
</g>
<g filter="url(#filter8_f_2166_7425)">
<path d="M60.8303 99.2984C58.6937 99.2984 57.4281 97.7062 57.4281 94.5489V94.3584C57.4281 91.2148 58.6937 89.6089 60.8303 89.6089C62.9669 89.6089 64.2325 91.2148 64.2325 94.3584V94.5489C64.2325 97.7062 62.9669 99.2984 60.8303 99.2984ZM60.8303 98.0328C62.0551 98.0328 62.79 97.0257 62.79 94.5081V94.4128C62.79 91.8816 62.0551 90.8745 60.8303 90.8745C59.5919 90.8745 58.8706 91.8816 58.8706 94.4128V94.5081C58.8706 97.0257 59.5919 98.0328 60.8303 98.0328ZM60.8303 95.4471C60.2723 95.4471 59.9457 95.1749 59.9457 94.4537C59.9457 93.7052 60.2723 93.433 60.8303 93.433C61.3883 93.433 61.7149 93.7052 61.7149 94.4537C61.7149 95.1749 61.3883 95.4471 60.8303 95.4471ZM60.8303 115.298C58.6937 115.298 57.4281 113.706 57.4281 110.549V110.358C57.4281 107.215 58.6937 105.609 60.8303 105.609C62.9669 105.609 64.2325 107.215 64.2325 110.358V110.549C64.2325 113.706 62.9669 115.298 60.8303 115.298ZM60.8303 114.033C62.0551 114.033 62.79 113.026 62.79 110.508V110.413C62.79 107.882 62.0551 106.875 60.8303 106.875C59.5919 106.875 58.8706 107.882 58.8706 110.413V110.508C58.8706 113.026 59.5919 114.033 60.8303 114.033ZM60.8303 111.447C60.2723 111.447 59.9457 111.175 59.9457 110.454C59.9457 109.705 60.2723 109.433 60.8303 109.433C61.3883 109.433 61.7149 109.705 61.7149 110.454C61.7149 111.175 61.3883 111.447 60.8303 111.447ZM57.5233 131.108V129.761H60.3948V123.337L57.5778 125.528V123.99L60.354 121.799H61.9326V129.761H64.4367V131.108H57.5233ZM57.5233 147.108V145.761H60.3948V139.337L57.5778 141.528V139.99L60.354 137.799H61.9326V145.761H64.4367V147.108H57.5233ZM57.5233 163.108V161.761H60.3948V155.337L57.5778 157.528V155.99L60.354 153.799H61.9326V161.761H64.4367V163.108H57.5233ZM60.8303 179.298C58.6937 179.298 57.4281 177.706 57.4281 174.549V174.358C57.4281 171.215 58.6937 169.609 60.8303 169.609C62.9669 169.609 64.2325 171.215 64.2325 174.358V174.549C64.2325 177.706 62.9669 179.298 60.8303 179.298ZM60.8303 178.033C62.0551 178.033 62.79 177.026 62.79 174.508V174.413C62.79 171.882 62.0551 170.875 60.8303 170.875C59.5919 170.875 58.8706 171.882 58.8706 174.413V174.508C58.8706 177.026 59.5919 178.033 60.8303 178.033ZM60.8303 175.447C60.2723 175.447 59.9457 175.175 59.9457 174.454C59.9457 173.705 60.2723 173.433 60.8303 173.433C61.3883 173.433 61.7149 173.705 61.7149 174.454C61.7149 175.175 61.3883 175.447 60.8303 175.447ZM57.5233 195.108V193.761H60.3948V187.337L57.5778 189.528V187.99L60.354 185.799H61.9326V193.761H64.4367V195.108H57.5233ZM60.8303 211.298C58.6937 211.298 57.4281 209.706 57.4281 206.549V206.358C57.4281 203.215 58.6937 201.609 60.8303 201.609C62.9669 201.609 64.2325 203.215 64.2325 206.358V206.549C64.2325 209.706 62.9669 211.298 60.8303 211.298ZM60.8303 210.033C62.0551 210.033 62.79 209.026 62.79 206.508V206.413C62.79 203.882 62.0551 202.875 60.8303 202.875C59.5919 202.875 58.8706 203.882 58.8706 206.413V206.508C58.8706 209.026 59.5919 210.033 60.8303 210.033ZM60.8303 207.447C60.2723 207.447 59.9457 207.175 59.9457 206.454C59.9457 205.705 60.2723 205.433 60.8303 205.433C61.3883 205.433 61.7149 205.705 61.7149 206.454C61.7149 207.175 61.3883 207.447 60.8303 207.447ZM60.8303 227.298C58.6937 227.298 57.4281 225.706 57.4281 222.549V222.358C57.4281 219.215 58.6937 217.609 60.8303 217.609C62.9669 217.609 64.2325 219.215 64.2325 222.358V222.549C64.2325 225.706 62.9669 227.298 60.8303 227.298ZM60.8303 226.033C62.0551 226.033 62.79 225.026 62.79 222.508V222.413C62.79 219.882 62.0551 218.875 60.8303 218.875C59.5919 218.875 58.8706 219.882 58.8706 222.413V222.508C58.8706 225.026 59.5919 226.033 60.8303 226.033ZM60.8303 223.447C60.2723 223.447 59.9457 223.175 59.9457 222.454C59.9457 221.705 60.2723 221.433 60.8303 221.433C61.3883 221.433 61.7149 221.705 61.7149 222.454C61.7149 223.175 61.3883 223.447 60.8303 223.447Z" fill="#EF223A"/>
</g>
<g filter="url(#filter9_f_2166_7425)">
<path d="M214.569 18.2669C211.576 18.2669 209.803 16.0364 209.803 11.6135V11.3466C209.803 6.9427 211.576 4.69311 214.569 4.69311C217.562 4.69311 219.335 6.9427 219.335 11.3466V11.6135C219.335 16.0364 217.562 18.2669 214.569 18.2669ZM214.569 16.4939C216.285 16.4939 217.315 15.0832 217.315 11.5563V11.4228C217.315 7.87685 216.285 6.46609 214.569 6.46609C212.834 6.46609 211.824 7.87685 211.824 11.4228V11.5563C211.824 15.0832 212.834 16.4939 214.569 16.4939ZM214.569 12.8717C213.788 12.8717 213.33 12.4904 213.33 11.48C213.33 10.4315 213.788 10.0502 214.569 10.0502C215.351 10.0502 215.808 10.4315 215.808 11.48C215.808 12.4904 215.351 12.8717 214.569 12.8717ZM214.569 41.2669C211.576 41.2669 209.803 39.0364 209.803 34.6135V34.3466C209.803 29.9427 211.576 27.6931 214.569 27.6931C217.562 27.6931 219.335 29.9427 219.335 34.3466V34.6135C219.335 39.0364 217.562 41.2669 214.569 41.2669ZM214.569 39.4939C216.285 39.4939 217.315 38.0832 217.315 34.5563V34.4228C217.315 30.8769 216.285 29.4661 214.569 29.4661C212.834 29.4661 211.824 30.8769 211.824 34.4228V34.5563C211.824 38.0832 212.834 39.4939 214.569 39.4939ZM214.569 35.8717C213.788 35.8717 213.33 35.4904 213.33 34.48C213.33 33.4315 213.788 33.0502 214.569 33.0502C215.351 33.0502 215.808 33.4315 215.808 34.48C215.808 35.4904 215.351 35.8717 214.569 35.8717ZM209.937 64V62.1126H213.959V53.1143L210.013 56.1836V54.0294L213.902 50.96H216.114V62.1126H219.621V64H209.937ZM209.937 87V85.1126H213.959V76.1143L210.013 79.1836V77.0294L213.902 73.96H216.114V85.1126H219.621V87H209.937ZM209.937 110V108.113H213.959V99.1143L210.013 102.184V100.029L213.902 96.96H216.114V108.113H219.621V110H209.937ZM214.569 133.267C211.576 133.267 209.803 131.036 209.803 126.613V126.347C209.803 121.943 211.576 119.693 214.569 119.693C217.562 119.693 219.335 121.943 219.335 126.347V126.613C219.335 131.036 217.562 133.267 214.569 133.267ZM214.569 131.494C216.285 131.494 217.315 130.083 217.315 126.556V126.423C217.315 122.877 216.285 121.466 214.569 121.466C212.834 121.466 211.824 122.877 211.824 126.423V126.556C211.824 130.083 212.834 131.494 214.569 131.494ZM214.569 127.872C213.788 127.872 213.33 127.49 213.33 126.48C213.33 125.431 213.788 125.05 214.569 125.05C215.351 125.05 215.808 125.431 215.808 126.48C215.808 127.49 215.351 127.872 214.569 127.872ZM209.937 156V154.113H213.959V145.114L210.013 148.184V146.029L213.902 142.96H216.114V154.113H219.621V156H209.937ZM214.569 179.267C211.576 179.267 209.803 177.036 209.803 172.613V172.347C209.803 167.943 211.576 165.693 214.569 165.693C217.562 165.693 219.335 167.943 219.335 172.347V172.613C219.335 177.036 217.562 179.267 214.569 179.267ZM214.569 177.494C216.285 177.494 217.315 176.083 217.315 172.556V172.423C217.315 168.877 216.285 167.466 214.569 167.466C212.834 167.466 211.824 168.877 211.824 172.423V172.556C211.824 176.083 212.834 177.494 214.569 177.494ZM214.569 173.872C213.788 173.872 213.33 173.49 213.33 172.48C213.33 171.431 213.788 171.05 214.569 171.05C215.351 171.05 215.808 171.431 215.808 172.48C215.808 173.49 215.351 173.872 214.569 173.872ZM214.569 202.267C211.576 202.267 209.803 200.036 209.803 195.613V195.347C209.803 190.943 211.576 188.693 214.569 188.693C217.562 188.693 219.335 190.943 219.335 195.347V195.613C219.335 200.036 217.562 202.267 214.569 202.267ZM214.569 200.494C216.285 200.494 217.315 199.083 217.315 195.556V195.423C217.315 191.877 216.285 190.466 214.569 190.466C212.834 190.466 211.824 191.877 211.824 195.423V195.556C211.824 199.083 212.834 200.494 214.569 200.494ZM214.569 196.872C213.788 196.872 213.33 196.49 213.33 195.48C213.33 194.431 213.788 194.05 214.569 194.05C215.351 194.05 215.808 194.431 215.808 195.48C215.808 196.49 215.351 196.872 214.569 196.872Z" fill="#EF223A"/>
</g>
<g filter="url(#filter10_f_2166_7425)">
<path d="M93.1342 37.6326V35.765H97.1145V26.8612L93.2096 29.8983V27.7667L97.0579 24.7295H99.2461V35.765H102.717V37.6326H93.1342ZM97.7181 60.8967C94.7565 60.8967 93.0021 58.6896 93.0021 54.3131V54.049C93.0021 49.6914 94.7565 47.4655 97.7181 47.4655C100.68 47.4655 102.434 49.6914 102.434 54.049V54.3131C102.434 58.6896 100.68 60.8967 97.7181 60.8967ZM97.7181 59.1423C99.4159 59.1423 100.435 57.7464 100.435 54.2565V54.1245C100.435 50.6158 99.4159 49.2198 97.7181 49.2198C96.0015 49.2198 95.0017 50.6158 95.0017 54.1245V54.2565C95.0017 57.7464 96.0015 59.1423 97.7181 59.1423ZM97.7181 55.5581C96.9447 55.5581 96.492 55.1809 96.492 54.1811C96.492 53.1435 96.9447 52.7663 97.7181 52.7663C98.4916 52.7663 98.9443 53.1435 98.9443 54.1811C98.9443 55.1809 98.4916 55.5581 97.7181 55.5581ZM97.7181 83.8967C94.7565 83.8967 93.0021 81.6896 93.0021 77.3131V77.049C93.0021 72.6914 94.7565 70.4655 97.7181 70.4655C100.68 70.4655 102.434 72.6914 102.434 77.049V77.3131C102.434 81.6896 100.68 83.8967 97.7181 83.8967ZM97.7181 82.1423C99.4159 82.1423 100.435 80.7464 100.435 77.2565V77.1245C100.435 73.6158 99.4159 72.2198 97.7181 72.2198C96.0015 72.2198 95.0017 73.6158 95.0017 77.1245V77.2565C95.0017 80.7464 96.0015 82.1423 97.7181 82.1423ZM97.7181 78.5581C96.9447 78.5581 96.492 78.1809 96.492 77.1811C96.492 76.1435 96.9447 75.7663 97.7181 75.7663C98.4916 75.7663 98.9443 76.1435 98.9443 77.1811C98.9443 78.1809 98.4916 78.5581 97.7181 78.5581ZM97.7181 106.897C94.7565 106.897 93.0021 104.69 93.0021 100.313V100.049C93.0021 95.6914 94.7565 93.4655 97.7181 93.4655C100.68 93.4655 102.434 95.6914 102.434 100.049V100.313C102.434 104.69 100.68 106.897 97.7181 106.897ZM97.7181 105.142C99.4159 105.142 100.435 103.746 100.435 100.257V100.124C100.435 96.6158 99.4159 95.2198 97.7181 95.2198C96.0015 95.2198 95.0017 96.6158 95.0017 100.124V100.257C95.0017 103.746 96.0015 105.142 97.7181 105.142ZM97.7181 101.558C96.9447 101.558 96.492 101.181 96.492 100.181C96.492 99.1435 96.9447 98.7663 97.7181 98.7663C98.4916 98.7663 98.9443 99.1435 98.9443 100.181C98.9443 101.181 98.4916 101.558 97.7181 101.558ZM93.1342 129.633V127.765H97.1145V118.861L93.2096 121.898V119.767L97.0579 116.73H99.2461V127.765H102.717V129.633H93.1342ZM93.1342 152.633V150.765H97.1145V141.861L93.2096 144.898V142.767L97.0579 139.73H99.2461V150.765H102.717V152.633H93.1342ZM97.7181 175.897C94.7565 175.897 93.0021 173.69 93.0021 169.313V169.049C93.0021 164.691 94.7565 162.465 97.7181 162.465C100.68 162.465 102.434 164.691 102.434 169.049V169.313C102.434 173.69 100.68 175.897 97.7181 175.897ZM97.7181 174.142C99.4159 174.142 100.435 172.746 100.435 169.257V169.124C100.435 165.616 99.4159 164.22 97.7181 164.22C96.0015 164.22 95.0017 165.616 95.0017 169.124V169.257C95.0017 172.746 96.0015 174.142 97.7181 174.142ZM97.7181 170.558C96.9447 170.558 96.492 170.181 96.492 169.181C96.492 168.144 96.9447 167.766 97.7181 167.766C98.4916 167.766 98.9443 168.144 98.9443 169.181C98.9443 170.181 98.4916 170.558 97.7181 170.558ZM93.1342 198.633V196.765H97.1145V187.861L93.2096 190.898V188.767L97.0579 185.73H99.2461V196.765H102.717V198.633H93.1342ZM93.1342 221.633V219.765H97.1145V210.861L93.2096 213.898V211.767L97.0579 208.73H99.2461V219.765H102.717V221.633H93.1342Z" fill="#EF223A"/>
</g>
<defs>
<filter id="filter0_f_2166_7425" x="0.000249386" y="13.072" width="25.6128" height="213.329" filterUnits="userSpaceOnUse" color-interpolation-filters="sRGB">
<feFlood flood-opacity="0" result="BackgroundImageFix"/>
<feBlend mode="normal" in="SourceGraphic" in2="BackgroundImageFix" result="shape"/>
<feGaussianBlur stdDeviation="3.97448" result="effect1_foregroundBlur_2166_7425"/>
</filter>
<filter id="filter1_f_2166_7425" x="30.3546" y="112.244" width="14.408" height="169.327" filterUnits="userSpaceOnUse" color-interpolation-filters="sRGB">
<feFlood flood-opacity="0" result="BackgroundImageFix"/>
<feBlend mode="normal" in="SourceGraphic" in2="BackgroundImageFix" result="shape"/>
<feGaussianBlur stdDeviation="1.54829" result="effect1_foregroundBlur_2166_7425"/>
</filter>
<filter id="filter2_f_2166_7425" x="128.342" y="26.946" width="16.2389" height="244.535" filterUnits="userSpaceOnUse" color-interpolation-filters="sRGB">
<feFlood flood-opacity="0" result="BackgroundImageFix"/>
<feBlend mode="normal" in="SourceGraphic" in2="BackgroundImageFix" result="shape"/>
<feGaussianBlur stdDeviation="1.03752" result="effect1_foregroundBlur_2166_7425"/>
</filter>
<filter id="filter3_f_2166_7425" x="264.532" y="33.814" width="8.68791" height="130.913" filterUnits="userSpaceOnUse" color-interpolation-filters="sRGB">
<feFlood flood-opacity="0" result="BackgroundImageFix"/>
<feBlend mode="normal" in="SourceGraphic" in2="BackgroundImageFix" result="shape"/>
<feGaussianBlur stdDeviation="0.606548" result="effect1_foregroundBlur_2166_7425"/>
</filter>
<filter id="filter4_f_2166_7425" x="308.153" y="165.162" width="14.6817" height="79.9502" filterUnits="userSpaceOnUse" color-interpolation-filters="sRGB">
<feFlood flood-opacity="0" result="BackgroundImageFix"/>
<feBlend mode="normal" in="SourceGraphic" in2="BackgroundImageFix" result="shape"/>
<feGaussianBlur stdDeviation="2.77735" result="effect1_foregroundBlur_2166_7425"/>
</filter>
<filter id="filter5_f_2166_7425" x="72.7027" y="42.3314" width="11.8846" height="77.1576" filterUnits="userSpaceOnUse" color-interpolation-filters="sRGB">
<feFlood flood-opacity="0" result="BackgroundImageFix"/>
<feBlend mode="normal" in="SourceGraphic" in2="BackgroundImageFix" result="shape"/>
<feGaussianBlur stdDeviation="2.13888" result="effect1_foregroundBlur_2166_7425"/>
</filter>
<filter id="filter6_f_2166_7425" x="326.378" y="56.193" width="15.5267" height="121.582" filterUnits="userSpaceOnUse" color-interpolation-filters="sRGB">
<feFlood flood-opacity="0" result="BackgroundImageFix"/>
<feBlend mode="normal" in="SourceGraphic" in2="BackgroundImageFix" result="shape"/>
<feGaussianBlur stdDeviation="2.53792" result="effect1_foregroundBlur_2166_7425"/>
</filter>
<filter id="filter7_f_2166_7425" x="288.619" y="71.8361" width="12.2443" height="142.925" filterUnits="userSpaceOnUse" color-interpolation-filters="sRGB">
<feFlood flood-opacity="0" result="BackgroundImageFix"/>
<feBlend mode="normal" in="SourceGraphic" in2="BackgroundImageFix" result="shape"/>
<feGaussianBlur stdDeviation="1.30887" result="effect1_foregroundBlur_2166_7425"/>
</filter>
<filter id="filter8_f_2166_7425" x="56.2146" y="88.3958" width="9.43498" height="140.116" filterUnits="userSpaceOnUse" color-interpolation-filters="sRGB">
<feFlood flood-opacity="0" result="BackgroundImageFix"/>
<feBlend mode="normal" in="SourceGraphic" in2="BackgroundImageFix" result="shape"/>
<feGaussianBlur stdDeviation="0.606548" result="effect1_foregroundBlur_2166_7425"/>
</filter>
<filter id="filter9_f_2166_7425" x="207.729" y="2.61808" width="13.9674" height="201.724" filterUnits="userSpaceOnUse" color-interpolation-filters="sRGB">
<feFlood flood-opacity="0" result="BackgroundImageFix"/>
<feBlend mode="normal" in="SourceGraphic" in2="BackgroundImageFix" result="shape"/>
<feGaussianBlur stdDeviation="1.03752" result="effect1_foregroundBlur_2166_7425"/>
</filter>
<filter id="filter10_f_2166_7425" x="90.4481" y="22.1756" width="14.8226" height="202.011" filterUnits="userSpaceOnUse" color-interpolation-filters="sRGB">
<feFlood flood-opacity="0" result="BackgroundImageFix"/>
<feBlend mode="normal" in="SourceGraphic" in2="BackgroundImageFix" result="shape"/>
<feGaussianBlur stdDeviation="1.27694" result="effect1_foregroundBlur_2166_7425"/>
</filter>
</defs>
</svg>
