<svg width="304" height="277" viewBox="0 0 304 277" fill="none" xmlns="http://www.w3.org/2000/svg">
<path d="M64.2422 143.985L78.0775 187.728L100.49 214.858C118.983 223.945 138.61 226.715 158.877 225.933C158.877 225.933 200.937 213.198 201.767 212.921C202.598 212.644 236.91 180.531 236.91 180.531C242.629 149.837 245.267 118.752 233.519 93.9485L184.886 58.4399C169.28 54.4567 150.549 55.7754 130.376 59.5479C130.376 59.5479 102.151 65.3622 87.2087 94.1544C72.266 122.947 64.2422 143.985 64.2422 143.985Z" fill="white"/>
<path d="M219.666 94.2881L230.838 97.7125L234.79 96.7957L234.619 93.1238L231.529 94.1141L220.391 90.724L219.666 94.2881Z" fill="#430B12"/>
<path d="M184.055 53.665L181.637 57.712L182.468 68.1959L177.095 76.3634L156.848 77.5988L154.694 105.183L172.932 113.463L183.803 98.7824L179.993 85.7859L183.262 84.7196L194.838 96.0885L196.347 94.4633L196.288 90.4261L191.94 85.5776L194.693 87.1709L205.677 93.6544L209.994 91.0585L209.291 94.1691L202.149 101.025L189.627 96.7013L175.711 126.035L175.181 133.781L187.672 145.525L209.117 141.037L214.926 159.507L236.667 176.8H238.605L241.611 172.709L218.682 155.207L211.329 133.83L189.47 140.265L178.19 125.214L190.271 99.0079L202.448 102.513L210.655 94.0245L212.686 84.7956L206.321 88.8573L187.966 79.7191L176.99 82.766L181.233 93.1004L172.655 106.759L156.792 98.6377L158.173 78.7975L177.727 77.8758L187.598 69.5686L184.055 53.665Z" fill="#430B12"/>
<path d="M97.2185 79.7367L118.056 74.17L130.899 102.224L112.84 123.474L118.838 142.067L115.229 143.611L109.51 131.218L102.062 130.543L96.0547 133.554L97.5076 150.026L107.746 152.587L114.202 160.135L117.757 153.455L122.846 154.561L121.633 158.056L132.102 152.153L137.151 159.005L162.374 165.366L159.354 203.316L164.91 213.42L173.603 214.873L174.906 221.072L170.908 223.575H152.491L124.348 212.312L104.466 193.013L109.843 164.152L104.424 162.618C104.424 162.618 86.0219 168.224 85.5392 168.432C85.0566 168.64 59.9512 152.862 59.9512 152.862L68.4552 115.003L97.2185 79.7343V79.7367Z" fill="#430B12"/>
<path d="M117.921 74.7758L94.8175 80.3131L63.271 115.471L59.9512 150.909L84.8557 165.579L104.086 161.081L110.106 163.988L105.316 192.879L124.789 211.76L152.648 223.232L170.91 223.58L170.011 216.381L162.333 215.619L155.416 202.816L159.427 164.819L137.154 159.005L132.102 152.154L118.475 159.836L120.413 154.161L117.784 153.536L113.08 162.535L106.646 154.644L95.4398 151.531L93.7101 131.666L101.597 128.345L109.067 129.73L114.325 141.011L117.644 139.143L111.005 119.486L128.16 97.5453L117.921 74.7758Z" fill="#EF223A"/>
<path d="M238.707 173.261L217.262 155.821L210.708 134.868L188.778 141.038L176.17 125.923L190.282 97.408L202.179 101.283L209.372 94.2239L211.171 86.6104L205.913 90.3485L189.312 83.1517L196.091 90.4882L194.43 93.6724L183.084 82.4604L179.347 83.9827L182.39 94.7803L172.568 109.176L155.273 100.872L157.072 77.7541L177.686 76.7858L183.358 68.758L184.049 53.6707C184.049 53.6707 220.5 67.1035 234.613 93.1282L230.555 95.6186L220.964 91.9271L220.317 95.6186L236.901 100.597C236.901 100.597 245.28 121.222 246.003 133.127C246.726 145.033 241.605 172.717 241.605 172.717L238.699 173.271L238.707 173.261Z" fill="#EF223A"/>
<ellipse cx="186.626" cy="178" rx="7.68375" ry="7.68753" fill="#EF223A"/>
<path d="M63.7712 123.6C45.6869 143.38 28.6769 172.397 35.3685 186.801C48.5898 215.26 113.62 213.073 180.618 181.917C247.616 150.76 291.211 102.432 277.99 73.9736C268.929 54.4711 234.014 49.8591 192.332 58.6009" stroke="#EF223A" stroke-width="1.75701"/>
<path d="M71.1984 116.357C46.9538 94.2362 34.5873 74.2783 40.8278 63.4641C51.4471 45.062 111.924 60.1054 175.908 97.0644C239.891 134.023 283.152 178.903 272.532 197.305C266.684 207.439 244.588 207.237 216.239 199.01" stroke="#EF223A" stroke-width="1.75701"/>
<path d="M153.488 27.9138C214.566 27.9139 264.08 77.4514 264.08 138.56C264.08 199.669 214.566 249.208 153.488 249.208C92.4104 249.208 42.8965 199.669 42.8965 138.56C42.8965 77.4513 92.4104 27.9138 153.488 27.9138Z" stroke="#EF223A" stroke-width="1.75701"/>
<path d="M212.362 203.409L222.31 194.15L212.246 195.365L212.362 203.409Z" fill="#430B12"/>
<ellipse cx="37.9049" cy="58.1131" rx="23.3453" ry="23.3568" fill="#430B12"/>
<ellipse cx="280.442" cy="198.782" rx="23.3453" ry="23.3568" fill="#430B12"/>
<ellipse cx="23.3453" cy="188.106" rx="23.3453" ry="23.3568" fill="#430B12"/>
<ellipse cx="155.599" cy="23.3569" rx="23.3453" ry="23.3568" fill="#430B12"/>
<ellipse cx="151.564" cy="253.405" rx="23.3453" ry="23.3568" fill="#430B12"/>
<ellipse cx="270.982" cy="56.7151" rx="23.3453" ry="23.3568" fill="#430B12"/>
<g clip-path="url(#clip0_2156_27265)">
<path d="M162.389 34.9033C162.394 34.887 162.4 34.8714 162.406 34.8558C162.409 34.8483 162.412 34.8402 162.416 34.8327C162.42 34.8227 162.425 34.8127 162.43 34.8027C162.437 34.7883 162.445 34.7746 162.453 34.7614C162.458 34.7533 162.463 34.7452 162.468 34.7371C162.476 34.7258 162.484 34.7152 162.492 34.7046C162.498 34.6971 162.503 34.689 162.509 34.6821C162.518 34.6715 162.528 34.6615 162.538 34.6515C162.544 34.6452 162.549 34.6383 162.556 34.6321C162.568 34.6215 162.579 34.6121 162.591 34.6027C162.596 34.5983 162.602 34.5933 162.607 34.589C162.626 34.5759 162.644 34.5634 162.663 34.5521L160.348 35.8982C160.329 35.9094 160.31 35.9219 160.293 35.9351C160.287 35.9394 160.281 35.9444 160.276 35.9494C160.264 35.9588 160.253 35.9682 160.242 35.9788C160.235 35.985 160.229 35.9913 160.223 35.9982C160.213 36.0082 160.204 36.0182 160.195 36.0288C160.188 36.0363 160.183 36.0438 160.177 36.0513C160.169 36.0619 160.161 36.0725 160.153 36.0838C160.152 36.0869 160.148 36.09 160.147 36.0931C160.143 36.0975 160.142 36.1031 160.138 36.1081C160.13 36.1213 160.123 36.135 160.115 36.1494C160.113 36.1544 160.11 36.1581 160.108 36.1631C160.105 36.1681 160.104 36.1744 160.101 36.1794C160.098 36.1869 160.094 36.1944 160.091 36.2025C160.089 36.2075 160.087 36.2125 160.085 36.2175C160.081 36.2281 160.077 36.2394 160.074 36.25C160.073 36.2531 160.072 36.2568 160.071 36.26C160.071 36.2612 160.07 36.2625 160.07 36.2637C160.066 36.2775 160.062 36.2912 160.059 36.3056C160.057 36.3131 160.056 36.3206 160.054 36.3281L159.181 40.0356L161.496 38.6895L162.369 34.982C162.373 34.9582 162.38 34.9358 162.386 34.9133C162.387 34.9101 162.388 34.9064 162.389 34.9033Z" fill="white" stroke="#430B12" stroke-width="0.163899" stroke-linecap="round" stroke-linejoin="round"/>
<path d="M157.288 30.576L159.602 29.2299C159.585 29.2399 159.567 29.2493 159.548 29.2574C159.542 29.2599 159.536 29.2624 159.53 29.2649C159.518 29.2699 159.506 29.2743 159.494 29.2787C159.472 29.2862 159.449 29.2924 159.426 29.2968C159.424 29.2968 159.422 29.298 159.42 29.2987C159.413 29.2999 159.406 29.3005 159.398 29.3018C159.384 29.3043 159.369 29.3068 159.354 29.3081C159.35 29.3081 159.347 29.3081 159.343 29.3081C159.326 29.3093 159.308 29.3099 159.29 29.3099C159.285 29.3099 159.28 29.3099 159.275 29.3099C159.255 29.3093 159.236 29.3081 159.216 29.3056C159.215 29.3056 159.214 29.3056 159.213 29.3056C159.191 29.3025 159.169 29.2987 159.147 29.2937C159.145 29.2937 159.143 29.2925 159.14 29.2925C159.117 29.2868 159.094 29.28 159.071 29.2719L155.41 28.1497L153.095 29.4958L156.756 30.6179C156.766 30.6217 156.776 30.6248 156.786 30.6279C156.797 30.6311 156.809 30.6342 156.82 30.6373C156.822 30.6373 156.824 30.6379 156.825 30.6386C156.828 30.6386 156.83 30.6398 156.832 30.6404C156.84 30.6423 156.849 30.6442 156.857 30.646C156.87 30.6485 156.884 30.651 156.897 30.6523C156.897 30.6523 156.898 30.6523 156.899 30.6523C156.9 30.6523 156.901 30.6523 156.902 30.6523C156.915 30.6542 156.927 30.6554 156.94 30.656C156.947 30.656 156.954 30.656 156.96 30.6567C156.965 30.6566 156.971 30.6566 156.976 30.6566C156.98 30.6566 156.984 30.6566 156.987 30.6566C157.001 30.6566 157.015 30.6554 157.029 30.6548C157.033 30.6548 157.036 30.6548 157.04 30.6548C157.04 30.6548 157.041 30.6548 157.042 30.6548C157.056 30.6535 157.07 30.651 157.083 30.6485C157.09 30.6473 157.098 30.6466 157.105 30.6454C157.105 30.6454 157.105 30.6454 157.106 30.6454C157.108 30.6454 157.11 30.6441 157.111 30.6441C157.134 30.6391 157.157 30.6329 157.178 30.626C157.181 30.6254 157.183 30.6248 157.186 30.6241C157.196 30.621 157.205 30.6166 157.215 30.6129C157.221 30.6104 157.227 30.6079 157.233 30.6054C157.251 30.5973 157.27 30.5879 157.287 30.5779L157.288 30.576Z" fill="white" stroke="#430B12" stroke-width="0.163899" stroke-linecap="round" stroke-linejoin="round"/>
<path d="M154.238 21.181C154.247 21.1535 154.256 21.1267 154.266 21.101C154.271 21.0898 154.276 21.0792 154.28 21.0686C154.287 21.0529 154.295 21.0373 154.302 21.0223C154.312 21.0023 154.323 20.9823 154.335 20.9636C154.341 20.9517 154.349 20.9392 154.356 20.928C154.367 20.9117 154.379 20.8961 154.391 20.8805C154.399 20.8692 154.408 20.858 154.416 20.8474C154.429 20.8317 154.443 20.8174 154.457 20.803C154.466 20.7936 154.474 20.7836 154.484 20.7749C154.5 20.7599 154.517 20.7461 154.534 20.7324C154.542 20.7255 154.55 20.718 154.559 20.7118C154.585 20.6924 154.612 20.6743 154.64 20.6574L152.325 22.0035C152.297 22.0197 152.27 22.0379 152.244 22.0579C152.235 22.0641 152.228 22.0716 152.219 22.0785C152.202 22.0922 152.185 22.106 152.169 22.121C152.16 22.1297 152.151 22.1397 152.142 22.1491C152.128 22.1635 152.114 22.1778 152.101 22.1934C152.092 22.2041 152.083 22.2153 152.075 22.2266C152.064 22.2422 152.052 22.2578 152.041 22.2741C152.038 22.2784 152.035 22.2822 152.032 22.2865C152.027 22.294 152.024 22.3022 152.019 22.3097C152.008 22.329 151.997 22.3484 151.987 22.3684C151.984 22.3746 151.979 22.3809 151.976 22.3878C151.972 22.3965 151.969 22.4059 151.964 22.4153C151.959 22.4259 151.955 22.4371 151.95 22.4478C151.948 22.454 151.945 22.4602 151.942 22.4665C151.935 22.4865 151.928 22.5071 151.922 22.5284C151.922 22.5296 151.921 22.5308 151.921 22.5321C151.921 22.5321 151.921 22.5327 151.921 22.5333C151.915 22.5527 151.909 22.5727 151.905 22.5933C151.902 22.6071 151.899 22.6214 151.896 22.6358L150.819 28.1827L153.134 26.8366L154.211 21.2897C154.218 21.2541 154.226 21.2198 154.236 21.186C154.236 21.1848 154.237 21.1835 154.237 21.1823L154.238 21.181Z" fill="white" stroke="#430B12" stroke-width="0.163899" stroke-linecap="round" stroke-linejoin="round"/>
<path d="M147.842 14.2122L150.157 12.8661C150.131 12.8811 150.105 12.8943 150.078 12.9068C150.069 12.9105 150.06 12.9136 150.051 12.9174C150.031 12.9255 150.011 12.933 149.991 12.9399C149.985 12.9418 149.979 12.9436 149.973 12.9455C149.946 12.9536 149.918 12.9605 149.89 12.9661C149.88 12.968 149.868 12.9693 149.857 12.9711C149.837 12.9743 149.815 12.978 149.794 12.9799C149.788 12.9799 149.782 12.9799 149.775 12.9805C149.75 12.9824 149.726 12.983 149.7 12.9824C149.693 12.9824 149.685 12.9824 149.677 12.9818C149.648 12.9805 149.618 12.9787 149.588 12.9743C149.587 12.9743 149.586 12.9743 149.585 12.9743C149.553 12.9699 149.52 12.9637 149.487 12.9556C149.486 12.9556 149.484 12.955 149.482 12.9543C149.448 12.9456 149.413 12.9356 149.379 12.9231L144.016 11.0471L141.702 12.3925L147.065 14.2686C147.065 14.2686 147.068 14.2698 147.069 14.2704C147.085 14.2761 147.1 14.2811 147.116 14.2861C147.133 14.291 147.149 14.2954 147.165 14.2998C147.166 14.2998 147.167 14.2998 147.168 14.3004C147.17 14.3004 147.171 14.301 147.173 14.3017C147.188 14.3054 147.203 14.3085 147.218 14.3117C147.236 14.3154 147.254 14.3179 147.271 14.3204C147.272 14.3204 147.273 14.3204 147.274 14.3204C147.274 14.3204 147.274 14.3204 147.275 14.3204C147.296 14.3229 147.316 14.3254 147.337 14.3266C147.346 14.3266 147.354 14.3266 147.363 14.3272C147.371 14.3272 147.378 14.3272 147.386 14.3279C147.393 14.3279 147.399 14.3285 147.406 14.3285C147.424 14.3285 147.443 14.3272 147.461 14.326C147.468 14.326 147.474 14.326 147.48 14.3254C147.481 14.3254 147.483 14.3254 147.484 14.3254C147.504 14.3235 147.523 14.3204 147.542 14.3172C147.554 14.3154 147.565 14.3147 147.576 14.3122C147.577 14.3122 147.577 14.3122 147.578 14.3122C147.606 14.3066 147.632 14.2997 147.658 14.2916C147.664 14.2897 147.67 14.2878 147.676 14.286C147.682 14.2841 147.689 14.2822 147.695 14.2803C147.709 14.2753 147.722 14.2691 147.737 14.2635C147.745 14.2597 147.755 14.2566 147.764 14.2528C147.79 14.241 147.817 14.2272 147.842 14.2128L147.842 14.2122Z" fill="white" stroke="#430B12" stroke-width="0.163899" stroke-linecap="round" stroke-linejoin="round"/>
<path d="M159.215 26.8736L160.065 31.5761C160.14 32.0584 160.505 32.69 160.886 32.9974L164.542 36.0994L164.54 36.9753L160.878 35.8532C160.496 35.7208 160.13 35.9301 160.052 36.3244L159.18 40.0319L158.418 39.5921L157.567 34.8896C157.492 34.4073 157.127 33.7757 156.746 33.4684L153.09 30.3664L153.093 29.4904L156.754 30.6126C157.136 30.745 157.502 30.5356 157.58 30.1414L158.452 26.4339L159.215 26.8736Z" fill="#EF223A" stroke="#430B12" stroke-width="0.163899" stroke-linecap="round" stroke-linejoin="round"/>
<path d="M163.201 31.66C163.179 31.6419 163.155 31.6219 163.133 31.6013C163.13 31.5988 163.127 31.5956 163.124 31.5931C163.103 31.5732 163.082 31.5532 163.06 31.5313C163.059 31.5301 163.058 31.5282 163.056 31.5269C163.036 31.5057 163.015 31.4838 162.995 31.4607C162.992 31.4582 162.991 31.4557 162.988 31.4532C162.968 31.4307 162.949 31.4076 162.929 31.3839C162.925 31.3783 162.921 31.3733 162.916 31.3676C162.898 31.3445 162.88 31.3214 162.862 31.2977C162.86 31.2952 162.858 31.2927 162.856 31.2895C162.851 31.2827 162.846 31.2752 162.841 31.2683C162.823 31.2446 162.806 31.2202 162.789 31.1958C162.786 31.1902 162.782 31.1846 162.779 31.1796C162.749 31.1346 162.719 31.0884 162.692 31.0409C162.688 31.0347 162.684 31.0284 162.681 31.0222C162.668 30.9997 162.655 30.9772 162.643 30.9547C162.637 30.9435 162.631 30.9322 162.624 30.9203C162.622 30.916 162.619 30.911 162.617 30.9066C162.603 30.881 162.59 30.8547 162.578 30.8291C162.574 30.8229 162.572 30.8173 162.569 30.811C162.555 30.7823 162.542 30.7542 162.529 30.7254C162.528 30.7211 162.526 30.7167 162.524 30.7117C162.511 30.6823 162.499 30.653 162.488 30.6236C162.486 30.6205 162.485 30.6174 162.484 30.6142C162.472 30.5836 162.461 30.553 162.451 30.523C162.451 30.5218 162.45 30.5211 162.449 30.5199C162.439 30.4893 162.43 30.4587 162.421 30.4281C162.421 30.4268 162.421 30.4256 162.42 30.4237C162.411 30.3931 162.404 30.3631 162.398 30.3331C162.398 30.3318 162.397 30.3306 162.396 30.3287C162.389 30.2981 162.384 30.2675 162.379 30.2381L161.529 25.5356L160.767 25.0959L158.452 26.442L159.214 26.8817L160.065 31.5842C160.065 31.5842 160.065 31.5861 160.065 31.5867C160.067 31.6005 160.069 31.6148 160.072 31.6286C160.075 31.6429 160.078 31.6573 160.081 31.6723C160.081 31.6729 160.081 31.6742 160.082 31.6748C160.082 31.6761 160.082 31.6779 160.083 31.6792C160.086 31.6923 160.088 31.7054 160.092 31.7185C160.096 31.7348 160.1 31.751 160.105 31.7673C160.105 31.7679 160.105 31.7685 160.106 31.7691C160.106 31.7704 160.107 31.7716 160.107 31.7735C160.112 31.7885 160.115 31.8029 160.12 31.8179C160.125 31.8335 160.13 31.8491 160.135 31.8647C160.135 31.866 160.136 31.8672 160.137 31.8685L160.137 31.8697C160.142 31.8872 160.148 31.9047 160.155 31.9222C160.159 31.9347 160.164 31.9472 160.168 31.9597C160.17 31.9628 160.171 31.9659 160.172 31.9691C160.173 31.9709 160.174 31.9734 160.175 31.9753C160.182 31.9928 160.188 32.0109 160.196 32.0284C160.2 32.0378 160.204 32.0472 160.208 32.0565C160.21 32.0609 160.212 32.0653 160.214 32.0703C160.216 32.0746 160.218 32.0784 160.219 32.0828C160.227 32.1015 160.236 32.1202 160.245 32.139C160.247 32.1446 160.25 32.1502 160.253 32.1559C160.256 32.1621 160.258 32.1677 160.262 32.174C160.265 32.1821 160.27 32.1908 160.273 32.199C160.282 32.2165 160.292 32.2339 160.3 32.2514C160.303 32.2558 160.305 32.2608 160.307 32.2652C160.308 32.2664 160.308 32.2683 160.31 32.2696C160.315 32.2795 160.321 32.2895 160.327 32.2995C160.339 32.322 160.351 32.3445 160.364 32.3664C160.365 32.3689 160.367 32.3708 160.368 32.3733C160.37 32.377 160.373 32.3808 160.375 32.3851C160.403 32.432 160.432 32.4788 160.462 32.5238C160.465 32.5276 160.466 32.5313 160.469 32.5344C160.47 32.5363 160.471 32.5382 160.473 32.5401C160.49 32.5644 160.506 32.5888 160.524 32.6125C160.528 32.6188 160.533 32.6256 160.538 32.6319C160.538 32.6325 160.539 32.6331 160.539 32.6338C160.541 32.6363 160.543 32.6388 160.545 32.6419C160.558 32.6594 160.572 32.6775 160.585 32.6944C160.59 32.7 160.595 32.7056 160.599 32.7118C160.603 32.7175 160.608 32.7225 160.612 32.7281C160.617 32.7343 160.622 32.7406 160.627 32.7468C160.64 32.7624 160.654 32.7781 160.667 32.7937C160.668 32.7949 160.67 32.7962 160.671 32.7981C160.673 32.8006 160.675 32.8031 160.678 32.8056C160.687 32.8162 160.696 32.8268 160.706 32.8368C160.717 32.8487 160.728 32.8599 160.739 32.8718C160.74 32.873 160.741 32.8749 160.743 32.8761C160.744 32.8768 160.744 32.8774 160.745 32.878C160.758 32.8911 160.771 32.9042 160.784 32.9167C160.791 32.9242 160.799 32.9311 160.807 32.938C160.81 32.9405 160.813 32.9436 160.816 32.9461C160.818 32.948 160.82 32.9505 160.823 32.9524C160.835 32.9636 160.847 32.9742 160.859 32.9848C160.868 32.9917 160.875 32.998 160.883 33.0048L164.54 36.1069L164.537 36.9828L166.852 35.6367L166.854 34.7608L163.198 31.6587L163.201 31.66Z" fill="white" stroke="#430B12" stroke-width="0.163899" stroke-linecap="round" stroke-linejoin="round"/>
<path d="M155.432 16.4091C155.398 16.3822 155.364 16.3529 155.33 16.3222C155.328 16.3197 155.325 16.3172 155.322 16.3147C155.29 16.2854 155.258 16.2548 155.226 16.2223C155.226 16.2223 155.225 16.221 155.224 16.2204C155.193 16.1886 155.162 16.1548 155.131 16.1205C155.127 16.1161 155.123 16.1117 155.119 16.1074C155.091 16.0749 155.062 16.0405 155.034 16.0062C155.027 15.998 155.021 15.9905 155.014 15.9824C154.988 15.9499 154.962 15.9162 154.937 15.8825C154.933 15.8775 154.929 15.8731 154.926 15.8681C154.916 15.8556 154.907 15.8419 154.898 15.8294C154.874 15.7969 154.851 15.7644 154.829 15.7307C154.801 15.6894 154.773 15.6476 154.747 15.6051C154.746 15.6032 154.745 15.602 154.744 15.6001C154.718 15.5595 154.693 15.5176 154.669 15.4758C154.65 15.4433 154.632 15.4108 154.614 15.3783C154.605 15.3608 154.595 15.344 154.586 15.3271C154.582 15.3202 154.579 15.3134 154.575 15.3065C154.555 15.2684 154.536 15.2303 154.518 15.1922C154.513 15.1834 154.509 15.1753 154.505 15.1665C154.485 15.1247 154.466 15.0828 154.448 15.041C154.444 15.0341 154.442 15.0272 154.439 15.0204C154.421 14.9779 154.403 14.9348 154.386 14.8923C154.384 14.8873 154.383 14.8817 154.381 14.8767C154.364 14.8329 154.348 14.7892 154.334 14.7455C154.333 14.7424 154.332 14.7386 154.331 14.7355C154.316 14.6905 154.302 14.6455 154.29 14.6018C154.29 14.6005 154.29 14.5993 154.29 14.5987C154.277 14.5531 154.266 14.5081 154.256 14.4637C154.256 14.4625 154.256 14.4612 154.256 14.4593C154.246 14.415 154.238 14.3713 154.231 14.3281L153.188 7.55833L151.664 6.67825L149.349 8.02434L150.873 8.90441L151.917 15.6742C151.917 15.6792 151.918 15.6849 151.919 15.6899C151.922 15.7098 151.925 15.7292 151.93 15.7492C151.934 15.7679 151.937 15.7861 151.941 15.8048C151.941 15.8061 151.941 15.8073 151.942 15.8092C151.942 15.8098 151.942 15.8111 151.942 15.8117C151.947 15.8335 151.952 15.856 151.957 15.8779C151.963 15.8998 151.969 15.921 151.974 15.9429C151.974 15.9441 151.975 15.9454 151.975 15.9466C151.975 15.9472 151.975 15.9479 151.975 15.9485C151.982 15.9729 151.989 15.9972 151.997 16.0216C152.003 16.041 152.009 16.061 152.015 16.0803C152.017 16.0834 152.017 16.0872 152.019 16.0903C152.019 16.0922 152.02 16.0941 152.02 16.0966C152.029 16.1216 152.038 16.1472 152.047 16.1728C152.052 16.189 152.058 16.2053 152.065 16.2215C152.067 16.2265 152.068 16.2321 152.07 16.2371C152.072 16.2409 152.073 16.2452 152.075 16.249C152.085 16.2746 152.095 16.3002 152.106 16.3258C152.112 16.339 152.117 16.3515 152.123 16.3646C152.126 16.3714 152.128 16.3783 152.132 16.3852C152.135 16.3921 152.137 16.3983 152.14 16.4052C152.152 16.4327 152.165 16.4595 152.178 16.487C152.182 16.4951 152.185 16.5026 152.189 16.5108C152.193 16.5195 152.197 16.5276 152.202 16.5364C152.208 16.5489 152.213 16.5614 152.22 16.5739C152.232 16.5995 152.246 16.6251 152.259 16.6501C152.263 16.6569 152.266 16.6638 152.27 16.6707C152.271 16.6732 152.272 16.6751 152.273 16.6776C152.281 16.6926 152.29 16.7075 152.298 16.7219C152.316 16.755 152.333 16.7875 152.352 16.82C152.354 16.8231 152.356 16.8269 152.358 16.83C152.38 16.8681 152.403 16.9056 152.427 16.9431C152.428 16.9449 152.429 16.9468 152.43 16.9487C152.455 16.988 152.48 17.0268 152.506 17.0655C152.508 17.0686 152.511 17.0711 152.513 17.0742C152.535 17.108 152.559 17.1405 152.582 17.173C152.59 17.1842 152.598 17.1967 152.606 17.2079C152.608 17.2092 152.608 17.2104 152.61 17.2117C152.613 17.2167 152.617 17.2211 152.621 17.2261C152.639 17.2504 152.658 17.2748 152.676 17.2985C152.683 17.3079 152.691 17.3166 152.698 17.326C152.705 17.3341 152.711 17.3416 152.718 17.3497C152.725 17.3579 152.731 17.366 152.738 17.3741C152.757 17.3972 152.776 17.4197 152.796 17.4416C152.798 17.4447 152.801 17.4478 152.804 17.4503C152.808 17.4547 152.812 17.4591 152.816 17.4634C152.828 17.4772 152.839 17.4903 152.852 17.5034C152.871 17.5234 152.889 17.5434 152.908 17.5628C152.908 17.5628 152.908 17.5628 152.909 17.5634C152.909 17.5634 152.91 17.5646 152.911 17.5653C152.929 17.5834 152.946 17.6015 152.964 17.6184C152.978 17.6315 152.993 17.6446 153.006 17.6577C153.009 17.6602 153.012 17.6627 153.014 17.6652C153.016 17.6665 153.018 17.6683 153.019 17.6702C153.037 17.6858 153.054 17.7014 153.073 17.7164C153.087 17.7289 153.101 17.7408 153.116 17.752L158.471 22.0634L158.467 23.8152L160.781 22.4692L160.786 20.7173L155.43 16.4059L155.432 16.4091Z" fill="white" stroke="#430B12" stroke-width="0.163899" stroke-linecap="round" stroke-linejoin="round"/>
<path d="M150.873 8.91007L151.917 15.6799C152.022 16.3809 152.562 17.3161 153.117 17.7596L158.473 22.0709L158.468 23.8228L153.106 21.9468C152.549 21.7488 152.007 22.0581 151.898 22.6361L150.821 28.1829L149.297 27.3028L148.254 20.5324C148.148 19.8314 147.609 18.8968 147.053 18.4527L141.698 14.142L141.703 12.3901L147.065 14.2661C147.622 14.4647 148.165 14.1548 148.273 13.5768L149.35 8.03062L150.874 8.9107L150.873 8.91007Z" fill="#EF223A" stroke="#430B12" stroke-width="0.163899" stroke-linecap="round" stroke-linejoin="round"/>
</g>
<path d="M13.4984 179.983L17.3481 177.746L17.3077 191.752L13.458 193.989L13.4984 179.983Z" fill="white" stroke="#430B12" stroke-width="0.141642" stroke-linecap="round" stroke-linejoin="round"/>
<path d="M17.3573 189.226L17.3376 196.223L15.1211 194.942L15.1408 187.946L17.3573 189.226Z" fill="#EF223A" stroke="#430B12" stroke-width="0.141642" stroke-linecap="round" stroke-linejoin="round"/>
<path d="M18.9893 185.708L15.1396 187.945L17.3562 189.226L17.3365 196.222L21.1862 193.985L21.2059 186.988L18.9893 185.708Z" fill="white" stroke="#430B12" stroke-width="0.141642" stroke-linecap="round" stroke-linejoin="round"/>
<path d="M21.2255 194.667L21.2146 198.454L18.998 197.175L19.009 193.388L21.2255 194.667Z" fill="#EF223A" stroke="#430B12" stroke-width="0.141642" stroke-linecap="round" stroke-linejoin="round"/>
<path d="M22.8595 191.151L19.0098 193.388L21.2263 194.667L21.2154 198.454L25.065 196.217L25.076 192.43L22.8595 191.151Z" fill="white" stroke="#430B12" stroke-width="0.141642" stroke-linecap="round" stroke-linejoin="round"/>
<path d="M19.0283 187.002L22.878 184.765L23.433 184.447L19.5833 186.685L19.0283 187.002Z" fill="#430B12"/>
<path d="M26.7403 192.097L22.8906 194.334L25.1082 195.613L25.0929 200.707L28.9426 198.47L28.9568 193.377L26.7403 192.097Z" fill="white" stroke="#430B12" stroke-width="0.141642" stroke-linecap="round" stroke-linejoin="round"/>
<path d="M25.1088 195.614L25.0935 200.707L22.877 199.427L22.8912 194.334L25.1088 195.614Z" fill="#EF223A" stroke="#430B12" stroke-width="0.141642" stroke-linecap="round" stroke-linejoin="round"/>
<path d="M24.5405 185.088L23.4317 184.447L19.582 186.685L20.6908 187.325L21.2425 188.282L21.2392 189.554L21.2305 192.738L25.0802 190.5L25.0889 187.317L25.0922 186.044L24.5405 185.088Z" fill="white" stroke="#430B12" stroke-width="0.141642" stroke-linecap="round" stroke-linejoin="round"/>
<path d="M20.6915 187.325L21.2432 188.282L21.2399 189.555L21.2312 192.738L19.0146 191.459L19.0278 187.003L19.5827 186.685L20.6915 187.325Z" fill="#EF223A" stroke="#430B12" stroke-width="0.141642" stroke-linecap="round" stroke-linejoin="round"/>
<path d="M21.2643 181.669C21.2643 181.669 21.2643 181.669 21.2643 181.668C21.2763 181.644 21.2905 181.624 21.3058 181.604C21.3113 181.597 21.3157 181.591 21.3211 181.584C21.3397 181.565 21.3594 181.547 21.3823 181.534L17.5326 183.771C17.5097 183.784 17.49 183.802 17.4714 183.821C17.466 183.827 17.4616 183.835 17.4561 183.841C17.4496 183.85 17.4419 183.856 17.4354 183.866C17.4277 183.878 17.4212 183.891 17.4146 183.904C17.4146 183.904 17.4146 183.904 17.4146 183.906C17.4146 183.906 17.4146 183.906 17.4146 183.907C17.4103 183.916 17.4059 183.925 17.4026 183.936C17.3993 183.946 17.3961 183.955 17.3928 183.966C17.3906 183.974 17.3873 183.984 17.3851 183.994C17.3851 183.997 17.384 184.002 17.3829 184.005C17.3829 184.006 17.3829 184.007 17.3829 184.008C17.3829 184.013 17.3808 184.016 17.3808 184.02C17.3797 184.029 17.3775 184.038 17.3764 184.046C17.3764 184.055 17.3742 184.064 17.3731 184.073C17.3731 184.081 17.372 184.09 17.372 184.099C17.372 184.108 17.372 184.116 17.372 184.125C17.372 184.125 17.372 184.125 17.372 184.126L17.3633 187.315L21.213 185.078L21.2217 181.889C21.2217 181.846 21.2261 181.806 21.2326 181.77C21.2326 181.769 21.2326 181.768 21.2326 181.767C21.2403 181.731 21.2501 181.698 21.2643 181.668V181.669Z" fill="white"/>
<path d="M21.2643 181.668C21.2643 181.669 21.2643 181.669 21.2643 181.669V181.668ZM21.2643 181.668C21.2763 181.644 21.2905 181.624 21.3058 181.604C21.3113 181.597 21.3157 181.591 21.3211 181.584C21.3397 181.565 21.3594 181.547 21.3823 181.534L17.5326 183.771C17.5097 183.784 17.49 183.802 17.4714 183.821C17.466 183.827 17.4616 183.835 17.4561 183.841C17.4496 183.85 17.4419 183.856 17.4354 183.866C17.4277 183.878 17.4212 183.891 17.4146 183.904C17.4146 183.904 17.4146 183.904 17.4146 183.906C17.4146 183.906 17.4146 183.906 17.4146 183.907C17.4103 183.916 17.4059 183.925 17.4026 183.936C17.3993 183.946 17.3961 183.955 17.3928 183.966C17.3906 183.974 17.3873 183.984 17.3851 183.994C17.3851 183.997 17.384 184.002 17.3829 184.005C17.3829 184.006 17.3829 184.007 17.3829 184.008C17.3829 184.013 17.3808 184.016 17.3808 184.02C17.3797 184.029 17.3775 184.038 17.3764 184.046C17.3764 184.055 17.3742 184.064 17.3731 184.073C17.3731 184.081 17.372 184.09 17.372 184.099C17.372 184.108 17.372 184.116 17.372 184.125C17.372 184.125 17.372 184.125 17.372 184.126L17.3633 187.315L21.213 185.078L21.2217 181.889C21.2217 181.846 21.2261 181.806 21.2326 181.77C21.2326 181.769 21.2326 181.768 21.2326 181.767C21.2403 181.731 21.2501 181.698 21.2643 181.668Z" stroke="#430B12" stroke-width="0.141642" stroke-linecap="round" stroke-linejoin="round"/>
<path d="M11.2861 177.431L15.1358 175.194L19.0259 172.976L15.1762 175.214L11.2861 177.431Z" fill="#430B12"/>
<path d="M22.3673 183.822L25.1289 188.605L25.1147 193.691L22.8982 192.412L22.9124 187.326C22.9124 186.975 22.6655 186.545 22.3607 186.369L17.9288 183.809C17.624 183.633 17.3738 183.777 17.3727 184.127L17.364 187.316L15.1475 186.037L15.1562 182.848L17.9353 181.264L22.3673 183.824V183.822Z" fill="#EF223A" stroke="#430B12" stroke-width="0.141642" stroke-linecap="round" stroke-linejoin="round"/>
<path d="M26.2162 181.585L21.7843 179.026L17.9346 181.263L22.3665 183.823L25.1282 188.605L25.1139 193.69L28.9625 191.454L28.9778 186.368L26.2162 181.585Z" fill="white" stroke="#430B12" stroke-width="0.141642" stroke-linecap="round" stroke-linejoin="round"/>
<path d="M19.0255 172.976L15.1758 175.213L19.055 177.453L19.0473 179.999L22.897 177.762L22.9046 175.216L19.0255 172.976Z" fill="white" stroke="#430B12" stroke-width="0.141642" stroke-linecap="round" stroke-linejoin="round"/>
<path d="M19.0561 177.453L19.0485 179.999L16.2781 178.4L13.499 179.983L13.4586 193.989L11.2432 192.709L11.2869 177.431L15.177 175.213L19.0561 177.453Z" fill="#EF223A" stroke="#430B12" stroke-width="0.141642" stroke-linecap="round" stroke-linejoin="round"/>
<path d="M28.9983 178.735L25.1202 176.495L21.2705 178.732L25.1497 180.972L29.0147 187.667L28.971 202.945L32.8207 200.708L32.8644 185.43L28.9983 178.735Z" fill="white" stroke="#430B12" stroke-width="0.141642" stroke-linecap="round" stroke-linejoin="round"/>
<path d="M25.1495 180.971L29.0145 187.667L28.9708 202.945L26.7554 201.666L26.7947 187.66L24.0331 182.879L21.2627 181.278L21.2703 178.732L25.1495 180.971Z" fill="#EF223A" stroke="#430B12" stroke-width="0.141642" stroke-linecap="round" stroke-linejoin="round"/>
<path d="M275.192 197.357C275.205 197.346 275.218 197.332 275.234 197.323L272.545 198.901C272.53 198.911 272.516 198.924 272.501 198.938C272.492 198.947 272.478 198.953 272.469 198.965C272.455 198.98 272.446 198.999 272.434 199.019C272.427 199.03 272.417 199.04 272.411 199.053C272.4 199.077 272.394 199.105 272.387 199.132C272.383 199.144 272.379 199.154 272.375 199.167C272.368 199.21 272.362 199.256 272.362 199.306L272.343 205.823L275.032 204.244L275.051 197.733L275.676 197.365C275.48 197.251 275.308 197.259 275.192 197.355V197.357Z" fill="white" stroke="#430B12" stroke-width="0.124645" stroke-linecap="round" stroke-linejoin="round"/>
<path d="M282.415 201.495L285.12 199.922L288.87 206.429L286.165 208.003L282.415 201.495Z" fill="white"/>
<mask id="mask0_2156_27265" style="mask-type:luminance" maskUnits="userSpaceOnUse" x="282" y="199" width="7" height="10">
<path d="M282.415 201.495L285.12 199.922L288.87 206.429L286.165 208.003L282.415 201.495Z" fill="white"/>
</mask>
<g mask="url(#mask0_2156_27265)">
<path d="M282.415 201.495L285.12 199.922L288.87 206.429L286.165 208.003L282.415 201.495Z" fill="white" stroke="#430B12" stroke-width="0.124645" stroke-linecap="round" stroke-linejoin="round"/>
</g>
<path d="M282.415 201.495L285.12 199.922L288.87 206.429L286.165 208.003L282.415 201.495Z" stroke="#430B12" stroke-width="0.124645" stroke-linecap="round" stroke-linejoin="round"/>
<path d="M283.638 212.356L283.657 205.86C283.657 205.462 283.377 204.974 283.032 204.774L273 198.971C272.654 198.771 272.372 198.935 272.371 199.332L272.351 205.829L269.843 204.378L269.86 198.604L273.634 196.448L282.413 201.527L286.162 208.035L286.145 213.809" fill="#EF223A"/>
<path d="M283.638 212.356L283.657 205.86C283.657 205.462 283.377 204.974 283.032 204.774L273 198.971C272.654 198.771 272.372 198.935 272.371 199.332L272.351 205.829L269.843 204.378L269.86 198.604L273.634 196.448L282.413 201.527L286.162 208.035L286.145 213.809" stroke="#430B12" stroke-width="0.124645" stroke-linecap="round" stroke-linejoin="round"/>
<path d="M286.162 213.809L286.177 208.024L288.87 206.448L288.853 212.232" fill="#EF223A"/>
<path d="M286.162 213.809L286.177 208.024L288.87 206.448L288.853 212.232" stroke="#430B12" stroke-width="0.124645" stroke-linecap="round" stroke-linejoin="round"/>
<path d="M288.852 212.232L286.169 213.809L286.177 208.024L288.87 206.448L288.852 212.232Z" fill="white" stroke="#430B12" stroke-width="0.124645" stroke-linecap="round" stroke-linejoin="round"/>
<path d="M273.662 196.428L276.361 194.851L285.12 199.94L282.422 201.518L273.662 196.428Z" fill="white" stroke="#430B12" stroke-width="0.124645" stroke-linecap="round" stroke-linejoin="round"/>
<path d="M279.28 185.514L281.983 183.941L285.108 189.363L282.405 190.936L279.28 185.514Z" fill="white"/>
<mask id="mask1_2156_27265" style="mask-type:luminance" maskUnits="userSpaceOnUse" x="279" y="183" width="7" height="8">
<path d="M279.28 185.514L281.983 183.941L285.108 189.363L282.405 190.936L279.28 185.514Z" fill="white"/>
</mask>
<g mask="url(#mask1_2156_27265)">
<path d="M279.28 185.514L281.983 183.941L285.108 189.363L282.405 190.936L279.28 185.514Z" fill="white" stroke="#430B12" stroke-width="0.124645" stroke-linecap="round" stroke-linejoin="round"/>
</g>
<path d="M279.28 185.514L281.983 183.941L285.108 189.363L282.405 190.936L279.28 185.514Z" stroke="#430B12" stroke-width="0.124645" stroke-linecap="round" stroke-linejoin="round"/>
<path d="M282.405 190.936L285.108 189.363L285.1 192.25L282.397 193.824L282.405 190.936Z" fill="white"/>
<mask id="mask2_2156_27265" style="mask-type:luminance" maskUnits="userSpaceOnUse" x="282" y="189" width="4" height="5">
<path d="M282.405 190.937L285.108 189.363L285.1 192.251L282.397 193.824L282.405 190.937Z" fill="white"/>
</mask>
<g mask="url(#mask2_2156_27265)">
<path d="M282.405 190.937L285.108 189.363L285.1 192.251L282.397 193.824L282.405 190.937Z" fill="white" stroke="#430B12" stroke-width="0.124645" stroke-linecap="round" stroke-linejoin="round"/>
</g>
<path d="M282.405 190.936L285.108 189.363L285.1 192.25L282.397 193.824L282.405 190.936Z" stroke="#430B12" stroke-width="0.124645" stroke-linecap="round" stroke-linejoin="round"/>
<path d="M282.398 193.824L279.252 195.62L281.955 194.047L285.101 192.25L282.398 193.824Z" fill="#EF223A"/>
<mask id="mask3_2156_27265" style="mask-type:luminance" maskUnits="userSpaceOnUse" x="279" y="192" width="7" height="4">
<path d="M282.398 193.824L279.252 195.62L281.955 194.046L285.101 192.25L282.398 193.824Z" fill="white"/>
</mask>
<g mask="url(#mask3_2156_27265)">
<path d="M282.398 193.824L279.252 195.62L281.955 194.046L285.101 192.25L282.398 193.824Z" fill="#EF223A" stroke="#430B12" stroke-width="0.124645" stroke-linecap="round" stroke-linejoin="round"/>
</g>
<path d="M282.398 193.824L279.252 195.62L281.955 194.047L285.101 192.25L282.398 193.824Z" stroke="#430B12" stroke-width="0.124645" stroke-linecap="round" stroke-linejoin="round"/>
<path d="M273.626 185.86L276.329 184.285L279.475 182.49L276.772 184.064L273.626 185.86Z" fill="#EF223A"/>
<mask id="mask4_2156_27265" style="mask-type:luminance" maskUnits="userSpaceOnUse" x="273" y="182" width="7" height="4">
<path d="M273.626 185.86L276.329 184.285L279.475 182.49L276.772 184.064L273.626 185.86Z" fill="white"/>
</mask>
<g mask="url(#mask4_2156_27265)">
<path d="M273.626 185.86L276.329 184.285L279.475 182.49L276.772 184.064L273.626 185.86Z" fill="#EF223A" stroke="#430B12" stroke-width="0.124645" stroke-linecap="round" stroke-linejoin="round"/>
</g>
<path d="M273.626 185.86L276.329 184.285L279.475 182.49L276.772 184.064L273.626 185.86Z" stroke="#430B12" stroke-width="0.124645" stroke-linecap="round" stroke-linejoin="round"/>
<path d="M281.97 191.163C281.97 191.163 281.964 191.163 281.963 191.161L281.941 191.174L279.465 189.743C279.208 189.595 278.84 188.955 278.84 188.659L278.847 185.777L279.476 185.41C279.444 185.391 279.409 185.38 279.375 185.37C279.361 185.366 279.348 185.37 279.334 185.366C279.311 185.364 279.29 185.36 279.267 185.36C279.252 185.36 279.237 185.366 279.221 185.368C279.2 185.372 279.181 185.374 279.162 185.38C279.146 185.384 279.133 185.393 279.118 185.399C279.099 185.407 279.079 185.412 279.062 185.424C279.062 185.424 279.062 185.424 279.06 185.424C278.512 185.745 277.838 186.135 277.209 186.502L276.357 186.997C276.34 187.007 276.325 187.02 276.309 187.034C276.298 187.044 276.284 187.051 276.273 187.061C276.258 187.076 276.246 187.092 276.233 187.109C276.223 187.12 276.213 187.13 276.206 187.142C276.192 187.161 276.185 187.182 276.175 187.203C276.171 187.215 276.164 187.224 276.16 187.236C276.148 187.27 276.142 187.305 276.142 187.341L276.135 190.229C276.135 190.525 276.503 191.165 276.76 191.313L279.269 192.763C279.269 192.763 279.453 192.911 279.743 192.723C279.874 192.638 280.054 192.515 280.257 192.377L281.026 191.929C281.5 191.655 281.972 191.161 281.972 191.161L281.97 191.163Z" fill="white" stroke="#430B12" stroke-width="0.124645" stroke-linecap="round" stroke-linejoin="round"/>
<path d="M279.281 185.514L282.406 190.936L282.398 193.824L279.252 195.618L276.743 194.168L273.618 188.746L273.626 185.858L276.772 184.064L279.281 185.514ZM279.889 192.375L279.897 189.487C279.897 189.192 279.528 188.552 279.271 188.404L276.762 186.953C276.505 186.805 276.133 187.017 276.133 187.313L276.125 190.2C276.125 190.496 276.494 191.136 276.751 191.284L279.26 192.734C279.515 192.882 279.889 192.671 279.889 192.375Z" fill="#EF223A"/>
<path d="M279.281 185.514L282.406 190.936L282.398 193.824L279.252 195.618L276.743 194.168L273.618 188.746L273.626 185.858L276.772 184.064L279.281 185.514ZM279.889 192.375L279.897 189.487C279.897 189.192 279.528 188.552 279.271 188.404L276.762 186.953C276.505 186.805 276.133 187.017 276.133 187.313L276.125 190.2C276.125 190.496 276.494 191.136 276.751 191.284L279.26 192.734C279.515 192.882 279.889 192.671 279.889 192.375Z" stroke="#430B12" stroke-width="0.124645" stroke-linecap="round" stroke-linejoin="round"/>
<path d="M276.856 184.061L279.303 185.546L281.995 183.956L279.496 182.49L276.856 184.061Z" fill="white" stroke="#430B12" stroke-width="0.124645" stroke-linecap="round" stroke-linejoin="round"/>
<path d="M286.145 213.809L283.657 212.385V205.86C283.657 205.462 283.377 204.974 283.032 204.774L273 198.971C272.654 198.771 272.372 198.935 272.371 199.332L272.351 205.829L269.843 204.378L269.86 198.604L273.634 196.448L282.413 201.527L286.162 208.035L286.145 213.809Z" fill="#EF223A" stroke="#430B12" stroke-width="0.124645" stroke-linecap="round" stroke-linejoin="round"/>
<path d="M275.985 66.7805C275.985 66.7805 275.98 66.7805 275.978 66.7785C275.978 66.7785 275.24 67.3658 275.238 67.3658L268.52 63.5049C268.075 63.2491 267.708 62.3012 267.708 61.7916L267.753 46.1632L269.305 45.4175C269.05 45.2713 268.822 45.2815 268.673 45.4094C268.691 45.3931 268.707 45.3749 268.728 45.3647L265.134 47.4434C265.114 47.4556 265.097 47.4738 265.079 47.488C265.065 47.5002 265.048 47.5083 265.036 47.5225C265.018 47.5428 265.006 47.5672 264.991 47.5916C264.981 47.6078 264.969 47.62 264.961 47.6382C264.946 47.6667 264.938 47.7012 264.928 47.7337C264.924 47.7499 264.916 47.7661 264.912 47.7844C264.902 47.8392 264.895 47.896 264.895 47.961L264.851 63.5976C264.851 64.1071 265.216 64.7404 265.662 64.9962L272.381 68.8572C272.43 68.8856 272.479 68.9059 272.525 68.9241C272.532 68.9262 272.538 68.9302 272.544 68.9323C272.548 68.9323 272.55 68.9323 272.554 68.9343C272.595 68.9465 272.634 68.9546 272.672 68.9587C272.68 68.9587 272.689 68.9627 272.697 68.9627C272.705 68.9627 272.713 68.9627 272.723 68.9627C272.748 68.9627 272.772 68.9627 272.795 68.9587C272.809 68.9587 272.823 68.9587 272.838 68.9566C272.854 68.9526 272.866 68.9444 272.88 68.9404C272.886 68.9384 272.893 68.9363 272.899 68.9343C272.919 68.9262 272.939 68.9221 272.958 68.912L276.552 66.8333C276.572 66.8211 276.588 66.8049 276.605 66.7887C276.619 66.7765 276.635 66.7663 276.649 66.7521C276.668 66.7318 276.68 66.7075 276.694 66.6831C276.715 66.6506 276.731 66.6161 276.743 66.5775C276.747 66.5654 276.751 66.5552 276.756 66.541C276.756 66.541 276.756 66.539 276.756 66.5369C276.774 66.47 276.788 66.3989 276.788 66.3157L275.98 66.7826L275.985 66.7805Z" fill="white" stroke="#430B12" stroke-width="0.138504" stroke-miterlimit="10" stroke-linejoin="round"/>
<path d="M273.223 48.6286L275.99 53.4073L275.941 70.9062L273.156 72.4897L264.825 67.6947L262.059 62.914L262.107 45.4151L264.893 43.8317L273.223 48.6266V48.6286ZM273.168 68.3789L273.213 52.7415C273.213 52.232 272.849 51.5986 272.403 51.3428L265.697 47.4817C265.253 47.2259 264.882 47.435 264.882 47.9445L264.838 63.5819C264.838 64.0914 265.202 64.7248 265.648 64.9806L272.354 68.8417C272.798 69.0975 273.168 68.8884 273.168 68.3789Z" fill="#EF223A"/>
<path d="M270.121 62.7017L270.113 65.8848L267.334 64.2851L267.344 61.1041L270.121 62.7017Z" fill="#EF223A" stroke="#430B12" stroke-width="0.138504" stroke-miterlimit="10" stroke-linejoin="round"/>
<path d="M270.122 62.7024L272.766 61.2202L272.747 64.3501L270.114 65.8855L270.122 62.7024Z" fill="white" stroke="#430B12" stroke-width="0.138504" stroke-miterlimit="10" stroke-linejoin="round"/>
<path d="M267.345 61.1045L269.989 59.6186L272.766 61.2163L270.122 62.7021L267.345 61.1045Z" fill="white" stroke="#430B12" stroke-width="0.138504" stroke-miterlimit="10" stroke-linejoin="round"/>
<path d="M273.223 48.6291L275.99 53.4078L275.941 70.9067L273.156 72.4902L264.825 67.6952L262.059 62.9145L262.107 45.4156L264.893 43.8322L273.223 48.6271V48.6291ZM273.168 68.3793L273.213 52.742C273.213 52.2324 272.849 51.5991 272.403 51.3433L265.697 47.4822C265.253 47.2264 264.882 47.4355 264.882 47.945L264.838 63.5824C264.838 64.0919 265.202 64.7253 265.648 64.9811L272.354 68.8422C272.798 69.098 273.168 68.8889 273.168 68.3793Z" fill="#EF223A" stroke="#430B12" stroke-width="0.138504" stroke-miterlimit="10" stroke-linejoin="round"/>
<path d="M275.99 53.4087L278.524 51.9031L278.475 69.4041L275.941 70.9096L275.99 53.4087Z" fill="white" stroke="#430B12" stroke-width="0.138504" stroke-miterlimit="10" stroke-linejoin="round"/>
<path d="M273.224 48.6293L275.718 47.174L278.538 51.9275L275.99 53.408L273.224 48.6293Z" fill="white" stroke="#430B12" stroke-width="0.138504" stroke-miterlimit="10" stroke-linejoin="round"/>
<path d="M264.893 43.8339L267.396 42.3792L275.727 47.1761L273.223 48.6309L264.893 43.8339Z" fill="white" stroke="#430B12" stroke-width="0.138504" stroke-miterlimit="10" stroke-linejoin="round"/>
<path d="M36.1151 56.7842L41.3562 54.0001L30.5068 48.0648C30.5068 48.0648 31.4253 51.3437 31.4313 51.4218C31.4373 51.4999 36.1153 56.7842 36.1153 56.7842L36.1151 56.7842Z" fill="white" stroke="#430B12" stroke-width="0.169971" stroke-linecap="round" stroke-linejoin="round"/>
<path d="M36.3822 56.5999L40.3464 54.5369L41.907 54.5505L42.6784 56.0188L37.3846 57.0749L36.3822 56.5999Z" fill="white" stroke="#430B12" stroke-width="0.169971" stroke-linecap="round" stroke-linejoin="round"/>
<path d="M31.7066 53.2359L31.6687 57.6051L45.0003 65.5474L44.9629 69.8539L27.4069 59.4345L27.7761 47.6837L31.7066 53.2359Z" fill="white" stroke="#430B12" stroke-width="0.169971" stroke-linecap="round" stroke-linejoin="round"/>
<path d="M25.8983 46.2244L32.474 42.4412L47.4044 51.0971L51.1524 57.7181L51.0623 68.1122L46.728 70.5685L46.8194 60.0231L43.0408 53.9513L30.0098 46.4564L25.8983 46.2244Z" fill="white" stroke="#430B12" stroke-width="0.169971" stroke-linecap="round" stroke-linejoin="round"/>
<path d="M43.9213 53.1394L29.0237 44.4206L25.3014 46.5717L25.212 56.8712L28.8704 63.3639L43.7558 72.228L47.6119 70.0777L47.7017 59.7217L43.9213 53.1394ZM41.476 55.2033L36.3828 56.6029L31.4507 49.3125L41.476 55.2033ZM44.5079 69.2178L28.1238 59.4572L28.2159 48.8303L34.8756 58.2935L37.8886 60.0235L44.6002 58.5807L44.5079 69.2178Z" fill="#EF223A" stroke="#430B12" stroke-width="0.169971" stroke-linecap="round" stroke-linejoin="round"/>
<path d="M156.296 255.005L156.587 261.6L159.698 265.56L162.635 263.798L159.977 258.967C159.913 258.851 159.88 258.72 159.88 258.587V254.703C159.88 254.428 160.023 254.173 160.256 254.032L162.725 252.535L161.291 249.294L157.909 249.006C157.695 248.987 157.497 248.88 157.365 248.708L155.189 245.898C155.107 245.792 155.053 245.666 155.033 245.534L154.37 241.158L151.57 239.572L148.549 241.328L150.785 245.713L151.569 248.569L154.325 250.744L156.296 255.005L156.296 255.005Z" fill="white" stroke="#430B12" stroke-width="0.148139" stroke-linecap="round" stroke-linejoin="round"/>
<path d="M151.25 267.248L154.199 265.5L154.625 262.692L151.25 262.822V267.248Z" fill="white" stroke="#430B12" stroke-width="0.148139" stroke-linecap="round" stroke-linejoin="round"/>
<path d="M158.337 267.248L161.272 265.479L162.725 263.704L159.749 265.544L158.337 267.248Z" fill="white" stroke="#430B12" stroke-width="0.148139" stroke-linecap="round" stroke-linejoin="round"/>
<path d="M148.614 248.754V252.447C148.614 252.624 148.674 252.795 148.784 252.933L152.638 257.784C152.81 258 153.082 258.111 153.358 258.077L154.048 257.991L154.962 258.132L154.048 260.835L151.221 260.66L148.218 260.595L144.844 254.794L144.668 250.466L145.109 248.213L147.909 247.841L148.614 248.754L148.614 248.754Z" fill="white" stroke="#430B12" stroke-width="0.148139" stroke-linecap="round" stroke-linejoin="round"/>
<path d="M141.629 241.326L144.642 239.572L148.125 243.528L148.717 244.521L147.993 246.153L144.508 246.017C144.508 246.017 142.578 243.243 142.551 243.134C142.524 243.025 141.629 241.326 141.629 241.326Z" fill="white" stroke="#430B12" stroke-width="0.148139" stroke-linecap="round" stroke-linejoin="round"/>
<path d="M157.323 255.688L159.687 254.234L158.289 251.036L154.944 250.763C154.697 250.743 154.469 250.622 154.313 250.429L152.078 247.648C151.975 247.52 151.909 247.368 151.886 247.205L151.257 242.818L148.421 241.26L147.879 244.329C147.807 244.738 147.469 245.046 147.057 245.077L145.517 245.194C145.241 245.214 144.972 245.108 144.784 244.904L141.439 241.26L140.111 242.879L142.752 247.61C142.828 247.746 142.868 247.899 142.868 248.055V251.958C142.868 252.267 142.713 252.554 142.456 252.721L140.111 254.254L141.499 257.431L144.756 257.703C145.002 257.723 145.229 257.844 145.384 258.037L147.622 260.821C147.723 260.947 147.789 261.098 147.813 261.259L148.44 265.467L151.237 267.167L151.828 264.142C151.907 263.741 152.242 263.441 152.647 263.41L154.162 263.294C154.437 263.273 154.706 263.379 154.894 263.582L158.279 267.248L159.687 265.609L157.01 260.9C156.932 260.762 156.891 260.607 156.891 260.448V256.464C156.891 256.147 157.054 255.853 157.323 255.688L157.323 255.688ZM153.485 259.543L150.226 259.866C150.022 259.886 149.822 259.802 149.694 259.641L145.766 254.714C145.68 254.606 145.633 254.472 145.633 254.333V249.55C145.633 249.232 145.876 248.968 146.191 248.943L149.577 248.675C149.778 248.659 149.974 248.745 150.1 248.905L153.9 253.744C153.985 253.851 154.031 253.984 154.031 254.121V258.936C154.031 259.25 153.794 259.512 153.484 259.543L153.485 259.543Z" fill="#EF223A" stroke="#430B12" stroke-width="0.148139" stroke-linecap="round" stroke-linejoin="round"/>
<path d="M159.714 254.254L162.725 252.508L161.298 249.191L158.337 250.996L159.714 254.254Z" fill="white" stroke="#430B12" stroke-width="0.148139" stroke-linecap="round" stroke-linejoin="round"/>
<path d="M151.25 242.947L154.288 241.26" stroke="#430B12" stroke-width="0.148139" stroke-linecap="round" stroke-linejoin="round"/>
<defs>
<clipPath id="clip0_2156_27265">
<rect width="25.282" height="33.4775" fill="white" transform="translate(141.636 6.62384)"/>
</clipPath>
</defs>
</svg>
