<svg width="817" height="516" viewBox="0 0 817 516" fill="none" xmlns="http://www.w3.org/2000/svg">
<path fill-rule="evenodd" clip-rule="evenodd" d="M0 372.537V493.077V515.535H152.984H660.818H816.657V368.672V237.93L562.756 336.551L533.619 347.868L473.43 371.247C436.427 385.798 375.906 385.798 338.741 371.247L249.023 336.551L0 240.247V372.537Z" fill="#EF223A"/>
<mask id="mask0_3305_3191" style="mask-type:luminance" maskUnits="userSpaceOnUse" x="398" y="445" width="53" height="21">
<path d="M450.957 445.381L450.904 450.816C450.904 454.646 448.383 458.466 443.358 461.402C433.248 467.293 416.803 467.293 406.621 461.402C401.508 458.448 398.942 454.547 398.951 450.674L399.005 445.238C399.005 449.121 401.552 453.012 406.675 455.967C416.857 461.858 433.301 461.858 443.412 455.967C448.436 453.048 450.948 449.219 450.957 445.381Z" fill="white"/>
</mask>
<g mask="url(#mask0_3305_3191)">
<path d="M450.956 445.38L450.902 450.816V451.039L450.956 445.603V445.371V445.38Z" fill="#5A0E17"/>
</g>
<path d="M443.297 434.642C453.479 440.533 453.532 450.075 443.412 455.957C433.302 461.848 416.857 461.848 406.675 455.957C396.493 450.066 396.44 440.525 406.559 434.642C416.67 428.751 433.114 428.751 443.297 434.642Z" fill="white"/>
<path d="M450.789 447.085C450.691 447.575 450.549 448.066 450.379 448.539C450.192 449.03 449.961 449.53 449.685 450.021C449.391 450.548 449.043 451.065 448.642 451.574C448.179 452.163 447.645 452.752 447.03 453.315C446.095 454.172 444.999 455.002 443.743 455.751C443.636 455.823 443.529 455.876 443.422 455.939C441.685 456.939 439.779 457.787 437.73 458.438C436.153 458.947 434.514 459.357 432.813 459.67C431.717 459.875 430.621 460.018 429.499 460.143L429.445 465.579C430.568 465.472 431.672 465.311 432.759 465.106C434.452 464.802 436.1 464.401 437.676 463.874C439.725 463.205 441.632 462.374 443.369 461.375C443.476 461.303 443.583 461.25 443.689 461.187C444.946 460.429 446.041 459.607 446.977 458.751C447.573 458.188 448.126 457.617 448.589 457.01C448.99 456.501 449.337 455.984 449.631 455.457C449.916 454.975 450.139 454.475 450.326 453.975C450.513 453.493 450.647 452.993 450.736 452.52C450.825 452.029 450.896 451.53 450.905 451.021L450.959 445.585C450.95 446.076 450.896 446.576 450.789 447.085Z" fill="#EF223A"/>
<path d="M426.603 460.349C425.721 460.375 424.83 460.393 423.948 460.349C423.093 460.322 422.238 460.286 421.4 460.215C420.563 460.143 419.708 460.054 418.879 459.929C418.006 459.804 417.16 459.661 416.296 459.474C415.379 459.286 414.47 459.063 413.588 458.804C412.51 458.501 411.45 458.135 410.435 457.733C409.116 457.216 407.86 456.609 406.693 455.939C401.58 452.985 399.014 449.084 399.023 445.21L398.97 450.646C398.97 454.529 401.517 458.421 406.64 461.375C407.816 462.053 409.072 462.643 410.381 463.169C411.397 463.571 412.448 463.928 413.535 464.24C414.416 464.499 415.325 464.713 416.243 464.91C417.089 465.088 417.953 465.231 418.826 465.365C419.654 465.49 420.51 465.579 421.347 465.651C422.202 465.722 423.04 465.776 423.895 465.784C424.777 465.811 425.667 465.802 426.549 465.784C427.511 465.758 428.474 465.695 429.436 465.597L429.489 460.161C428.536 460.25 427.574 460.322 426.603 460.349Z" fill="#5A0E17"/>
<path d="M546.828 11.7641L533.278 35.5068L439.636 89.6508L436.652 91.3824L435.707 91.9269L435.609 60.1867L436.652 59.5797L439.636 57.857L533.189 3.7666L546.828 11.7641Z" fill="white"/>
<path d="M435.707 91.9272L429.257 88.1694L429.168 56.4292L435.617 60.187L435.715 91.9272H435.707Z" fill="#5A0E17"/>
<path d="M435.609 60.1868L429.159 56.429L526.73 0L533.18 3.75777L435.6 60.1868H435.609Z" fill="#EF223A"/>
<path d="M546.828 105.218L533.278 128.942L439.636 183.086L436.545 184.88L435.707 185.362L435.609 153.631L436.545 153.087L439.636 151.302L533.189 97.2021L546.828 105.218Z" fill="#EF223A"/>
<path d="M524.834 121.051L520.932 123.31C520.522 123.551 520.246 124.086 520.246 124.506V128.21C520.246 128.612 520.54 128.817 520.941 128.585L524.843 126.327C525.217 126.112 525.537 125.55 525.537 125.166V121.462C525.537 121.051 525.208 120.855 524.834 121.06V121.051ZM527.292 105.672L515.738 112.367C515.418 112.554 515.142 113.036 515.142 113.411V117.329C515.142 117.686 515.436 117.838 515.756 117.651L527.301 110.974C527.658 110.76 527.791 110.814 527.791 111.108V111.831C527.791 112.152 527.711 112.429 527.301 112.67L520.834 116.419C520.513 116.606 520.228 117.035 520.228 117.41V121.328C520.228 121.703 520.522 121.864 520.843 121.676L531.8 115.33C532.147 115.125 532.406 114.687 532.406 114.286V108.6C532.388 108.377 532.325 108.136 532.147 108.038L527.889 105.628C527.684 105.547 527.497 105.547 527.301 105.663L527.292 105.672Z" fill="#5A0E17"/>
<path d="M435.707 185.362L429.257 181.604L429.168 149.864L435.617 153.622L435.715 185.362H435.707Z" fill="#5A0E17"/>
<path d="M435.609 153.622L429.159 149.865L526.73 93.4355L533.18 97.1933L435.6 153.622H435.609Z" fill="white"/>
<path d="M414.318 72.4863L414.22 104.226L316.649 47.7885L303.1 24.0637L316.738 16.0483L410.176 70.0941L413.267 71.8793L414.318 72.4863Z" fill="#5A0E17"/>
<path d="M414.219 104.226L420.668 100.468L420.757 68.728L414.308 72.4858L414.21 104.226H414.219Z" fill="#5A0E17"/>
<path d="M414.318 72.4858L420.768 68.7281L323.197 12.2991L316.747 16.0479L414.327 72.4858H414.318Z" fill="white"/>
<path d="M316.738 115.866L303.1 123.881L316.649 147.606L414.22 204.035L414.318 172.295L316.738 115.866Z" fill="#5A0E17"/>
<path d="M414.219 204.026L420.668 200.277L420.757 168.537L414.308 172.286L414.21 204.026H414.219Z" fill="#5A0E17"/>
<path d="M414.318 172.286L420.768 168.537L323.197 112.099L316.747 115.857L414.327 172.286H414.318Z" fill="white"/>
<mask id="mask1_3305_3191" style="mask-type:luminance" maskUnits="userSpaceOnUse" x="408" y="431" width="34" height="23">
<path d="M441.622 431.866L441.595 443.389C441.595 445.853 439.974 448.299 436.758 450.173C430.282 453.949 419.735 453.949 413.223 450.173C409.936 448.272 408.306 445.782 408.306 443.291L408.332 431.768C408.332 434.258 409.963 436.749 413.25 438.65C419.77 442.425 430.309 442.425 436.785 438.65C440.001 436.775 441.622 434.33 441.622 431.866Z" fill="white"/>
</mask>
<g mask="url(#mask1_3305_3191)">
<path d="M441.621 431.858L441.595 443.381V443.533L441.621 432.01V431.858Z" fill="#5A0E17"/>
</g>
<path d="M436.704 424.984C443.225 428.76 443.261 434.874 436.784 438.649C430.308 442.425 419.761 442.425 413.249 438.649C406.728 434.874 406.693 428.76 413.169 424.984C419.645 421.208 430.192 421.208 436.704 424.984Z" fill="white"/>
<path d="M441.513 432.973C441.451 433.295 441.371 433.598 441.246 433.911C441.122 434.232 440.979 434.553 440.81 434.866C440.623 435.205 440.4 435.535 440.142 435.856C439.848 436.231 439.5 436.606 439.117 436.963C438.511 437.517 437.826 438.034 437.006 438.525C436.944 438.57 436.872 438.606 436.81 438.65C435.696 439.293 434.476 439.828 433.167 440.257C432.151 440.596 431.1 440.846 430.013 441.042C429.318 441.158 428.614 441.265 427.893 441.337L427.866 452.86C428.588 452.798 429.292 452.69 429.986 452.566C431.064 452.36 432.124 452.11 433.14 451.771C434.449 451.343 435.679 450.807 436.783 450.164C436.846 450.12 436.917 450.084 436.979 450.048C437.799 449.566 438.485 449.031 439.09 448.486C439.474 448.129 439.821 447.746 440.115 447.38C440.373 447.058 440.596 446.728 440.783 446.389C440.961 446.076 441.104 445.755 441.22 445.443C441.344 445.13 441.424 444.809 441.487 444.505C441.558 444.184 441.585 443.863 441.594 443.559L441.62 432.036C441.62 432.357 441.576 432.679 441.513 432.982V432.973Z" fill="#EF223A"/>
<path d="M426.014 441.453C425.453 441.462 424.883 441.48 424.304 441.453C423.761 441.435 423.208 441.408 422.665 441.355C422.113 441.31 421.578 441.248 421.044 441.167C420.482 441.087 419.939 440.989 419.387 440.882C418.799 440.757 418.211 440.614 417.65 440.453C416.955 440.257 416.278 440.025 415.636 439.775C414.79 439.436 413.979 439.052 413.231 438.623C409.944 436.722 408.314 434.232 408.314 431.742L408.287 443.265C408.287 445.755 409.917 448.246 413.204 450.147C413.953 450.575 414.754 450.959 415.61 451.298C416.269 451.557 416.937 451.78 417.623 451.977C418.184 452.137 418.772 452.28 419.36 452.405C419.903 452.512 420.456 452.619 421.017 452.691C421.551 452.771 422.086 452.824 422.629 452.878C423.182 452.923 423.725 452.958 424.277 452.976C424.847 452.994 425.409 452.976 425.988 452.976C426.602 452.949 427.217 452.905 427.832 452.851L427.858 441.328C427.244 441.39 426.629 441.435 426.014 441.453Z" fill="#5A0E17"/>
<path d="M424.963 56.3033V437.57C422.023 437.57 419.075 436.945 416.803 435.686C414.202 434.24 413.026 432.286 413.32 430.375L413.275 49.6982C413.275 51.3941 414.469 53.1258 416.803 54.4111C419.075 55.6518 422.014 56.2855 424.954 56.2944H424.963V56.3033Z" fill="#5A0E17"/>
<path d="M436.571 430.384C436.749 431.455 436.464 432.553 435.707 433.562C435.155 434.312 434.344 435.008 433.275 435.624C431.003 436.936 427.984 437.596 424.964 437.579V56.3125C424.607 56.3125 424.251 56.3036 423.895 56.2857C421.32 56.1518 418.808 55.5181 416.813 54.4202C414.684 53.242 413.508 51.7157 413.321 50.1715C413.294 50.0198 413.285 49.868 413.285 49.7163H436.509V63.587V72.7271L436.642 430.393H436.562L436.571 430.384Z" fill="#EF223A"/>
<path d="M436.57 430.384C436.748 431.455 436.463 432.553 435.706 433.562V49.7163H436.508V63.587V72.7271L436.641 430.393H436.561L436.57 430.384Z" fill="white"/>
<path d="M436.491 50.8058C436.108 52.1 435.03 53.3496 433.284 54.3493C431.012 55.6436 427.984 56.3041 424.964 56.2862C422.024 56.2862 419.084 55.6436 416.813 54.4029C414.479 53.1087 413.285 51.3949 413.285 49.6901C413.285 47.9852 414.39 46.334 416.652 45.0486C421.222 42.4512 428.634 42.4512 433.222 45.0486C436.01 46.6285 437.106 48.7796 436.509 50.8147H436.5L436.491 50.8058Z" fill="white"/>
<path d="M436.509 50.8238H436.491C436.108 52.1091 435.039 53.3498 433.284 54.3584C431.012 55.6526 427.984 56.3131 424.964 56.2953C422.024 56.2953 419.084 55.6526 416.813 54.4119C414.479 53.1088 413.285 51.4039 413.285 49.6991C413.285 49.6366 413.285 49.5831 413.285 49.5206C413.356 47.9407 414.425 46.3608 416.51 45.138C416.554 45.1112 416.599 45.0845 416.644 45.0577C421.213 42.4603 428.625 42.4603 433.213 45.0577C436.001 46.6375 437.097 48.7887 436.5 50.8238H436.509Z" fill="white"/>
<path d="M436.509 50.8238H436.491C436.108 52.1091 435.039 53.3498 433.284 54.3584C431.012 55.6526 427.984 56.3131 424.964 56.2953C422.024 56.2953 419.084 55.6526 416.813 54.4119C414.479 53.1088 413.285 51.4039 413.285 49.6991C413.285 49.6366 413.285 49.5831 413.285 49.5206C413.356 47.9407 414.425 46.3608 416.51 45.138C416.554 45.1112 416.599 45.0845 416.644 45.0577C421.213 42.4603 428.625 42.4603 433.213 45.0577C436.001 46.6375 437.097 48.7887 436.5 50.8238H436.509Z" fill="white"/>
<path d="M433.96 50.1806H433.942C433.604 51.2785 432.65 52.3407 431.091 53.1975C429.069 54.3043 426.361 54.8667 423.671 54.8488C421.061 54.8488 418.442 54.3044 416.411 53.2422C414.478 52.2068 413.427 50.8679 413.293 49.5201C413.364 47.9402 414.433 46.3604 416.518 45.1375C420.607 43.0489 427.029 43.0935 431.029 45.2625C433.514 46.6103 434.494 48.449 433.96 50.1806Z" fill="#5A0E17"/>
<path d="M438.121 39.2911C438.121 45.6552 433.613 50.9661 427.618 52.1978C432.366 50.2074 435.707 45.5124 435.707 40.0409C435.707 32.7574 429.809 26.8574 422.54 26.8574C421.632 26.8574 420.75 26.9467 419.895 27.1252C421.453 26.4647 423.164 26.1077 424.963 26.1077C432.232 26.1077 438.121 32.0076 438.121 39.2911Z" fill="white"/>
<path d="M435.706 40.0409C435.706 45.5124 432.366 50.2074 427.618 52.1978C426.762 52.3763 425.872 52.4656 424.963 52.4656C417.694 52.4656 411.806 46.5656 411.806 39.2911C411.806 33.8106 415.137 29.1246 419.876 27.1341C419.876 27.1341 419.876 27.1252 419.894 27.1252C420.749 26.9467 421.631 26.8574 422.54 26.8574C429.809 26.8574 435.706 32.7574 435.706 40.0409Z" fill="#EF223A"/>
<path d="M328.284 43.7183C328.622 43.9147 328.916 44.4235 328.916 44.8162V48.1991C328.916 48.5561 328.604 48.7346 328.275 48.5293L324.712 46.4675C324.337 46.2532 324.079 45.7623 324.079 45.3964V42.0135C324.079 41.6297 324.346 41.4422 324.72 41.6564L328.284 43.7183Z" fill="#EF223A"/>
<path d="M335.018 39.5765C335.178 39.8443 335.231 40.1389 335.231 40.3352V45.539C335.223 45.896 334.973 46.0299 334.652 45.8603L324.631 40.0675C324.337 39.8979 324.087 39.4516 324.087 39.1213V35.5332C324.087 35.2029 324.355 35.0958 324.649 35.2654L330.564 38.6929C330.938 38.9071 331.018 38.7464 331.018 38.4519V37.8003C331.018 37.5325 330.902 37.3451 330.564 37.1487L320.007 31.0435C319.713 30.8739 319.455 30.4544 319.455 30.1063V26.5181C319.455 26.1878 319.722 26.0361 320.016 26.2146L330.599 32.3288C330.777 32.4359 330.947 32.6233 331.134 32.9L335.009 39.6033V39.5765H335.018Z" fill="#EF223A"/>
<path d="M526.828 132.441L540.378 156.166L526.739 164.181L429.159 107.752L429.248 76.0122L526.828 132.441Z" fill="#5A0E17"/>
<path d="M526.827 132.441L533.277 128.683L546.826 152.417L540.376 156.166L526.827 132.441Z" fill="#EF223A"/>
<path d="M429.249 76.0127L435.699 72.2549L533.279 128.684L526.829 132.442L429.258 76.0127H429.249Z" fill="white"/>
<path d="M516.931 146.927C517.27 147.132 517.564 147.632 517.564 148.025V151.408C517.564 151.765 517.252 151.943 516.922 151.747L513.359 149.685C512.985 149.471 512.727 148.98 512.727 148.614V145.231C512.727 144.847 512.994 144.66 513.368 144.874L516.931 146.936V146.927Z" fill="#EF223A"/>
<path d="M523.656 142.795C523.816 143.063 523.87 143.357 523.87 143.554V148.757C523.861 149.123 523.62 149.257 523.3 149.079L513.278 143.286C512.984 143.116 512.735 142.67 512.735 142.34V138.752C512.735 138.412 513.002 138.314 513.296 138.484L519.211 141.911C519.585 142.126 519.665 141.965 519.665 141.67V141.019C519.665 140.751 519.54 140.564 519.211 140.367L508.655 134.262C508.361 134.092 508.111 133.673 508.111 133.325V129.737C508.111 129.397 508.379 129.255 508.673 129.424L519.255 135.538C519.434 135.645 519.603 135.833 519.79 136.11L523.665 142.813V142.786L523.656 142.795Z" fill="#EF223A"/>
<path d="M526.828 264.213L540.378 287.946L526.739 295.953L429.159 239.524L429.248 207.784L526.828 264.213Z" fill="#5A0E17"/>
<path d="M526.827 264.213L533.277 260.464L546.826 284.189L540.376 287.946L526.827 264.213Z" fill="#EF223A"/>
<path d="M429.249 207.784L435.699 204.026L533.279 260.464L526.829 264.213L429.258 207.784H429.249Z" fill="white"/>
<path d="M516.931 278.735C517.27 278.941 517.564 279.44 517.564 279.833V283.216C517.564 283.573 517.252 283.752 516.922 283.555L513.359 281.493C512.985 281.279 512.727 280.788 512.727 280.422V277.039C512.727 276.656 512.994 276.468 513.368 276.682L516.931 278.744V278.735Z" fill="#EF223A"/>
<path d="M523.656 274.593C523.816 274.861 523.87 275.155 523.87 275.352V280.555C523.861 280.913 523.62 281.046 523.3 280.877L513.278 275.084C512.984 274.905 512.735 274.468 512.735 274.138V270.55C512.735 270.219 513.002 270.112 513.296 270.282L519.211 273.709C519.585 273.924 519.665 273.763 519.665 273.468V272.817C519.665 272.549 519.54 272.362 519.211 272.156L508.655 266.051C508.361 265.881 508.111 265.462 508.111 265.114V261.526C508.111 261.195 508.379 261.044 508.673 261.222L519.255 267.336C519.434 267.443 519.603 267.631 519.79 267.908L523.665 274.611V274.584L523.656 274.593Z" fill="#EF223A"/>
<path d="M328.284 145.758C328.622 145.954 328.916 146.463 328.916 146.856V150.239C328.916 150.596 328.604 150.774 328.275 150.569L324.712 148.507C324.337 148.293 324.079 147.802 324.079 147.436V144.053C324.079 143.66 324.346 143.473 324.72 143.696L328.284 145.758Z" fill="#EF223A"/>
<path d="M335.018 141.617C335.178 141.885 335.231 142.179 335.231 142.384V147.588C335.223 147.945 334.973 148.088 334.652 147.909L324.631 142.117C324.337 141.938 324.087 141.501 324.087 141.17V137.582C324.087 137.243 324.355 137.145 324.649 137.315L330.564 140.742C330.938 140.956 331.018 140.796 331.018 140.501V139.849C331.018 139.582 330.902 139.394 330.564 139.189L320.007 133.084C319.713 132.914 319.455 132.495 319.455 132.146V128.558C319.455 128.219 319.722 128.076 320.016 128.246L330.599 134.36C330.777 134.467 330.947 134.655 331.134 134.94L335.009 141.644V141.617H335.018Z" fill="#EF223A"/>
<path d="M323.098 143.161L309.549 166.886L323.187 174.901L420.758 118.472L420.669 86.7319L323.089 143.161H323.098Z" fill="#EF223A"/>
<path d="M323.098 143.162L316.649 139.404L303.1 163.129L309.549 166.886L323.098 143.162Z" fill="#5A0E17"/>
<path d="M337.049 154.871L333.148 157.13C332.738 157.371 332.471 157.906 332.471 158.317V162.021C332.471 162.423 332.765 162.628 333.165 162.396L337.067 160.138C337.441 159.923 337.762 159.361 337.762 158.977V155.273C337.762 154.862 337.424 154.675 337.049 154.871ZM339.517 139.492L327.963 146.187C327.642 146.374 327.366 146.856 327.366 147.231V151.149C327.366 151.506 327.66 151.658 327.981 151.471L339.526 144.794C339.882 144.58 340.016 144.633 340.016 144.928V145.651C340.016 145.972 339.936 146.258 339.526 146.49L333.059 150.239C332.738 150.426 332.453 150.855 332.453 151.23V155.148C332.453 155.523 332.747 155.684 333.067 155.496L344.024 149.15C344.372 148.954 344.63 148.507 344.63 148.106V142.42C344.621 142.188 344.55 141.947 344.372 141.857L340.114 139.448C339.909 139.367 339.731 139.367 339.526 139.483L339.517 139.492Z" fill="#5A0E17"/>
<path d="M323.098 241.988L309.549 265.713L323.187 273.728L420.758 217.29L420.669 185.55L323.089 241.988H323.098Z" fill="#EF223A"/>
<path d="M323.098 241.987L316.649 238.229L303.1 261.954L309.549 265.712L323.098 241.987Z" fill="#5A0E17"/>
<path d="M420.679 185.55L414.229 181.801L316.658 238.23L323.108 241.988L420.688 185.55H420.679Z" fill="white"/>
<path d="M337.049 255.796L333.148 258.054C332.738 258.295 332.471 258.831 332.471 259.241V262.946C332.471 263.347 332.765 263.553 333.165 263.32L337.067 261.062C337.441 260.848 337.762 260.286 337.762 259.902V256.198C337.762 255.787 337.424 255.6 337.049 255.796ZM339.517 240.426L327.963 247.12C327.642 247.308 327.366 247.79 327.366 248.164V252.083C327.366 252.44 327.66 252.592 327.981 252.404L339.526 245.728C339.882 245.513 340.016 245.567 340.016 245.862V246.585C340.016 246.906 339.936 247.183 339.526 247.424L333.059 251.172C332.738 251.36 332.453 251.788 332.453 252.163V256.082C332.453 256.457 332.747 256.617 333.067 256.43L344.024 250.092C344.372 249.887 344.63 249.45 344.63 249.048V243.362C344.621 243.13 344.55 242.898 344.372 242.8L340.114 240.39C339.909 240.31 339.731 240.31 339.526 240.435L339.517 240.426Z" fill="#5A0E17"/>
<path d="M522.294 33.7302L533.189 14.8253L529.109 12.46L517.92 31.8825C517.528 32.5698 516.86 32.6234 516.86 31.9896V25.8487L511.417 28.9995V40.0229L522.312 33.7212L522.294 33.7302Z" fill="#EF223A"/>
<path d="M420.679 86.7314L414.229 82.9736L316.658 139.403L323.108 143.16L420.688 86.7314H420.679Z" fill="white"/>
<path d="M426.593 455.976C427.484 456.493 427.493 457.332 426.602 457.85C425.712 458.368 424.268 458.368 423.378 457.85C422.487 457.332 422.478 456.493 423.369 455.976C424.26 455.458 425.703 455.458 426.593 455.976Z" fill="#5A0E17"/>
<path d="M404.661 442.828C405.552 443.345 405.561 444.184 404.67 444.702C403.779 445.22 402.336 445.22 401.445 444.702C400.554 444.184 400.545 443.345 401.436 442.828C402.327 442.31 403.77 442.31 404.661 442.828Z" fill="#5A0E17"/>
<path d="M447.652 442.828C448.543 443.345 448.552 444.184 447.661 444.702C446.77 445.22 445.327 445.22 444.436 444.702C443.545 444.184 443.537 443.345 444.427 442.828C445.318 442.31 446.761 442.31 447.652 442.828Z" fill="#EF223A"/>
</svg>
