<svg width="251" height="207" viewBox="0 0 251 207" fill="none" xmlns="http://www.w3.org/2000/svg">
<path d="M249.859 116.154L243.191 96.0891L229.284 105.117L224.237 101.387L231.613 84.93L198.311 61.47L178.542 59.7954L172.506 72.5302L161.119 64.6518L137.659 82.2202L140.978 95.6476L135.314 101.387H123.09L111.192 128.31L123.881 137.559L108.178 147.607L112.699 169.362L147.958 193.887L162.938 183.101L166.478 185.811L159.414 201.964L180.179 206.044L188.331 186.831L193.766 185.811L198.615 200.22L221.131 182.431L217.63 169.293L221.908 163.538H237.048L245.193 141.624L233.394 134.773L233.988 128.668L249.859 116.154Z" fill="#EF223A"/>
<path d="M188.331 186.831L193.766 185.819L198.608 200.182L186.345 191.52L188.331 186.839V186.831ZM166.478 185.811L162.938 183.094L147.958 193.88L159.406 201.964L166.47 185.811H166.478ZM147.821 193.415L141.533 172.049L157.077 158.88L156.689 152.28L143.208 150.096L154.748 124.9H167.558L172.506 118.4L169.933 105.132L192.876 87.2593L193.85 99.6743L205.207 96.523L211.023 83.5294L231.605 84.93L198.311 61.47L178.542 59.7954L172.514 72.5302L161.119 64.6594L137.666 82.2202L140.978 95.6476L135.322 101.387H123.09L111.192 128.31L123.881 137.559L108.178 147.607L112.699 169.354L147.821 193.408V193.415ZM230.57 87.2593L224.237 101.387L229.284 105.117L243.061 96.0663L230.57 87.2669V87.2593Z" fill="#5D0A18"/>
<path d="M143.208 150.095L154.748 124.908L167.566 124.915L172.506 118.407L169.933 105.139L192.883 87.259L193.858 99.6817L205.215 96.5303L211.03 83.5367L231.613 84.9297L224.237 101.387L229.284 105.117L243.191 96.0888L249.859 116.154L233.988 128.668L233.394 134.773L245.193 142.004L237.048 163.538H221.908L217.63 169.293L221.131 182.431L198.615 200.22L193.766 185.811L188.331 186.831L180.179 206.043L159.414 201.963L166.478 185.811L162.938 183.101L147.958 193.887L141.533 172.048L157.084 158.88L156.696 152.28L143.208 150.095Z" stroke="#5D0A18" stroke-width="1.7158" stroke-linecap="round" stroke-linejoin="round"/>
<path d="M147.958 193.887L112.699 169.362L108.178 147.607L123.881 137.559L111.192 128.31L123.09 101.387H135.314L140.978 95.6476L137.659 82.2202L161.119 64.6518L172.506 72.5302L178.542 59.7954L198.311 61.47L231.613 84.93" stroke="#5D0A18" stroke-width="1.7158" stroke-linecap="round" stroke-linejoin="round"/>
<path d="M230.57 87.2598L243.062 96.0668" stroke="#5D0A18" stroke-width="1.7158" stroke-linecap="round" stroke-linejoin="round"/>
<path d="M173.641 73.4973L191.148 86.4376" stroke="#EF223A" stroke-width="1.7158" stroke-linecap="round" stroke-linejoin="round"/>
<path d="M180.918 62.4221L208.823 82.7688" stroke="#EF223A" stroke-width="1.7158" stroke-linecap="round" stroke-linejoin="round"/>
<path d="M195.114 89.7252L202.916 95.4113" stroke="#EF223A" stroke-width="1.7158" stroke-linecap="round" stroke-linejoin="round"/>
<path d="M140.217 83.6823L168.122 104.029" stroke="#EF223A" stroke-width="1.7158" stroke-linecap="round" stroke-linejoin="round"/>
<path d="M125.016 103.336L152.921 123.683" stroke="#EF223A" stroke-width="1.7158" stroke-linecap="round" stroke-linejoin="round"/>
<path d="M142.5 96.5305L170.436 116.892" stroke="#EF223A" stroke-width="1.7158" stroke-linecap="round" stroke-linejoin="round"/>
<path d="M136.837 102.453L165.374 123.317" stroke="#EF223A" stroke-width="1.7158" stroke-linecap="round" stroke-linejoin="round"/>
<path d="M126.264 138.99L140.216 149.16" stroke="#EF223A" stroke-width="1.7158" stroke-linecap="round" stroke-linejoin="round"/>
<path d="M110.629 149.51L139.478 170.549" stroke="#EF223A" stroke-width="1.7158" stroke-linecap="round" stroke-linejoin="round"/>
<path d="M147.958 193.887L159.368 201.941" stroke="#5D0A18" stroke-width="1.7158" stroke-linecap="round" stroke-linejoin="round"/>
<path d="M186.345 191.512L198.608 200.175" stroke="#5D0A18" stroke-width="1.7158" stroke-linecap="round" stroke-linejoin="round"/>
<path d="M204.875 147.243C209.737 139.899 209.767 131.357 204.943 128.164C200.119 124.972 192.268 128.337 187.407 135.681C182.546 143.026 182.516 151.567 187.34 154.76C192.163 157.953 200.014 154.588 204.875 147.243Z" fill="#5D0A18" stroke="#5D0A18" stroke-width="1.7158" stroke-linecap="round" stroke-linejoin="round"/>
<path d="M164.59 65.9883L156.884 42.8003L140.813 53.2331L134.981 48.9228L143.505 29.9044L105.019 2.79317L82.1746 0.85791L75.1988 15.5747L62.0391 6.47017L34.9278 26.7728L38.7631 42.2901L32.2184 48.9228H18.091L4.34187 80.0365L19.0059 90.7244L0.858398 102.336L6.08361 127.477L46.8297 155.82L64.1415 143.355L68.2319 146.486L60.0686 165.153L84.0659 169.868L93.4871 147.665L99.7679 146.486L105.371 163.138L131.392 142.581L127.345 127.398L132.289 120.747H149.786L159.198 95.4218L145.563 87.5049L146.249 80.45L164.59 65.9883Z" fill="#EF223A"/>
<path d="M93.4871 147.665L99.7679 146.495L105.363 163.094L91.1911 153.084L93.4871 147.674V147.665ZM68.2319 146.486L64.1415 143.346L46.8297 155.811L60.0598 165.153L68.2231 146.486H68.2319ZM46.6713 155.274L39.4053 130.582L57.368 115.364L56.9194 107.737L41.3406 105.213L54.6763 76.0956H69.481L75.1988 68.5833L72.2256 53.2507L98.7387 32.5962L99.8646 46.9435L112.989 43.3017L119.71 28.2858L143.496 29.9044L105.019 2.79317L82.1746 0.85791L75.2076 15.5747L62.0391 6.47897L34.9366 26.7728L38.7631 42.2901L32.2272 48.9228H18.091L4.34187 80.0365L19.0059 90.7244L0.858398 102.336L6.08361 127.468L46.6713 155.265V155.274ZM142.3 32.5962L134.981 48.9228L140.813 53.2331L156.735 42.7739L142.3 32.605V32.5962Z" fill="#5D0A18"/>
<path d="M41.3405 105.213L54.6762 76.1046L69.4898 76.1134L75.1988 68.5922L72.2256 53.2597L98.7474 32.5964L99.8734 46.9525L112.998 43.3107L119.719 28.2948L143.505 29.9046L134.981 48.9229L140.813 53.2333L156.884 42.8005L164.59 65.9884L146.249 80.4501L145.563 87.5051L159.198 95.8619L149.786 120.748H132.289L127.345 127.398L131.392 142.581L105.371 163.139L99.7679 146.487L93.487 147.665L84.0658 169.868L60.0686 165.153L68.2319 146.487L64.1414 143.355L46.8296 155.82L39.4053 130.582L57.3768 115.364L56.9282 107.737L41.3405 105.213Z" stroke="#5D0A18" stroke-width="1.7158" stroke-linecap="round" stroke-linejoin="round"/>
<path d="M46.8297 155.82L6.08361 127.477L0.858398 102.336L19.0059 90.7244L4.34187 80.0365L18.091 48.9228H32.2184L38.7631 42.2901L34.9278 26.7728L62.0391 6.47017L75.1988 15.5747L82.1746 0.85791L105.019 2.79317L143.505 29.9044" stroke="#5D0A18" stroke-width="1.7158" stroke-linecap="round" stroke-linejoin="round"/>
<path d="M142.3 32.5964L156.735 42.7742" stroke="#5D0A18" stroke-width="1.7158" stroke-linecap="round" stroke-linejoin="round"/>
<path d="M76.5088 16.6923L96.7411 31.6466" stroke="#EF223A" stroke-width="1.7158" stroke-linecap="round" stroke-linejoin="round"/>
<path d="M84.9189 3.89331L117.167 27.4067" stroke="#EF223A" stroke-width="1.7158" stroke-linecap="round" stroke-linejoin="round"/>
<path d="M101.324 35.4465L110.341 42.0176" stroke="#EF223A" stroke-width="1.7158" stroke-linecap="round" stroke-linejoin="round"/>
<path d="M37.8828 28.462L70.1313 51.9755" stroke="#EF223A" stroke-width="1.7158" stroke-linecap="round" stroke-linejoin="round"/>
<path d="M20.3164 51.1752L52.5649 74.6886" stroke="#EF223A" stroke-width="1.7158" stroke-linecap="round" stroke-linejoin="round"/>
<path d="M40.5225 43.3107L72.8061 66.8417" stroke="#EF223A" stroke-width="1.7158" stroke-linecap="round" stroke-linejoin="round"/>
<path d="M33.9775 50.1547L66.9562 74.2663" stroke="#EF223A" stroke-width="1.7158" stroke-linecap="round" stroke-linejoin="round"/>
<path d="M21.7588 92.3785L37.883 104.131" stroke="#EF223A" stroke-width="1.7158" stroke-linecap="round" stroke-linejoin="round"/>
<path d="M3.69043 104.535L37.0297 128.849" stroke="#EF223A" stroke-width="1.7158" stroke-linecap="round" stroke-linejoin="round"/>
<path d="M46.8301 155.82L60.0163 165.127" stroke="#5D0A18" stroke-width="1.7158" stroke-linecap="round" stroke-linejoin="round"/>
<path d="M91.1914 153.075L105.363 163.086" stroke="#5D0A18" stroke-width="1.7158" stroke-linecap="round" stroke-linejoin="round"/>
<path d="M112.607 101.916C118.224 93.4289 118.259 83.5575 112.685 79.8678C107.11 76.1781 98.0373 80.0674 92.4197 88.5547C86.802 97.042 86.7671 106.913 92.3416 110.603C97.916 114.293 106.989 110.404 112.607 101.916Z" fill="#5D0A18" stroke="#5D0A18" stroke-width="1.7158" stroke-linecap="round" stroke-linejoin="round"/>
</svg>
