<svg width="339" height="261" viewBox="0 0 339 261" fill="none" xmlns="http://www.w3.org/2000/svg">
<g clip-path="url(#clip0_2354_3261)">
<path d="M244.629 46.6067L244.561 71.994L222.603 84.8091L222.677 59.4156L244.629 46.6067Z" fill="white" stroke="#3F1217" stroke-width="1.5" stroke-linecap="round" stroke-linejoin="round"/>
<path d="M114.568 61.6335L114.494 87.0208L88.5771 72.0002L88.6516 46.6067L114.568 61.6335Z" fill="white" stroke="#3F1217" stroke-width="1.5" stroke-linecap="round" stroke-linejoin="round"/>
<path d="M222.677 59.4156C222.397 59.2972 222.118 59.1788 221.839 59.0667C221.616 58.9795 221.386 58.8985 221.156 58.8175C220.983 58.7552 220.809 58.6867 220.629 58.6244C220.071 58.4312 219.506 58.2443 218.929 58.0761C218.91 58.0761 218.892 58.0637 218.873 58.0574C218.873 58.0574 218.873 58.0574 218.867 58.0574C218.284 57.8892 217.688 57.7397 217.092 57.6026C216.956 57.5715 216.813 57.5403 216.677 57.5092C216.546 57.478 216.41 57.4469 216.28 57.422C215.827 57.3285 215.361 57.2413 214.902 57.1665C214.815 57.1541 214.722 57.1416 214.635 57.1229C214.375 57.0793 214.114 57.0357 213.847 56.9983C213.68 56.9734 213.512 56.9609 213.345 56.9423C212.892 56.8862 212.445 56.8363 211.986 56.7927C211.806 56.774 211.626 56.7491 211.446 56.7304C211.316 56.718 211.179 56.718 211.049 56.7117C210.578 56.6744 210.106 56.6557 209.635 56.637C209.424 56.6308 209.219 56.6058 209.008 56.6058C208.871 56.6058 208.729 56.6058 208.592 56.6058C208.468 56.6058 208.344 56.6058 208.22 56.6058C207.637 56.6058 207.06 56.6058 206.476 56.6245C206.433 56.6245 206.383 56.6245 206.34 56.6308C206.241 56.6308 206.141 56.6432 206.048 56.6432C205.484 56.6681 204.925 56.7055 204.367 56.7554C204.237 56.7678 204.112 56.774 203.982 56.7865C203.902 56.7927 203.821 56.799 203.734 56.8052C203.169 56.8613 202.617 56.9298 202.059 57.0108C201.953 57.0232 201.854 57.0482 201.749 57.0606C201.351 57.1229 200.961 57.179 200.57 57.2475C200.415 57.2787 200.259 57.3098 200.098 57.341C199.986 57.3597 199.875 57.3846 199.763 57.4095C199.167 57.5279 198.584 57.6649 198.001 57.8145C197.902 57.8394 197.809 57.8643 197.709 57.8892C197.12 58.045 196.537 58.2132 195.966 58.3938C195.96 58.3938 195.947 58.3938 195.941 58.4001C195.898 58.4125 195.848 58.4312 195.805 58.4499C195.271 58.6244 194.75 58.8175 194.235 59.0168C194.067 59.0854 193.9 59.1539 193.732 59.2224C193.329 59.3906 192.932 59.5651 192.547 59.7458C192.386 59.8205 192.231 59.8953 192.069 59.97C191.548 60.2255 191.033 60.4934 190.543 60.7799C190.438 60.8422 190.338 60.8983 190.239 60.9606C190.146 61.0167 190.065 61.0728 189.972 61.1288C189.823 61.2223 189.668 61.3157 189.525 61.4154C189.395 61.5026 189.265 61.5898 189.135 61.6833C188.992 61.783 188.855 61.8764 188.719 61.9761C188.595 62.0696 188.471 62.1568 188.353 62.2502C188.223 62.3499 188.092 62.4496 187.968 62.5555C187.85 62.6489 187.739 62.7424 187.627 62.8358C187.509 62.9418 187.385 63.0414 187.273 63.1473C187.224 63.191 187.174 63.2346 187.124 63.2782C187.081 63.3156 187.044 63.3592 187 63.4028C186.808 63.5834 186.628 63.7703 186.448 63.9572C186.386 64.0195 186.324 64.0818 186.268 64.1441C186.045 64.3871 185.834 64.6363 185.635 64.8917C185.629 64.9042 185.617 64.9104 185.61 64.9229C185.567 64.979 185.524 65.0413 185.48 65.1036C185.362 65.2593 185.244 65.4213 185.139 65.577C185.077 65.6643 185.021 65.7515 184.965 65.8449C184.872 65.9882 184.779 66.1315 184.698 66.281C184.673 66.3184 184.649 66.3558 184.624 66.3994C184.587 66.4617 184.562 66.524 184.531 66.5863C184.463 66.7109 184.4 66.8355 184.338 66.9601C184.289 67.066 184.239 67.1719 184.196 67.2716C184.14 67.3962 184.09 67.5208 184.041 67.6454C184.016 67.7015 183.991 67.7575 183.972 67.8074C183.954 67.8572 183.941 67.9133 183.923 67.9631C183.879 68.0815 183.842 68.1999 183.805 68.3245C183.774 68.4304 183.737 68.5425 183.712 68.6484C183.681 68.7668 183.65 68.8914 183.625 69.0098C183.613 69.0721 183.594 69.1406 183.575 69.2029C183.569 69.2465 183.563 69.2901 183.557 69.3337C183.532 69.4583 183.513 69.5829 183.501 69.7075C183.488 69.8135 183.47 69.9256 183.457 70.0315C183.445 70.1561 183.439 70.2807 183.433 70.4053C183.433 70.4801 183.42 70.5486 183.42 70.6234C183.42 70.6981 183.42 70.7666 183.42 70.8414L183.346 96.2349C183.346 96.0916 183.358 95.9421 183.364 95.7988C183.371 95.6742 183.377 95.5496 183.389 95.425C183.402 95.3191 183.414 95.207 183.433 95.1011C183.451 94.9765 183.47 94.8519 183.488 94.7273C183.507 94.6151 183.532 94.5092 183.557 94.3971C183.581 94.2787 183.613 94.1541 183.644 94.0357C183.675 93.9236 183.706 93.8177 183.737 93.7055C183.774 93.5872 183.811 93.4688 183.854 93.3442C183.892 93.2383 183.935 93.1324 183.972 93.0265C184.022 92.9019 184.078 92.7773 184.127 92.6527C184.171 92.5468 184.221 92.4471 184.27 92.3412C184.332 92.2166 184.394 92.092 184.463 91.9674C184.518 91.8677 184.574 91.768 184.63 91.6683C184.717 91.525 184.804 91.3755 184.897 91.2322C184.953 91.145 185.009 91.0515 185.071 90.9643C185.182 90.8023 185.294 90.6466 185.418 90.4909C185.468 90.4223 185.517 90.3476 185.573 90.279C185.772 90.0298 185.983 89.7806 186.206 89.5314C186.262 89.4691 186.324 89.4068 186.386 89.3445C186.56 89.1576 186.746 88.9707 186.938 88.7901C187.025 88.7028 187.118 88.6218 187.211 88.5346C187.329 88.4287 187.447 88.3228 187.565 88.2231C187.676 88.1297 187.788 88.0362 187.906 87.9365C188.03 87.8369 188.16 87.7372 188.291 87.6313C188.409 87.5378 188.533 87.4444 188.657 87.3572C188.793 87.2575 188.93 87.1578 189.073 87.0643C189.203 86.9771 189.333 86.8837 189.463 86.7965C189.612 86.703 189.761 86.6033 189.91 86.5099C190.096 86.3915 190.282 86.2731 190.481 86.161C190.971 85.8744 191.486 85.6065 192.007 85.3511C192.162 85.2763 192.324 85.2016 192.485 85.1268C192.876 84.9461 193.267 84.7717 193.67 84.6035C193.838 84.535 194.005 84.4664 194.173 84.3979C194.688 84.1985 195.209 84.0054 195.742 83.831C195.786 83.8185 195.836 83.7998 195.879 83.7811C196.456 83.5942 197.052 83.426 197.647 83.264C197.747 83.2391 197.84 83.2142 197.939 83.1893C198.516 83.0398 199.105 82.9089 199.701 82.7843C199.813 82.7594 199.924 82.7407 200.036 82.7158C200.582 82.6099 201.134 82.5164 201.686 82.4355C201.792 82.4168 201.891 82.3981 201.997 82.3856C202.63 82.2984 203.275 82.2236 203.914 82.1613C204.044 82.1489 204.168 82.1426 204.299 82.1302C204.857 82.0803 205.422 82.043 205.98 82.018C206.079 82.018 206.179 82.0056 206.272 82.0056C206.898 81.9807 207.525 81.9744 208.152 81.9807C208.276 81.9807 208.4 81.9807 208.524 81.9807C208.871 81.9807 209.219 82.0056 209.566 82.018C210.038 82.0367 210.509 82.0617 210.981 82.0928C211.291 82.1177 211.601 82.1426 211.918 82.1738C212.371 82.2174 212.824 82.2672 213.277 82.3233C213.705 82.3794 214.139 82.4354 214.567 82.504C214.654 82.5164 214.747 82.5289 214.834 82.5476C215.43 82.6473 216.025 82.7656 216.608 82.8965C216.751 82.9276 216.888 82.9588 217.024 82.9899C217.626 83.127 218.222 83.2765 218.811 83.4447C218.83 83.4447 218.848 83.4572 218.867 83.4634C219.444 83.6316 220.009 83.8123 220.567 84.0116C220.747 84.0739 220.914 84.1425 221.094 84.2048C221.609 84.3917 222.118 84.591 222.615 84.8029L222.689 59.4093L222.677 59.4156Z" fill="white" stroke="#3F1217" stroke-width="1.5" stroke-linecap="round" stroke-linejoin="round"/>
<path d="M140.305 77.6633C140.249 77.7194 140.193 77.7754 140.138 77.8315C139.896 78.062 139.647 78.2925 139.381 78.5106C139.343 78.5417 139.306 78.5667 139.269 78.5978C139.008 78.8034 138.742 79.009 138.456 79.2083C138.407 79.2457 138.357 79.2831 138.301 79.3205C137.966 79.551 137.612 79.7753 137.24 79.9933C136.713 80.2986 136.167 80.5852 135.602 80.8531C135.143 81.0649 134.671 81.2643 134.194 81.4512C134.032 81.5135 133.871 81.5633 133.71 81.6256C133.393 81.744 133.071 81.8561 132.742 81.9558C132.338 82.0804 131.929 82.1988 131.513 82.3047C131.346 82.3483 131.184 82.3981 131.017 82.4417C130.434 82.585 129.838 82.7158 129.236 82.8218C128.734 82.9152 128.225 82.99 127.716 83.0585C127.573 83.0772 127.431 83.0959 127.282 83.1083C126.971 83.1457 126.655 83.1769 126.339 83.2018C125.879 83.2454 125.42 83.2703 124.955 83.2952C124.738 83.3077 124.527 83.3202 124.31 83.3264C123.857 83.3388 123.404 83.3388 122.957 83.3326C122.777 83.3326 122.591 83.3326 122.411 83.3326C121.797 83.3139 121.183 83.2828 120.575 83.2329H120.562C119.948 83.1831 119.34 83.1146 118.738 83.0273C118.558 83.0024 118.384 82.965 118.204 82.9401C117.77 82.8716 117.336 82.7968 116.908 82.7158C116.449 82.6224 115.989 82.5227 115.543 82.4106C115.462 82.3919 115.381 82.367 115.307 82.3483C114.91 82.2424 114.519 82.1302 114.134 82.0119C113.985 81.9682 113.843 81.9246 113.694 81.8748C113.253 81.7315 112.819 81.5757 112.391 81.4138C112.36 81.4013 112.322 81.3888 112.285 81.3764C111.963 81.2456 111.646 81.1023 111.33 80.959C111.156 80.8842 110.976 80.8157 110.809 80.7347C110.331 80.5042 109.872 80.2612 109.425 80.0058C105.547 77.7568 103.605 74.8037 103.617 71.8569L103.543 97.2505C103.537 100.197 105.473 103.15 109.35 105.399C109.797 105.661 110.256 105.904 110.734 106.128C110.902 106.209 111.082 106.278 111.255 106.353C111.566 106.49 111.87 106.633 112.186 106.764C112.192 106.764 112.198 106.764 112.205 106.77C112.236 106.782 112.273 106.795 112.31 106.807C112.732 106.975 113.172 107.125 113.613 107.268C113.756 107.318 113.905 107.362 114.054 107.405C114.227 107.461 114.395 107.518 114.569 107.567C114.786 107.63 115.003 107.686 115.226 107.742C115.307 107.76 115.388 107.785 115.468 107.804C115.859 107.904 116.25 107.991 116.641 108.078C116.703 108.091 116.771 108.097 116.833 108.109C117.261 108.197 117.696 108.265 118.136 108.334C118.285 108.359 118.434 108.39 118.583 108.408C118.614 108.408 118.639 108.408 118.67 108.421C119.272 108.508 119.886 108.577 120.5 108.626C120.5 108.626 120.506 108.626 120.513 108.626C121.121 108.676 121.735 108.707 122.349 108.726C122.38 108.726 122.405 108.726 122.436 108.726C122.591 108.726 122.74 108.726 122.895 108.726C123.348 108.726 123.801 108.732 124.248 108.72C124.316 108.72 124.384 108.72 124.452 108.72C124.601 108.72 124.744 108.695 124.893 108.689C125.352 108.664 125.817 108.639 126.277 108.595C126.394 108.583 126.512 108.583 126.63 108.57C126.829 108.552 127.021 108.521 127.22 108.502C127.362 108.483 127.505 108.471 127.654 108.452C128.157 108.383 128.653 108.315 129.143 108.222C129.156 108.222 129.162 108.221 129.174 108.215C129.776 108.103 130.372 107.979 130.955 107.835C131.122 107.792 131.284 107.742 131.451 107.698C131.867 107.586 132.276 107.474 132.68 107.349C132.736 107.331 132.791 107.318 132.841 107.299C133.114 107.212 133.375 107.113 133.641 107.013C133.803 106.957 133.97 106.901 134.125 106.838C134.603 106.652 135.081 106.458 135.534 106.24C136.098 105.972 136.644 105.692 137.172 105.381C137.271 105.325 137.364 105.268 137.457 105.212C137.73 105.05 137.985 104.876 138.233 104.708C138.289 104.67 138.338 104.633 138.388 104.596C138.673 104.396 138.946 104.191 139.201 103.985C139.238 103.954 139.275 103.929 139.306 103.898C139.517 103.723 139.716 103.555 139.908 103.375C139.964 103.325 140.014 103.269 140.069 103.213C140.125 103.157 140.181 103.1 140.237 103.044C140.473 102.808 140.702 102.565 140.907 102.322L140.981 76.9282C140.777 77.1711 140.547 77.4141 140.311 77.6508L140.305 77.6633Z" fill="white" stroke="#3F1217" stroke-width="1.5" stroke-linecap="round" stroke-linejoin="round"/>
<path d="M244.629 46.6067L222.677 59.4156C213.016 55.229 199.267 55.6838 190.55 60.7737C181.826 65.8636 181.094 73.863 188.322 79.4637L166.892 91.9674L140.975 76.9468C140.051 78.0495 138.81 79.0837 137.234 79.9995C136.706 80.3048 136.16 80.5914 135.596 80.8593C127.89 84.4477 116.597 84.1612 109.418 79.9995C102.24 75.8379 101.712 69.2652 107.855 64.7796C108.314 64.4494 108.798 64.1317 109.325 63.8264C110.901 62.9106 112.67 62.1817 114.562 61.6397L88.6455 46.6129L166.389 1.24597L244.629 46.6067Z" fill="#FF1233" stroke="#3F1217" stroke-width="1.5" stroke-linecap="round" stroke-linejoin="round"/>
<path d="M188.322 79.4575L188.248 104.851L166.823 117.355L166.892 91.9674L188.322 79.4575Z" fill="white" stroke="#3F1217" stroke-width="1.5" stroke-linecap="round" stroke-linejoin="round"/>
<path d="M166.891 91.9673L166.823 117.355L140.906 102.334L140.975 76.9406L166.891 91.9673Z" fill="white" stroke="#3F1217" stroke-width="1.5" stroke-linecap="round" stroke-linejoin="round"/>
<path d="M197.125 100.091L197.199 74.6979C197.193 76.9905 198.36 79.2832 200.705 81.2456C201.381 81.8063 202.138 82.3359 203.007 82.8405C204.223 83.5445 205.551 84.1363 206.972 84.6223L206.897 110.016C205.476 109.53 204.149 108.938 202.933 108.234C202.07 107.736 201.307 107.2 200.631 106.639C198.285 104.677 197.119 102.384 197.125 100.091Z" fill="white"/>
<mask id="mask0_2354_3261" style="mask-type:luminance" maskUnits="userSpaceOnUse" x="197" y="74" width="10" height="37">
<path d="M197.125 100.091L197.199 74.6979C197.193 76.9905 198.36 79.2832 200.705 81.2456C201.381 81.8063 202.138 82.3359 203.007 82.8405C204.223 83.5445 205.551 84.1363 206.972 84.6223L206.897 110.016C205.476 109.53 204.149 108.938 202.933 108.234C202.07 107.736 201.307 107.2 200.631 106.639C198.285 104.677 197.119 102.384 197.125 100.091Z" fill="white"/>
</mask>
<g mask="url(#mask0_2354_3261)">
<path d="M206.971 84.6286L206.897 110.022C206.525 109.898 206.159 109.76 205.799 109.617L205.873 84.2236C206.233 84.3669 206.599 84.4977 206.971 84.6286Z" fill="white" stroke="#3F1217" stroke-width="1.5" stroke-linecap="round" stroke-linejoin="round"/>
<path d="M205.873 84.2238L205.799 109.617C204.788 109.219 203.832 108.758 202.933 108.24C202.033 107.723 201.307 107.206 200.631 106.646C198.285 104.683 197.119 102.391 197.125 100.098L197.199 74.7043C197.193 76.997 198.36 79.2896 200.705 81.2521C201.381 81.8128 202.138 82.3423 203.007 82.847C203.907 83.3641 204.862 83.8251 205.873 84.2238Z" fill="white" stroke="#3F1217" stroke-width="1.5" stroke-linecap="round" stroke-linejoin="round"/>
</g>
<path d="M197.125 100.091L197.199 74.6979C197.193 76.9905 198.36 79.2832 200.705 81.2456C201.381 81.8063 202.138 82.3359 203.007 82.8405C204.223 83.5445 205.551 84.1363 206.972 84.6223L206.897 110.016C205.476 109.53 204.149 108.938 202.933 108.234C202.07 107.736 201.307 107.2 200.631 106.639C198.285 104.677 197.119 102.384 197.125 100.091Z" stroke="#3F1217" stroke-width="1.5" stroke-linecap="round" stroke-linejoin="round"/>
<path d="M204.019 112.221L203.944 137.608L181.707 124.719L181.782 99.3251L204.019 112.221Z" fill="white" stroke="#3F1217" stroke-width="1.5" stroke-linecap="round" stroke-linejoin="round"/>
<path d="M233.77 114.495C233.237 114.19 232.684 113.897 232.12 113.623C231.934 113.529 231.735 113.455 231.543 113.367C231.158 113.193 230.773 113.019 230.37 112.857C230.314 112.838 230.271 112.807 230.215 112.788C229.843 112.639 229.458 112.501 229.067 112.371C228.974 112.34 228.887 112.302 228.794 112.271C228.285 112.097 227.77 111.935 227.243 111.785C227.2 111.773 227.156 111.76 227.113 111.754C227.007 111.723 226.902 111.698 226.796 111.673C226.343 111.548 225.89 111.436 225.425 111.33C225.276 111.299 225.133 111.262 224.984 111.231C224.879 111.206 224.774 111.181 224.662 111.156C224.228 111.062 223.787 110.981 223.34 110.907C223.26 110.894 223.179 110.882 223.098 110.869C222.807 110.819 222.515 110.77 222.217 110.732C222.093 110.713 221.969 110.707 221.851 110.689C221.342 110.62 220.834 110.564 220.319 110.514C220.151 110.495 219.984 110.471 219.816 110.458C219.754 110.458 219.686 110.458 219.624 110.446C218.879 110.39 218.141 110.346 217.39 110.327C217.39 110.327 217.39 110.327 217.384 110.327C216.801 110.315 216.217 110.315 215.634 110.327C215.498 110.327 215.367 110.327 215.231 110.333C215.107 110.333 214.976 110.333 214.852 110.34C214.387 110.358 213.922 110.377 213.456 110.408C213.425 110.408 213.401 110.408 213.37 110.414C212.948 110.446 212.526 110.477 212.11 110.52C211.992 110.533 211.868 110.551 211.75 110.564C211.533 110.589 211.322 110.614 211.105 110.639C210.708 110.689 210.317 110.745 209.926 110.807C209.715 110.838 209.504 110.869 209.293 110.907C209.175 110.925 209.057 110.944 208.939 110.963C208.518 111.037 208.102 111.125 207.686 111.212C207.63 111.224 207.574 111.237 207.512 111.249C206.997 111.361 206.489 111.486 205.992 111.623C205.887 111.654 205.781 111.679 205.676 111.71C205.223 111.835 204.776 111.966 204.336 112.109C204.224 112.146 204.106 112.184 203.994 112.221L203.92 137.615C204.472 137.428 205.031 137.26 205.601 137.104C205.707 137.073 205.812 137.048 205.918 137.017C206.42 136.88 206.929 136.755 207.444 136.643C207.5 136.63 207.556 136.618 207.618 136.605C208.145 136.493 208.679 136.394 209.219 136.3C209.43 136.263 209.641 136.232 209.852 136.2C210.242 136.138 210.639 136.082 211.03 136.032C211.241 136.007 211.458 135.976 211.676 135.957C212.215 135.901 212.755 135.845 213.295 135.808C213.326 135.808 213.351 135.808 213.382 135.802C213.971 135.764 214.561 135.739 215.156 135.721C215.293 135.721 215.423 135.721 215.56 135.715C216.143 135.708 216.732 135.702 217.316 135.715C218.06 135.733 218.805 135.777 219.549 135.833C219.779 135.852 220.008 135.876 220.244 135.901C220.759 135.951 221.268 136.007 221.777 136.076C222.192 136.132 222.614 136.188 223.024 136.257C223.105 136.269 223.185 136.281 223.266 136.294C223.818 136.387 224.364 136.499 224.91 136.618C225.059 136.649 225.202 136.686 225.351 136.718C225.81 136.823 226.269 136.936 226.722 137.06C226.827 137.091 226.933 137.116 227.038 137.141C227.603 137.303 228.167 137.471 228.713 137.658C228.807 137.689 228.9 137.727 228.993 137.758C229.433 137.914 229.868 138.076 230.296 138.244C230.693 138.406 231.077 138.58 231.468 138.755C231.661 138.842 231.859 138.923 232.045 139.01C232.61 139.284 233.162 139.571 233.696 139.882C238.548 142.692 240.968 146.393 240.955 150.081L241.03 124.687C241.042 120.993 238.616 117.299 233.77 114.489V114.495Z" fill="white" stroke="#3F1217" stroke-width="1.5" stroke-linecap="round" stroke-linejoin="round"/>
<path d="M260.022 144.686L259.947 170.079L237.71 157.183L237.784 131.79L260.022 144.686Z" fill="white" stroke="#3F1217" stroke-width="1.5" stroke-linecap="round" stroke-linejoin="round"/>
<path d="M337.759 99.3251L337.685 124.719L259.947 170.079L260.022 144.686L337.759 99.3251Z" fill="white" stroke="#3F1217" stroke-width="1.5" stroke-linecap="round" stroke-linejoin="round"/>
<path d="M337.758 99.325L260.021 144.686L237.784 131.796C243.188 126.313 241.842 119.18 233.769 114.501C225.697 109.823 213.425 109.063 204.018 112.227L181.781 99.3375L206.972 84.6347C205.551 84.1488 204.223 83.5569 203.007 82.8529C202.145 82.3545 201.382 81.8187 200.705 81.258C195.388 76.8036 196.114 70.6421 202.914 66.6736C209.714 62.7051 220.299 62.2627 227.974 65.3466C228.942 65.7328 229.861 66.1752 230.723 66.6736C231.939 67.3776 232.963 68.1501 233.801 68.9724L259.512 53.9706L337.752 99.3313L337.758 99.325Z" fill="#FF1233" stroke="#3F1217" stroke-width="1.5" stroke-linecap="round" stroke-linejoin="round"/>
<path d="M95.1047 101.748C95.1233 101.605 95.1481 101.468 95.1729 101.325C95.1853 101.244 95.2039 101.163 95.2164 101.082C95.2474 100.932 95.2846 100.777 95.328 100.627C95.3466 100.559 95.3591 100.496 95.3777 100.428C95.4397 100.21 95.5142 99.9916 95.5948 99.7736C95.601 99.7549 95.6134 99.73 95.6196 99.7113C95.6941 99.5119 95.781 99.3126 95.8678 99.1194C95.8989 99.0447 95.9361 98.9761 95.9733 98.9014C96.0416 98.7581 96.116 98.6086 96.1967 98.4653C96.2401 98.3905 96.2835 98.3095 96.327 98.2348C96.42 98.0728 96.5193 97.9108 96.6248 97.755C96.6682 97.6865 96.7179 97.6118 96.7613 97.5432C96.904 97.3314 97.0529 97.1258 97.2142 96.9202C97.2266 96.9078 97.2328 96.8891 97.2452 96.8766C97.4438 96.6274 97.6548 96.3844 97.8781 96.1415C97.934 96.0792 97.9898 96.0169 98.0456 95.9608C98.269 95.7241 98.4986 95.4936 98.7406 95.263C98.753 95.2568 98.7592 95.2443 98.7716 95.2381C99.026 95.0014 99.299 94.7709 99.5844 94.5404C99.6526 94.4843 99.7271 94.4282 99.7953 94.3721C100.087 94.1416 100.385 93.9174 100.701 93.6931L100.776 68.2996C100.459 68.5176 100.161 68.7481 99.8698 68.9786C99.8015 69.0347 99.7271 69.0908 99.6588 69.1468C99.3796 69.3774 99.1004 69.6079 98.846 69.8446C98.8398 69.8508 98.8274 69.8633 98.8212 69.8695C98.5792 70.1 98.3497 70.3305 98.1263 70.5611C98.0705 70.6234 98.0146 70.6857 97.9588 70.7417C97.7354 70.9847 97.5245 71.2277 97.3321 71.4769C97.3197 71.4893 97.3135 71.5018 97.3073 71.5142C97.146 71.7198 96.9971 71.9254 96.8544 72.1372C96.8047 72.2058 96.7613 72.2743 96.7179 72.3428C96.6124 72.5048 96.5131 72.6668 96.42 72.8225C96.3952 72.8662 96.3642 72.9098 96.3394 72.9471C96.3208 72.9783 96.3084 73.0157 96.2897 73.0468C96.2091 73.1901 96.1346 73.3396 96.0664 73.4829C96.0292 73.5577 95.9919 73.6262 95.9609 73.701C95.8678 73.9003 95.7872 74.0935 95.7127 74.2928C95.7065 74.3115 95.6941 74.3302 95.6879 74.3489C95.6879 74.3489 95.6879 74.3489 95.6879 74.3551C95.6072 74.5732 95.539 74.7912 95.4707 75.0093C95.4521 75.0778 95.4335 75.1401 95.4211 75.2086C95.3839 75.3582 95.3404 75.5139 95.3094 75.6634C95.3094 75.6884 95.297 75.7195 95.2908 75.7444C95.2784 75.8005 95.2722 75.8566 95.266 75.9064C95.2412 76.0497 95.2163 76.1868 95.1977 76.33C95.1853 76.4173 95.1791 76.5045 95.1667 76.5855C95.1543 76.7225 95.1419 76.8658 95.1357 77.0029C95.1357 77.0527 95.1233 77.1088 95.1233 77.1586C95.1233 77.2334 95.1233 77.3019 95.1233 77.3767L95.0488 102.77C95.0488 102.646 95.055 102.521 95.0612 102.396C95.0674 102.259 95.0798 102.116 95.0923 101.979C95.0985 101.892 95.1109 101.805 95.1233 101.724L95.1047 101.748Z" fill="white" stroke="#3F1217" stroke-width="1.5" stroke-linecap="round" stroke-linejoin="round"/>
<path d="M157.287 101.063L157.218 126.457L131.984 141.178L132.059 115.785L157.287 101.063Z" fill="white" stroke="#3F1217" stroke-width="1.5" stroke-linecap="round" stroke-linejoin="round"/>
<path d="M140.597 125.609C140.597 125.709 140.584 125.809 140.578 125.909C140.572 125.996 140.559 126.083 140.547 126.164C140.535 126.264 140.516 126.363 140.497 126.463C140.479 126.55 140.46 126.637 140.442 126.725C140.423 126.818 140.398 126.918 140.373 127.011C140.348 127.098 140.324 127.186 140.299 127.273C140.268 127.366 140.237 127.466 140.206 127.559C140.175 127.647 140.144 127.728 140.106 127.815C140.069 127.915 140.026 128.014 139.982 128.114C139.945 128.195 139.908 128.282 139.865 128.363C139.815 128.463 139.765 128.563 139.716 128.656C139.672 128.737 139.629 128.818 139.585 128.899C139.517 129.017 139.443 129.129 139.374 129.248C139.331 129.316 139.281 129.391 139.238 129.46C139.151 129.584 139.058 129.709 138.965 129.833C138.921 129.89 138.884 129.946 138.835 130.008C138.673 130.207 138.506 130.407 138.326 130.606C138.282 130.656 138.233 130.706 138.183 130.755C138.04 130.905 137.891 131.055 137.736 131.204C137.668 131.273 137.594 131.341 137.519 131.403C137.426 131.484 137.333 131.572 137.24 131.653C137.153 131.727 137.06 131.808 136.967 131.883C136.868 131.964 136.762 132.045 136.663 132.126C136.564 132.201 136.471 132.276 136.365 132.35C136.26 132.431 136.148 132.506 136.036 132.581C135.931 132.656 135.825 132.724 135.72 132.793C135.602 132.867 135.484 132.942 135.366 133.017C135.211 133.11 135.062 133.21 134.907 133.297C134.535 133.515 134.15 133.721 133.753 133.914C133.629 133.976 133.499 134.032 133.368 134.095C133.095 134.226 132.816 134.35 132.531 134.469C132.382 134.531 132.227 134.593 132.072 134.655C131.799 134.768 131.513 134.867 131.234 134.973C131.079 135.029 130.924 135.085 130.769 135.135C130.57 135.204 130.365 135.26 130.161 135.322C129.794 135.434 129.422 135.54 129.044 135.64C128.845 135.69 128.647 135.739 128.442 135.789C128.051 135.883 127.654 135.964 127.257 136.045C127.058 136.082 126.866 136.126 126.667 136.157C126.512 136.182 126.351 136.207 126.196 136.232C125.873 136.281 125.551 136.331 125.228 136.369C125.06 136.387 124.887 136.412 124.713 136.431C124.328 136.475 123.944 136.512 123.553 136.543C123.484 136.543 123.41 136.556 123.342 136.562C122.901 136.593 122.461 136.612 122.014 136.624C121.406 136.643 120.798 136.649 120.184 136.63C120.115 136.63 120.047 136.624 119.973 136.618C119.445 136.599 118.924 136.574 118.397 136.531C118.204 136.518 118.006 136.493 117.813 136.475C117.416 136.437 117.019 136.394 116.622 136.344C116.411 136.319 116.206 136.288 115.995 136.257C115.574 136.194 115.164 136.12 114.748 136.039C114.537 135.995 114.326 135.964 114.122 135.914C114.004 135.889 113.892 135.864 113.774 135.833C113.402 135.746 113.036 135.658 112.67 135.559C112.589 135.534 112.502 135.515 112.422 135.49C111.956 135.359 111.497 135.216 111.044 135.067C110.678 134.942 110.318 134.811 109.965 134.668C109.921 134.649 109.884 134.631 109.841 134.618C109.431 134.456 109.034 134.275 108.643 134.095C108.531 134.045 108.42 133.989 108.314 133.939C107.892 133.733 107.483 133.515 107.079 133.285C106.217 132.786 105.454 132.251 104.778 131.69L104.703 157.083C105.379 157.644 106.136 158.174 107.005 158.678C107.402 158.909 107.818 159.121 108.24 159.333C108.351 159.389 108.457 159.438 108.569 159.488C108.959 159.675 109.357 159.85 109.766 160.012C109.797 160.024 109.828 160.043 109.859 160.055C109.872 160.055 109.878 160.061 109.89 160.068C110.244 160.205 110.604 160.342 110.97 160.466C111.385 160.61 111.807 160.741 112.235 160.865C112.273 160.878 112.31 160.884 112.341 160.896C112.422 160.921 112.508 160.94 112.589 160.965C112.955 161.064 113.321 161.158 113.694 161.239C113.811 161.264 113.923 161.295 114.041 161.32C114.122 161.339 114.209 161.357 114.289 161.376C114.413 161.401 114.544 161.42 114.668 161.445C115.083 161.526 115.493 161.6 115.915 161.663C116.02 161.681 116.126 161.7 116.231 161.719C116.337 161.731 116.436 161.737 116.541 161.756C116.939 161.806 117.336 161.849 117.733 161.887C117.869 161.899 118.006 161.924 118.142 161.93C118.198 161.93 118.26 161.93 118.322 161.943C118.843 161.98 119.371 162.011 119.898 162.03C119.96 162.03 120.022 162.036 120.084 162.043C120.09 162.043 120.103 162.043 120.109 162.043C120.717 162.055 121.325 162.055 121.939 162.036C121.989 162.036 122.045 162.036 122.095 162.036C122.485 162.024 122.876 161.999 123.267 161.974C123.335 161.974 123.41 161.962 123.478 161.955C123.745 161.937 124.012 161.918 124.279 161.887C124.396 161.874 124.521 161.856 124.638 161.843C124.812 161.825 124.98 161.806 125.153 161.781C125.476 161.737 125.799 161.694 126.121 161.644C126.276 161.619 126.438 161.594 126.593 161.569C126.661 161.557 126.729 161.55 126.798 161.538C126.928 161.513 127.052 161.482 127.182 161.457C127.579 161.382 127.977 161.295 128.367 161.202C128.566 161.152 128.771 161.102 128.969 161.052C129.348 160.952 129.72 160.846 130.086 160.734C130.21 160.697 130.334 160.666 130.458 160.628C130.539 160.603 130.613 160.572 130.694 160.547C130.849 160.498 131.004 160.441 131.159 160.385C131.445 160.286 131.724 160.18 131.997 160.068C132.152 160.005 132.301 159.943 132.456 159.881C132.742 159.762 133.021 159.632 133.294 159.507C133.424 159.445 133.554 159.389 133.679 159.326C134.069 159.133 134.46 158.928 134.833 158.71C134.919 158.66 135 158.61 135.081 158.56C135.155 158.516 135.223 158.467 135.292 158.423C135.41 158.348 135.528 158.273 135.645 158.199C135.751 158.13 135.856 158.055 135.962 157.987C136.074 157.912 136.185 157.831 136.291 157.756C136.39 157.682 136.489 157.607 136.588 157.532C136.694 157.451 136.793 157.37 136.893 157.295C136.986 157.221 137.079 157.146 137.166 157.065C137.259 156.984 137.358 156.903 137.445 156.816C137.482 156.778 137.525 156.747 137.563 156.71C137.6 156.679 137.625 156.647 137.662 156.61C137.817 156.46 137.966 156.311 138.109 156.161C138.158 156.112 138.208 156.062 138.251 156.012C138.431 155.813 138.605 155.613 138.76 155.414C138.766 155.408 138.779 155.395 138.785 155.389C138.822 155.339 138.853 155.295 138.89 155.246C138.983 155.121 139.077 154.996 139.163 154.872C139.213 154.803 139.256 154.729 139.3 154.66C139.374 154.542 139.449 154.43 139.511 154.311C139.529 154.28 139.554 154.249 139.573 154.211C139.598 154.162 139.623 154.118 139.647 154.068C139.697 153.968 139.753 153.875 139.796 153.775C139.84 153.694 139.877 153.607 139.914 153.526C139.958 153.426 140.001 153.327 140.038 153.227C140.057 153.184 140.075 153.14 140.094 153.096C140.106 153.059 140.119 153.015 140.131 152.972C140.162 152.878 140.193 152.779 140.224 152.685C140.249 152.598 140.274 152.511 140.299 152.423C140.324 152.33 140.348 152.23 140.367 152.137C140.379 152.087 140.392 152.031 140.404 151.981C140.411 151.944 140.417 151.913 140.423 151.875C140.442 151.776 140.454 151.676 140.466 151.582C140.479 151.495 140.491 151.408 140.497 151.321C140.51 151.221 140.516 151.121 140.516 151.022C140.516 150.966 140.528 150.903 140.528 150.847C140.528 150.791 140.528 150.729 140.528 150.673L140.603 125.279C140.603 125.398 140.597 125.51 140.59 125.628L140.597 125.609Z" fill="white" stroke="#3F1217" stroke-width="1.5" stroke-linecap="round" stroke-linejoin="round"/>
<path d="M157.286 101.063L132.052 115.785C133.02 116.171 133.938 116.613 134.801 117.112C136.017 117.816 137.041 118.588 137.878 119.411C142.327 123.797 141.341 129.522 134.894 133.285C128.441 137.048 118.595 137.646 111.05 135.067C109.623 134.587 108.301 133.989 107.085 133.285C106.223 132.786 105.459 132.251 104.783 131.69L79.5491 146.411L1.31543 101.063L79.0465 55.7025L100.769 68.2996C92.709 73.9128 93.255 82.3296 102.363 87.6064C111.472 92.8832 125.935 93.176 135.57 88.4724L157.286 101.063Z" fill="#FF1233" stroke="#3F1217" stroke-width="1.5" stroke-linecap="round" stroke-linejoin="round"/>
<path d="M104.79 131.696L104.715 157.09L79.4814 171.811L79.5559 146.418L104.79 131.696Z" fill="white" stroke="#3F1217" stroke-width="1.5" stroke-linecap="round" stroke-linejoin="round"/>
<path d="M79.5555 146.418L79.481 171.811L1.24121 126.457L1.31567 101.063L79.5555 146.418Z" fill="white" stroke="#3F1217" stroke-width="1.5" stroke-linecap="round" stroke-linejoin="round"/>
<path d="M148.911 164.354L148.836 189.747C148.842 186.975 147.477 184.196 144.741 181.798L144.816 156.404C147.552 158.803 148.917 161.581 148.911 164.354Z" fill="white"/>
<mask id="mask1_2354_3261" style="mask-type:luminance" maskUnits="userSpaceOnUse" x="144" y="156" width="5" height="34">
<path d="M148.911 164.354L148.836 189.747C148.842 186.975 147.477 184.196 144.741 181.798L144.816 156.404C147.552 158.803 148.917 161.581 148.911 164.354Z" fill="white"/>
</mask>
<g mask="url(#mask1_2354_3261)">
<path d="M148.911 164.354L148.836 189.747C148.842 186.975 147.477 184.196 144.741 181.798L144.816 156.404C147.552 158.803 148.917 161.581 148.911 164.354Z" fill="white" stroke="#3F1217" stroke-width="1.5" stroke-linecap="round" stroke-linejoin="round"/>
</g>
<path d="M148.911 164.354L148.836 189.747C148.842 186.975 147.477 184.196 144.741 181.798L144.816 156.404C147.552 158.803 148.917 161.581 148.911 164.354Z" stroke="#3F1217" stroke-width="1.5" stroke-linecap="round" stroke-linejoin="round"/>
<path d="M226.995 165.942C226.995 166.017 226.989 166.086 226.977 166.161C226.958 166.316 226.933 166.472 226.908 166.628C226.902 166.671 226.896 166.715 226.89 166.765C226.852 166.964 226.803 167.164 226.741 167.363C226.722 167.419 226.704 167.469 226.685 167.525C226.642 167.668 226.592 167.811 226.536 167.961C226.505 168.042 226.468 168.117 226.437 168.198C226.387 168.316 226.331 168.441 226.275 168.559C226.238 168.64 226.195 168.721 226.151 168.802C226.089 168.914 226.033 169.026 225.965 169.138C225.909 169.232 225.847 169.325 225.792 169.425C225.723 169.531 225.655 169.637 225.587 169.737C225.525 169.83 225.456 169.923 225.382 170.017C225.27 170.166 225.165 170.31 225.041 170.453C224.836 170.696 224.606 170.939 224.371 171.176C224.315 171.232 224.259 171.288 224.203 171.344C223.961 171.574 223.713 171.805 223.44 172.023C223.403 172.054 223.366 172.079 223.328 172.11C223.074 172.316 222.801 172.521 222.515 172.721C222.466 172.758 222.41 172.795 222.36 172.833C222.025 173.063 221.672 173.288 221.299 173.506C220.772 173.811 220.226 174.098 219.661 174.365L219.587 199.759C220.152 199.491 220.698 199.211 221.225 198.899C221.324 198.843 221.417 198.787 221.51 198.731C221.783 198.569 222.038 198.395 222.286 198.226C222.342 198.189 222.391 198.152 222.441 198.114C222.726 197.915 222.999 197.709 223.254 197.504C223.291 197.473 223.328 197.448 223.366 197.416C223.57 197.242 223.775 197.074 223.961 196.893C224.017 196.843 224.067 196.787 224.122 196.731C224.178 196.675 224.234 196.619 224.29 196.563C224.526 196.326 224.755 196.083 224.96 195.84C225.035 195.753 225.103 195.666 225.177 195.572C225.221 195.516 225.258 195.46 225.301 195.398C225.37 195.305 225.438 195.211 225.506 195.118C225.581 195.012 225.649 194.912 225.711 194.806C225.773 194.713 225.829 194.619 225.885 194.52C225.909 194.482 225.934 194.439 225.959 194.401C226.002 194.326 226.033 194.258 226.071 194.183C226.114 194.102 226.158 194.021 226.195 193.94C226.251 193.822 226.306 193.697 226.356 193.579C226.387 193.498 226.424 193.423 226.455 193.342C226.462 193.323 226.474 193.298 226.48 193.28C226.524 193.155 226.561 193.031 226.604 192.912C226.623 192.856 226.642 192.806 226.66 192.75C226.716 192.557 226.766 192.364 226.803 192.165C226.803 192.165 226.803 192.152 226.803 192.146C226.809 192.102 226.815 192.052 226.821 192.009C226.846 191.853 226.871 191.697 226.89 191.542C226.896 191.467 226.902 191.398 226.908 191.324C226.915 191.224 226.927 191.13 226.927 191.031C226.927 190.975 226.927 190.912 226.927 190.856L227.001 165.463C227.001 165.619 226.989 165.774 226.977 165.93L226.995 165.942Z" fill="white" stroke="#3F1217" stroke-width="1.5" stroke-linecap="round" stroke-linejoin="round"/>
<path d="M221.207 157.333C227.337 160.884 228.615 166.185 225.041 170.459C224.116 171.562 222.876 172.596 221.3 173.512C220.772 173.817 220.226 174.104 219.662 174.372L244.914 189.012L167.183 234.373L88.9434 189.012L110.808 176.253C120.382 179.916 133.393 179.306 141.769 174.415C150.145 169.525 151.157 161.961 144.822 156.404L166.681 143.651L191.933 158.292C192.392 157.962 192.876 157.644 193.404 157.339C194.98 156.423 196.748 155.694 198.64 155.152C205.974 153.065 215.089 153.788 221.213 157.339L221.207 157.333Z" fill="#FF1233" stroke="#3F1217" stroke-width="1.5" stroke-linecap="round" stroke-linejoin="round"/>
<path d="M244.915 189.006L244.847 214.4L167.109 259.754L167.184 234.367L244.915 189.006Z" fill="white" stroke="#3F1217" stroke-width="1.5" stroke-linecap="round" stroke-linejoin="round"/>
<path d="M167.183 234.367L167.109 259.754L88.8691 214.4L88.9436 189.006L167.183 234.367Z" fill="white" stroke="#3F1217" stroke-width="1.5" stroke-linecap="round" stroke-linejoin="round"/>
</g>
<defs>
<clipPath id="clip0_2354_3261">
<rect width="339" height="261" fill="white"/>
</clipPath>
</defs>
</svg>
