<svg width="322" height="528" viewBox="0 0 322 528" fill="none" xmlns="http://www.w3.org/2000/svg">
<path d="M135.824 287.335L117.025 373.579L90.2119 282.218L135.824 287.335Z" fill="#430B12"/>
<path d="M37.9937 169.567L33.3922 205.167L1.15332 193.166L5.08946 169.567H37.9937Z" fill="#EF223A"/>
<path d="M188.397 91.9185L202.72 83.1826L211.333 119.337L196.691 122.715L188.397 91.9185Z" fill="white"/>
<path d="M228.034 312.765L234.604 340.674L117.025 373.579L135.816 287.335L136.378 284.903L138.721 280.612L161.129 239.556L170.36 222.634L175.693 158.223L173.265 127.638L171.279 102.386L176.349 99.2876L184.821 94.1227L188.401 91.9253L196.695 122.83L211.324 119.337L236.853 226.503L228.034 312.765Z" fill="#EF223A"/>
<path d="M175.693 158.223L170.36 222.634L161.129 239.556L173.265 127.638L175.693 158.223Z" fill="#430B12"/>
<path d="M176.348 99.2876L171.278 102.386L173.265 127.638L161.129 239.556L138.721 280.612L42.0884 269.54L32.876 254.844L62.2471 19.9084L75.5456 4.13208L171.278 5.85996L184.999 19.5891L176.348 99.2876Z" fill="white"/>
<path d="M193.198 19.589L184.82 94.1226L176.348 99.2875L184.998 19.589L171.278 5.85989L75.5453 4.13201L62.2467 19.9083L32.8756 254.844L42.0881 269.54L138.72 280.612L136.377 284.903L135.815 287.335L90.2121 282.217L40.5136 276.639L26.709 256.853L28.3584 244.119L32.4632 212.304L33.3911 205.167L37.9926 169.567L42.7441 132.821L47.1113 99.0339L57.5327 18.4434L73.2586 0.00012207L175.373 0.572952L193.198 19.589Z" fill="#EF223A"/>
<path d="M193.199 19.589L184.82 94.1132L188.41 91.9158L193.939 88.5445L200.209 26.9888L193.208 19.589H193.199ZM192.224 80.7597L188.681 79.4168L191.352 55.1232L195.12 56.2501L192.224 80.7691V80.7597Z" fill="#430B12"/>
<path d="M195.119 56.2502L192.223 80.7598L188.681 79.4169L191.352 55.1233L195.119 56.2502Z" fill="#EF223A"/>
<path d="M47.1129 99.0339L42.7456 132.822L18.8008 121.515L28.8567 95.381L47.1129 99.0339Z" fill="#EF223A"/>
<path d="M32.4638 212.304L28.359 244.12L0 228.231L4.8452 211.327L32.4638 212.304Z" fill="#EF223A"/>
<path d="M132.217 425.378L115.291 430.721L101.309 377.983L115.947 373.88L117.025 373.579L132.217 425.378Z" fill="#430B12"/>
<path d="M260.498 384.895L246.103 389.44L132.217 425.378L117.025 373.579L234.613 340.674L244.959 337.772L260.498 384.895Z" fill="#430B12"/>
<path d="M336.427 527.107H112.526L90.2119 476.97L115.291 430.721L132.216 425.378L246.102 389.44L260.497 384.895L295.004 398.727L336.427 527.107Z" fill="#430B12"/>
<path d="M98.7312 156.768C102.199 157.049 105.291 154.392 105.619 150.814C105.947 147.246 103.389 144.165 99.9401 143.912C96.5007 143.658 93.4361 146.297 93.0987 149.837C92.7613 153.387 95.2823 156.477 98.7312 156.758V156.768ZM100.296 140.127C103.745 140.372 106.828 137.723 107.156 134.174C107.484 130.634 104.935 127.61 101.496 127.394C98.0658 127.178 95.0199 129.817 94.6826 133.329C94.3452 136.85 96.8568 139.883 100.296 140.127ZM115.244 158.111C118.777 158.402 121.917 155.716 122.236 152.11C122.554 148.504 119.93 145.396 116.406 145.133C112.901 144.87 109.79 147.537 109.471 151.115C109.143 154.702 111.73 157.829 115.244 158.111ZM116.753 141.301C120.267 141.555 123.398 138.869 123.716 135.291C124.026 131.713 121.42 128.661 117.906 128.436C114.41 128.211 111.317 130.878 110.999 134.427C110.671 137.977 113.257 141.048 116.753 141.301ZM111.355 109.655C129.199 110.603 143.36 126.783 141.851 145.076C140.323 163.557 123.36 177.915 105.235 176.234C87.4944 174.591 74.2708 158.035 76.0702 140.287C77.8415 122.708 93.8766 108.725 111.355 109.655ZM110.549 118.473C97.4941 117.712 85.9762 127.394 84.6829 140.503C83.3802 153.706 92.8832 166.008 106.079 167.163C119.48 168.337 131.579 157.547 132.732 143.996C133.875 130.549 123.801 119.252 110.549 118.482V118.473Z" fill="#EF223A"/>
</svg>
