<svg width="471" height="429" viewBox="0 0 471 429" fill="none" xmlns="http://www.w3.org/2000/svg">
<g clip-path="url(#clip0_2156_38147)">
<path d="M121.517 58.3114L149.096 77.7453L168.431 48.5483L154.322 38.0246L144.872 48.3012L135.266 40.8416L121.517 58.3114Z" fill="#EF223A"/>
<path d="M141.319 243.527V243.535L99.6606 296.289L82.627 280.609L123.82 232.265L133.612 238.569L141.319 243.527Z" fill="#430B12"/>
<path d="M123.819 232.266L82.6257 280.609L57.9431 257.903L60.6589 236.02L55.5596 225.123L59.0477 198.091L54.6045 186.995L74.2791 163.101L74.3123 163.06L72.1613 182.286L84.3697 195.724L85.2999 196.745L99.9998 212.923L97.0764 198.091L94.6679 185.882L96.3705 185.425L100.033 195.557L109.202 193.523L108.072 182.286L110.057 181.755L114.741 198.954L116.344 204.834L123.819 232.266Z" fill="white"/>
<path d="M270.521 332.499L257.191 352.149L182.62 372.612L155.762 347.896L156.21 330.639L192.603 308.979L270.521 332.499Z" fill="white"/>
<path d="M373.269 320.93L355.097 207.824L361.293 151.557L365.445 113.819L322.043 136.425L274.838 161.008C280.394 173.225 283.633 186.654 284.006 200.748L264.332 216.162L189.661 274.663L181.024 269.098L141.326 243.535L99.668 296.289L155.768 347.896L156.217 330.638L192.61 308.979L270.527 332.499L257.198 352.148L182.627 372.612L155.768 347.896L155.735 349.034L154.996 377.745L174.488 391.174L379.323 358.56L373.277 320.93H373.269Z" fill="#EF223A"/>
<path d="M379.315 358.56L353.328 386.323L174.479 391.174L379.315 358.56Z" fill="#430B12"/>
<path d="M353.868 415.392L175.949 409.296L174.479 391.174L353.328 386.324L353.868 415.392Z" fill="#430B12"/>
<path d="M287.553 27.6379L278.999 10.6209L239.018 0.115074L183.101 31.6077L184.421 80.7154L193.773 95.6478L271.724 53.6742L294.479 41.4243L287.553 27.6379ZM204.685 79.4696L195.126 62.6934L241.111 37.1472L250.728 55.0943L204.685 79.4696Z" fill="#EF223A"/>
<path d="M322.044 136.426L274.838 161.008C271.042 152.645 266.151 144.847 260.337 137.796C284.322 126.551 285.178 108.346 283.724 98.8951C283.143 95.133 282.196 92.7577 282.196 92.7577L237.291 116.917C236.361 116.294 235.422 115.688 234.475 115.09H234.467C227.051 110.439 218.995 106.66 210.457 103.886C206.014 102.45 201.438 101.279 196.754 100.415L193.772 95.6479L271.723 53.6743L306.629 108.894L293.964 66.9125L309.736 63.2832L319.984 91.4788L314.345 100.598L310.907 106.145L322.044 136.426Z" fill="white"/>
<path d="M353.904 10.8281L294.481 41.4238L287.555 27.6375L339.303 0.762428L353.904 10.8281Z" fill="#EF223A"/>
<path d="M250.73 55.0939L204.687 79.4692L195.128 62.693L241.113 37.1468L250.73 55.0939Z" fill="#430B12"/>
<path d="M365.446 113.819L322.044 136.425L310.907 106.145L314.346 100.597L365.446 113.819Z" fill="#430B12"/>
<path d="M380.03 171.074L355.099 207.824L361.294 151.557L380.03 171.074Z" fill="#430B12"/>
<path d="M387.504 311.446L394.231 341.809L373.286 320.922L373.269 320.93L355.098 207.824L380.029 171.074L361.293 151.557L365.446 113.819L314.345 100.598L319.984 91.4789L309.736 63.2833L293.964 66.9126L306.63 108.894L271.724 53.6744L294.479 41.4245L392.72 99.651L383.958 205.756L395.552 208.513L383.401 292.909L402.669 302.368L387.504 311.446Z" fill="white"/>
<path d="M174.598 98.5627L172.081 106.444L148.146 108.213L138.305 126.717L137.757 131.99L136.486 144.191L135.116 144.215L134.443 135.454L125.507 135.205L124.112 144.448L122.152 144.49L121.994 126.783L120.15 148.368L116.172 148.933L114.137 138.369L105.732 139.83L104.503 150.585L102.809 150.826L104.047 133.519L92.6189 148.459L88.4082 146.283L92.6272 135.894L89.0394 134.058L92.1455 129.607L92.1621 129.599L94.9027 125.679L99.4705 114.234L99.4788 114.226L99.7196 113.611L103.357 104.509L139.243 90.2577L157.863 94.294L161.193 94.2026L165.014 94.0946L165.836 99.0278L174.598 98.5627Z" fill="white"/>
<path d="M176.117 93.796L174.597 98.5631L165.835 99.0281L165.013 94.095L176.117 93.796Z" fill="white"/>
<path d="M92.6267 135.894L88.4078 146.283L84.4047 144.215L82.5859 143.277L89.0389 134.058L92.6267 135.894Z" fill="white"/>
<path d="M99.47 114.235L94.9022 125.679L92.1616 129.599L92.145 129.607L83.9645 133.627L81.7305 128.345L89.2548 122.515L88.3496 121.003L99.47 114.235Z" fill="white"/>
<path d="M89.2544 122.515L81.7301 128.345L80.6172 125.712L88.3492 121.003L89.2544 122.515Z" fill="white"/>
<path d="M238.704 167.635L227.841 177.12L230.923 197.359L255.638 193.531L264.334 216.162L189.663 274.662L181.026 269.098L184.946 256.283L183.617 205.166L159.566 209.651L145.672 205.681L141.876 198.904L179.365 173.615L175.146 154.156L162.796 130.221L146.253 133.809L137.757 131.99L138.305 126.717L148.146 108.213L172.082 106.444L174.598 98.5626C176.201 98.5459 177.804 98.5626 179.423 98.5958C185.336 98.7453 191.125 99.3681 196.756 100.415C201.44 101.278 206.016 102.449 210.459 103.886C218.997 106.66 227.052 110.439 234.469 115.09L224.046 116.634L224.345 127.638L233.472 129.275L204.928 149.555L209.629 168.865L227.235 162.27L229.361 147.338L237.226 145.635L246.935 160.535L267.133 157.919L266.402 162.37L256.726 165.343L238.704 167.635Z" fill="white"/>
<path d="M128.031 216.535L133.612 238.569L123.821 232.265L116.346 204.834L114.743 198.954L135.971 201.395L140.04 207.408L128.031 216.535Z" fill="white"/>
<path d="M100 212.923L85.3003 196.745L84.3701 195.723L97.0768 198.09L100 212.923Z" fill="white"/>
<path d="M109.204 193.522L100.036 195.557L96.373 185.425L108.075 182.286L109.204 193.522Z" fill="white"/>
<path d="M135.115 144.216L124.111 144.448L125.507 135.205L134.443 135.454L135.115 144.216Z" fill="white"/>
<path d="M116.171 148.933L104.503 150.586L105.732 139.831L114.137 138.369L116.171 148.933Z" fill="white"/>
<path d="M184.946 256.284L181.026 269.098L141.328 243.535L133.621 238.569L128.04 216.536L140.049 207.408L135.979 201.396L114.752 198.954L110.068 181.754L108.083 182.286L96.381 185.425L94.6785 185.882L97.087 198.09L84.3803 195.723L72.1719 182.286L74.3229 163.06L74.2897 163.101C76.7812 157.205 80.9005 149.605 84.4135 144.215L88.4165 146.283L92.6272 148.459L104.055 133.519L102.817 150.826L104.512 150.585L116.18 148.933L120.158 148.368L122.002 126.783L122.16 144.49L124.12 144.448L135.124 144.215L136.494 144.191L137.765 131.99L146.261 133.809L162.805 130.222L175.154 154.157L179.373 173.615L141.884 198.904L145.68 205.681L159.574 209.651L183.625 205.166L184.954 256.284H184.946Z" fill="#EF223A"/>
<path d="M260.338 137.796C255.314 131.683 249.583 126.127 243.288 121.244L283.725 98.8951C285.179 108.346 284.323 126.551 260.338 137.796Z" fill="white"/>
<path d="M284.006 200.748L264.332 216.162L255.636 193.531L230.921 197.359L227.839 177.12L238.702 167.636L256.724 165.343L266.4 162.37L267.13 157.919L246.933 160.535L237.224 145.636L229.359 147.338L227.233 162.27L209.626 168.865L204.926 149.555L233.47 129.275L224.343 127.639L224.044 116.634L234.467 115.09H234.475C235.422 115.688 236.36 116.294 237.29 116.917C239.342 118.287 241.343 119.732 243.287 121.244C249.582 126.127 255.312 131.683 260.337 137.796C266.15 144.847 271.042 152.645 274.837 161.008C280.394 173.225 283.633 186.654 284.006 200.748Z" fill="#EF223A"/>
<path d="M283.724 98.8951L243.287 121.244C241.344 119.732 239.342 118.287 237.291 116.917L282.196 92.7577C282.196 92.7577 283.143 95.133 283.724 98.8951Z" fill="#430B12"/>
<path d="M264.332 216.162L284.007 200.748C283.633 186.654 280.394 173.225 274.838 161.008" stroke="#430B12" stroke-width="1.24575" stroke-linecap="round" stroke-linejoin="round"/>
<path d="M141.318 243.535L198.905 280.609" stroke="#430B12" stroke-width="1.24575" stroke-linecap="round" stroke-linejoin="round"/>
<path d="M110.059 181.754L114.743 198.954L116.345 204.834L123.82 232.265L133.612 238.569L141.319 243.527V243.535" stroke="#430B12" stroke-width="1.24575" stroke-linecap="round" stroke-linejoin="round"/>
<path d="M84.3701 195.723L100 212.923L97.0768 198.09L94.6684 185.882" stroke="#430B12" stroke-width="1.24575" stroke-linecap="round" stroke-linejoin="round"/>
<path d="M82.6257 280.609L57.9431 257.903L60.6589 236.02L55.5596 225.123L59.0477 198.091L54.6045 186.995L74.3123 163.06" stroke="#430B12" stroke-width="1.24575" stroke-linecap="round" stroke-linejoin="round"/>
<path d="M270.569 332.275L312.983 271.382" stroke="#430B12" stroke-width="1.24575" stroke-linecap="round" stroke-linejoin="round"/>
<path d="M141.318 243.534V243.526" stroke="#430B12" stroke-width="1.24575" stroke-linecap="round" stroke-linejoin="round"/>
<path d="M323.896 169.496L309.304 180.924L284.007 200.748" stroke="#430B12" stroke-width="1.24575" stroke-linecap="round" stroke-linejoin="round"/>
<path d="M328.762 187.377L309.304 180.924" stroke="#430B12" stroke-width="1.24575" stroke-linecap="round" stroke-linejoin="round"/>
<path d="M319.985 91.4783L309.163 108.96" stroke="#430B12" stroke-width="1.24575" stroke-linecap="round" stroke-linejoin="round"/>
<path d="M293.966 66.9123L291.906 60.0772" stroke="#430B12" stroke-width="1.24575" stroke-linecap="round" stroke-linejoin="round"/>
<path d="M271.724 53.6743L306.63 108.894L293.964 66.9125L309.736 63.2832L319.984 91.4787" stroke="#430B12" stroke-width="1.24575" stroke-linecap="round" stroke-linejoin="round"/>
<path d="M260.337 137.795C284.322 126.55 285.177 108.346 283.724 98.8947C283.143 95.1325 282.196 92.7573 282.196 92.7573L237.291 116.917C236.361 116.294 235.422 115.687 234.475 115.09H234.467C227.051 110.439 218.995 106.66 210.457 103.886C206.014 102.449 201.438 101.278 196.754 100.415L184.421 80.715" stroke="#430B12" stroke-width="1.24575" stroke-linecap="round" stroke-linejoin="round"/>
<path d="M250.73 55.0939L204.687 79.4692L195.128 62.693L241.113 37.1468L250.73 55.0939Z" stroke="#430B12" stroke-width="1.24575" stroke-linecap="round" stroke-linejoin="round"/>
<path d="M294.48 41.4245L392.721 99.651L383.959 205.756L395.553 208.513L383.402 292.909L402.67 302.368L387.505 311.446L394.232 341.809L373.287 320.922" stroke="#430B12" stroke-width="1.24575" stroke-linecap="round" stroke-linejoin="round"/>
<path d="M306.63 108.894L271.724 53.6743" stroke="#430B12" stroke-width="1.24575" stroke-linecap="round" stroke-linejoin="round"/>
<path d="M373.269 320.93L345.729 328.994" stroke="#430B12" stroke-width="1.24575" stroke-linecap="round" stroke-linejoin="round"/>
<path d="M104.046 133.635L104.32 129.715L110.607 111.311" stroke="#430B12" stroke-width="1.24575" stroke-linecap="round" stroke-linejoin="round"/>
<path d="M121.992 126.783L127.474 108.363" stroke="#430B12" stroke-width="1.24575" stroke-linecap="round" stroke-linejoin="round"/>
<path d="M84.3964 144.215L82.5859 143.277L94.9023 125.679L99.7192 113.611L103.357 104.509L139.243 90.2577L157.863 94.294L161.193 94.2026L176.117 93.7957L172.081 106.444L148.146 108.213L138.304 126.717L137.756 131.957" stroke="#430B12" stroke-width="1.24575" stroke-linecap="round" stroke-linejoin="round"/>
<path d="M99.4779 114.226L80.6172 125.711L83.9641 133.626L92.1612 129.598" stroke="#430B12" stroke-width="1.24575" stroke-linecap="round" stroke-linejoin="round"/>
<path d="M260.337 137.796C255.313 131.683 249.582 126.127 243.287 121.244C241.344 119.732 239.342 118.287 237.291 116.917" stroke="#430B12" stroke-width="1.24575" stroke-linecap="round" stroke-linejoin="round"/>
<path d="M174.598 98.5631C176.201 98.5465 177.803 98.5548 179.423 98.5963C185.336 98.7458 191.125 99.3687 196.755 100.415" stroke="#430B12" stroke-width="1.24575" stroke-linecap="round" stroke-linejoin="round"/>
<path d="M278.626 91.8771L288.102 94.2191" stroke="#430B12" stroke-width="1.24575" stroke-linecap="round" stroke-linejoin="round"/>
<path d="M283.725 98.8951L243.288 121.244" stroke="#430B12" stroke-width="1.24575" stroke-linecap="round" stroke-linejoin="round"/>
<path d="M236.502 87.0271L243.379 104.393L249.175 100.49" stroke="#430B12" stroke-width="1.24575" stroke-linecap="round" stroke-linejoin="round"/>
<path d="M257.281 84.0291L258.585 71.0649L272.861 74.578" stroke="#430B12" stroke-width="1.24575" stroke-linecap="round" stroke-linejoin="round"/>
<path d="M210.665 103.486L212.235 93.7542L225.481 98.2057" stroke="#430B12" stroke-width="1.24575" stroke-linecap="round" stroke-linejoin="round"/>
<path d="M135.115 144.216L134.443 135.454L125.507 135.205L124.111 144.448" stroke="#430B12" stroke-width="1.24575" stroke-linecap="round" stroke-linejoin="round"/>
<path d="M116.171 148.933L114.137 138.369L105.732 139.831L104.503 150.586" stroke="#430B12" stroke-width="1.24575" stroke-linecap="round" stroke-linejoin="round"/>
<path d="M88.4082 146.283L92.6272 135.894L89.0394 134.058" stroke="#430B12" stroke-width="1.24575" stroke-linecap="round" stroke-linejoin="round"/>
<path d="M81.7305 128.345L89.2548 122.515L88.3496 121.003" stroke="#430B12" stroke-width="1.24575" stroke-linecap="round" stroke-linejoin="round"/>
<path d="M96.373 185.425L100.036 195.557L109.204 193.522L108.075 182.286" stroke="#430B12" stroke-width="1.24575" stroke-linecap="round" stroke-linejoin="round"/>
<path d="M106.803 207.051L116.769 204.734" stroke="#430B12" stroke-width="1.24575" stroke-linecap="round" stroke-linejoin="round"/>
<path d="M59.0488 198.09L63.7661 207.682" stroke="#430B12" stroke-width="1.24575" stroke-linecap="round" stroke-linejoin="round"/>
<path d="M104.32 129.715L112.708 129.109" stroke="#430B12" stroke-width="1.24575" stroke-linecap="round" stroke-linejoin="round"/>
<path d="M174.597 98.5629L165.835 99.028L165.013 94.0948" stroke="#430B12" stroke-width="1.24575" stroke-linecap="round" stroke-linejoin="round"/>
<path d="M122.002 127.049L128.239 126.833" stroke="#430B12" stroke-width="1.24575" stroke-linecap="round" stroke-linejoin="round"/>
<path d="M89.6357 277.437L105.963 289.803" stroke="#EF223A" stroke-width="0.830503" stroke-miterlimit="10"/>
<path d="M99.3438 265.926L115.671 278.292" stroke="#EF223A" stroke-width="0.830503" stroke-miterlimit="10"/>
<path d="M189.381 394.471V409.843" stroke="#EF223A" stroke-width="0.830503" stroke-miterlimit="10"/>
<path d="M109.419 254.855L125.747 267.221" stroke="#EF223A" stroke-width="0.830503" stroke-miterlimit="10"/>
<path d="M119.452 242.073L135.78 254.44" stroke="#EF223A" stroke-width="0.830503" stroke-miterlimit="10"/>
<path d="M222.301 395.044V410.425" stroke="#EF223A" stroke-width="0.830503" stroke-miterlimit="10"/>
<path d="M259.102 396.555V411.936" stroke="#EF223A" stroke-width="0.830503" stroke-miterlimit="10"/>
<path d="M293.31 398.117V413.489" stroke="#EF223A" stroke-width="0.830503" stroke-miterlimit="10"/>
<path d="M320.366 398.383V413.764" stroke="#EF223A" stroke-width="0.830503" stroke-miterlimit="10"/>
<path d="M344.576 398.383V413.764" stroke="#EF223A" stroke-width="0.830503" stroke-miterlimit="10"/>
<path d="M358.13 227.931L297.221 293.133L355.098 207.824L358.13 227.931Z" fill="#430B12"/>
<path d="M326.114 129.109L329.519 132.531L295.867 150.054L319.985 121.244" fill="#430B12"/>
<path d="M308.276 99.0445L311.939 108.944L318.94 105.78L316.05 98.9864L314.58 101.353L315.485 103.438L313.749 104.285L311.291 97.7489L308.276 99.0445Z" fill="#EF223A"/>
<path d="M126.205 347.806L128.132 353.021L128.555 353.445L133.771 355.372V356.725L128.555 358.652L128.132 359.076L126.205 364.291H124.851L122.924 359.076L122.501 358.652L117.285 356.725V355.372L122.501 353.445L122.924 353.021L124.851 347.806H126.205Z" fill="white"/>
<path d="M338.097 30.4035L340.68 37.3714L341.253 37.9444L348.221 40.5273V42.3378L341.253 44.9207L340.68 45.4937L338.097 52.4616H336.287L333.704 45.4937L333.131 44.9207L326.163 42.3378C326.163 41.4409 326.163 41.4243 326.163 40.5273L333.131 37.9444L333.704 37.3714L336.287 30.4035H338.097Z" fill="white"/>
</g>
<defs>
<clipPath id="clip0_2156_38147">
<rect width="349.309" height="415.276" fill="white" transform="translate(53.9834 0.114929)"/>
</clipPath>
</defs>
</svg>
