<svg width="1211" height="676" viewBox="0 0 1211 676" fill="none" xmlns="http://www.w3.org/2000/svg">
<g clip-path="url(#clip0_3271_3608)">
<path d="M223.41 537.48V623.24H349.32L339.21 543.03L223.41 537.48Z" fill="#5A0E17"/>
<path d="M23.6201 204.44L60.2301 543.03L517.26 545.44L527.79 214.81L23.6201 204.44ZM68.4601 533.92L44.6701 219.92L506.75 223.97L509.18 537.47L68.4601 533.91V533.92Z" fill="#5A0E17"/>
<path d="M44.6699 219.92L68.4599 533.92L509.18 537.48L506.75 223.98L44.6699 219.92Z" fill="white"/>
<path d="M63.54 468.95L508.55 455.31L509.18 537.48L68.46 533.92L63.54 468.95Z" fill="#EF223A"/>
<path d="M23.62 204.44L0 227.23L48.21 555.7L60.23 543.03L23.62 204.44Z" fill="#EF223A"/>
<path d="M48.21 555.7L60.23 543.03L517.25 545.44L510.63 551.96L48.21 555.7Z" fill="#5A0E17"/>
<path d="M293.74 514.32C303.024 514.32 310.55 506.794 310.55 497.51C310.55 488.226 303.024 480.7 293.74 480.7C284.456 480.7 276.93 488.226 276.93 497.51C276.93 506.794 284.456 514.32 293.74 514.32Z" fill="#5A0E17"/>
<path d="M828.17 253.5L790.17 649.43H1043.12L1076.19 250.35L828.17 253.5Z" fill="#EF223A"/>
<path d="M823.28 301.64L1072.12 296.74L1071 310.3L822.65 308.2L823.28 301.64Z" fill="#5A0E17"/>
<path d="M823.28 445.4L1072.12 440.51L1071 454.07L822.65 451.96L823.28 445.4Z" fill="#5A0E17"/>
<path d="M823.28 521.74L1072.12 516.84L1071 530.4L822.65 528.29L823.28 521.74Z" fill="#5A0E17"/>
<path d="M817.75 367.61L1066.82 363.46L1065.76 376.28L817.12 374.17L817.75 367.61Z" fill="#5A0E17"/>
<path d="M574.08 346.52L606.61 424.02L747.88 455.31L801.1 365.29L758.78 337.26L784.76 332.6L795.05 274.48L760.6 268.85L738.2 311.83L720.64 258.56L640.13 356.93L574.08 346.52Z" fill="white"/>
<path d="M572.93 346.34L552.95 298.51L632.86 308.81L722.01 214.81L755.75 209.52L760.6 268.85L738.2 311.83L720.64 258.56L640.13 356.93L572.93 346.34Z" fill="#5A0E17"/>
<path d="M758.779 337.26L739.859 341.37L801.099 365.29L758.779 337.26Z" fill="#5A0E17"/>
<path d="M635.16 390.8L615.1 389.12L622.45 344.53L625.57 344.72L622.42 384.85L635.53 388.36L635.15 390.8H635.16Z" fill="#5A0E17"/>
<path d="M552.95 298.51L506.75 355.38L495.89 344.53L549.25 280.61L631.37 290.19L700.09 218.25L722.01 214.81L632.86 308.81L552.95 298.51Z" fill="white"/>
<path d="M495.89 344.53L550.6 241.67L700.09 218.25L631.37 290.19L549.25 280.61L495.89 344.53Z" fill="#EF223A"/>
<path d="M550.6 241.67L537 172L653 115L751.54 156.44L755.75 209.52L550.6 241.67Z" fill="#EF223A"/>
<path d="M754.22 320.58L768.06 285.09L774.46 290.75L757.7 321.95L754.22 320.58Z" fill="#5A0E17"/>
<path d="M760.17 309.53L762.12 306.33L779.85 314.51L774.07 318.1L760.17 309.53Z" fill="#5A0E17"/>
<path d="M755.749 209.52L550.599 241.67L548.859 244.94L756.059 213.31L755.749 209.52Z" fill="#5A0E17"/>
<path d="M554 298.65L606.61 424.02L597.57 421.84L551.24 300.63L552.95 298.51L554 298.65Z" fill="#5A0E17"/>
<path d="M755.75 209.52L773.93 223.84L756.06 225.47L755.75 209.52Z" fill="#5A0E17"/>
<path d="M801.1 365.29L975.53 365.01L1043.12 620.11L819.48 578.56L724.04 450.03L747.88 455.31L801.1 365.29Z" fill="#EF223A"/>
<path d="M747.88 455.31L908.45 508.29V500.2L749.58 452.38L747.88 455.31Z" fill="#5A0E17"/>
<path d="M900 490.64L888.03 427.76H877.33L895.16 490.64H900Z" fill="#5A0E17"/>
<path d="M881.46 492.41L926.83 480.67L928.73 484.01L884.88 497.97L881.46 492.41Z" fill="#5A0E17"/>
<path d="M578.43 417.6L724.04 450.03L819.48 578.56L1043.12 620.11V629.64H810.77L578.43 417.6Z" fill="#5A0E17"/>
<path d="M969.28 606.4L975 562.14L1024.3 549.08L1043.12 620.11L969.28 606.4Z" fill="white"/>
<path d="M506.75 355.38L563.83 333.56L551.24 300.63L506.75 355.38Z" fill="#5A0E17"/>
<path d="M758.78 337.26L801.1 365.29H867.76L851.04 337.26L870.33 314.5L858.97 296.27L791.61 293.91L784.76 332.6L758.78 337.26Z" fill="#EF223A"/>
<path d="M801.1 365.29L824.53 322.61L787.32 318.1L784.76 332.6L758.78 337.26L801.1 365.29Z" fill="#5A0E17"/>
<path d="M760.6 268.85L795.05 274.48L787.32 318.1L794.25 318.94L799.11 272.7L760.17 263.58L760.6 268.85Z" fill="#5A0E17"/>
<path d="M764.77 457.82L877.46 365.17L867.7 365.18L760.17 457.09L764.77 457.82Z" fill="#5A0E17"/>
<path d="M578.43 417.6L810.77 629.64H1137.66V649.43H790.17L578.43 460.09L381.15 649.43H117.59L113.59 623.24H373.62L578.43 417.6Z" fill="#EF223A"/>
<path d="M381.149 649.43H790.169L578.429 460.09L381.149 649.43Z" fill="#5A0E17"/>
<path d="M757.86 225.31L766.45 233.11L755.75 234.52L752.38 225.31H757.86Z" fill="#5A0E17"/>
<path d="M786.14 355.38L744.63 454.66L748.44 455.49L801.1 365.29L803.54 360.84L786.14 355.38Z" fill="#5A0E17"/>
<path d="M1076.19 250.35H1128.1L1137.66 629.64H1044.76L1076.19 250.35Z" fill="#5A0E17"/>
<path d="M920.73 153.26L911.22 252.45L1076.19 250.35L1082.2 153.26C1082.2 153.26 917.93 153.26 920.73 153.26Z" fill="#EF223A"/>
<path d="M1082.21 153.26L1076.19 250.35H1128.1V153.26H1082.21Z" fill="#5A0E17"/>
<path d="M824.18 295.05L858.97 296.27L870.33 314.5L851.04 337.26L867.76 365.29L975.53 365.01L1043.12 620.11V629.64H1047.93L1048.97 578.83L979.61 355.87L870.33 360.55L858.09 337.26L883.58 318.1L863.88 286.21L824.71 289.51L824.18 295.05Z" fill="#5A0E17"/>
<path d="M911.229 252.45L1076.19 250.35L1077.34 231.79L911.95 244.89L911.229 252.45Z" fill="#5A0E17"/>
<path d="M668.42 438.53L752.38 405.43V369.87H760.6L758.78 411.2L675.67 439.63" fill="#5A0E17"/>
<path d="M678.91 477.41L705.6 459.33L694.86 437.11L656.53 459.55L656.14 460.14L633.28 493.73L624.03 507.36L633.67 520.34L643.79 533.88L670.06 483.4L678.91 477.41Z" fill="white"/>
<path d="M770.09 523.27L772.96 499.39L747.12 487.25L719.83 502.08L714.95 504.73L719.83 502.08L747.12 487.25L743.3 463.94L709.4 459.78L705.6 459.33L678.91 477.41L670.06 483.4L643.79 533.88L646.66 537.78L661.26 557.44L671.15 537.52L661.26 557.44L667.4 565.67L674.34 568.5L702.53 579.96L713.8 554.55L686.52 544.26L713.8 554.55L702.57 579.96L712.33 583.91L719.62 586.89L734.94 593.09L739.27 580.82L740.12 578.43L738.55 577.88L725.7 573.4L738.56 577.88L740.12 578.43L739.27 580.82L734.94 593.09L737.45 594.13L741.5 589.89L777.81 552.39L784.08 545.95L770.09 523.27Z" fill="white"/>
<path d="M714.72 584.88L710.37 583.14L728.17 545.81L770.55 519.4L770.1 523.28L772.07 526.44L731.12 548.46L714.73 584.89L714.72 584.88Z" fill="#5A0E17"/>
<path d="M634.74 521.75L632.42 518.71L642.45 503.36L632.2 495.3L652.23 457.92L656.54 459.54L637.75 493.71L648.28 503.25L634.74 521.74V521.75Z" fill="#5A0E17"/>
<path d="M643.791 533.92L641.311 530.6L669.001 481.87L703.041 453.97L705.611 459.32L708.781 459.7L671.481 484.71L643.801 533.91L643.791 533.92Z" fill="#5A0E17"/>
<path d="M704.25 580.7L698.92 578.49L711.26 555.58L687.43 546.6L677.79 569.89L672.65 567.8L685.57 541.88L716.3 553.49L704.25 580.7Z" fill="#5A0E17"/>
<path d="M737.45 594.13L732.2 592L740.28 579.28L726.72 574.29L722.32 587.97L718.01 586.23L724.67 571.06L744.07 578.49L737.45 594.13Z" fill="#5A0E17"/>
<path d="M669.171 566.37L667.481 565.75L666.141 564.03L693.311 514.33L745.991 480.33L747.121 487.25L751.511 489.3L696.111 517.09L669.171 566.36V566.37Z" fill="#5A0E17"/>
<path d="M662.53 559.12L660.09 555.8L668.86 537.88L656.79 525.76L648.6 540.35L645.69 536.49L656.18 519.81L673.43 537.15L662.53 559.11V559.12Z" fill="#5A0E17"/>
<path d="M770.69 559.74L784.08 545.95L770.09 523.27L772.96 499.39L747.12 487.25L743.3 463.94L705.6 459.33L703.03 453.98L744.79 461.6L750.2 484.75L778.76 497.57L773.44 522.68L789.61 546.97L772.6 562.85L770.69 559.74Z" fill="#5A0E17"/>
<path d="M694.03 437.43L705.6 459.33L708.77 459.71L693.65 428.75L694.03 437.43Z" fill="#5A0E17"/>
<path d="M675.67 439.63L686.86 441.79L694.86 437.11L693.8 432.19L676.99 437.11" fill="#5A0E17"/>
<path d="M718.01 586.23L737.45 594.13L758.24 572.6L763.099 576.3L745.289 612.24L717.27 589.16L718.01 586.23Z" fill="#5A0E17"/>
<path d="M523.92 480.97L497.23 462.89L507.97 440.67L546.3 463.11L546.69 463.7L569.55 497.29L578.8 510.92L569.16 523.9L559.04 537.44L532.77 486.96L523.92 480.97Z" fill="white"/>
<path d="M432.74 526.83L429.87 502.95L455.71 490.81L482.99 505.64L487.87 508.29L483 505.64L455.71 490.81L459.53 467.5L493.43 463.34L497.23 462.89L523.91 480.97L532.77 486.96L559.04 537.44L556.17 541.34L541.56 561L531.67 541.08L541.56 561L535.42 569.23L528.49 572.06L500.3 583.52L489.03 558.11L516.31 547.82L489.03 558.11L500.26 583.52L490.5 587.47L483.21 590.45L467.89 596.65L463.56 584.38L462.71 581.99L464.27 581.45L477.13 576.96L464.27 581.45L462.71 581.99L463.56 584.38L467.89 596.65L465.38 597.69L461.33 593.45L425.02 555.95L418.75 549.51L432.74 526.83Z" fill="white"/>
<path d="M488.11 588.44L492.46 586.7L474.66 549.37L432.28 522.96L432.73 526.84L430.76 530L471.71 552.02L488.1 588.45L488.11 588.44Z" fill="#5A0E17"/>
<path d="M568.09 525.31L570.41 522.27L560.38 506.92L570.63 498.86L550.6 461.48L546.29 463.1L565.08 497.27L554.55 506.81L568.09 525.3V525.31Z" fill="#5A0E17"/>
<path d="M559.04 537.48L561.52 534.16L533.83 485.43L499.79 457.53L497.22 462.88L494.05 463.26L531.35 488.27L559.03 537.47L559.04 537.48Z" fill="#5A0E17"/>
<path d="M498.58 584.26L503.91 582.05L491.57 559.14L515.4 550.16L525.04 573.45L530.18 571.36L517.26 545.44L486.53 557.05L498.58 584.26Z" fill="#5A0E17"/>
<path d="M465.37 597.69L470.62 595.56L462.54 582.84L476.1 577.85L480.5 591.53L484.81 589.79L478.15 574.62L458.75 582.05L465.37 597.69Z" fill="#5A0E17"/>
<path d="M533.66 569.93L535.35 569.31L536.69 567.59L509.52 517.89L456.84 483.89L455.71 490.81L451.32 492.86L506.72 520.65L533.66 569.92V569.93Z" fill="#5A0E17"/>
<path d="M540.3 562.68L542.74 559.36L533.97 541.44L546.04 529.32L554.23 543.91L557.14 540.05L546.65 523.37L529.4 540.71L540.3 562.67V562.68Z" fill="#5A0E17"/>
<path d="M451.31 583.06L418.75 549.51L432.74 526.83L429.87 502.95L455.71 490.81L459.53 467.5L497.23 462.89L499.79 457.54L458.03 465.16L452.63 488.31L424.07 501.13L429.38 526.24L413.22 550.53L447.1 594.6L451.31 583.06Z" fill="#5A0E17"/>
<path d="M508.8 441L497.23 462.89L494.05 463.27L509.18 432.31L508.8 441Z" fill="#5A0E17"/>
<path d="M509.18 432.31L550.61 461.48L546.3 463.11L507.97 440.67" fill="#5A0E17"/>
<path d="M642.54 401.4L641.31 415.23L644.36 420.45L682.2 414.18L680.89 407.14L664.96 397.23L642.54 401.4Z" fill="#5A0E17"/>
<path d="M659.21 423.94L677.34 421.65L667.16 429.44L658.92 426.92L659.21 423.94Z" fill="#5A0E17"/>
<path d="M495.89 344.53L506.75 355.38L523.51 348.97V355.38L506.75 359.42L494.59 346.25L495.89 344.53Z" fill="#5A0E17"/>
<path d="M77.0801 109.39L97.7001 353.94L329.63 447.95L288.06 400.21L495.64 295.49L354.54 0L77.0801 109.39Z" fill="#EF223A"/>
<path d="M221.771 94.2701L259.24 268.46L297.881 258.12L283.071 78.3201L221.771 94.2701Z" fill="#5A0E17"/>
<path d="M309.333 283.852L255.609 293.819L264.411 341.259L318.134 331.293L309.333 283.852Z" fill="#5A0E17"/>
<path d="M1210.68 675.53H60.2305L64.2305 649.43H1206.68L1210.68 675.53Z" fill="#5A0E17"/>
<path d="M547.52 324.07L540.76 364.75L564.08 390.49L608.95 389.6L617.57 341.87L598.96 313.45L547.52 324.07Z" fill="#5A0E17"/>
<path d="M553.19 325.38L545.83 362.19L568.27 386.19L605.04 378.1L613.23 343.65L594.97 318.9L553.19 325.38Z" fill="white"/>
<path d="M640.19 303.76L625.63 351.97L655.8 374L697.08 361.98L710.95 324.59L687.92 293.91L640.19 303.76Z" fill="#5A0E17"/>
<path d="M642.16 305.84L634.79 342.64L657.23 366.64L694 358.55L702.2 324.1L683.93 299.35L642.16 305.84Z" fill="white"/>
<path d="M689.39 303.52L747.62 275.49L749.42 281.39L700.65 313.34" fill="#5A0E17"/>
<path d="M548.21 340.98L606.16 379.54L601.99 384.4L545.83 349.68" fill="#5A0E17"/>
<path d="M558.649 323.35L608.949 374L613.229 352.61L565.339 316.97L558.649 323.35Z" fill="#5A0E17"/>
<path d="M637.17 319.27L695.12 357.83L690.96 362.69L634.79 327.97" fill="#5A0E17"/>
<path d="M647.609 301.64L697.909 352.29L702.199 330.9L654.309 295.26L647.609 301.64Z" fill="#5A0E17"/>
</g>
<defs>
<clipPath id="clip0_3271_3608">
<rect width="1210.68" height="675.53" fill="white"/>
</clipPath>
</defs>
</svg>
