<svg width="164" height="288" viewBox="0 0 164 288" fill="none" xmlns="http://www.w3.org/2000/svg">
<g clip-path="url(#clip0_2156_30147)">
<path d="M0 222.18L108.737 287.814L163.106 254.997L54.3687 189.363L0 222.18Z" fill="#430B12"/>
<path d="M122.328 263.2L108.737 271.404L27.1841 222.18L13.5908 197.569V17.0763L27.1841 8.87264L40.7752 0.668945L122.328 49.8933L135.921 74.5066L122.328 263.2Z" fill="white" stroke="#430B12" stroke-width="0.714876" stroke-linejoin="round"/>
<path d="M122.219 262.884L122.328 82.7103L135.921 74.5066V254.997L122.219 262.884Z" fill="white" stroke="#430B12" stroke-width="0.714876" stroke-linejoin="round"/>
<path d="M108.738 58.0968L122.329 82.7101L135.923 74.5064L122.329 49.8931L108.738 58.0968Z" fill="white" stroke="#430B12" stroke-width="0.714876" stroke-linejoin="round"/>
<path d="M27.1846 8.87264L108.738 58.097L122.329 49.8933L40.7756 0.668945L27.1846 8.87264Z" fill="white" stroke="#430B12" stroke-width="0.714876" stroke-linejoin="round"/>
<path d="M40.7754 66.3028L81.553 90.9139L95.1441 82.7102L54.3687 58.0969L40.7754 66.3028Z" fill="#430B12"/>
<path d="M41.4847 65.8745L27.2983 73.8441L27.1846 107.321L40.7756 115.527V82.71L54.3689 90.9137L67.96 99.1174L75.4657 110.996L54.3689 140.138V172.955L67.96 181.159V148.342L95.1443 115.527L81.5533 90.9137L41.4847 65.8745Z" fill="#EF223A"/>
<path d="M95.1448 115.527L81.5537 90.9141L95.1448 82.7104L108.738 107.322L95.1448 115.527Z" fill="#430B12"/>
<path d="M81.5523 140.138V172.955L67.959 181.159V148.342L81.5523 140.138Z" fill="#430B12"/>
<path d="M54.3682 189.363V205.773L67.9592 213.976V197.569L54.3682 189.363Z" fill="#EF223A"/>
<path d="M81.5523 189.363V205.773L67.959 213.976V197.569L81.5523 189.363Z" fill="#430B12"/>
<path d="M80.8604 189.362L67.959 197.15L55.0596 189.362L67.959 181.576L80.8604 189.362Z" fill="white" stroke="#430B12" stroke-width="0.714876" stroke-linejoin="round"/>
<path d="M54.3687 107.322L40.7754 115.527V82.7104L54.3687 90.9141V107.322Z" fill="#430B12" stroke="#430B12" stroke-width="0.350851" stroke-linejoin="round"/>
<path d="M108.737 107.322L81.5523 140.139L67.959 148.342L95.1433 115.527L108.737 107.322Z" fill="#430B12"/>
</g>
<defs>
<clipPath id="clip0_2156_30147">
<rect width="163.106" height="287.814" fill="white"/>
</clipPath>
</defs>
</svg>
