<svg width="365" height="217" viewBox="0 0 365 217" fill="none" xmlns="http://www.w3.org/2000/svg">
<g clip-path="url(#clip0_2156_30060)">
<path d="M199.993 199.554L53.641 173.71L52.7451 137.903L198.83 159.731L199.993 199.554Z" fill="#EF223A" stroke="#430B12" stroke-width="0.938913" stroke-linecap="round" stroke-linejoin="round"/>
<path d="M53.6407 173.71L50.1698 165.664L49.8613 129.645L52.7448 137.903L53.6407 173.71Z" fill="#430B12" stroke="#430B12" stroke-width="0.938913" stroke-linecap="round" stroke-linejoin="round"/>
<path d="M217.301 198.486C211.403 199.157 205.886 198.884 199.994 199.554L198.831 159.731L214.364 155.798L217.301 198.486Z" fill="#430B12" stroke="#430B12" stroke-width="0.938913" stroke-linecap="round" stroke-linejoin="round"/>
<path d="M288.699 99.8009C286.853 99.0058 285.329 98.0209 284.077 96.9945C280.825 94.3246 278.962 90.302 278.897 86.0954C278.767 77.3975 279.823 69.9811 281.62 63.6742C283.804 56.0086 287.091 49.9747 290.68 45.2638L281.08 40.9741C277.954 51.1435 267.167 46.7945 267.167 46.7945C265.269 41.876 270.205 22.1009 270.205 22.1009L254.868 21.116L249.356 34.8868L248.573 36.8447L195.596 34.1155L187.492 33.7001L186.465 31.6592L179.167 17.1824H166.388L157.933 33.5044H148.891L147.461 34.0205L130.409 40.185L149.543 34.869L250.347 40.3808L262.154 48.6338L214.363 155.798L217.3 198.486L263.157 179.061L323.027 153.697L324.012 109.84C307.744 107.449 293.967 102.067 288.699 99.8009Z" fill="#EF223A" stroke="#430B12" stroke-width="0.938913" stroke-linecap="round" stroke-linejoin="round"/>
<path d="M250.347 40.3808L149.543 34.8689L130.409 40.185L116.146 56.0264L102.435 71.2566L49.8613 129.644L52.7448 137.903L198.83 159.731L214.363 155.797L262.284 48.4972L250.347 40.3808Z" fill="#EF223A" stroke="#430B12" stroke-width="0.938913" stroke-linecap="round" stroke-linejoin="round"/>
<path d="M281.081 40.9743C277.954 51.1436 262.812 48.4322 262.812 48.4322C263.928 43.9764 270.205 22.1011 270.205 22.1011L275.177 40.6005L281.081 40.9743Z" fill="#430B12" stroke="#430B12" stroke-width="0.938913" stroke-linecap="round" stroke-linejoin="round"/>
<path d="M290.689 45.2637H290.681" stroke="#430B12" stroke-width="0.938913" stroke-linecap="round" stroke-linejoin="round"/>
<path d="M219.182 90.4321C208.265 116.888 170.009 137.802 136.718 133.239C104.762 128.867 96.4322 103.337 114.392 79.4796C124.609 65.9165 141.536 55.5158 159.169 50.5023C141.482 55.6285 124.472 66.2844 114.368 79.9424C97.3163 102.987 105.142 126.95 134.819 131.204C165.885 135.66 203.329 116.306 215.688 90.7169C226.421 68.4915 213.445 50.3836 188.461 47.5476C213.908 50.2116 228.42 68.0406 219.182 90.4321Z" fill="white" stroke="#430B12" stroke-width="0.938913" stroke-linecap="round" stroke-linejoin="round"/>
<path d="M188.46 47.5475C188.288 47.5237 188.116 47.5059 187.944 47.4941C187.623 47.4585 187.291 47.4288 186.965 47.4051C178.54 46.7287 169.474 47.7314 160.55 50.1165C160.088 50.2411 159.631 50.3657 159.168 50.5022C141.481 55.6284 124.471 66.2842 114.367 79.9422C97.3154 102.986 105.141 126.95 134.819 131.204C165.884 135.66 203.328 116.306 215.687 90.7168C226.42 68.4913 213.444 50.3835 188.46 47.5475Z" fill="white" stroke="#430B12" stroke-width="0.938913" stroke-linecap="round" stroke-linejoin="round"/>
<path d="M184.046 83.4667C178.588 94.7634 162.052 103.313 148.335 101.343C135.228 99.4624 131.775 88.8837 139.305 78.7084C146.08 69.5477 159.881 63.4484 171.088 64.3147C182.729 65.2106 188.917 73.3805 184.046 83.4667Z" stroke="#430B12" stroke-width="0.938913" stroke-linecap="round" stroke-linejoin="round"/>
<path d="M183.264 84.2082C178.185 94.5555 162.789 102.387 150.021 100.584C137.822 98.863 134.607 89.1683 141.614 79.8474C147.921 71.458 160.766 65.869 171.196 66.664C182.03 67.4828 187.791 74.9704 183.258 84.2082H183.264Z" fill="#EF223A" stroke="#430B12" stroke-width="0.868495" stroke-linecap="round" stroke-linejoin="round"/>
<path d="M167.552 108.712C164.11 108.445 159.874 110.32 157.792 113.132C155.478 116.259 156.54 119.505 160.562 120.086C164.781 120.691 169.854 118.063 171.533 114.592C173.028 111.495 171.129 108.985 167.552 108.712ZM171.396 114.752C169.83 118.004 164.781 120.62 160.847 120.056C157.323 119.552 156.836 116.71 159.103 114.058C161.061 111.768 164.686 110.124 167.635 110.118C170.839 110.107 172.719 112.017 171.396 114.752Z" fill="#430B12" stroke="#430B12" stroke-width="0.938913" stroke-linecap="round" stroke-linejoin="round"/>
<path d="M171.397 114.752C169.831 118.003 164.782 120.62 160.848 120.056C157.324 119.552 156.837 116.71 159.104 114.058C161.062 111.767 164.687 110.124 167.636 110.118C170.839 110.106 172.72 112.017 171.397 114.752Z" fill="#EF223A" stroke="#430B12" stroke-width="0.938913" stroke-linecap="round" stroke-linejoin="round"/>
<path d="M145.743 109.115C142.242 108.83 137.935 110.8 135.822 113.761C133.473 117.048 134.553 120.459 138.641 121.07C142.924 121.705 148.08 118.946 149.783 115.297C151.302 112.04 149.374 109.4 145.743 109.115ZM149.706 115.339C148.086 118.816 142.889 121.628 138.807 121.023C135.105 120.471 134.612 117.362 137.027 114.485C139.097 112.011 142.883 110.278 145.915 110.314C149.178 110.355 151.065 112.426 149.706 115.339Z" fill="#430B12" stroke="#430B12" stroke-width="0.938913" stroke-linecap="round" stroke-linejoin="round"/>
<path d="M149.704 115.339C148.085 118.816 142.887 121.628 138.805 121.023C135.103 120.471 134.611 117.363 137.025 114.485C139.096 112.011 142.881 110.278 145.913 110.314C149.176 110.356 151.063 112.426 149.704 115.339Z" fill="#EF223A" stroke="#430B12" stroke-width="0.938913" stroke-linecap="round" stroke-linejoin="round"/>
<path d="M129.765 103.028C126.467 102.939 122.26 104.95 120.118 107.745C117.757 110.818 118.665 113.773 122.48 114.064C126.431 114.366 131.344 111.673 133.147 108.38C134.773 105.407 133.159 103.123 129.765 103.028ZM133.07 108.32C131.32 111.435 126.045 114.218 122.207 113.939C118.878 113.696 118.688 111.186 121.038 108.7C123.061 106.558 126.627 104.82 129.492 104.535C132.673 104.215 134.524 105.728 133.07 108.32Z" fill="#430B12" stroke="#430B12" stroke-width="0.938913" stroke-linecap="round" stroke-linejoin="round"/>
<path d="M133.07 108.32C131.319 111.435 126.045 114.218 122.206 113.939C118.878 113.696 118.688 111.186 121.037 108.7C123.061 106.558 126.626 104.82 129.492 104.535C132.672 104.215 134.523 105.727 133.07 108.32Z" fill="#EF223A" stroke="#430B12" stroke-width="0.938913" stroke-linecap="round" stroke-linejoin="round"/>
<path d="M128.191 95.4339C128.321 93.9862 126.802 93.2209 124.346 93.5175C121.338 93.8794 117.565 95.7662 115.529 97.9199C114.04 99.4921 113.714 100.958 114.598 101.77C113.032 100.857 112.86 98.9997 114.408 96.8994C116.526 94.0278 121.071 91.8147 124.577 91.8978C127.33 91.963 128.695 93.4226 128.191 95.4339Z" fill="#430B12" stroke="#430B12" stroke-width="0.938913" stroke-linecap="round" stroke-linejoin="round"/>
<path d="M128.192 95.4337C128.061 95.9618 127.8 96.5373 127.391 97.1306C126.916 97.8307 126.287 98.4952 125.557 99.1004C125.534 99.1182 125.51 99.136 125.486 99.1597C123.736 100.53 121.416 101.652 119.245 102.15C118.527 102.298 117.821 102.37 117.144 102.364C116.082 102.352 115.228 102.138 114.599 101.77C113.715 100.957 114.041 99.492 115.53 97.9197C117.565 95.766 121.339 93.8792 124.347 93.5173C126.803 93.2207 128.322 93.986 128.192 95.4337Z" fill="#EF223A" stroke="#430B12" stroke-width="0.938913" stroke-linecap="round" stroke-linejoin="round"/>
<path d="M128.192 95.4338C128.15 95.9263 127.919 96.4959 127.474 97.1307C126.993 97.813 126.335 98.4834 125.558 99.1005C126.287 98.4953 126.916 97.8308 127.391 97.1307C127.8 96.5374 128.061 95.9619 128.192 95.4338Z" fill="#EF223A" stroke="#430B12" stroke-width="0.938913" stroke-linecap="round" stroke-linejoin="round"/>
<path d="M129.574 84.1192C129.182 84.7125 128.624 85.3058 127.96 85.8576C128.429 85.4482 128.808 85.021 129.081 84.5939C130.214 82.8436 129.212 81.5205 126.815 81.4493C124.222 81.3662 120.478 82.7427 118.372 84.7837C115.898 87.1807 116.901 89.1979 120.656 88.9072C122.353 88.7826 124.133 88.2012 125.652 87.4061C124.056 88.2664 122.223 88.8835 120.466 89.0259C116.307 89.37 114.854 87.0086 117.535 84.0302C119.932 81.3662 124.418 79.6634 127.42 79.9482C130.09 80.1974 130.986 81.9833 129.574 84.1192Z" fill="#430B12" stroke="#430B12" stroke-width="0.938913" stroke-linecap="round" stroke-linejoin="round"/>
<path d="M129.081 84.5939C128.808 85.0211 128.428 85.4483 127.96 85.8577C127.894 85.9111 127.829 85.9704 127.758 86.0297C127.734 86.0475 127.716 86.0594 127.698 86.0772C127.384 86.3264 127.04 86.5696 126.684 86.801C126.589 86.8663 126.488 86.9256 126.393 86.985C126.245 87.0799 126.091 87.1689 125.936 87.2519C125.841 87.3053 125.746 87.3587 125.652 87.4062C124.133 88.2012 122.353 88.7827 120.656 88.9073C116.9 89.198 115.897 87.1807 118.372 84.7838C120.478 82.7428 124.222 81.3663 126.814 81.4494C129.211 81.5206 130.214 82.8436 129.081 84.5939Z" fill="#EF223A" stroke="#430B12" stroke-width="0.938913" stroke-linecap="round" stroke-linejoin="round"/>
<path d="M137.935 72.455C138.587 71.1319 137.472 70.2004 135.277 70.1292C132.797 70.0521 129.326 71.0904 127.202 72.6508C125.333 74.0213 124.953 75.4334 126.241 76.1454C124.431 75.3029 124.378 73.4636 126.342 71.565C128.661 69.3282 132.862 67.9577 135.775 68.3493C138.451 68.7052 139.371 70.4496 137.941 72.455H137.935Z" fill="#430B12" stroke="#430B12" stroke-width="0.91544" stroke-linecap="round" stroke-linejoin="round"/>
<path d="M137.934 72.4548C137.934 72.4548 137.923 72.4844 137.917 72.4904C137.851 72.5734 137.786 72.6624 137.721 72.7455C136.73 73.9559 135.069 75.0357 133.223 75.7477C133.158 75.7714 133.093 75.7892 133.028 75.8189C131.449 76.3647 129.735 76.6792 128.228 76.602L128.026 76.5902C127.967 76.5902 127.913 76.5842 127.86 76.5724C127.688 76.5546 127.516 76.5249 127.362 76.4952C127.308 76.4834 127.249 76.4774 127.195 76.4596C127.124 76.4478 127.053 76.43 126.988 76.4122C126.875 76.3884 126.768 76.3528 126.667 76.3172C126.632 76.3113 126.608 76.2935 126.572 76.2876C126.543 76.2757 126.519 76.2638 126.489 76.252C126.412 76.2223 126.341 76.1926 126.27 76.157C126.258 76.1511 126.252 76.1452 126.246 76.1452C124.965 75.4332 125.344 74.0211 127.207 72.6506C129.337 71.0961 132.802 70.0519 135.282 70.129C137.478 70.2002 138.593 71.1317 137.94 72.4548H137.934Z" fill="#EF223A" stroke="#430B12" stroke-width="0.91544" stroke-linecap="round" stroke-linejoin="round"/>
<path d="M137.886 72.4902C137.774 72.7038 137.613 72.9234 137.406 73.1547C136.48 74.1634 134.825 75.0949 132.968 75.7297C134.902 75.0237 136.646 73.9498 137.679 72.7454C137.75 72.6623 137.821 72.5792 137.886 72.4902Z" fill="#EF223A" stroke="#430B12" stroke-width="0.938913" stroke-linecap="round" stroke-linejoin="round"/>
<path d="M152.292 62.7724C152.203 62.8792 152.114 62.986 152.013 63.0987C153.348 61.39 152.434 60.1559 149.954 60.233C147.361 60.3102 143.778 61.7935 141.897 63.6564C139.874 65.6559 140.639 67.246 143.683 67.068C145.101 66.9849 146.703 66.5281 148.15 65.8695C146.614 66.6052 144.923 67.1214 143.357 67.24C139.654 67.5189 138.319 65.5016 140.698 62.8199C142.971 60.2568 147.462 58.4472 150.506 58.6667C153.241 58.8566 153.959 60.6662 152.292 62.7783V62.7724Z" fill="#430B12" stroke="#430B12" stroke-width="0.929524" stroke-linecap="round" stroke-linejoin="round"/>
<path d="M152.014 63.0981C151.089 64.1364 149.7 65.1154 148.146 65.8689C146.698 66.5275 145.096 66.9843 143.678 67.0674C140.634 67.2454 139.869 65.6553 141.892 63.6558C143.773 61.7929 147.357 60.3096 149.949 60.2324C152.429 60.1553 153.343 61.3835 152.008 63.0981H152.014Z" fill="#EF223A" stroke="#430B12" stroke-width="0.929524" stroke-linecap="round" stroke-linejoin="round"/>
<path d="M152.013 63.0982C151.983 63.1398 151.954 63.1754 151.918 63.2169C151.099 64.2018 149.711 65.157 148.145 65.863C149.699 65.1095 151.081 64.1306 152.013 63.0923V63.0982Z" fill="#EF223A" stroke="#430B12" stroke-width="0.929524" stroke-linecap="round" stroke-linejoin="round"/>
<path d="M171.119 56.8271C170.3 57.9307 168.876 58.9452 167.185 59.6987C168.39 59.1351 169.398 58.4112 169.98 57.6281C171.267 55.9015 170.176 54.3589 167.524 54.0148C164.729 53.6529 160.873 54.6853 158.849 56.5304C156.577 58.5952 157.639 60.648 161.264 60.8735C162.736 60.9625 164.29 60.7311 165.702 60.2802C164.112 60.8082 162.397 61.0871 160.79 61.0099C156.5 60.7964 155.402 58.2095 158.298 55.5693C160.843 53.2494 165.429 51.9501 168.603 52.401C171.588 52.8223 172.709 54.709 171.131 56.833L171.119 56.8271Z" fill="#430B12" stroke="#430B12" stroke-width="0.938913" stroke-linecap="round" stroke-linejoin="round"/>
<path d="M170.443 57.7171C169.843 58.5062 168.799 59.2419 167.559 59.8115C167.375 59.8886 167.197 59.9657 167.007 60.0428C166.906 60.0844 166.806 60.1259 166.705 60.1615C166.479 60.2446 166.254 60.3217 166.016 60.3988C164.557 60.8557 162.949 61.0871 161.43 60.9981C157.686 60.7667 156.583 58.6782 158.932 56.5898C161.021 54.7209 165.008 53.6766 167.897 54.0504C170.638 54.4005 171.772 55.9727 170.443 57.723V57.7171Z" fill="#EF223A" stroke="#430B12" stroke-width="0.962386" stroke-linecap="round" stroke-linejoin="round"/>
<path d="M187.078 52.4899C183.785 51.8551 179.365 52.84 176.962 54.9403C174.191 57.3669 175.17 60.2504 179.495 60.998C183.755 61.7396 188.733 59.9716 190.418 57.4203C191.889 55.2073 190.329 53.1129 187.078 52.484V52.4899ZM189.51 57.895C188.336 60.0606 183.737 61.6744 179.661 60.9565C175.734 60.2623 175.194 57.8831 177.715 56.0557C179.75 54.5843 183.281 53.8901 185.986 54.2758C188.763 54.6674 190.436 56.1625 189.504 57.895H189.51Z" fill="#430B12" stroke="#430B12" stroke-width="0.999943" stroke-linecap="round" stroke-linejoin="round"/>
<path d="M189.945 57.6219C188.699 59.9418 183.786 61.6802 179.431 60.9385C175.23 60.2147 174.643 57.6694 177.331 55.7115C179.496 54.1332 183.27 53.3738 186.165 53.7773C189.138 54.1866 190.93 55.7767 189.945 57.6278V57.6219Z" fill="#EF223A" stroke="#430B12" stroke-width="1.07036" stroke-linecap="round" stroke-linejoin="round"/>
<path d="M205.537 64.8543C204.872 66.0943 203.602 67.2098 202.024 68.0463C203.128 67.4233 204.012 66.6402 204.504 65.7621C205.697 63.6262 204.012 61.8166 200.956 61.4843C198.002 61.1698 194.353 62.3209 192.537 64.2432C190.49 66.4088 191.428 68.8058 195.017 69.3635C196.619 69.6067 198.34 69.4347 199.888 68.9541C198.15 69.5296 196.251 69.7669 194.483 69.5474C190.3 69.0075 189.256 66.1181 191.689 63.4304C193.837 61.069 198.085 59.5738 201.49 59.8586C204.997 60.1494 206.919 62.2615 205.531 64.8602L205.537 64.8543Z" fill="#430B12" stroke="#430B12" stroke-width="0.971775" stroke-linecap="round" stroke-linejoin="round"/>
<path d="M204.503 65.7623C204.011 66.6403 203.127 67.4176 202.023 68.0465C201.857 68.1414 201.673 68.2304 201.495 68.3194C201.294 68.4203 201.086 68.5093 200.878 68.5923C200.807 68.622 200.736 68.6517 200.659 68.6754C200.564 68.7169 200.469 68.7466 200.374 68.7822C200.214 68.8356 200.06 68.889 199.887 68.9483C198.339 69.4289 196.618 69.6069 195.016 69.3577C191.433 68.8059 190.495 66.403 192.536 64.2374C194.352 62.321 197.995 61.1641 200.955 61.4786C204.011 61.8049 205.702 63.6204 204.503 65.7563V65.7623Z" fill="#EF223A" stroke="#430B12" stroke-width="0.971775" stroke-linecap="round" stroke-linejoin="round"/>
<path d="M190.395 101.527L181.886 105.556L174.755 96.4483L182.575 91.8086L190.395 101.527Z" fill="#430B12" stroke="#430B12" stroke-width="0.938913" stroke-linecap="round" stroke-linejoin="round"/>
<path d="M193.734 111.299L188.839 114.337L181.886 105.556L190.394 101.527L193.734 111.299Z" fill="#430B12" stroke="#430B12" stroke-width="0.938913" stroke-linecap="round" stroke-linejoin="round"/>
<path d="M311.11 29.7843C311.11 29.7843 299.884 33.1959 290.682 45.2638L281.082 40.9742L275.179 40.6004L270.207 22.1009L254.87 21.1161L249.358 34.8868C232.585 33.1306 206.8 32.2228 194.091 31.855C189.38 31.7185 186.467 31.6592 186.467 31.6592L179.169 17.1824H166.39L157.935 33.5044H148.893L147.463 34.0206C144.674 22.8841 125.38 23.6614 125.38 23.6614C212.057 -14.091 304.922 25.3642 308.719 26.8059C312.522 28.2477 311.11 29.7843 311.11 29.7843Z" fill="#EF223A" stroke="#430B12" stroke-width="0.938913" stroke-linecap="round" stroke-linejoin="round"/>
<path d="M362.714 84.001C310.129 92.4675 281.62 63.6741 281.62 63.6741C283.803 56.0086 287.09 49.9746 290.68 45.2637C299.882 33.1958 311.108 29.7842 311.108 29.7842C311.108 29.7842 312.52 28.2476 308.717 26.8058C304.919 25.3641 212.054 -14.0911 125.378 23.6613C125.378 23.6613 144.672 22.884 147.461 34.0205L130.409 40.185L116.146 56.0264C102.986 59.2955 101.598 56.768 101.509 56.5663C102.98 35.1478 117.059 24.9013 117.059 24.9013C215.579 -29.5587 328.219 22.5459 349.845 36.3107C364.102 45.3824 364.731 67.4832 362.714 84.001Z" fill="#EF223A" stroke="#430B12" stroke-width="0.938913" stroke-linecap="round" stroke-linejoin="round"/>
<path d="M362.715 84.0011C361.676 92.5389 359.926 99.5874 358.989 102.566C356.236 111.317 343.355 110.926 343.355 110.926C336.769 111.222 330.207 110.748 324.013 109.84C307.744 107.449 293.968 102.067 288.699 99.801C286.854 99.006 285.329 98.0211 284.077 96.9946C280.826 94.3247 278.963 90.3021 278.898 86.0955C278.767 77.3976 279.823 69.9812 281.621 63.6743C281.621 63.6743 310.129 92.4677 362.715 84.0011Z" fill="#430B12" stroke="#430B12" stroke-width="0.938913" stroke-linecap="round" stroke-linejoin="round"/>
<path d="M116.147 56.0264L102.436 71.2567C101.433 65.8813 101.202 60.9864 101.51 56.5663C101.599 56.768 102.987 59.2955 116.147 56.0264Z" fill="#430B12" stroke="#430B12" stroke-width="0.938913" stroke-linecap="round" stroke-linejoin="round"/>
<path d="M195.596 34.1152L187.491 33.6999L186.465 31.6589C186.465 31.6589 189.378 31.7183 194.089 31.8547L195.596 34.1152Z" fill="#EF223A" stroke="#430B12" stroke-width="0.938913" stroke-linecap="round" stroke-linejoin="round"/>
<path d="M179.169 17.1824L183.138 33.3916L195.598 34.1155L194.091 31.8549L186.467 31.6592L179.169 17.1824Z" fill="#430B12" stroke="#430B12" stroke-width="0.938913" stroke-linecap="round" stroke-linejoin="round"/>
<path d="M262.154 48.6338C262.154 48.6338 280.339 50.7519 281.081 40.9741" stroke="#430B12" stroke-width="0.938913" stroke-linecap="round" stroke-linejoin="round"/>
</g>
<defs>
<clipPath id="clip0_2156_30060">
<rect width="364.15" height="216.41" fill="white"/>
</clipPath>
</defs>
</svg>
