<svg width="711" height="595" viewBox="0 0 711 595" fill="none" xmlns="http://www.w3.org/2000/svg">
<path d="M237.17 146.855L241.115 157.533L241.983 158.4L252.66 162.345V165.107L241.983 169.052L241.115 169.92L237.17 180.597H234.408L230.463 169.92L229.596 169.052L218.918 165.107V162.345L229.596 158.4L230.463 157.533L234.408 146.855H237.17Z" fill="white"/>
<path d="M476.6 160.94L479.086 167.66L479.638 168.212L486.357 170.697V172.433L479.638 174.918L479.086 175.471L476.6 182.19H474.865L472.379 175.471L471.827 174.918L465.107 172.433V170.697L471.827 168.212L472.379 167.66L474.865 160.94H476.6Z" fill="white"/>
<path d="M79.9685 286.414L82.4538 293.134L83.0061 293.686L89.7256 296.172V297.907L83.0061 300.393L82.4538 300.945L79.9685 307.665H78.2327L75.7474 300.945L75.1951 300.393L68.4756 297.907V296.172L75.1951 293.686L75.7474 293.134L78.2327 286.414H79.9685Z" fill="white"/>
<path d="M636.068 294.371L639.329 303.194L640.052 303.917L648.876 307.179V309.467L640.052 312.728L639.329 313.451L636.068 322.275H633.78L630.518 313.451L629.795 312.728L620.972 309.467V307.179L629.795 303.917L630.518 303.194L633.78 294.371H636.068Z" fill="white"/>
<path d="M392.202 132.851H327.137L314.079 152.615L343.009 179.493L349.242 171.445H370.912L377.395 179.493L405.733 153.588L392.202 132.851ZM390.387 149.104C381.301 168.973 338.761 167.908 329.122 149.104C328.412 147.723 327.886 146.263 327.558 144.698C349.531 141.332 370.978 141.135 391.768 144.698C391.479 146.263 391.018 147.736 390.387 149.104Z" fill="white"/>
<path d="M415.151 169.633L413.559 188.897L409.917 232.883L360.382 270.294L309.545 232.134L305.692 188.542L303.982 169.12L338.08 199.877H380.409L415.151 169.633Z" fill="white"/>
<path d="M426.839 28.3115L421.973 87.0647L420.606 103.66L414.701 72.6262L404.616 74.9932L388.717 78.7277L384.549 77.3338L352.621 66.6431H304.309L297.997 101.293L296.748 87.1567L293.276 47.6942L346.835 34.2815L388.402 0L426.839 28.3115Z" fill="#EF223A"/>
<path d="M369.359 118.545L359.905 125.673L350.568 118.914L301.033 135.745L301.651 142.741L303.979 169.119L338.076 199.877H380.405L415.147 169.632L417.382 142.662L418.066 134.299L369.359 118.545ZM377.394 179.495L370.911 171.447H349.24L343.007 179.495L314.078 152.616L327.136 132.852H392.201L405.732 153.59L377.394 179.495Z" fill="#EF223A"/>
<path d="M450.046 540.139C450.046 540.139 413.753 572.974 405.482 589.372C391.583 592.396 377.065 594.079 361.851 594.079C346.637 594.079 330.949 591.975 316.484 588.228C308.213 571.83 271.446 539.731 271.446 539.731L280.414 513.313H328.832C333.303 526.411 345.703 535.826 360.312 535.826C374.922 535.826 387.322 526.411 391.793 513.313H440.145L450.046 540.139Z" fill="#EF223A"/>
<path d="M460.882 569.503C443.538 578.155 425.141 585.112 405.482 589.372C413.754 572.975 450.047 540.14 450.047 540.14L460.882 569.503Z" fill="#EF223A"/>
<path d="M316.486 588.228C297.471 583.323 279.535 575.591 262.479 566.15L271.448 539.732C271.448 539.732 308.214 571.83 316.486 588.228Z" fill="#EF223A"/>
<path d="M256.864 232.882L248.975 237.629" stroke="#430B12" stroke-width="2.11282" stroke-miterlimit="10"/>
<path d="M472.164 238.708L458.041 230.213" stroke="#430B12" stroke-width="2.11282" stroke-miterlimit="10"/>
<path d="M280.417 513.313L271.449 539.731L262.481 566.149C178.651 519.743 115.94 431.758 49.0205 431.758L121.423 345.746L111.337 386.628L207.094 454.218L201.624 459.254L235.484 478.164L233.223 480.255L212.406 478.151L198.297 462.121L188.684 470.76L199.309 485.751L183.963 483.476L176.034 496.074L242.796 513.997L263.48 493.996L274.342 483.489C274.736 485.251 275.118 487.014 275.486 488.776C276.617 494.101 277.708 499.44 278.76 504.792C279.326 507.632 279.878 510.473 280.417 513.313Z" fill="#430B12"/>
<path d="M255.719 409.444L220.859 370.81L232.931 339.895C241.32 362.67 248.895 385.867 255.719 409.444Z" fill="#430B12"/>
<path d="M255.721 409.445L207.094 454.22L111.337 386.63L121.423 345.748L233.485 211.936L233.722 212.33L248.976 237.63L236.904 244.889L226.266 322.302C228.541 328.14 230.763 334.005 232.933 339.896L220.861 370.811L255.721 409.445Z" fill="#EF223A"/>
<path d="M312.752 268.599L264.834 263.918L248.976 237.632L233.485 211.937L234.274 211.674L305.691 188.543L309.544 232.135L312.752 268.599Z" fill="#430B12"/>
<path d="M444.817 488.774C443.778 493.916 442.779 499.084 441.806 504.278C441.24 507.276 440.688 510.287 440.149 513.312H391.797C392.954 509.932 393.586 506.316 393.586 502.555C393.586 497.637 392.52 492.969 390.601 488.774H444.817Z" fill="#430B12"/>
<path d="M671.583 431.758C613.396 431.758 551.802 524.136 460.885 569.502L450.049 540.139L440.147 513.313C440.687 510.289 441.239 507.278 441.804 504.279C442.777 499.085 443.777 493.917 444.816 488.776C445.079 487.421 445.355 486.08 445.644 484.739L455.651 494.417L476.704 514.773L543.452 496.85L535.536 484.252L518.638 486.751L529.96 470.761L520.361 462.121L506.238 478.151L485.817 480.215L484.318 478.769L517.876 460.03L511.787 454.429L608.057 385.852L602.495 348.849L671.583 431.758Z" fill="#430B12"/>
<path d="M499.703 370.941L464.015 409.957C470.787 386.642 478.479 364.064 487.185 342.341L499.703 370.941Z" fill="#430B12"/>
<path d="M608.056 385.854L511.787 454.43L463.908 410.338C463.935 410.207 463.974 410.089 464.013 409.957L499.702 370.942L487.183 342.341C489.235 337.213 491.352 332.124 493.521 327.087L482.449 244.888L472.166 238.708L490.037 214.223L490.418 214.354L602.494 348.85L608.056 385.854Z" fill="#EF223A"/>
<path d="M490.036 214.223L472.166 238.708L455.018 262.207L407.101 266.888L409.915 232.883L413.557 188.897L490.036 214.223Z" fill="#430B12"/>
<path d="M296.748 87.1548L279.706 96.2282L284.637 133.1L301.653 142.739L296.748 87.1548Z" fill="white"/>
<path d="M421.973 87.064L439.186 96.2294L434.254 133.101L417.37 142.661L421.973 87.064Z" fill="white"/>
<path d="M414.703 72.6256L404.617 74.9925L411.284 92.7316L400.58 87.5506L375.938 92.7316L373.689 78.5956L384.551 77.3332L352.623 66.6424H304.311L297.999 101.292V101.318L301.037 135.744L350.572 118.913L359.908 125.672L369.363 118.545L418.07 134.298L420.607 103.659L414.703 72.6256ZM344.181 91.0616L317.684 87.1561C317.684 87.1561 307.848 93.1129 307.953 92.7184C308.045 92.3239 314.765 74.7953 314.765 74.7953L347.587 78.3063L344.181 91.0616Z" fill="white"/>
<path d="M347.589 78.307L344.184 91.0623L317.687 87.1568C317.687 87.1568 307.851 93.1136 307.956 92.7191C308.048 92.3246 314.767 74.796 314.767 74.796L347.589 78.307Z" fill="#430B12"/>
<path d="M411.282 92.7295L400.578 87.5485L375.935 92.7295L373.687 78.5935L384.548 77.3311L388.717 78.725L404.615 74.9905L411.282 92.7295Z" fill="#430B12"/>
<path d="M390.391 149.107C381.304 168.977 338.765 167.911 329.126 149.107C329.126 149.107 367.195 144.426 390.391 149.107Z" fill="#430B12"/>
<path d="M391.773 144.699C391.484 146.264 391.023 147.736 390.392 149.104C367.196 144.423 329.127 149.104 329.127 149.104C328.417 147.723 327.891 146.264 327.562 144.699C349.536 141.332 370.983 141.135 391.773 144.699Z" fill="white"/>
<path d="M274.364 483.478L274.344 483.498" stroke="#430B12" stroke-width="2.11282" stroke-miterlimit="10"/>
<path d="M235.796 477.887L235.489 478.167" stroke="#430B12" stroke-width="2.11282" stroke-miterlimit="10"/>
<path d="M445.653 484.746L445.633 484.725" stroke="#430B12" stroke-width="2.11282" stroke-miterlimit="10"/>
<path d="M484.321 478.77L483.308 477.796" stroke="#430B12" stroke-width="2.11282" stroke-miterlimit="10"/>
<path d="M518.643 486.753L518.623 486.773" stroke="#430B12" stroke-width="2.11282" stroke-miterlimit="10"/>
<path d="M485.814 480.216L485.195 480.282" stroke="#430B12" stroke-width="2.11282" stroke-miterlimit="10"/>
<path d="M233.447 480.285L233.219 480.258" stroke="#430B12" stroke-width="2.11282" stroke-miterlimit="10"/>
<path d="M313.644 392.243L360.299 372.623L404.679 391.454" stroke="#430B12" stroke-width="2.11282" stroke-miterlimit="10"/>
<path d="M327.043 502.555C327.043 506.316 327.674 509.932 328.831 513.312H280.414C279.874 510.472 279.322 507.631 278.757 504.791C277.705 499.439 276.613 494.1 275.482 488.774H330.028C328.108 492.969 327.043 497.637 327.043 502.555Z" fill="#430B12"/>
<path d="M244.997 483.478L235.489 478.165" stroke="#430B12" stroke-width="2.11282" stroke-miterlimit="10"/>
<path d="M233.223 480.257L223.439 489.317L199.31 485.753L188.685 470.763L198.297 462.123L212.407 478.153L233.223 480.257Z" fill="white"/>
<path d="M274.345 483.489L263.483 493.996L242.799 513.997L176.037 496.074L183.966 483.476L199.312 485.751L223.442 489.315L233.225 480.254L235.487 478.164L201.627 459.254L207.097 454.218L255.725 409.443C262.734 433.717 268.927 458.4 274.345 483.489Z" fill="white"/>
<path d="M484.316 478.771L474.493 484.255" stroke="#430B12" stroke-width="2.11282" stroke-miterlimit="10"/>
<path d="M529.965 470.763L518.643 486.753L496.065 490.093L485.821 480.217L506.243 478.153L520.366 462.123L529.965 470.763Z" fill="white"/>
<path d="M543.455 496.853L476.707 514.776L455.654 494.42L445.647 484.742C450.868 459.231 456.917 434.392 463.913 410.341L511.791 454.432L517.879 460.034L484.321 478.772L485.82 480.219L496.064 490.094L518.642 486.754L535.539 484.256L543.455 496.853Z" fill="white"/>
<path d="M493.52 327.085C491.35 332.122 489.233 337.211 487.182 342.339C478.476 364.063 470.784 386.641 464.012 409.955L463.775 410.218L463.906 410.337C456.911 434.388 450.862 459.228 445.641 484.738C445.352 486.079 445.076 487.421 444.813 488.775H390.596C385.35 477.282 373.765 469.287 360.312 469.287C346.86 469.287 335.275 477.282 330.029 488.775H275.483C275.115 487.013 274.734 485.251 274.339 483.489C268.922 458.399 262.728 433.717 255.719 409.442C248.894 385.865 241.32 362.669 232.931 339.893C230.761 334.002 228.539 328.137 226.264 322.299L236.902 244.886L248.973 237.628L264.832 263.914L312.75 268.595L309.541 232.131L360.378 270.292L409.913 232.88L407.099 266.886L455.017 262.204L472.164 238.706L482.448 244.886L493.52 327.085Z" fill="#EF223A"/>
<path d="M305.692 188.542L342.682 212.054H377.753L413.559 188.897L415.151 169.633L380.409 199.877H338.08L303.982 169.12L305.692 188.542Z" fill="#430B12"/>
<path d="M262.437 566.266L277.256 526.764" stroke="#EF223A" stroke-width="2.11282" stroke-miterlimit="10"/>
<path d="M460.07 569.65L444.264 528.873" stroke="#EF223A" stroke-width="2.11282" stroke-miterlimit="10"/>
<path d="M256.818 233.002L248.928 237.749" stroke="#430B12" stroke-width="2.11282" stroke-miterlimit="10"/>
<path d="M472.123 238.824L458 230.329" stroke="#430B12" stroke-width="2.11282" stroke-miterlimit="10"/>
<path d="M296.719 87.2745L279.664 96.3479L284.595 133.233L301.611 142.859" stroke="#430B12" stroke-width="2.11282" stroke-miterlimit="10"/>
<path d="M421.94 87.1968L439.14 96.349L434.209 133.234L417.338 142.781" stroke="#430B12" stroke-width="2.11282" stroke-miterlimit="10"/>
<path d="M297.954 101.408V101.435L300.992 135.861M418.064 134.73L421.102 100.304V100.278" stroke="#430B12" stroke-width="2.11282" stroke-miterlimit="10"/>
<path d="M371.75 116.599L359.902 125.673L346.766 116.31" stroke="#430B12" stroke-width="2.11282" stroke-miterlimit="10"/>
<path d="M345.017 100.24L320.282 99.267" stroke="#430B12" stroke-width="2.11282" stroke-miterlimit="10"/>
<path d="M374.239 100.24L397.804 99.267" stroke="#430B12" stroke-width="2.11282" stroke-miterlimit="10"/>
<path d="M345.991 103.355L342.678 108.905" stroke="#430B12" stroke-width="2.11282" stroke-miterlimit="10"/>
<path d="M374.239 103.789L377.75 108.905" stroke="#430B12" stroke-width="2.11282" stroke-miterlimit="10"/>
<path d="M359.834 115.874L359.808 101.305" stroke="#430B12" stroke-width="2.11282" stroke-miterlimit="10"/>
<path d="M390.341 149.224C381.254 169.093 338.715 168.028 329.076 149.224C329.076 149.224 367.145 144.543 390.341 149.224Z" stroke="#430B12" stroke-width="2.11282" stroke-miterlimit="10"/>
<path d="M391.728 144.818C391.439 146.383 390.978 147.856 390.347 149.224C367.151 144.542 329.082 149.224 329.082 149.224C328.372 147.843 327.846 146.383 327.518 144.818C349.491 141.452 370.938 141.255 391.728 144.818Z" stroke="#430B12" stroke-width="2.11282" stroke-miterlimit="10"/>
<path d="M389.04 140.295L394.892 148.343" stroke="#430B12" stroke-width="2.11282" stroke-miterlimit="10"/>
<path d="M329.97 140.742L324.118 148.803" stroke="#430B12" stroke-width="2.11282" stroke-miterlimit="10"/>
<path d="M376.067 171.566H342.692" stroke="#430B12" stroke-width="2.11282" stroke-miterlimit="10"/>
<path d="M274.318 483.595L274.298 483.615" stroke="#430B12" stroke-width="2.11282" stroke-miterlimit="10"/>
<path d="M445.605 484.865L445.585 484.845" stroke="#430B12" stroke-width="2.11282" stroke-miterlimit="10"/>
<path d="M313.615 420.148L360.271 400.528L404.651 419.359" stroke="#430B12" stroke-width="2.11282" stroke-miterlimit="10"/>
<path d="M233.651 478.952L223.394 489.433L195.832 484.462" stroke="#430B12" stroke-width="2.11282" stroke-miterlimit="10"/>
<path d="M521.288 485.647L496.014 490.209L485.652 479.111" stroke="#430B12" stroke-width="2.11282" stroke-miterlimit="10"/>
<path d="M390.594 488.777C385.347 477.284 373.762 469.289 360.31 469.289C346.858 469.289 335.273 477.284 330.026 488.777C328.106 492.972 327.041 497.64 327.041 502.558C327.041 506.319 327.672 509.935 328.829 513.314C333.3 526.412 345.701 535.827 360.31 535.827C374.919 535.827 387.32 526.412 391.791 513.314C392.948 509.935 393.579 506.319 393.579 502.558C393.579 497.64 392.514 492.972 390.594 488.777ZM385.597 513.314C381.402 523.137 371.671 530.028 360.31 530.028C348.949 530.028 339.218 523.137 335.023 513.314C333.616 510.014 332.84 506.371 332.84 502.558C332.84 497.535 334.195 492.827 336.548 488.777C341.295 480.585 350.158 475.088 360.31 475.088C370.462 475.088 379.325 480.585 384.072 488.777C386.425 492.827 387.78 497.535 387.78 502.558C387.78 506.371 387.004 510.014 385.597 513.314Z" fill="white"/>
<path d="M387.783 502.557C387.783 506.371 387.007 510.013 385.6 513.314C381.405 523.137 371.674 530.027 360.313 530.027C348.951 530.027 339.22 523.137 335.026 513.314C333.619 510.013 332.843 506.371 332.843 502.557C332.843 497.534 334.197 492.827 336.551 488.777C341.298 480.584 350.161 475.088 360.313 475.088C370.464 475.088 379.327 480.584 384.074 488.777C386.428 492.827 387.783 497.534 387.783 502.557Z" fill="#EF223A"/>
<path d="M417.339 333.084C417.339 338.41 415.722 343.486 412.803 348.088C404.098 361.79 383.886 371.403 360.309 371.403C336.731 371.403 316.52 361.79 307.815 348.088C304.896 343.486 303.278 338.397 303.278 333.084C303.278 326.076 306.092 319.514 310.971 313.859C320.82 302.432 339.23 294.766 360.296 294.766C381.362 294.766 399.771 302.432 409.621 313.859C414.512 319.514 417.313 326.076 417.313 333.084H417.339Z" fill="white"/>
<path d="M297.229 241.379C297.229 243.285 296.834 245.1 296.137 246.757C294.033 251.662 289.168 255.107 283.487 255.107C277.806 255.107 272.941 251.662 270.85 246.757C270.14 245.1 269.759 243.285 269.759 241.379C269.759 238.867 270.429 236.513 271.613 234.488C273.993 230.399 278.425 227.65 283.5 227.65C288.576 227.65 293.008 230.399 295.388 234.488C296.571 236.513 297.242 238.867 297.242 241.379H297.229Z" fill="white"/>
<path d="M450.305 241.379C450.305 243.285 449.91 245.1 449.213 246.757C447.109 251.662 442.244 255.107 436.563 255.107C430.883 255.107 426.017 251.662 423.926 246.757C423.216 245.1 422.835 243.285 422.835 241.379C422.835 238.867 423.506 236.513 424.689 234.488C427.069 230.399 431.501 227.65 436.576 227.65C441.652 227.65 446.084 230.399 448.464 234.488C449.647 236.513 450.318 238.867 450.318 241.379H450.305Z" fill="white"/>
<path d="M335.119 225.162L339.274 254.447" stroke="#430B12" stroke-width="2.11282" stroke-miterlimit="10"/>
<path d="M386.568 225.162L382.399 254.447" stroke="#430B12" stroke-width="2.11282" stroke-miterlimit="10"/>
<path d="M170.3 353.031L179.413 372.755L224.24 370.809" stroke="#430B12" stroke-width="2.11282" stroke-miterlimit="10"/>
<path d="M545.588 353.031L536.475 372.755L491.647 370.809" stroke="#430B12" stroke-width="2.11282" stroke-miterlimit="10"/>
<path d="M346.636 316.717L324.225 332.321L346.636 350.941" stroke="#430B12" stroke-width="2.11282"/>
<path d="M374.848 316.717L397.259 332.321L374.848 350.941" stroke="#430B12" stroke-width="2.11282"/>
<path d="M366.709 311.427L352.834 357.226" stroke="#430B12" stroke-width="2.11282"/>
<path d="M185.118 191.823L126.26 103.355" stroke="#EF223A" stroke-width="2.11282"/>
<path d="M608.396 239.806L655.567 212.804" stroke="#EF223A" stroke-width="2.11282"/>
<path d="M511.311 189.924L568.912 103.355" stroke="#EF223A" stroke-width="2.11282"/>
<path d="M488.466 302.839L494.783 325.486L485.229 350.753" stroke="#430B12" stroke-width="2.11282"/>
<path d="M232.58 302.839L226.628 325.43L235.594 350.947" stroke="#430B12" stroke-width="2.11282"/>
<path d="M123.625 231.784L71.1152 201.686" stroke="#EF223A" stroke-width="2.11282"/>
<path d="M637.064 357.833L710.468 343.455" stroke="#EF223A" stroke-width="2.11282"/>
<path d="M78.0651 362.915L0.230469 345.541" stroke="#EF223A" stroke-width="2.11282"/>
</svg>
