<svg width="2121" height="943" viewBox="0 0 2121 943" fill="none" xmlns="http://www.w3.org/2000/svg">
<rect width="2119.6" height="942.042" transform="translate(0.629883 0.360352)" fill="#EF223A"/>
<g clip-path="url(#clip0_768_2641)">
<path d="M950.318 582.68L1270.75 767.783L1167.85 827.584L847.321 642.532L950.318 582.68Z" fill="#EF223A" stroke="#430B12" stroke-width="3.67985" stroke-linecap="round" stroke-linejoin="round"/>
<path d="M1270.75 767.782L1270.68 790.891L1167.78 850.693L1167.85 827.584L1270.75 767.782Z" fill="#430B12" stroke="#430B12" stroke-width="3.67985" stroke-linecap="round" stroke-linejoin="round"/>
<path d="M1167.84 827.584L1167.78 850.693L847.258 665.641L847.321 642.532L1167.84 827.584Z" fill="#EF223A" stroke="#430B12" stroke-width="3.67985" stroke-linecap="round" stroke-linejoin="round"/>
<path d="M991.445 639.681L1025.81 619.713L1126.84 678.097L1092.47 698.065L991.445 639.681Z" fill="#430B12"/>
<path d="M1093.82 698.071L1128.19 678.104V679.436L1093.82 699.409L1093.82 698.071Z" fill="#430B12"/>
<path d="M990.764 637.741L1025.13 617.773L1127.52 676.94L1093.16 696.908L990.764 637.741Z" fill="#430B12"/>
<path d="M1092.64 697.435L1127 677.462L1126.84 734.95L1092.47 754.918L1092.64 697.435Z" fill="#430B12" stroke="#430B12" stroke-width="3.67985" stroke-linecap="round" stroke-linejoin="round"/>
<path d="M991.445 639.68L1092.48 698.064L1092.32 755.343L991.28 697.009L991.445 639.68Z" fill="#EF223A" stroke="#430B12" stroke-width="3.67985" stroke-linecap="round" stroke-linejoin="round"/>
<path d="M1331.01 445.177L1320.97 451.017L1320.96 451.011L785.251 141.395L765.119 129.761L775.188 123.91L785.285 129.75L1330.38 444.792C1330.59 444.916 1330.8 445.041 1331.01 445.177Z" fill="white"/>
<path d="M765.119 129.76L1320.97 451.01C1328.76 455.512 1335.05 466.21 1335.03 474.913L1334.07 810.648C1334.05 819.357 1327.71 822.764 1319.92 818.268L764.07 497.353C756.275 492.851 749.982 482.147 750.004 473.445L750.957 137.375C750.979 128.666 757.324 125.253 765.119 129.766V129.76Z" fill="white"/>
<path d="M1344.89 469.182C1344.57 460.332 1338.55 449.905 1331.01 445.177C1330.8 445.041 1330.59 444.916 1330.38 444.792L785.285 129.75L775.188 123.91L774.649 123.604L755.77 112.69C747.713 108.036 741.154 111.76 741.126 121.03L740.111 478.4C740.088 487.658 746.597 498.935 754.653 503.584L922.407 598.899L990.764 637.741L990.821 637.775L992.743 638.926L1025.69 658.644L1066.2 682.881L1066.49 683.052L1092.47 698.597L1093.81 699.402H1093.82L1126.72 718.401L1128.07 719.178L1241.59 784.722L1261.5 796.22L1329.26 835.334C1337.31 839.989 1343.86 836.252 1343.89 826.994L1343.95 804.911V804.299L1343.98 792.359L1344.9 469.975C1344.9 469.715 1344.9 469.448 1344.89 469.182H1344.89ZM1334.07 810.042V810.655C1334.06 811.42 1334.01 812.14 1333.92 812.82C1333.86 813.246 1333.78 813.654 1333.69 814.039C1333.64 814.215 1333.6 814.385 1333.55 814.555C1333.49 814.765 1333.42 814.964 1333.35 815.162C1333.25 815.451 1333.14 815.723 1333.02 815.984C1332.89 816.25 1332.76 816.5 1332.62 816.744C1332.41 817.101 1332.17 817.435 1331.93 817.742C1331.76 817.946 1331.58 818.138 1331.39 818.32C1331.25 818.456 1331.11 818.586 1330.96 818.705C1330.81 818.83 1330.66 818.943 1330.5 819.051C1330.37 819.142 1330.22 819.233 1330.08 819.318C1330.06 819.329 1330.04 819.34 1330.03 819.346C1329.88 819.425 1329.74 819.505 1329.59 819.573C1329.27 819.72 1328.94 819.845 1328.6 819.947C1328.43 819.998 1328.27 820.038 1328.1 820.077C1328.08 820.077 1328.05 820.089 1328.02 820.094C1327.68 820.162 1327.33 820.208 1326.97 820.236C1326.38 820.276 1325.76 820.253 1325.12 820.168C1324.69 820.106 1324.24 820.021 1323.78 819.902C1323.73 819.89 1323.67 819.873 1323.61 819.856C1323.38 819.799 1323.14 819.726 1322.9 819.641C1322.79 819.607 1322.68 819.567 1322.58 819.527C1322.45 819.476 1322.31 819.425 1322.17 819.374C1321.81 819.227 1321.43 819.062 1321.06 818.875C1320.86 818.785 1320.68 818.688 1320.48 818.586C1320.3 818.484 1320.1 818.382 1319.91 818.269L1270.68 789.848L1251.67 778.872L1128.11 707.532L1126.76 706.756L1103.89 693.552L1102.74 692.888L1102.06 692.491L1101.4 692.117L1025.73 648.422L1000.99 634.141L1000.98 634.135L998.968 632.973L931.15 593.82L764.07 497.353H764.064C763.82 497.212 763.582 497.07 763.344 496.917C763.106 496.764 762.868 496.611 762.63 496.441C762.392 496.282 762.159 496.112 761.927 495.936C761.723 495.789 761.524 495.635 761.326 495.471C761.065 495.267 760.804 495.052 760.549 494.825C760.328 494.638 760.101 494.439 759.886 494.229C759.67 494.037 759.455 493.833 759.245 493.623C759.24 493.623 759.228 493.606 759.223 493.6C758.797 493.181 758.378 492.738 757.97 492.279C757.76 492.052 757.561 491.826 757.363 491.582H757.357C756.96 491.106 756.575 490.624 756.201 490.125C756.002 489.858 755.81 489.592 755.617 489.325C755.458 489.093 755.299 488.86 755.135 488.622C754.596 487.817 754.092 486.984 753.627 486.133C753.479 485.878 753.343 485.617 753.213 485.362C753.088 485.119 752.963 484.875 752.844 484.631C752.68 484.291 752.516 483.945 752.368 483.599C752.255 483.344 752.141 483.089 752.039 482.834C751.801 482.267 751.586 481.694 751.387 481.122C751.285 480.832 751.195 480.549 751.11 480.265C751.036 480.033 750.968 479.795 750.9 479.562C750.86 479.415 750.815 479.268 750.781 479.126C750.752 479.024 750.73 478.927 750.707 478.831C750.667 478.678 750.628 478.531 750.599 478.378C750.537 478.145 750.486 477.907 750.441 477.675C750.384 477.391 750.333 477.113 750.287 476.835C750.095 475.679 749.993 474.545 749.998 473.439L750.951 137.369C750.951 136.99 750.968 136.615 750.996 136.258C751.002 136.088 751.019 135.924 751.036 135.765C751.07 135.396 751.121 135.045 751.183 134.705C751.217 134.518 751.251 134.336 751.297 134.161C751.314 134.047 751.342 133.934 751.376 133.826C751.416 133.645 751.467 133.469 751.523 133.299C751.614 132.998 751.716 132.715 751.83 132.443C751.937 132.171 752.056 131.904 752.192 131.655C752.26 131.524 752.328 131.399 752.402 131.275C752.465 131.173 752.521 131.076 752.584 130.986C752.601 130.952 752.623 130.923 752.646 130.895C752.691 130.816 752.742 130.742 752.799 130.674C752.878 130.56 752.958 130.447 753.043 130.345C753.145 130.22 753.247 130.101 753.355 129.988C753.445 129.88 753.547 129.784 753.649 129.687C753.7 129.636 753.757 129.58 753.814 129.529C753.865 129.483 753.922 129.432 753.978 129.387C754.035 129.336 754.097 129.285 754.16 129.239C754.199 129.205 754.239 129.171 754.284 129.143C754.352 129.092 754.426 129.035 754.5 128.99C754.715 128.837 754.942 128.701 755.175 128.582C755.254 128.536 755.339 128.497 755.424 128.457C755.594 128.372 755.77 128.298 755.946 128.236C756.036 128.202 756.133 128.168 756.229 128.134C756.479 128.054 756.739 127.986 757 127.935C757.091 127.913 757.187 127.896 757.284 127.884C757.352 127.867 757.42 127.856 757.488 127.85C757.55 127.839 757.618 127.833 757.686 127.822C757.788 127.811 757.89 127.799 757.998 127.799C758.327 127.765 758.661 127.765 759.001 127.777C759.2 127.788 759.404 127.799 759.608 127.822C759.744 127.833 759.875 127.85 760.011 127.873C760.124 127.89 760.237 127.907 760.351 127.924C760.362 127.93 760.373 127.93 760.379 127.93C760.498 127.952 760.612 127.981 760.731 128.003C760.85 128.032 760.974 128.06 761.099 128.089C761.224 128.117 761.354 128.151 761.479 128.191C761.598 128.225 761.723 128.259 761.842 128.298C761.967 128.338 762.097 128.378 762.222 128.423C762.732 128.593 763.248 128.809 763.775 129.058C763.906 129.115 764.036 129.183 764.172 129.251C764.302 129.313 764.433 129.381 764.569 129.455C764.75 129.551 764.932 129.653 765.119 129.761L785.251 141.395L1320.96 451.011C1320.96 451.011 1320.97 451.011 1320.97 451.017C1321.29 451.204 1321.61 451.402 1321.93 451.612C1322.14 451.748 1322.35 451.884 1322.55 452.031C1322.57 452.043 1322.58 452.048 1322.59 452.065C1322.84 452.241 1323.09 452.423 1323.34 452.615C1323.6 452.814 1323.86 453.018 1324.11 453.233C1324.28 453.369 1324.45 453.511 1324.61 453.659C1324.79 453.812 1324.97 453.976 1325.14 454.135C1325.85 454.787 1326.52 455.478 1327.17 456.216C1327.32 456.38 1327.47 456.55 1327.61 456.72C1327.72 456.856 1327.84 456.992 1327.95 457.134C1328.09 457.298 1328.23 457.468 1328.36 457.639C1328.72 458.081 1329.05 458.534 1329.38 458.999C1329.62 459.351 1329.87 459.702 1330.1 460.059C1330.15 460.144 1330.21 460.224 1330.26 460.309C1330.48 460.655 1330.7 461.006 1330.91 461.363C1331.07 461.636 1331.22 461.908 1331.38 462.18C1331.68 462.724 1331.96 463.28 1332.23 463.841C1332.34 464.068 1332.45 464.295 1332.55 464.527C1332.63 464.714 1332.72 464.901 1332.8 465.094C1332.83 465.151 1332.86 465.213 1332.88 465.275C1332.96 465.462 1333.04 465.655 1333.11 465.842C1333.49 466.783 1333.82 467.736 1334.09 468.694C1334.16 468.927 1334.22 469.159 1334.28 469.391C1334.34 469.624 1334.4 469.856 1334.45 470.083C1334.64 470.888 1334.78 471.688 1334.87 472.476C1334.9 472.68 1334.92 472.884 1334.94 473.088C1334.96 473.292 1334.97 473.49 1334.98 473.695C1334.99 473.836 1335 473.984 1335 474.125C1335.02 474.386 1335.02 474.653 1335.02 474.913L1334.14 786.673L1334.07 810.042Z" fill="#EF223A" stroke="#430B12" stroke-width="3.67985" stroke-linecap="round" stroke-linejoin="round"/>
<path d="M1343.89 826.995C1343.89 829.297 1343.48 831.253 1342.74 832.829C1342.56 833.22 1342.36 833.594 1342.13 833.935C1342.02 834.105 1341.9 834.275 1341.78 834.433C1341.17 835.233 1340.45 835.873 1339.64 836.35L1374 816.382C1376.62 814.862 1378.24 811.625 1378.25 807.021L1379.27 449.997L1369.38 455.746L1344.9 469.971L1343.98 792.354L1343.95 804.294V804.907L1343.89 826.989" fill="#430B12"/>
<path d="M1343.89 826.995C1343.89 829.297 1343.48 831.253 1342.74 832.829C1342.56 833.22 1342.36 833.594 1342.13 833.935C1342.02 834.105 1341.9 834.275 1341.78 834.433C1341.17 835.233 1340.45 835.873 1339.64 836.35L1374 816.382C1376.62 814.862 1378.24 811.625 1378.25 807.021L1379.27 449.997L1369.38 455.746L1344.9 469.971L1343.98 792.354L1343.95 804.294V804.907L1343.89 826.989" stroke="#430B12" stroke-width="3.67985" stroke-linecap="round" stroke-linejoin="round"/>
<path d="M1379.27 450.003C1379.3 440.75 1372.8 429.48 1364.74 424.825L790.133 92.7236C786.839 90.8186 783.794 90.3141 781.345 91.0228C780.778 91.1872 780.245 91.4139 779.746 91.7031L745.384 111.671C748.037 110.129 751.716 110.35 755.77 112.692L774.649 123.605L775.188 123.911L785.285 129.751L1330.38 444.793C1338.43 449.453 1344.94 460.718 1344.91 469.971L1379.27 450.003Z" fill="#EF223A" stroke="#430B12" stroke-width="3.67985" stroke-linecap="round" stroke-linejoin="round"/>
</g>
<g clip-path="url(#clip1_768_2641)">
<path d="M841.906 337.967C843.57 338.928 844.908 341.25 844.903 343.16C844.897 345.071 843.547 345.843 841.883 344.882C840.218 343.921 838.88 341.599 838.886 339.689C838.891 337.778 840.241 337.006 841.906 337.967Z" fill="#430B12"/>
<path d="M827.841 228.683L826.96 482.585C826.949 485.982 828.75 489.128 831.69 490.832L1246.73 731.522C1253.05 735.182 1260.95 730.652 1260.99 723.354L1262.22 474.297C1262.23 470.894 1260.43 467.748 1257.49 466.038L838.319 222.678C833.681 219.984 827.858 223.319 827.841 228.683Z" fill="#EF223A" stroke="#430B12" stroke-width="3.67985" stroke-miterlimit="10"/>
<path d="M827.807 238.784L1261.93 490.449" stroke="#430B12" stroke-width="3.67985" stroke-miterlimit="10"/>
<path d="M841.945 324.434C843.61 325.395 844.948 327.717 844.942 329.627C844.937 331.537 843.587 332.31 841.923 331.349C840.258 330.388 838.92 328.066 838.926 326.155C838.931 324.245 840.281 323.473 841.945 324.434Z" fill="#430B12"/>
<path d="M841.985 310.901C843.65 311.862 844.988 314.184 844.982 316.094C844.977 318.005 843.627 318.777 841.962 317.816C840.298 316.855 838.96 314.533 838.965 312.623C838.971 310.712 840.321 309.946 841.985 310.901Z" fill="#430B12"/>
<path d="M842.1 270.292C843.764 271.253 845.103 273.575 845.097 275.485C845.091 277.396 843.741 278.168 842.077 277.207C840.413 276.246 839.074 273.924 839.08 272.014C839.086 270.103 840.436 269.331 842.1 270.292Z" fill="#430B12"/>
<path d="M842.026 297.363C843.69 298.324 845.028 300.646 845.023 302.556C845.017 304.467 843.667 305.239 842.003 304.278C840.338 303.317 839 300.995 839.006 299.084C839.011 297.174 840.361 296.408 842.026 297.363Z" fill="#430B12"/>
<path d="M842.06 283.824C843.724 284.785 845.062 287.107 845.057 289.018C845.051 290.928 843.701 291.7 842.037 290.739C840.372 289.778 839.034 287.456 839.04 285.546C839.046 283.636 840.395 282.864 842.06 283.824Z" fill="#430B12"/>
<path d="M840.956 232.968C842.62 233.929 843.959 236.251 843.953 238.161C843.947 240.072 842.598 240.844 840.933 239.883C839.269 238.922 837.93 236.6 837.936 234.69C837.942 232.779 839.292 232.007 840.956 232.968Z" fill="#430B12"/>
<path d="M905.118 334.695L905.106 339.808L849.381 307.636L849.398 302.522L905.118 334.695Z" fill="#430B12"/>
<path d="M905.083 348.228L905.066 353.341L849.347 321.175L849.358 316.056L905.083 348.228Z" fill="#430B12"/>
<path d="M905.198 307.619L905.181 312.738L849.461 280.565L849.472 275.452L905.198 307.619Z" fill="#430B12"/>
<path d="M905.003 375.298L904.992 380.412L849.266 348.239L849.284 343.132L905.003 375.298Z" fill="#430B12"/>
<path d="M1024.48 376.63L1024.47 381.743L1001.98 368.754L1001.99 363.641L1024.48 376.63Z" fill="#430B12"/>
<path d="M1177.36 635.554L1177.34 640.667L1133.72 615.479L1133.73 610.371L1177.36 635.554Z" fill="#430B12"/>
<path d="M1155.24 494.166L1155.22 499.28L1123.15 480.76L1123.16 475.646L1155.24 494.166Z" fill="#430B12"/>
<path d="M1243 578.811L1242.99 583.924L1212.63 566.394L1212.64 561.28L1243 578.811Z" fill="#430B12"/>
<path d="M1212.22 485.015L1212.21 490.134L1160.11 460.055L1160.13 454.941L1212.22 485.015Z" fill="#430B12"/>
<path d="M862.536 245.425C864.2 246.386 865.538 248.708 865.533 250.618C865.527 252.529 864.177 253.301 862.513 252.34C860.848 251.379 859.51 249.057 859.516 247.147C859.522 245.236 860.871 244.464 862.536 245.425Z" fill="#430B12"/>
<path d="M905.043 361.766L905.026 366.879L849.306 334.707L849.318 329.594L905.043 361.766Z" fill="#430B12"/>
<path d="M1008.54 543.293L1008.53 548.412L976.663 530.013L976.681 524.899L1008.54 543.293Z" fill="#430B12"/>
<path d="M987.948 439.259L987.931 444.372L976.64 437.852L976.658 432.738L987.948 439.259Z" fill="#430B12"/>
<path d="M1010.08 467.222L1010.07 472.335L976.715 453.077L976.726 447.964L1010.08 467.222Z" fill="#430B12"/>
<path d="M1034.78 436.136L1034.77 441.244L1009.14 426.447L1009.15 421.334L1034.78 436.136Z" fill="#430B12"/>
<path d="M851.743 239.195C853.407 240.156 854.746 242.478 854.74 244.389C854.734 246.299 853.385 247.066 851.72 246.11C850.056 245.155 848.717 242.827 848.723 240.917C848.729 239.007 850.079 238.235 851.743 239.195Z" fill="#430B12"/>
<path d="M905.158 321.157L905.141 326.276L849.421 294.103L849.438 288.984L905.158 321.157Z" fill="#430B12"/>
<path d="M1175.58 584.079L1175.56 589.192L1138.96 568.064L1138.98 562.951L1175.58 584.079Z" fill="#430B12"/>
<path d="M953.322 404.085L957.285 409.519L953.305 409.822L953.322 404.085Z" fill="white"/>
<path d="M1073.65 596.483L1073.64 601.602L1064.54 596.346L1064.55 591.232L1073.65 596.483Z" fill="white"/>
<path d="M976.011 417.182L976 422.301L966.9 417.045L966.911 411.932L976.011 417.182Z" fill="white"/>
<path d="M1073.7 580.555L1073.68 585.668L1064.58 580.412L1064.6 575.305L1073.7 580.555Z" fill="white"/>
<path d="M1101.42 617.639L1101.4 622.747L1087.62 614.791L1087.63 609.678L1101.42 617.639Z" fill="white"/>
<path d="M1073.74 564.627L1073.73 569.74L1064.63 564.484L1064.64 559.376L1073.74 564.627Z" fill="white"/>
<path d="M1005.64 434.29L1005.63 439.409L979.289 424.201L979.306 419.082L1005.64 434.29Z" fill="white"/>
<path d="M1073.79 548.697L1073.78 553.81L1064.67 548.554L1064.69 543.44L1073.79 548.697Z" fill="white"/>
<path d="M959.865 338.144L957.24 341.621L954.346 334.958L959.865 338.144Z" fill="white"/>
<path d="M1073.83 532.768L1073.82 537.876L1064.72 532.625L1064.73 527.512L1073.83 532.768Z" fill="white"/>
<path d="M996.784 390.534L996.773 395.647L979.397 385.615L979.414 380.502L996.784 390.534Z" fill="white"/>
<path d="M1073.88 516.838L1073.86 521.946L1064.76 516.695L1064.78 511.582L1073.88 516.838Z" fill="white"/>
<path d="M1114.18 584.769L1114.17 589.883L1100.38 581.921L1100.39 576.813L1114.18 584.769Z" fill="white"/>
<path d="M1124.31 604.927L1124.3 610.04L1100.9 596.53L1100.91 591.417L1124.31 604.927Z" fill="white"/>
<path d="M1073.92 500.905L1073.91 506.024L1064.81 500.768L1064.82 495.654L1073.92 500.905Z" fill="white"/>
<path d="M1073.97 484.975L1073.95 490.094L1064.85 484.838L1064.87 479.725L1073.97 484.975Z" fill="white"/>
<path d="M1159.61 638.523L1159.59 643.63L1119.99 620.77L1120.01 615.656L1159.61 638.523Z" fill="white"/>
<path d="M1161.12 611.876L1161.11 616.989L1147.33 609.027L1147.34 603.92L1161.12 611.876Z" fill="white"/>
<path d="M1141.95 600.808L1141.93 605.915L1122.37 594.619L1122.38 589.506L1141.95 600.808Z" fill="white"/>
<path d="M1154.29 589.712L1154.27 594.825L1129.7 580.635L1129.71 575.527L1154.29 589.712Z" fill="white"/>
<path d="M1074.1 437.189L1074.09 442.302L1064.99 437.052L1065 431.933L1074.1 437.189Z" fill="white"/>
<path d="M1142.11 546.009L1142.09 551.123L1127.53 542.715L1127.54 537.602L1142.11 546.009Z" fill="white"/>
<path d="M1074.15 421.26L1074.14 426.368L1065.04 421.117L1065.05 416.004L1074.15 421.26Z" fill="white"/>
<path d="M1192.71 611.892L1192.69 617.005L1160.81 598.6L1160.83 593.486L1192.71 611.892Z" fill="white"/>
<path d="M1074.19 405.325L1074.18 410.444L1065.08 405.187L1065.09 400.074L1074.19 405.325Z" fill="white"/>
<path d="M1234.85 668.75L1234.84 673.864L1182.42 643.596L1182.44 638.488L1234.85 668.75Z" fill="white"/>
<path d="M1180.87 568.39L1180.86 573.503L1149.16 555.206L1149.18 550.093L1180.87 568.39Z" fill="white"/>
<path d="M1099.69 420.048L1099.67 425.161L1087.08 417.892L1087.1 412.778L1099.69 420.048Z" fill="white"/>
<path d="M1116.83 445.121L1116.81 450.229L1100.98 441.083L1100.99 435.976L1116.83 445.121Z" fill="white"/>
<path d="M1138.33 472.25L1138.31 477.364L1111.08 461.641L1111.1 456.527L1138.33 472.25Z" fill="white"/>
<path d="M1166.31 517.851L1166.29 522.959L1144.26 510.244L1144.28 505.131L1166.31 517.851Z" fill="white"/>
<path d="M1171.76 537.675L1171.75 542.789L1138.1 523.365L1138.11 518.246L1171.76 537.675Z" fill="white"/>
<path d="M1233.77 617.674L1233.75 622.788L1183.29 593.652L1183.3 588.539L1233.77 617.674Z" fill="white"/>
<path d="M1135.04 440.454L1135.03 445.567L1106 428.814L1106.02 423.695L1135.04 440.454Z" fill="white"/>
<path d="M1206.16 557.539L1206.15 562.652L1180.19 547.661L1180.2 542.548L1206.16 557.539Z" fill="white"/>
<path d="M1230.87 597.255L1230.86 602.368L1217.07 594.412L1217.09 589.299L1230.87 597.255Z" fill="white"/>
<path d="M1198.59 536.492L1198.58 541.6L1172.64 526.626L1172.65 521.519L1198.59 536.492Z" fill="white"/>
<path d="M1156.74 452.985L1156.73 458.104L1140.89 448.953L1140.91 443.84L1156.74 452.985Z" fill="white"/>
<path d="M1191.64 503.033L1191.63 508.146L1143.03 480.092L1143.04 474.973L1191.64 503.033Z" fill="white"/>
<path d="M1219.17 548.372L1219.16 553.485L1206.19 545.998L1206.21 540.885L1219.17 548.372Z" fill="white"/>
<path d="M1206.26 523.622L1206.24 528.736L1179.69 513.407L1179.71 508.294L1206.26 523.622Z" fill="white"/>
<path d="M1237.47 558.941L1237.46 564.049L1224.49 556.562L1224.51 551.454L1237.47 558.941Z" fill="white"/>
<path d="M1212.14 514.866L1212.12 519.979L1197.14 511.331L1197.15 506.212L1212.14 514.866Z" fill="white"/>
<path d="M957.64 483.191L957.623 488.31L948.523 483.054L948.54 477.94L957.64 483.191Z" fill="white"/>
<path d="M1025.32 568.578L1025.3 573.691L995.526 556.504L995.543 551.385L1025.32 568.578Z" fill="white"/>
<path d="M986.993 500.139L986.975 505.258L962.267 490.987L962.278 485.874L986.993 500.139Z" fill="white"/>
<path d="M1024.16 552.312L1024.15 557.425L1011.27 549.99L1011.28 544.871L1024.16 552.312Z" fill="white"/>
<path d="M987.816 485.507L987.799 490.621L976.835 484.289L976.852 479.176L987.816 485.507Z" fill="white"/>
<path d="M1017.1 532.631L1017.09 537.75L1004.2 530.309L1004.22 525.195L1017.1 532.631Z" fill="white"/>
<path d="M1001.78 523.789L1001.77 528.902L988.88 521.461L988.897 516.348L1001.78 523.789Z" fill="white"/>
<path d="M1016.76 502.22L1016.74 507.327L992.032 493.063L992.049 487.955L1016.76 502.22Z" fill="white"/>
<path d="M1002.28 447.536L1002.26 452.643L990.973 446.129L990.991 441.016L1002.28 447.536Z" fill="white"/>
<path d="M1016.89 455.967L1016.87 461.08L1005.59 454.565L1005.6 449.452L1016.89 455.967Z" fill="white"/>
<path d="M1005.68 419.338L1005.67 424.446L980.044 409.65L980.055 404.542L1005.68 419.338Z" fill="white"/>
<path d="M1019.26 442.154L1019.25 447.273L1010.15 442.017L1010.16 436.903L1019.26 442.154Z" fill="white"/>
<path d="M1013.12 412.114L1013.11 417.227L980.078 398.158L980.089 393.045L1013.12 412.114Z" fill="white"/>
<path d="M1013.15 399.983L1013.14 405.096L1000.26 397.655L1000.27 392.542L1013.15 399.983Z" fill="white"/>
<path d="M1005.79 381.013L1005.78 386.126L979.437 370.918L979.454 365.805L1005.79 381.013Z" fill="white"/>
<path d="M997.9 361.28L997.883 366.393L967.094 348.617L967.106 343.498L997.9 361.28Z" fill="white"/>
<path d="M1028.47 408.826L1028.46 413.939L1015.57 406.504L1015.59 401.391L1028.47 408.826Z" fill="white"/>
<path d="M1027.35 393.458L1027.34 398.571L1008.98 387.973L1009 382.865L1027.35 393.458Z" fill="white"/>
<path d="M1002.19 478.856L1002.17 483.963L976.669 469.235L976.681 464.128L1002.19 478.856Z" fill="white"/>
<path d="M1027.07 493.217L1027.05 498.324L1005.12 485.667L1005.14 480.554L1027.07 493.217Z" fill="white"/>
<path d="M958.795 499.715L953.636 496.735L955.129 500.31L956.204 502.878L958.795 499.715Z" fill="white"/>
<path d="M989.944 548.153L989.927 553.272L977.046 545.831L977.058 540.718L989.944 548.153Z" fill="white"/>
<path d="M985.414 514.334L985.397 519.453L968.021 509.421L968.038 504.308L985.414 514.334Z" fill="white"/>
<path d="M1074.02 469.046L1074 474.16L1064.9 468.903L1064.91 463.796L1074.02 469.046Z" fill="white"/>
<path d="M1074.06 453.119L1074.04 458.232L1064.94 452.976L1064.96 447.862L1074.06 453.119Z" fill="white"/>
<path d="M1221.84 674.452L1221.83 679.566L1165.45 647.016L1165.47 641.908L1221.84 674.452Z" fill="white"/>
<path d="M1131.96 514.7L1131.95 519.813L1110.95 507.687L1110.96 502.574L1131.96 514.7Z" fill="white"/>
<path d="M1138.24 501.648L1138.23 506.756L1100.65 485.067L1100.67 479.954L1138.24 501.648Z" fill="white"/>
<path d="M1211.94 586.326L1211.92 591.439L1187.35 577.255L1187.36 572.136L1211.94 586.326Z" fill="white"/>
<path d="M1172.71 504.251L1172.69 509.364L1159.99 502.031L1160.01 496.924L1172.71 504.251Z" fill="white"/>
<path d="M1244.43 545.665L1244.42 550.772L1210.31 531.08L1210.32 525.967L1244.43 545.665Z" fill="white"/>
</g>
<path d="M509.113 306.516L511.085 351.17L532.151 377.986L552.035 366.053L534.04 333.343C533.607 332.555 533.379 331.667 533.379 330.765V304.473C533.379 302.609 534.346 300.883 535.925 299.926L552.642 289.789L542.935 267.846L520.035 265.892C518.583 265.769 517.248 265.039 516.35 263.879L501.617 244.848C501.063 244.132 500.699 243.282 500.563 242.383L496.07 212.758L477.112 202.017L456.658 213.906L471.803 243.601L477.11 262.935L495.766 277.666L509.112 306.513L509.113 306.516Z" fill="white" stroke="#430B12" stroke-width="3.67985" stroke-linecap="round" stroke-linejoin="round"/>
<path d="M474.941 389.411L494.907 377.577L497.794 358.56L474.941 359.443V389.411Z" fill="white" stroke="#430B12" stroke-width="3.67985" stroke-linecap="round" stroke-linejoin="round"/>
<path d="M522.932 389.412L542.806 377.433L552.642 365.416L532.494 377.876L522.932 389.412Z" fill="white" stroke="#430B12" stroke-width="3.67985" stroke-linecap="round" stroke-linejoin="round"/>
<path d="M457.098 264.187V289.196C457.098 290.39 457.503 291.548 458.247 292.486L484.341 325.332C485.503 326.795 487.351 327.547 489.214 327.316L493.891 326.735L500.079 327.688L493.891 345.99L474.749 344.805L454.413 344.361L431.572 305.087L430.377 275.78L433.363 260.523L452.323 258.006L457.096 264.186L457.098 264.187Z" fill="white" stroke="#430B12" stroke-width="3.67985" stroke-linecap="round" stroke-linejoin="round"/>
<path d="M409.809 213.892L430.21 202.017L453.793 228.8L457.801 235.53L452.899 246.58L429.302 245.659C429.302 245.659 416.233 226.873 416.051 226.137C415.869 225.4 409.809 213.892 409.809 213.892Z" fill="white" stroke="#430B12" stroke-width="3.67985" stroke-linecap="round" stroke-linejoin="round"/>
<path d="M516.067 311.139L532.074 301.291L522.606 279.637L499.953 277.794C498.281 277.658 496.74 276.839 495.685 275.528L480.549 256.697C479.856 255.834 479.407 254.8 479.251 253.702L474.995 223.995L455.787 213.442L452.122 234.225C451.634 236.996 449.341 239.081 446.552 239.292L436.124 240.08C434.26 240.221 432.435 239.498 431.166 238.117L408.516 213.442L399.526 224.406L417.405 256.441C417.919 257.362 418.189 258.4 418.189 259.457V285.885C418.189 287.972 417.139 289.916 415.401 291.051L399.526 301.427L408.925 322.943L430.972 324.781C432.638 324.92 434.176 325.738 435.227 327.046L450.379 345.897C451.065 346.751 451.511 347.772 451.673 348.858L455.921 377.351L474.856 388.864L478.861 368.381C479.393 365.665 481.66 363.637 484.403 363.428L494.662 362.639C496.522 362.496 498.345 363.214 499.615 364.588L522.535 389.411L532.071 378.311L513.944 346.43C513.414 345.498 513.136 344.443 513.136 343.371V316.392C513.136 314.247 514.245 312.256 516.064 311.137L516.067 311.139ZM490.075 337.24L468.009 339.429C466.63 339.566 465.275 338.992 464.408 337.904L437.812 304.546C437.228 303.814 436.91 302.904 436.91 301.964V269.577C436.91 267.425 438.557 265.634 440.69 265.465L463.616 263.653C464.98 263.545 466.307 264.128 467.154 265.208L492.889 297.973C493.461 298.701 493.771 299.602 493.771 300.53V333.134C493.771 335.256 492.172 337.032 490.073 337.239L490.075 337.24Z" fill="#EF223A" stroke="#430B12" stroke-width="3.67985" stroke-linecap="round" stroke-linejoin="round"/>
<path d="M532.254 301.426L552.642 289.609L542.984 267.146L522.932 279.367L532.254 301.426Z" fill="white" stroke="#430B12" stroke-width="3.67985" stroke-linecap="round" stroke-linejoin="round"/>
<path d="M474.941 224.869L495.509 213.442" stroke="#430B12" stroke-width="3.67985" stroke-linecap="round" stroke-linejoin="round"/>
<path d="M1444.28 175.129C1444.28 175.129 1444.28 175.089 1444.29 175.069C1444.32 174.924 1444.35 174.788 1444.39 174.656C1444.4 174.632 1444.41 174.608 1444.42 174.584C1444.46 174.455 1444.5 174.335 1444.56 174.219C1444.56 174.211 1444.57 174.203 1444.57 174.191C1444.63 174.062 1444.69 173.942 1444.76 173.83C1444.78 173.81 1444.79 173.794 1444.8 173.778C1444.86 173.69 1444.92 173.609 1444.98 173.533C1445.01 173.505 1445.03 173.477 1445.06 173.449C1445.12 173.385 1445.18 173.325 1445.24 173.269C1445.27 173.245 1445.29 173.22 1445.32 173.2C1445.41 173.128 1445.5 173.06 1445.6 173L1431.81 181.21C1431.72 181.271 1431.62 181.339 1431.53 181.411C1431.51 181.435 1431.48 181.459 1431.46 181.479C1431.39 181.535 1431.33 181.595 1431.28 181.659C1431.25 181.688 1431.22 181.716 1431.2 181.744C1431.14 181.82 1431.08 181.904 1431.02 181.988C1431.01 182.004 1430.99 182.02 1430.98 182.04C1430.98 182.044 1430.97 182.048 1430.97 182.052C1430.91 182.161 1430.85 182.273 1430.79 182.393C1430.79 182.393 1430.79 182.397 1430.79 182.401C1430.79 182.409 1430.78 182.417 1430.78 182.429C1430.74 182.509 1430.71 182.59 1430.68 182.678C1430.67 182.714 1430.65 182.754 1430.64 182.794C1430.63 182.818 1430.62 182.842 1430.61 182.866C1430.61 182.89 1430.6 182.914 1430.59 182.938C1430.57 183.019 1430.55 183.103 1430.53 183.191C1430.52 183.219 1430.52 183.251 1430.51 183.279C1430.51 183.299 1430.5 183.319 1430.5 183.339C1430.49 183.371 1430.49 183.403 1430.48 183.435C1430.47 183.512 1430.46 183.592 1430.45 183.672C1430.44 183.716 1430.44 183.76 1430.43 183.804C1430.43 183.82 1430.43 183.836 1430.43 183.852C1430.43 183.872 1430.43 183.892 1430.42 183.913C1430.41 183.989 1430.41 184.065 1430.41 184.145C1430.41 184.221 1430.4 184.301 1430.4 184.382C1430.4 184.386 1430.4 184.39 1430.4 184.398L1430.18 264.353L1443.96 256.143L1444.19 176.187C1444.19 175.999 1444.19 175.818 1444.21 175.646C1444.21 175.63 1444.21 175.614 1444.22 175.598C1444.23 175.437 1444.26 175.285 1444.28 175.137L1444.28 175.129Z" fill="white" stroke="#430B12" stroke-width="3.67985" stroke-miterlimit="10"/>
<path d="M1449.11 150.498L1424.79 164.706L1411 172.912L1435.33 158.704L1449.11 150.498Z" fill="white" stroke="#430B12" stroke-width="3.67985" stroke-miterlimit="10"/>
<path d="M1502.04 330.554L1492.34 324.813L1443.96 256.139L1430.18 264.349L1478.56 333.023L1488.25 338.764L1536.85 327.479L1550.64 319.269L1502.04 330.554Z" fill="white" stroke="#430B12" stroke-width="3.67985" stroke-miterlimit="10"/>
<path d="M1481.75 256.877C1481.69 256.913 1481.62 256.942 1481.56 256.962C1481.51 256.982 1481.45 256.998 1481.39 257.01C1481.38 257.01 1481.38 257.01 1481.37 257.01C1481.32 257.018 1481.26 257.026 1481.21 257.026C1481.2 257.026 1481.19 257.026 1481.18 257.026C1481.13 257.026 1481.07 257.026 1481.01 257.018C1481 257.018 1480.99 257.018 1480.99 257.018C1480.93 257.01 1480.87 257.002 1480.81 256.986C1480.8 256.986 1480.79 256.986 1480.79 256.986C1480.73 256.97 1480.66 256.95 1480.6 256.926C1480.6 256.926 1480.59 256.926 1480.59 256.926C1480.52 256.901 1480.46 256.873 1480.4 256.845C1480.39 256.845 1480.38 256.841 1480.38 256.837C1480.31 256.805 1480.25 256.773 1480.18 256.733C1480.11 256.693 1480.04 256.645 1479.97 256.597C1479.97 256.597 1479.97 256.597 1479.96 256.593C1479.9 256.545 1479.83 256.497 1479.76 256.44C1479.75 256.436 1479.75 256.432 1479.74 256.424C1479.68 256.372 1479.62 256.316 1479.55 256.26C1479.55 256.252 1479.54 256.248 1479.54 256.24C1479.47 256.184 1479.41 256.124 1479.36 256.06C1479.35 256.052 1479.34 256.048 1479.34 256.04C1479.28 255.975 1479.22 255.911 1479.16 255.847C1479.16 255.839 1479.15 255.831 1479.14 255.823C1479.09 255.759 1479.03 255.691 1478.98 255.619C1478.98 255.607 1478.97 255.595 1478.96 255.587C1478.91 255.526 1478.87 255.462 1478.83 255.398C1478.82 255.382 1478.8 255.366 1478.79 255.35C1478.77 255.322 1478.76 255.294 1478.74 255.266C1478.7 255.202 1478.66 255.138 1478.62 255.073C1478.57 254.997 1478.53 254.917 1478.49 254.837C1478.49 254.837 1478.49 254.829 1478.49 254.825C1478.44 254.741 1478.4 254.652 1478.36 254.564C1478.36 254.556 1478.35 254.552 1478.35 254.544C1478.31 254.456 1478.28 254.364 1478.24 254.276C1478.24 254.276 1478.24 254.272 1478.24 254.268C1478.21 254.175 1478.17 254.087 1478.15 253.995C1478.15 253.987 1478.14 253.983 1478.14 253.975C1478.11 253.883 1478.08 253.79 1478.06 253.698C1478.06 253.694 1478.06 253.686 1478.06 253.682C1478.05 253.59 1478.03 253.502 1478.01 253.41C1478.01 253.406 1478.01 253.398 1478.01 253.394C1477.99 253.301 1477.98 253.209 1477.97 253.117C1477.97 253.109 1477.97 253.105 1477.97 253.097C1477.97 253.005 1477.96 252.908 1477.96 252.816L1478.03 230.542L1458.63 219.064L1444.84 227.275L1464.24 238.753L1464.18 261.027C1464.18 261.063 1464.18 261.099 1464.18 261.135C1464.18 261.171 1464.18 261.211 1464.18 261.247C1464.18 261.267 1464.18 261.287 1464.19 261.307C1464.19 261.315 1464.19 261.319 1464.19 261.327C1464.19 261.339 1464.19 261.347 1464.19 261.359C1464.19 261.396 1464.2 261.436 1464.2 261.472C1464.2 261.508 1464.21 261.548 1464.22 261.584C1464.22 261.592 1464.22 261.6 1464.22 261.604C1464.22 261.608 1464.22 261.616 1464.22 261.62C1464.22 261.644 1464.22 261.672 1464.23 261.696C1464.23 261.736 1464.24 261.772 1464.25 261.813C1464.26 261.841 1464.26 261.869 1464.27 261.897C1464.27 261.901 1464.27 261.909 1464.27 261.913C1464.27 261.917 1464.27 261.925 1464.27 261.929C1464.28 261.969 1464.29 262.005 1464.31 262.045C1464.32 262.085 1464.32 262.121 1464.34 262.161C1464.34 262.169 1464.34 262.181 1464.34 262.189C1464.34 262.197 1464.34 262.201 1464.35 262.209C1464.36 262.233 1464.36 262.253 1464.37 262.278C1464.38 262.314 1464.39 262.35 1464.41 262.39C1464.42 262.422 1464.43 262.454 1464.44 262.486C1464.44 262.486 1464.44 262.486 1464.44 262.49C1464.44 262.49 1464.44 262.49 1464.44 262.494C1464.45 262.53 1464.47 262.566 1464.49 262.598C1464.5 262.634 1464.51 262.67 1464.53 262.703C1464.54 262.723 1464.54 262.739 1464.55 262.759C1464.55 262.767 1464.56 262.771 1464.56 262.779C1464.56 262.791 1464.57 262.803 1464.57 262.811C1464.59 262.851 1464.61 262.887 1464.63 262.927C1464.65 262.963 1464.67 263.003 1464.69 263.039C1464.69 263.039 1464.69 263.047 1464.69 263.047C1464.69 263.047 1464.69 263.051 1464.69 263.055C1464.73 263.123 1464.77 263.192 1464.8 263.26C1464.81 263.268 1464.81 263.276 1464.82 263.284C1464.86 263.348 1464.9 263.412 1464.93 263.472C1464.95 263.496 1464.97 263.52 1464.98 263.544C1464.98 263.548 1464.99 263.552 1464.99 263.556C1465 263.572 1465.01 263.588 1465.02 263.605C1465.05 263.649 1465.08 263.693 1465.11 263.737C1465.13 263.757 1465.14 263.773 1465.16 263.793C1465.17 263.805 1465.17 263.813 1465.18 263.825C1465.19 263.837 1465.2 263.849 1465.21 263.861C1465.24 263.901 1465.27 263.937 1465.3 263.973C1465.31 263.993 1465.33 264.009 1465.34 264.025C1465.35 264.033 1465.35 264.042 1465.36 264.05C1465.37 264.058 1465.38 264.07 1465.38 264.078C1465.42 264.114 1465.44 264.146 1465.47 264.182C1465.49 264.202 1465.51 264.222 1465.53 264.246C1465.54 264.254 1465.54 264.258 1465.55 264.266C1465.56 264.274 1465.56 264.278 1465.57 264.286C1465.6 264.318 1465.63 264.354 1465.67 264.386C1465.69 264.406 1465.71 264.426 1465.73 264.45C1465.74 264.454 1465.74 264.462 1465.75 264.466C1465.76 264.47 1465.76 264.478 1465.77 264.483C1465.8 264.515 1465.83 264.543 1465.87 264.575C1465.89 264.595 1465.92 264.615 1465.94 264.631C1465.94 264.635 1465.95 264.639 1465.96 264.647C1465.96 264.647 1465.96 264.655 1465.97 264.659C1466 264.687 1466.04 264.711 1466.07 264.735C1466.1 264.755 1466.13 264.779 1466.16 264.799C1466.16 264.799 1466.16 264.799 1466.16 264.803C1466.16 264.803 1466.16 264.803 1466.17 264.803C1466.2 264.823 1466.23 264.847 1466.26 264.867C1466.29 264.887 1466.32 264.907 1466.35 264.923C1466.36 264.927 1466.37 264.932 1466.37 264.936C1466.39 264.948 1466.42 264.964 1466.44 264.976C1466.47 264.992 1466.5 265.008 1466.53 265.024C1466.54 265.032 1466.55 265.036 1466.57 265.044C1466.57 265.044 1466.58 265.048 1466.59 265.052C1466.6 265.056 1466.6 265.064 1466.62 265.068C1466.64 265.08 1466.68 265.092 1466.7 265.104C1466.73 265.116 1466.75 265.124 1466.78 265.132C1466.78 265.132 1466.78 265.132 1466.78 265.132C1466.78 265.132 1466.78 265.132 1466.79 265.132C1466.82 265.144 1466.85 265.152 1466.87 265.16C1466.9 265.168 1466.93 265.176 1466.96 265.184C1466.96 265.184 1466.97 265.184 1466.98 265.184C1466.98 265.184 1466.99 265.184 1466.99 265.184C1467.01 265.188 1467.03 265.192 1467.05 265.196C1467.08 265.204 1467.11 265.208 1467.14 265.212C1467.15 265.212 1467.16 265.212 1467.17 265.212C1467.18 265.212 1467.19 265.212 1467.2 265.212C1467.21 265.212 1467.23 265.212 1467.24 265.216C1467.28 265.216 1467.31 265.216 1467.34 265.216C1467.35 265.216 1467.36 265.216 1467.37 265.216C1467.38 265.216 1467.39 265.216 1467.4 265.216C1467.42 265.216 1467.44 265.216 1467.46 265.216C1467.49 265.216 1467.52 265.208 1467.56 265.2C1467.56 265.2 1467.57 265.2 1467.57 265.2C1467.57 265.2 1467.58 265.2 1467.58 265.2C1467.64 265.188 1467.69 265.176 1467.74 265.156C1467.74 265.156 1467.74 265.156 1467.75 265.156C1467.81 265.132 1467.87 265.104 1467.93 265.072L1507.92 241.715L1521.7 233.505L1481.71 256.861L1481.75 256.877Z" fill="white" stroke="#430B12" stroke-width="3.67985" stroke-miterlimit="10"/>
<path d="M1507.95 241.732L1522.45 267.474L1483.53 290.209L1444.74 267.253L1444.85 227.275L1464.25 238.753L1464.18 261.027C1464.18 262.575 1465.27 264.271 1466.41 264.944C1466.95 265.265 1467.5 265.357 1467.96 265.088L1507.95 241.732Z" fill="#EF223A" stroke="#430B12" stroke-width="3.67985" stroke-miterlimit="10"/>
<path d="M1507.95 241.731L1521.73 233.521L1536.23 259.262L1522.45 267.469L1507.95 241.731Z" fill="white" stroke="#430B12" stroke-width="3.67985" stroke-miterlimit="10"/>
<path d="M1546.09 207.887L1449.11 150.498L1435.33 158.704L1532.3 216.097L1556.47 259.002L1556.22 350.383L1570 342.173L1570.25 250.791L1546.09 207.887Z" fill="white" stroke="#430B12" stroke-width="3.67985" stroke-miterlimit="10"/>
<path d="M1532.3 216.098L1556.47 259.002L1556.22 350.384L1493.04 364.479L1473.64 353.002L1410.75 264.294L1411 172.913L1435.33 158.705L1532.3 216.098ZM1536.85 327.48L1537.08 247.525C1537.08 244.382 1534.91 240.521 1532.24 238.941L1435.26 181.552C1432.6 179.973 1430.41 181.252 1430.4 184.395L1430.18 264.35L1478.56 333.025L1488.26 338.766L1536.86 327.48" fill="#EF223A"/>
<path d="M1536.85 327.48L1537.08 247.525C1537.08 244.382 1534.91 240.521 1532.24 238.941L1435.26 181.552C1432.6 179.973 1430.41 181.252 1430.4 184.395L1430.18 264.35L1478.56 333.025L1488.26 338.766L1536.86 327.48M1532.3 216.098L1556.47 259.002L1556.22 350.384L1493.04 364.479L1473.64 353.002L1410.75 264.294L1411 172.913L1435.33 158.705L1532.3 216.098Z" stroke="#430B12" stroke-width="3.67985" stroke-miterlimit="10"/>
<path d="M1681.88 491.816L1712.51 474.012L1712.19 585.482L1681.55 603.287L1681.88 491.816Z" fill="white" stroke="#430B12" stroke-width="3.67985" stroke-linecap="round" stroke-linejoin="round"/>
<path d="M1712.58 565.374L1712.43 621.057L1694.79 610.868L1694.94 555.185L1712.58 565.374Z" fill="#EF223A" stroke="#430B12" stroke-width="3.67985" stroke-linecap="round" stroke-linejoin="round"/>
<path d="M1725.58 537.38L1694.94 555.185L1712.58 565.374L1712.42 621.057L1743.06 603.252L1743.22 547.569L1725.58 537.38Z" fill="white" stroke="#430B12" stroke-width="3.67985" stroke-linecap="round" stroke-linejoin="round"/>
<path d="M1743.37 608.676L1743.29 638.817L1725.65 628.637L1725.74 598.496L1743.37 608.676Z" fill="#EF223A" stroke="#430B12" stroke-width="3.67985" stroke-linecap="round" stroke-linejoin="round"/>
<path d="M1756.37 580.691L1725.74 598.496L1743.37 608.676L1743.29 638.817L1773.92 621.013L1774.01 590.872L1756.37 580.691Z" fill="white" stroke="#430B12" stroke-width="3.67985" stroke-linecap="round" stroke-linejoin="round"/>
<path d="M1725.88 547.681L1756.52 529.877L1760.94 527.347L1730.3 545.151L1725.88 547.681Z" fill="#430B12"/>
<path d="M1787.26 588.221L1756.62 606.025L1774.27 616.206L1774.15 656.744L1804.79 638.94L1804.9 598.41L1787.26 588.221Z" fill="white" stroke="#430B12" stroke-width="3.67985" stroke-linecap="round" stroke-linejoin="round"/>
<path d="M1774.27 616.214L1774.15 656.744L1756.51 646.555L1756.62 606.025L1774.27 616.214Z" fill="#EF223A" stroke="#430B12" stroke-width="3.67985" stroke-linecap="round" stroke-linejoin="round"/>
<path d="M1769.76 532.441L1760.94 527.347L1730.3 545.151L1739.12 550.246L1743.51 557.862L1743.49 567.99L1743.42 593.323L1774.05 575.518L1774.12 550.185L1774.15 540.057L1769.76 532.441Z" fill="white" stroke="#430B12" stroke-width="3.67985" stroke-linecap="round" stroke-linejoin="round"/>
<path d="M1739.12 550.247L1743.51 557.863L1743.49 567.991L1743.42 593.324L1725.78 583.144L1725.88 547.682L1730.3 545.152L1739.12 550.247Z" fill="#EF223A" stroke="#430B12" stroke-width="3.67985" stroke-linecap="round" stroke-linejoin="round"/>
<path d="M1743.68 505.239C1743.68 505.239 1743.68 505.239 1743.68 505.23C1743.77 505.039 1743.89 504.874 1744.01 504.718C1744.05 504.665 1744.09 504.613 1744.13 504.561C1744.28 504.405 1744.44 504.265 1744.62 504.161L1713.98 521.966C1713.8 522.07 1713.64 522.209 1713.49 522.366C1713.45 522.409 1713.42 522.47 1713.37 522.522C1713.32 522.592 1713.26 522.644 1713.21 522.722C1713.15 522.818 1713.09 522.922 1713.04 523.026C1713.04 523.026 1713.04 523.026 1713.04 523.035C1713.04 523.035 1713.04 523.035 1713.04 523.044C1713.01 523.122 1712.97 523.192 1712.95 523.279C1712.92 523.357 1712.89 523.426 1712.87 523.513C1712.85 523.583 1712.82 523.661 1712.81 523.739C1712.81 523.765 1712.8 523.8 1712.79 523.826C1712.79 523.835 1712.79 523.844 1712.79 523.852C1712.79 523.887 1712.77 523.913 1712.77 523.948C1712.76 524.018 1712.75 524.087 1712.74 524.157C1712.74 524.226 1712.72 524.296 1712.71 524.365C1712.71 524.435 1712.7 524.504 1712.7 524.574C1712.7 524.643 1712.7 524.713 1712.7 524.783C1712.7 524.783 1712.7 524.783 1712.7 524.791L1712.63 550.168L1743.27 532.363L1743.34 506.987C1743.34 506.648 1743.37 506.326 1743.43 506.039C1743.43 506.03 1743.43 506.022 1743.43 506.013C1743.49 505.726 1743.57 505.465 1743.68 505.23V505.239Z" fill="white"/>
<path d="M1743.68 505.23C1743.68 505.239 1743.68 505.239 1743.68 505.239V505.23ZM1743.68 505.23C1743.77 505.039 1743.89 504.874 1744.01 504.718C1744.05 504.665 1744.09 504.613 1744.13 504.561C1744.28 504.405 1744.44 504.265 1744.62 504.161L1713.98 521.966C1713.8 522.07 1713.64 522.209 1713.49 522.366C1713.45 522.409 1713.42 522.47 1713.37 522.522C1713.32 522.592 1713.26 522.644 1713.21 522.722C1713.15 522.818 1713.09 522.922 1713.04 523.026C1713.04 523.026 1713.04 523.026 1713.04 523.035C1713.04 523.035 1713.04 523.035 1713.04 523.044C1713.01 523.122 1712.97 523.192 1712.95 523.279C1712.92 523.357 1712.89 523.426 1712.87 523.513C1712.85 523.583 1712.82 523.661 1712.81 523.739C1712.81 523.765 1712.8 523.8 1712.79 523.826C1712.79 523.835 1712.79 523.844 1712.79 523.852C1712.79 523.887 1712.77 523.913 1712.77 523.948C1712.76 524.018 1712.75 524.087 1712.74 524.157C1712.74 524.226 1712.72 524.296 1712.71 524.365C1712.71 524.435 1712.7 524.504 1712.7 524.574C1712.7 524.643 1712.7 524.713 1712.7 524.783C1712.7 524.783 1712.7 524.783 1712.7 524.791L1712.63 550.168L1743.27 532.363L1743.34 506.987C1743.34 506.648 1743.37 506.326 1743.43 506.039C1743.43 506.03 1743.43 506.022 1743.43 506.013C1743.49 505.726 1743.57 505.465 1743.68 505.23Z" stroke="#430B12" stroke-width="3.67985" stroke-linecap="round" stroke-linejoin="round"/>
<path d="M1664.27 471.508L1694.91 453.703L1725.87 436.055L1695.23 453.859L1664.27 471.508Z" fill="#430B12"/>
<path d="M1752.45 522.374L1774.43 560.435L1774.32 600.913L1756.68 590.733L1756.79 550.255C1756.79 547.464 1754.82 544.039 1752.4 542.639L1717.13 522.27C1714.7 520.87 1712.71 522.009 1712.7 524.8L1712.63 550.177L1694.99 539.996L1695.06 514.62L1717.18 502.014L1752.45 522.383V522.374Z" fill="#EF223A" stroke="#430B12" stroke-width="3.67985" stroke-linecap="round" stroke-linejoin="round"/>
<path d="M1783.09 504.569L1747.82 484.2L1717.18 502.005L1752.45 522.374L1774.43 560.435L1774.32 600.904L1804.94 583.108L1805.06 542.63L1783.09 504.569Z" fill="white" stroke="#430B12" stroke-width="3.67985" stroke-linecap="round" stroke-linejoin="round"/>
<path d="M1725.87 436.055L1695.23 453.859L1726.1 471.681L1726.04 491.946L1756.68 474.142L1756.74 453.877L1725.87 436.055Z" fill="white" stroke="#430B12" stroke-width="3.67985" stroke-linecap="round" stroke-linejoin="round"/>
<path d="M1726.1 471.681L1726.04 491.946L1703.99 479.219L1681.88 491.816L1681.55 603.286L1663.92 593.097L1664.27 471.508L1695.23 453.859L1726.1 471.681Z" fill="#EF223A" stroke="#430B12" stroke-width="3.67985" stroke-linecap="round" stroke-linejoin="round"/>
<path d="M1805.23 481.88L1774.37 464.058L1743.73 481.862L1774.6 499.684L1805.36 552.968L1805.01 674.558L1835.65 656.753L1836 535.163L1805.23 481.88Z" fill="white" stroke="#430B12" stroke-width="3.67985" stroke-linecap="round" stroke-linejoin="round"/>
<path d="M1774.6 499.684L1805.36 552.968L1805.01 674.558L1787.38 664.377L1787.69 552.916L1765.72 514.864L1743.67 502.127L1743.73 481.862L1774.6 499.684Z" fill="#EF223A" stroke="#430B12" stroke-width="3.67985" stroke-linecap="round" stroke-linejoin="round"/>
<path d="M432.722 641.948C432.755 641.842 432.795 641.74 432.832 641.639C432.852 641.59 432.873 641.537 432.897 641.488C432.926 641.423 432.958 641.358 432.991 641.293C433.035 641.199 433.088 641.11 433.141 641.024C433.174 640.971 433.206 640.918 433.239 640.866C433.288 640.792 433.341 640.723 433.394 640.654C433.43 640.605 433.467 640.552 433.507 640.508C433.564 640.438 433.63 640.373 433.691 640.308C433.731 640.267 433.768 640.223 433.813 640.182C433.886 640.113 433.959 640.052 434.036 639.991C434.073 639.962 434.11 639.93 434.146 639.901C434.264 639.816 434.382 639.734 434.508 639.661L419.428 648.426C419.302 648.499 419.18 648.581 419.066 648.666C419.03 648.695 418.993 648.727 418.956 648.76C418.879 648.821 418.806 648.882 418.733 648.951C418.692 648.992 418.651 649.032 418.61 649.077C418.549 649.142 418.488 649.207 418.427 649.276C418.387 649.325 418.35 649.374 418.313 649.423C418.261 649.492 418.208 649.561 418.159 649.635C418.147 649.655 418.126 649.675 418.114 649.696C418.094 649.724 418.081 649.761 418.061 649.793C418.008 649.879 417.959 649.968 417.911 650.062C417.894 650.094 417.874 650.119 417.862 650.151C417.845 650.184 417.833 650.225 417.817 650.257C417.797 650.306 417.772 650.355 417.752 650.408C417.74 650.44 417.723 650.473 417.711 650.505C417.687 650.574 417.662 650.648 417.642 650.717C417.634 650.737 417.626 650.762 417.622 650.782C417.622 650.79 417.618 650.798 417.614 650.806C417.589 650.896 417.565 650.985 417.544 651.079C417.532 651.128 417.524 651.177 417.512 651.226L411.823 675.372L426.903 666.607L432.592 642.461C432.62 642.306 432.661 642.16 432.702 642.013C432.71 641.993 432.718 641.968 432.722 641.948Z" fill="white" stroke="#430B12" stroke-width="3.67985" stroke-linecap="round" stroke-linejoin="round"/>
<path d="M399.49 613.758L414.57 604.993C414.456 605.058 414.338 605.119 414.216 605.172C414.175 605.188 414.134 605.204 414.098 605.221C414.02 605.253 413.943 605.282 413.862 605.31C413.719 605.359 413.573 605.4 413.422 605.428C413.41 605.428 413.394 605.436 413.382 605.44C413.337 605.448 413.288 605.452 413.239 605.461C413.146 605.477 413.048 605.493 412.95 605.501C412.926 605.501 412.906 605.501 412.881 605.501C412.767 605.509 412.653 605.514 412.535 605.514C412.503 605.514 412.466 605.514 412.433 605.514C412.307 605.509 412.185 605.501 412.055 605.485C412.047 605.485 412.039 605.485 412.031 605.485C411.888 605.465 411.746 605.44 411.603 605.408C411.587 605.408 411.575 605.4 411.559 605.4C411.408 605.363 411.258 605.318 411.107 605.265L387.258 597.953L372.178 606.718L396.027 614.03C396.092 614.055 396.157 614.075 396.222 614.095C396.295 614.116 396.369 614.136 396.442 614.156C396.454 614.156 396.466 614.16 396.479 614.164C396.495 614.164 396.507 614.173 396.523 614.177C396.576 614.189 396.629 614.201 396.682 614.213C396.767 614.23 396.857 614.246 396.942 614.254C396.942 614.254 396.951 614.254 396.955 614.254C396.963 614.254 396.971 614.254 396.979 614.254C397.06 614.266 397.142 614.274 397.223 614.278C397.268 614.278 397.313 614.278 397.357 614.282C397.39 614.282 397.427 614.282 397.459 614.282C397.484 614.282 397.508 614.282 397.532 614.282C397.622 614.282 397.716 614.274 397.805 614.27C397.829 614.27 397.85 614.27 397.874 614.27C397.878 614.27 397.882 614.27 397.886 614.27C397.98 614.262 398.07 614.246 398.159 614.23C398.204 614.221 398.253 614.217 398.301 614.209C398.301 614.209 398.301 614.209 398.306 614.209C398.318 614.209 398.33 614.201 398.338 614.201C398.489 614.169 398.635 614.128 398.778 614.083C398.794 614.079 398.81 614.075 398.826 614.071C398.892 614.051 398.948 614.022 399.014 613.998C399.054 613.981 399.095 613.965 399.132 613.949C399.254 613.896 399.372 613.835 399.486 613.77L399.49 613.758Z" fill="white" stroke="#430B12" stroke-width="3.67985" stroke-linecap="round" stroke-linejoin="round"/>
<path d="M379.649 552.574C379.702 552.395 379.767 552.22 379.832 552.053C379.86 551.98 379.893 551.911 379.921 551.842C379.966 551.74 380.015 551.638 380.064 551.54C380.129 551.41 380.202 551.28 380.275 551.158C380.32 551.081 380.369 550.999 380.418 550.926C380.487 550.82 380.564 550.718 380.642 550.617C380.699 550.543 380.751 550.47 380.808 550.401C380.894 550.299 380.983 550.206 381.073 550.112C381.13 550.051 381.187 549.986 381.248 549.929C381.354 549.831 381.464 549.742 381.573 549.652C381.626 549.608 381.679 549.559 381.736 549.518C381.907 549.392 382.082 549.274 382.265 549.164L367.185 557.929C367.002 558.035 366.823 558.153 366.656 558.283C366.599 558.324 366.55 558.372 366.493 558.417C366.383 558.507 366.269 558.596 366.168 558.694C366.107 558.751 366.05 558.816 365.993 558.877C365.903 558.971 365.81 559.064 365.724 559.166C365.667 559.235 365.61 559.308 365.557 559.382C365.48 559.483 365.403 559.585 365.334 559.691C365.313 559.719 365.293 559.744 365.273 559.772C365.244 559.821 365.22 559.874 365.191 559.923C365.118 560.049 365.045 560.175 364.98 560.305C364.959 560.346 364.931 560.387 364.91 560.431C364.882 560.488 364.862 560.549 364.833 560.61C364.801 560.68 364.772 560.753 364.744 560.822C364.727 560.863 364.707 560.903 364.691 560.944C364.642 561.074 364.597 561.209 364.556 561.347C364.556 561.355 364.552 561.363 364.548 561.371C364.548 561.371 364.548 561.375 364.548 561.38C364.512 561.506 364.475 561.636 364.447 561.77C364.426 561.86 364.406 561.953 364.39 562.047L357.37 598.172L372.45 589.408L379.47 553.282C379.514 553.05 379.567 552.826 379.632 552.607C379.632 552.598 379.637 552.59 379.641 552.582L379.649 552.574Z" fill="white" stroke="#430B12" stroke-width="3.67985" stroke-linecap="round" stroke-linejoin="round"/>
<path d="M337.99 507.15L353.07 498.386C352.903 498.483 352.728 498.569 352.553 498.65C352.496 498.674 352.435 498.695 352.378 498.719C352.248 498.772 352.117 498.821 351.987 498.866C351.947 498.878 351.91 498.89 351.869 498.902C351.694 498.955 351.515 499 351.332 499.037C351.263 499.049 351.19 499.057 351.116 499.069C350.982 499.089 350.844 499.114 350.705 499.126C350.665 499.126 350.624 499.126 350.583 499.13C350.421 499.142 350.262 499.146 350.095 499.142C350.046 499.142 349.997 499.142 349.945 499.138C349.753 499.13 349.558 499.118 349.363 499.089C349.359 499.089 349.35 499.089 349.346 499.089C349.135 499.061 348.919 499.02 348.703 498.967C348.695 498.967 348.683 498.963 348.675 498.959C348.451 498.902 348.223 498.837 348 498.756L313.07 486.532L297.994 495.293L332.923 507.517C332.923 507.517 332.944 507.525 332.952 507.529C333.054 507.565 333.155 507.598 333.261 507.631C333.367 507.663 333.473 507.692 333.579 507.72C333.587 507.72 333.591 507.72 333.599 507.724C333.607 507.724 333.619 507.728 333.627 507.732C333.725 507.757 333.823 507.777 333.92 507.797C334.038 507.822 334.156 507.838 334.27 507.854C334.274 507.854 334.283 507.854 334.287 507.854C334.287 507.854 334.291 507.854 334.295 507.854C334.429 507.871 334.563 507.887 334.698 507.895C334.755 507.895 334.812 507.895 334.869 507.899C334.917 507.899 334.966 507.899 335.019 507.903C335.06 507.903 335.105 507.907 335.145 507.907C335.267 507.907 335.385 507.899 335.507 507.891C335.548 507.891 335.589 507.891 335.629 507.887C335.638 507.887 335.65 507.887 335.658 507.887C335.784 507.875 335.91 507.854 336.036 507.834C336.11 507.822 336.183 507.818 336.256 507.801C336.26 507.801 336.264 507.801 336.268 507.801C336.447 507.765 336.618 507.72 336.789 507.667C336.83 507.655 336.866 507.643 336.907 507.631C336.948 507.618 336.989 507.606 337.029 507.594C337.123 507.561 337.208 507.521 337.302 507.484C337.359 507.46 337.42 507.439 337.477 507.415C337.652 507.338 337.823 507.248 337.99 507.154V507.15Z" fill="white" stroke="#430B12" stroke-width="3.67985" stroke-linecap="round" stroke-linejoin="round"/>
<path d="M412.063 589.673L417.597 620.301C418.085 623.443 420.462 627.557 422.944 629.559L446.76 649.766L446.744 655.471L422.891 648.158C420.405 647.296 418.016 648.659 417.512 651.227L411.823 675.373L406.859 672.508L401.325 641.88C400.837 638.739 398.46 634.625 395.978 632.623L372.166 612.415L372.182 606.711L396.031 614.023C398.517 614.885 400.906 613.522 401.41 610.955L407.099 586.809L412.063 589.673Z" fill="#EF223A" stroke="#430B12" stroke-width="3.67985" stroke-linecap="round" stroke-linejoin="round"/>
<path d="M438.024 620.792C437.878 620.674 437.727 620.544 437.581 620.41C437.56 620.393 437.544 620.373 437.524 620.357C437.386 620.227 437.247 620.096 437.109 619.954C437.101 619.946 437.093 619.934 437.08 619.925C436.946 619.787 436.812 619.645 436.682 619.494C436.665 619.478 436.653 619.462 436.637 619.445C436.507 619.299 436.38 619.148 436.254 618.994C436.226 618.957 436.197 618.924 436.169 618.888C436.051 618.737 435.933 618.587 435.815 618.432C435.803 618.416 435.79 618.4 435.774 618.379C435.742 618.334 435.709 618.286 435.676 618.241C435.563 618.086 435.453 617.928 435.343 617.769C435.318 617.732 435.298 617.696 435.274 617.663C435.078 617.37 434.887 617.069 434.708 616.76C434.684 616.719 434.659 616.678 434.635 616.638C434.549 616.491 434.468 616.345 434.391 616.198C434.35 616.125 434.309 616.052 434.269 615.974C434.252 615.946 434.236 615.913 434.22 615.885C434.13 615.718 434.045 615.547 433.963 615.38C433.943 615.34 433.927 615.303 433.906 615.262C433.817 615.075 433.731 614.892 433.65 614.705C433.638 614.676 433.626 614.648 433.613 614.615C433.532 614.424 433.451 614.233 433.377 614.042C433.369 614.021 433.361 614.001 433.353 613.98C433.276 613.781 433.207 613.582 433.137 613.386C433.137 613.378 433.133 613.374 433.129 613.366C433.064 613.167 433.003 612.967 432.946 612.768C432.946 612.76 432.942 612.752 432.938 612.739C432.881 612.54 432.832 612.345 432.791 612.149C432.791 612.141 432.787 612.133 432.783 612.121C432.739 611.922 432.702 611.722 432.673 611.531L427.139 580.903L422.175 578.038L407.095 586.803L412.059 589.668L417.593 620.296C417.593 620.296 417.593 620.308 417.593 620.312C417.606 620.402 417.622 620.495 417.642 620.585C417.658 620.678 417.679 620.772 417.699 620.869C417.699 620.874 417.699 620.882 417.703 620.886C417.703 620.894 417.707 620.906 417.711 620.914C417.732 621 417.748 621.085 417.772 621.171C417.797 621.276 417.825 621.382 417.858 621.488C417.858 621.492 417.858 621.496 417.862 621.5C417.862 621.508 417.866 621.516 417.87 621.529C417.899 621.626 417.923 621.72 417.956 621.818C417.988 621.919 418.021 622.021 418.053 622.123C418.053 622.131 418.057 622.139 418.061 622.147V622.155C418.098 622.269 418.139 622.383 418.179 622.497C418.208 622.579 418.24 622.66 418.269 622.741C418.277 622.762 418.285 622.782 418.293 622.802C418.297 622.815 418.305 622.831 418.31 622.843C418.354 622.957 418.399 623.075 418.448 623.189C418.472 623.25 418.501 623.311 418.529 623.372C418.541 623.4 418.554 623.429 418.566 623.461C418.578 623.49 418.59 623.514 418.598 623.543C418.651 623.665 418.708 623.787 418.765 623.909C418.782 623.946 418.802 623.982 418.818 624.019C418.839 624.06 418.855 624.096 418.875 624.137C418.9 624.19 418.928 624.247 418.952 624.3C419.009 624.414 419.07 624.528 419.127 624.642C419.144 624.67 419.16 624.703 419.172 624.731C419.176 624.739 419.18 624.751 419.188 624.76C419.225 624.825 419.262 624.89 419.298 624.955C419.38 625.101 419.457 625.248 419.542 625.39C419.551 625.407 419.559 625.419 419.567 625.435C419.583 625.459 419.599 625.484 419.616 625.512C419.799 625.818 419.986 626.123 420.181 626.416C420.198 626.44 420.21 626.465 420.226 626.485C420.234 626.497 420.242 626.509 420.251 626.521C420.36 626.68 420.47 626.839 420.584 626.993C420.613 627.034 420.645 627.079 420.674 627.12C420.674 627.124 420.682 627.128 420.682 627.132C420.694 627.148 420.706 627.164 420.723 627.185C420.808 627.299 420.897 627.417 420.983 627.527C421.011 627.563 421.044 627.6 421.072 627.64C421.101 627.677 421.129 627.71 421.158 627.746C421.19 627.787 421.223 627.828 421.256 627.868C421.341 627.97 421.431 628.072 421.516 628.174C421.524 628.182 421.532 628.19 421.54 628.202C421.557 628.218 421.569 628.235 421.585 628.251C421.646 628.32 421.707 628.389 421.768 628.454C421.842 628.532 421.911 628.605 421.984 628.682C421.992 628.69 422 628.703 422.012 628.711C422.016 628.715 422.021 628.719 422.025 628.723C422.11 628.808 422.196 628.894 422.277 628.975C422.326 629.024 422.375 629.069 422.427 629.113C422.448 629.13 422.464 629.15 422.484 629.166C422.501 629.179 422.513 629.195 422.529 629.207C422.611 629.28 422.688 629.349 422.769 629.419C422.822 629.463 422.871 629.504 422.924 629.549L446.74 649.756L446.724 655.461L461.804 646.696L461.82 640.991L438.004 620.784L438.024 620.792Z" fill="white" stroke="#430B12" stroke-width="3.67985" stroke-linecap="round" stroke-linejoin="round"/>
<path d="M387.425 521.514C387.205 521.339 386.985 521.148 386.766 520.949C386.749 520.932 386.729 520.916 386.713 520.9C386.505 520.708 386.294 520.509 386.086 520.298C386.086 520.298 386.078 520.289 386.074 520.285C385.871 520.078 385.667 519.858 385.468 519.634C385.443 519.606 385.415 519.577 385.39 519.549C385.203 519.337 385.016 519.113 384.833 518.89C384.792 518.837 384.752 518.788 384.707 518.735C384.536 518.523 384.369 518.304 384.202 518.084C384.178 518.051 384.153 518.023 384.129 517.99C384.068 517.909 384.011 517.819 383.95 517.738C383.795 517.526 383.645 517.315 383.498 517.095C383.315 516.827 383.136 516.554 382.965 516.277C382.957 516.265 382.953 516.257 382.945 516.245C382.778 515.98 382.615 515.708 382.457 515.435C382.334 515.223 382.216 515.012 382.103 514.8C382.042 514.686 381.976 514.576 381.915 514.466C381.891 514.422 381.871 514.377 381.846 514.332C381.716 514.084 381.59 513.836 381.472 513.588C381.443 513.531 381.419 513.478 381.39 513.421C381.26 513.148 381.134 512.875 381.016 512.603C380.996 512.558 380.979 512.513 380.959 512.469C380.841 512.192 380.727 511.911 380.617 511.634C380.605 511.602 380.593 511.565 380.581 511.533C380.471 511.248 380.369 510.963 380.276 510.678C380.267 510.658 380.263 510.633 380.255 510.613C380.158 510.32 380.068 510.027 379.991 509.742C379.991 509.734 379.991 509.726 379.987 509.722C379.905 509.425 379.832 509.132 379.771 508.843C379.771 508.835 379.771 508.827 379.767 508.814C379.706 508.526 379.653 508.241 379.608 507.96L372.817 463.867L362.888 458.134L347.808 466.899L357.737 472.632L364.528 516.725C364.532 516.757 364.54 516.794 364.544 516.827C364.565 516.957 364.585 517.083 364.614 517.213C364.638 517.335 364.662 517.453 364.687 517.575C364.687 517.583 364.687 517.592 364.691 517.604C364.691 517.608 364.691 517.616 364.691 517.62C364.723 517.762 364.756 517.909 364.793 518.051C364.829 518.194 364.866 518.332 364.902 518.475C364.902 518.483 364.907 518.491 364.911 518.499C364.911 518.503 364.911 518.507 364.911 518.511C364.955 518.67 365 518.829 365.049 518.987C365.09 519.113 365.13 519.244 365.171 519.37C365.179 519.39 365.183 519.415 365.191 519.435C365.195 519.447 365.199 519.459 365.204 519.476C365.261 519.638 365.317 519.805 365.374 519.972C365.411 520.078 365.452 520.184 365.492 520.289C365.505 520.322 365.517 520.359 365.529 520.391C365.541 520.416 365.549 520.444 365.558 520.468C365.623 520.635 365.692 520.802 365.761 520.969C365.798 521.054 365.834 521.136 365.871 521.221C365.891 521.266 365.908 521.311 365.928 521.355C365.948 521.4 365.964 521.441 365.985 521.486C366.062 521.665 366.144 521.84 366.229 522.019C366.253 522.072 366.278 522.12 366.302 522.173C366.331 522.23 366.355 522.283 366.384 522.34C366.424 522.422 366.461 522.503 366.502 522.584C366.583 522.751 366.673 522.918 366.758 523.081C366.782 523.126 366.803 523.17 366.827 523.215C366.835 523.231 366.843 523.244 366.847 523.26C366.9 523.357 366.957 523.455 367.01 523.549C367.128 523.764 367.242 523.976 367.364 524.188C367.376 524.208 367.389 524.232 367.401 524.253C367.547 524.501 367.694 524.745 367.848 524.989C367.857 525.001 367.865 525.014 367.873 525.026C368.036 525.282 368.198 525.534 368.369 525.787C368.382 525.807 368.398 525.823 368.41 525.844C368.557 526.063 368.711 526.275 368.862 526.487C368.915 526.56 368.967 526.641 369.02 526.714C369.029 526.723 369.033 526.731 369.041 526.739C369.065 526.771 369.09 526.8 369.114 526.832C369.232 526.991 369.354 527.15 369.472 527.305C369.521 527.366 369.57 527.423 369.619 527.484C369.659 527.536 369.7 527.585 369.745 527.638C369.789 527.691 369.83 527.744 369.875 527.797C370.001 527.947 370.127 528.094 370.253 528.236C370.27 528.257 370.29 528.277 370.306 528.293C370.331 528.322 370.359 528.35 370.384 528.379C370.461 528.468 370.538 528.554 370.62 528.639C370.742 528.769 370.864 528.9 370.986 529.026C370.986 529.026 370.986 529.026 370.99 529.03C370.99 529.03 370.998 529.038 371.002 529.042C371.12 529.16 371.234 529.278 371.352 529.388C371.441 529.473 371.535 529.559 371.625 529.644C371.641 529.661 371.661 529.677 371.678 529.693C371.69 529.701 371.698 529.713 371.71 529.726C371.824 529.827 371.938 529.929 372.056 530.027C372.15 530.108 372.243 530.185 372.337 530.259L407.221 558.344L407.189 569.753L422.269 560.989L422.301 549.579L387.417 521.494L387.425 521.514Z" fill="white" stroke="#430B12" stroke-width="3.67985" stroke-linecap="round" stroke-linejoin="round"/>
<path d="M357.737 472.64L364.528 516.733C365.212 521.299 368.727 527.39 372.345 530.279L407.229 558.364L407.197 569.774L372.268 557.55C368.642 556.261 365.106 558.275 364.398 562.039L357.379 598.164L347.45 592.431L340.659 548.334C339.975 543.768 336.459 537.681 332.842 534.788L297.962 506.707L297.994 495.297L332.923 507.521C336.549 508.815 340.085 506.796 340.793 503.033L347.812 466.911L357.741 472.645L357.737 472.64Z" fill="#EF223A" stroke="#430B12" stroke-width="3.67985" stroke-linecap="round" stroke-linejoin="round"/>
<path d="M467.947 663.363L553.42 711.507C568.315 719.898 586.502 719.898 601.397 711.507L972.904 502.242" stroke="#430B12" stroke-width="2.20791" stroke-miterlimit="10" stroke-dasharray="5.89 5.89"/>
<path d="M1710.13 649.805L1701.76 654.525C1676.95 668.495 1646.63 668.437 1621.88 654.365L1506.4 588.703C1483.35 575.593 1455.1 575.542 1432 588.558L1419.98 595.324L1391.61 611.079" stroke="#430B12" stroke-width="2.20791" stroke-miterlimit="10" stroke-dasharray="5.89 5.89"/>
<path d="M851.261 372.762L681.444 468.417C666.782 476.677 648.871 476.677 634.202 468.417L512.865 400.061" stroke="#430B12" stroke-width="2.20791" stroke-miterlimit="10" stroke-dasharray="5.89 5.89"/>
<path d="M1392.7 222.07L1376.38 213.184C1355.94 202.055 1331.19 202.229 1310.92 213.657L1172.29 291.738" stroke="#430B12" stroke-width="2.20791" stroke-miterlimit="10" stroke-dasharray="5.89 5.89"/>
<defs>
<clipPath id="clip0_768_2641">
<rect width="640.294" height="761.111" fill="white" transform="translate(739.544 90.1484)"/>
</clipPath>
<clipPath id="clip1_768_2641">
<rect width="436.4" height="512.236" fill="white" transform="translate(826.388 221.151)"/>
</clipPath>
</defs>
</svg>
