<svg width="123" height="304" viewBox="0 0 123 304" fill="none" xmlns="http://www.w3.org/2000/svg">
<g clip-path="url(#clip0_2156_32027)">
<path d="M44.9375 78.433L39.3965 63.6419L68.5635 42.7816L62.0957 32.2201L94.3009 0L90.4698 23.7659L120.826 39.7421L109.873 67.9111L118.319 62.1891L122.938 54.3993L118.581 73.2812L109.739 79.0925L44.9375 78.433Z" fill="#430B12"/>
<path d="M83.4767 27.0038L77.5392 35.7158L78.7237 50.373L56.9463 56.0505L60.1827 66.7459L52.7236 61.9263L58.6661 75.8596L98.5236 77.243L105.12 58.5595L98.588 62.2585L101.492 48.5235L82.8819 37.1042L83.4767 27.0038Z" fill="white"/>
<path d="M120.693 87.6558C120.643 87.8541 120.589 88.0524 120.539 88.2508C120.5 88.3995 120.46 88.5483 120.42 88.702C120.311 89.1185 120.207 89.54 120.098 89.9664C119.707 91.4837 119.3 93.0654 118.879 94.7017C118.76 95.1678 118.636 95.6438 118.517 96.1199C118.448 96.3827 118.383 96.6455 118.314 96.9132L116.024 105.814L96.9678 111.58L100.705 119.658L92.5172 126.565L92.3636 128.285L90.2324 127.542L80.9991 124.329L64.6734 123.57L64.0044 123.838L58.5873 126.014L54.4885 119.355L63.4889 112.646L71.1412 106.939L70.7348 99.8982L70.5862 97.295C69.9666 97.4983 66.5518 98.7677 62.914 100.126C62.2796 100.364 61.6353 100.602 61.0009 100.84C57.0013 102.333 53.2792 103.731 53.2792 103.731L47.7035 109.706L38.267 104.351L34.758 87.9384L34.6787 87.5814C34.6787 86.669 35.2586 85.831 36.3242 85.0724C40.1305 82.3502 50.137 80.5899 61.9822 79.7916C72.4546 79.0826 84.3643 79.1272 94.7078 79.9205C106.984 80.8577 117.055 82.846 119.89 85.8856C120.411 86.4459 120.688 87.0409 120.688 87.6657L120.693 87.6558Z" fill="#EF223A"/>
<path d="M121.967 82.6924C121.57 84.2394 121.144 85.8955 120.693 87.6558C120.693 87.026 120.415 86.436 119.895 85.8757C117.06 82.8361 106.989 80.8478 94.7126 79.9107C84.369 79.1223 72.4544 79.0776 61.987 79.7817C50.1368 80.58 40.1303 82.3403 36.3289 85.0625C35.2683 85.8211 34.6884 86.6591 34.6834 87.5715L33.6377 82.6924C33.6377 80.7189 36.4231 79.0975 40.9926 77.8281C44.9427 76.7273 50.2359 75.8893 56.2329 75.3142C56.7087 75.2695 57.1894 75.2249 57.6751 75.1803C59.0083 75.0613 60.3713 74.9571 61.759 74.8679C72.4544 74.1588 84.6069 74.1935 95.1784 74.9621C96.5563 75.0613 97.9093 75.1753 99.2227 75.3042C106.33 75.9835 112.456 77.0248 116.559 78.433C119.964 79.6032 121.967 81.0263 121.967 82.6973V82.6924Z" fill="#EF223A"/>
<path d="M77.3709 110.693C98.0971 110.693 114.899 107.58 114.899 103.741C114.899 99.9017 98.0971 96.7893 77.3709 96.7893C56.6447 96.7893 39.8428 99.9017 39.8428 103.741C39.8428 107.58 56.6447 110.693 77.3709 110.693Z" fill="#430B12"/>
<path d="M77.3712 112.795C89.1439 112.795 98.6876 111.026 98.6876 108.843C98.6876 106.661 89.1439 104.891 77.3712 104.891C65.5984 104.891 56.0547 106.661 56.0547 108.843C56.0547 111.026 65.5984 112.795 77.3712 112.795Z" fill="#EF223A"/>
<path d="M96.9672 129.892L95.1087 137.558L91.674 135.822L89.5478 134.746L87.833 133.879L89.5478 128.34L90.1376 128.459L92.3035 128.89L96.5261 129.733L96.5311 129.738L96.9672 129.892Z" fill="#430B12"/>
<path d="M91.4462 138.336L90.5492 148.228L88.5221 145.63L86.609 143.176L69.8175 137.558L61.7588 137.687L61.7637 136.745L64.0832 136.036L80.4683 135.862L89.2556 137.84L91.4462 138.336Z" fill="#EF223A"/>
<path d="M89.3544 209.808C87.6941 216.278 86.1577 222.283 84.7848 227.618C84.7848 227.633 84.7749 227.648 84.7749 227.668L81.2263 241.056H67.5125L64.8412 228.56L64.752 228.144L67.4184 198.259L68.4988 186.151L66.7096 168.682L67.1854 165.241L68.1221 164.249L84.1554 166.297L85.2606 165.449L86.7673 164.294L89.2652 162.375L85.7562 201.021L89.3544 209.808Z" fill="#EF223A"/>
<path d="M90.2864 161.587L89.2655 162.375L86.7676 164.294L85.2559 165.449L81.2266 163.005L86.1332 158.691L87.2235 159.449L89.3943 160.962L90.2864 161.587Z" fill="#430B12"/>
<path d="M96.9679 156.464L92.5123 159.881L89.7666 156.846L88.3789 155.314L90.0739 153.44L92.5123 150.752L96.9679 156.464Z" fill="#430B12"/>
<path d="M70.7349 99.8933L63.0033 102.055L62.3639 102.234L61.001 100.835C61.6354 100.597 62.2797 100.359 62.9141 100.121C66.5519 98.7627 69.9667 97.4934 70.5862 97.2901L70.7349 99.8933Z" fill="#430B12"/>
<path d="M89.5481 134.746L87.8332 133.879L89.553 128.335L90.1428 128.454L92.3086 128.885L96.5313 129.733L92.3632 128.285L90.232 127.542L80.9987 124.329L64.673 123.57L64.004 123.838L58.5869 126.014L54.4881 119.355L63.4885 112.646L71.1408 106.939L70.7344 99.8982L63.0028 102.06L62.3635 102.239L61.0005 100.84C57.0009 102.333 53.2788 103.731 53.2788 103.731L47.7031 109.706L42.3554 115.438L42.0134 121.889L41.0272 140.642L0 299.303L60.6139 303.126L60.8271 272.096L64.7474 228.144L67.4138 198.259L68.4943 186.151L66.7051 168.682L67.1809 165.241L68.1176 164.249L84.1508 166.297L85.256 165.449L81.2267 163.005L86.1333 158.691L87.2187 159.449L89.3895 160.962L90.2865 161.586L91.2183 160.872L92.5118 159.881L89.7661 156.846L88.3784 155.314L90.0734 153.44L92.5118 150.747L90.5492 148.228L88.5221 145.63L86.609 143.176L69.8176 137.558L64.6334 137.642L61.7539 137.687L58.5076 137.741L61.7588 136.745L64.0783 136.036H64.5541L80.4584 135.862L89.2457 137.845L91.4364 138.341L94.7322 139.085L95.099 137.563L91.6643 135.827L89.5381 134.751L89.5481 134.746ZM61.2731 207.839L61.2434 211.761L60.9311 210.293L61.2731 207.839Z" fill="white"/>
<path d="M91.2182 160.872L81.4644 153.896L61.6001 149.304L54.9688 149.116L56.2425 147.118L65.3271 148.709L81.7816 153.202L91.4015 160.739L91.2182 160.872Z" fill="#430B12"/>
<path d="M53.2842 103.721L71.7806 95.5497L70.9381 103.354L70.2789 102.794L70.9034 97.0322L55.9754 103.057L53.2842 103.721Z" fill="white"/>
<path d="M80.4778 124.299L80.1953 131.86H80.4729L81.474 124.492L80.9933 124.329L80.4778 124.299Z" fill="#430B12"/>
<path d="M86.2667 143.062L81.375 148.828L81.5931 149.002L86.9705 143.637L86.6087 143.176L86.2667 143.062Z" fill="#430B12"/>
<path d="M80.5925 153.331L77.1133 160.049L77.3661 160.168L81.4053 153.737L80.9494 153.37L80.5925 153.331Z" fill="#430B12"/>
<path d="M64.0488 123.808L64.1083 130.69L64.3859 130.631L65.3275 123.59L64.6683 123.565L64.0488 123.808Z" fill="#430B12"/>
<path d="M54.4883 119.355L51.2568 131.082L52.1638 131.018L58.587 126.01L54.4883 119.355Z" fill="#430B12"/>
<path d="M61.7634 136.745L51.6182 137.454L53.1199 138.445L58.6807 137.716L61.7634 136.745Z" fill="#430B12"/>
<path d="M42.3603 115.433L42.2314 116.876L46.4789 119.826H47.4453L46.5433 119.122L42.3603 115.433Z" fill="#430B12"/>
<path d="M88.9529 165.757L84.3338 169.242L70.4763 167.527L68.1023 170.928L69.0242 186.443L66.779 224.866L73.6235 237.848L66.8038 237.674L64.752 228.199L68.4294 186.047L66.7096 168.677L67.0615 165.266L68.1172 164.061L84.1504 166.297L89.2652 162.375L88.9529 165.757Z" fill="#430B12"/>
<path d="M87.5011 168.087L83.7393 202.419L87.962 210.343L80.7706 240.51L67.9341 240.61L67.2402 238.368L79.7793 238.765L83.9376 211.528L76.9444 204.135L85.127 170.73L87.5011 168.087Z" fill="#430B12"/>
<path d="M97.7306 108.868L95.4855 112.369L98.7169 119.435L91.3917 125.246V126.5L87.6944 125.048L88.0909 123.332C88.0909 123.332 95.0196 117.917 94.8858 117.719C94.752 117.521 84.8545 111.184 84.8545 111.184V106.101C84.8545 106.101 92.3135 106.101 97.7207 108.873L97.7306 108.868Z" fill="#430B12"/>
<path d="M104.595 97.7958C104.595 97.7958 112.867 99.2933 115.107 101.361L118.011 92.2523C118.011 92.2523 116.822 86.1781 110.354 84.3733L104.59 97.7958H104.595Z" fill="white"/>
<path d="M111.454 81.6362L112.842 78.0066C112.842 78.0066 118.829 79.1471 121.436 82.2808L120.479 85.484C120.479 85.484 118.581 82.5932 111.454 81.6362Z" fill="white"/>
<path d="M34.8764 86.4558L34.0537 82.1668L36.6953 80.1288L43.4506 99.4718C41.7358 100.002 39.669 101.143 38.6332 102.685L34.8814 86.4558H34.8764Z" fill="white"/>
<path d="M119.047 94.0125L120.692 87.6508C120.692 87.6508 120.895 84.7699 114.626 83.0494C108.356 81.3337 94.0825 79.6181 82.951 79.2859C72.8553 78.9884 62.7595 79.2512 48.6047 81.1651C34.4499 83.0791 34.6829 87.5616 34.6829 87.5616L35.3519 91.1416C35.3519 91.1416 34.9356 88.2904 37.3741 86.4756C39.8125 84.6608 43.4107 82.3155 57.9174 81.5916C90.5587 79.9652 104.728 81.8544 112.544 84.4328C120.365 87.0062 119.042 94.0076 119.042 94.0076L119.047 94.0125Z" fill="#430B12"/>
<path d="M65 160.957L67.4434 163.664L69.9066 164.388C69.9066 164.388 67.8845 168.37 67.7061 168.241C67.5276 168.112 65.3519 165.93 65.3519 165.93L65 160.957Z" fill="#430B12"/>
<path d="M49.3382 41.5916L41.8594 54.6224L45.3783 65.8881L51.8014 58.5843L47.5788 50.9234L49.3382 41.5916Z" fill="#430B12"/>
<path d="M76.2852 52.2225L76.3496 60.3445L66.0557 67.4054L66.8486 71.63L62.0312 70.0482L64.6035 75.4629L90.668 74.9323L95.2871 70.2466L91.8575 57.9L89.8106 64.0386L83.8731 68.3326L82.4209 60.0123L76.2852 52.2225Z" fill="#EF223A"/>
<path d="M83.0404 49.2673L81.7617 56.8042L85.3599 62.1593L85.4342 64.4154L87.833 59.3231L83.9969 54.6125L83.0404 49.2673Z" fill="#EF223A"/>
<path d="M64.4697 23.5676L59.8506 32.944L62.1601 41.066L52.8574 50.2392L56.3565 40.6049L54.5078 32.8102L64.4697 23.5676Z" fill="#430B12"/>
<path d="M76.4395 38.6017L77.4505 48.7219L72.083 50.0855L70.1005 55.6786L68.916 47.3137L74.8089 45.2014L76.4395 38.6017Z" fill="#EF223A"/>
<path d="M84.3389 31.8185L84.8989 49.778L93.6614 55.3513L96.2634 67.2517L98.0526 47.0062L89.409 45.5286L84.3389 31.8185Z" fill="#EF223A"/>
<path d="M36.0958 82.6576C36.0958 82.6576 43.2227 75.4381 86.2026 75.5274C86.2026 75.5274 57.9128 72.2696 36.2692 80.5007L36.0908 82.6576H36.0958Z" fill="white"/>
</g>
<defs>
<clipPath id="clip0_2156_32027">
<rect width="122.938" height="303.131" fill="white"/>
</clipPath>
</defs>
</svg>
