<svg width="610" height="691" viewBox="0 0 610 691" fill="none" xmlns="http://www.w3.org/2000/svg">
<g clip-path="url(#clip0_3191_3623)">
<path d="M159.81 224.214L159.795 224.325L142.648 360.934L141.993 354.411V354.381L141.227 346.791L98.8421 357.672L140.13 335.909L139.652 331.146L138.57 320.323L130.235 323.798L87.2832 341.725C87.9385 341.313 119.125 321.619 134.888 311.245C134.969 311.193 135.043 311.142 135.124 311.09C135.956 310.546 136.744 310.023 137.48 309.53L136.67 301.438L135.463 289.445L128.549 293.48L127.843 293.892L99.4458 223.913L159.81 224.214Z" fill="#430B12"/>
<path d="M142.646 360.934L129.599 464.846L118.85 432.776L127.84 429.411L120.021 408.421C120.021 408.421 115.692 407.147 109.662 405.373L101.468 380.945L142.646 360.934Z" fill="#430B12"/>
<path d="M193.373 134.541C208.76 136.204 229.92 128.717 234.477 123.254L193.373 134.541Z" fill="#EF223A"/>
<path d="M127.841 293.892L122.341 297.102L78.0856 322.907L74.6327 314.536V314.529L74.5812 313.94L96.2707 295.217L92.5306 285.778L88.577 275.802L72.7479 286.279L65.0763 291.352L37.1582 223.596L99.1199 223.912H99.4439L127.841 293.892Z" fill="#EF223A"/>
<path d="M307.977 -0.00459674L305.081 0.531067L305.376 2.12377L308.271 1.58811L307.977 -0.00459674Z" fill="#430B12"/>
<path d="M153.602 533.905L155.34 558.097L117.961 557.567L120.957 533.735H120.965L122.445 533.743L153.602 533.905Z" fill="#EF223A"/>
<path d="M219.016 558.995L161.339 558.186L163.076 533.949L217.234 534.221L219.016 558.995Z" fill="#EF223A"/>
<path d="M222.596 561.094V561.101H222.529L222.596 561.094Z" fill="#EF223A"/>
<path d="M219.187 561.308L219.172 561.08L222.522 561.102L219.187 561.308Z" fill="#EF223A"/>
<path d="M229.81 684.834L102.478 680.925L111.408 609.797V609.789L156.12 565.041L222.801 564.658L229.81 684.834Z" fill="#EF223A"/>
<path d="M136.669 301.438L123.549 306.363L122.342 297.101L127.841 293.891L128.548 293.479L135.462 289.445L136.669 301.438Z" fill="#EF223A"/>
<path d="M139.649 331.145L131.028 334.355L130.232 323.797L138.567 320.322L139.649 331.145Z" fill="#EF223A"/>
<path d="M143.111 345.428L141.992 354.381V354.411L141.071 361.699L101.469 380.945L109.663 405.373L111.968 412.249L92.0305 421.71L52.8848 406.168V299.421L65.0769 291.352L72.7484 286.279L76.5548 294.348L92.5311 285.779L96.2712 295.217L74.5817 313.94L74.6332 314.529L75.4578 324.438L78.0862 322.907L122.341 297.102L123.549 306.364L136.669 301.438L137.478 309.53C136.742 310.023 135.954 310.546 135.122 311.09C135.041 311.142 134.968 311.193 134.887 311.245C119.124 321.619 87.937 341.313 87.2818 341.725L130.234 323.798L131.029 334.355L139.65 331.145L140.129 335.909L98.8407 357.672L143.111 345.428Z" fill="white"/>
<path d="M126.685 456.151L52.8848 476.891V429.175L91.8538 442.884L118.852 432.775L126.685 456.151Z" fill="white"/>
<path d="M129.601 464.846V464.853L120.957 533.736L52.8848 533.389V476.891L126.685 456.151L129.601 464.846Z" fill="#430B12"/>
<path d="M400.41 225.09L399.011 225.562L397.62 226.025H397.613L397.568 225.893L398.894 225.451L399.438 225.274L400.366 224.965L400.41 225.09Z" fill="#430B12"/>
<path d="M234.551 224.708H217.39L161.686 224.339L159.794 224.325L158.314 224.31L99.4443 223.912L128.805 108.463C130.013 110.002 131.397 111.401 132.921 112.623C133.135 112.8 133.363 112.969 133.584 113.138C133.738 113.256 133.893 113.374 134.055 113.484C134.32 113.676 134.585 113.86 134.857 114.036C135.24 114.287 135.63 114.53 136.028 114.758C136.197 114.861 136.367 114.964 136.536 115.052C136.882 115.236 137.228 115.421 137.581 115.597C137.935 115.774 138.296 115.936 138.656 116.09C140.917 117.077 143.354 117.74 145.901 118.019C146.063 118.034 146.232 118.056 146.394 118.071C146.667 118.093 146.939 118.115 147.211 118.13C147.454 118.145 147.705 118.152 147.955 118.159C148.205 118.167 148.463 118.174 148.713 118.174C149.531 118.174 150.333 118.137 151.128 118.056L142.293 188.441L212.479 186.821L234.485 224.59L234.551 224.708Z" fill="#EF223A"/>
<path d="M397.253 225.532L306.483 225.068L306.46 224.958L296.087 169.387L291.625 145.489L288.938 131.08L311.099 121.855L304.502 79.853V79.8235L304.473 79.6689L278.903 83.2765L278.425 80.3021L277.261 72.9618L272.608 43.5859L188.383 48.6512L159.625 50.3888L157.269 69.1407C154.597 68.1763 151.718 67.6535 148.714 67.6535C148.427 67.6535 148.14 67.6609 147.853 67.6683C147.573 67.6756 147.293 67.6903 147.014 67.7124C146.476 67.7492 145.946 67.8008 145.423 67.867C145.026 67.9186 144.635 67.9775 144.245 68.0511C144.039 68.0805 143.833 68.1247 143.627 68.1689C143.082 68.2793 142.552 68.4045 142.029 68.5517C141.897 68.5812 141.764 68.618 141.639 68.6622C141.433 68.7211 141.227 68.78 141.028 68.8462C140.218 69.1039 139.423 69.3984 138.657 69.7371L154.376 7.92995L265.408 1.85599L294.563 0.265717L397.202 225.422L397.253 225.532Z" fill="#EF223A"/>
<path d="M138.657 69.7366L128.806 108.463L144.289 128.415L151.128 118.056L157.357 68.3966L146.74 63.5964L138.657 69.7366Z" fill="#EF223A"/>
<path d="M250.379 564.496L230.722 684.856L229.816 684.834H229.809L222.8 564.658H222.807L250.379 564.496Z" fill="#EF223A"/>
<path d="M230.722 684.855L230.052 688.971L229.809 684.833L230.722 684.855Z" fill="#EF223A"/>
<path d="M156.12 565.04L111.408 609.789L116.996 565.261L156.12 565.04Z" fill="#430B12"/>
<path d="M112.436 610.841L110.353 608.758L112.443 610.834L112.436 610.841Z" fill="#430B12"/>
<path d="M120.021 408.421L111.967 412.249L109.662 405.373C115.692 407.147 120.021 408.421 120.021 408.421Z" fill="#EF223A"/>
<path d="M272.726 313.844L272.682 317.157L272.615 323.26L272.586 327.125H272.571L272.004 375.504L214.35 393.932L212.053 394.668L210.632 395.124L204.212 397.171L200.788 391.664L207.017 387.57L208.224 386.775L209.454 385.973L246.207 361.802L259.93 326.551L261.16 323.385L261.719 321.957L263.722 316.803L265.15 313.13L272.726 313.844Z" fill="#430B12"/>
<path d="M309.037 526.984L305.422 527.581L309.007 526.852L309.037 526.984Z" fill="#430B12"/>
<path d="M397.251 225.532L306.481 225.068L217.388 224.715L161.685 224.339L127.84 491.174L122.443 533.743L120.963 533.736H120.956L125.815 494.98L126.286 491.255L129.599 464.853V464.846L142.646 360.933L159.793 224.324L159.807 224.221V224.214L217.359 224.509L231.068 224.575L234.484 224.59L256.556 224.707L306.458 224.958L328.487 225.068L397.2 225.421L397.251 225.532Z" fill="#430B12"/>
<path d="M397.62 226.032V226.025H397.613L397.568 225.893L398.894 225.451V225.458L399.011 225.561L397.62 226.032Z" fill="#430B12"/>
<path d="M529.357 504.382L528.002 505.737L506.784 527.073L499.517 520.984L497.603 519.387L471.135 497.226L467.432 494.126L457.088 485.461L474.964 463.948L529.357 504.382Z" fill="#430B12"/>
<path d="M354.212 542.931L337.529 545.14L333.443 545.684L309.78 550.227L306.18 550.919L300.452 552.016L290.579 553.908L290.586 553.923L291.948 560.026L282.797 559.894H282.79L276.892 559.813L225.039 559.084L227.056 534.273L275.074 534.516L284.615 534.56L290.115 534.589L291.514 536.945L292.589 538.756L297.72 547.407L335.364 540.788L338.324 541.127L354.212 542.931Z" fill="#EF223A"/>
<path d="M252.36 561.521L250.909 561.279L252.396 561.308L252.36 561.521Z" fill="#EF223A"/>
<path d="M415.357 690.525L285.934 686.549L285.396 686.535L230.73 684.856L250.388 564.496H250.395L297.191 564.231L302.808 568.575L302.83 568.597H302.838C302.838 568.597 305.738 568.096 309.626 567.456C315.803 566.454 325.227 564.938 333.892 563.561C344.671 561.838 354.271 560.314 354.934 560.211L333.252 566.786L325.97 568.994L324.836 569.333L312.887 572.955L316.473 578.992L317.673 581.017L319.712 584.455L330.042 582.998L370.991 577.233L379.325 579.066L395.213 582.556L404.129 630.316L415.364 690.525H415.357Z" fill="#EF223A"/>
<path d="M185.577 88.8937L183.479 121.428L197.703 120.353L185.577 88.8937Z" fill="#EF223A"/>
<path d="M127.842 429.411L118.852 432.775L91.8544 442.884L52.8854 429.175L40.8994 424.957L41.5988 401.684L52.8854 406.168L92.0311 421.71L111.968 412.249L120.023 408.421L127.842 429.411Z" fill="#EF223A"/>
<path d="M52.8832 399.218V406.168L41.5967 401.684C41.5967 401.684 46.7356 400.55 52.8832 399.218Z" fill="#EF223A"/>
<path d="M296.086 169.387L291.624 145.488L288.937 131.08L311.097 121.855L304.501 79.8527V79.8232L304.471 79.6686L279.012 83.9683L278.423 80.3018L277.26 72.9615L272.607 43.5856L188.381 48.6509L159.624 50.3885L157.268 69.1404L151.165 117.769L151.128 118.056L150.414 123.718L145.797 160.544L143.861 175.968L142.293 188.44L212.478 186.821L217.36 224.509L217.389 224.715L306.481 225.068L306.459 224.958L296.086 169.387Z" fill="white"/>
<path d="M255.285 97.235C255.285 111.187 243.976 122.495 230.024 122.495C216.073 122.495 205.066 111.481 204.771 97.7872C204.771 97.6032 204.771 97.4191 204.771 97.235C204.771 83.2833 216.087 71.9747 230.032 71.9747C242.783 71.9747 253.326 81.4207 255.042 93.7011C255.211 94.857 255.292 96.035 255.292 97.235H255.285Z" fill="#430B12"/>
<path d="M123.496 95.8586H123.452V92.9136L123.496 95.8586Z" fill="#430B12"/>
<path d="M286.198 684.855L285.528 688.971L285.285 684.833L286.198 684.855Z" fill="#EF223A"/>
<path d="M182.138 140.195L182.69 137.301C197.974 140.231 220.024 135.188 224.295 130.852L226.003 134.592C221.225 139.451 198.18 144.251 182.138 140.195Z" fill="#430B12"/>
<path d="M307.993 0.0208817L305.098 0.557556L305.393 2.15016L308.288 1.61348L307.993 0.0208817Z" fill="#430B12"/>
<path d="M400.417 225.09H400.41L399.011 225.562L397.619 226.033V226.025H397.612L397.575 225.9L398.893 225.459L399.438 225.274L400.366 224.965L400.373 224.958L400.417 225.09Z" fill="#430B12"/>
<path d="M250.387 564.496L230.73 684.856H230.722L229.817 684.834L222.808 564.658L250.38 564.496H250.387Z" fill="#430B12"/>
<path d="M252.396 561.286V561.308L252.36 561.521L250.909 561.278L252.396 561.286Z" fill="#430B12"/>
<path d="M295.973 563.296L294.471 562.133L293.713 561.544H293.706L291.99 560.211L291.946 560.027L282.795 559.895H282.787L276.89 559.814L225.037 559.085L222.475 559.048L219.015 558.996L161.338 558.186L155.337 558.098L117.959 557.568L117.598 560.447L116.994 565.262L156.118 565.041L222.799 564.658H222.806L250.378 564.496H250.386L297.181 564.231L295.973 563.296ZM219.184 561.308L219.169 561.08L222.519 561.102L219.184 561.308ZM252.396 561.308L252.359 561.522L250.908 561.279H252.396V561.308Z" fill="#430B12"/>
<path d="M117.767 557.568H117.959L117.598 560.447L116.994 565.262H116.936L117.767 557.568Z" fill="#430B12"/>
<path d="M219.171 561.079L222.521 561.101L219.186 561.308L219.171 561.079Z" fill="#430B12"/>
<path d="M222.528 561.102L222.595 561.095V561.102H222.528Z" fill="#430B12"/>
<path d="M252.396 561.286V561.308L252.36 561.521L250.909 561.279L252.396 561.286Z" fill="#430B12"/>
<path d="M112.446 610.841L110.362 608.758L112.453 610.834L112.446 610.841Z" fill="#430B12"/>
<path d="M219.17 561.08L222.52 561.102L219.185 561.308L219.17 561.08Z" fill="#430B12"/>
<path d="M227.055 534.274L225.038 559.085L222.475 559.048L219.015 558.996L217.233 534.222L219.545 534.237L221.025 534.244L227.055 534.274Z" fill="#430B12"/>
<path d="M553.011 369.996L400.551 227.004L399.012 225.561L397.62 226.033L397.613 226.025L397.569 225.893L398.894 225.451L398.865 225.429H397.201L397.252 225.532L306.482 225.068L217.39 224.715L161.686 224.339L127.841 491.174L122.444 533.743L153.602 533.905L163.077 533.949L217.235 534.222L219.547 534.236H221.027L227.056 534.273L275.074 534.516L284.615 534.56L290.115 534.59L287.7 530.526L305.421 527.581L309.007 526.852L309.036 526.984L309.824 526.852L346.445 520.984L355.191 523.708L345.568 518.635L309.007 525.026L306.217 518.761L305.296 516.692L301.63 508.475L319.911 506.981L321.832 506.826L345.502 504.89L350.766 504.456C350.766 504.456 364.122 510.345 383.308 518.805L363.628 413.383L381.217 324.578L503.963 429.035L474.962 463.948L529.355 504.382L609.922 423.366L553.011 369.996ZM272.681 317.157L272.615 323.26L272.585 327.125H272.571L272.004 375.504L214.349 393.932L212.052 394.668L210.631 395.124L204.211 397.171L200.787 391.664L207.016 387.57L208.223 386.775L209.453 385.973L246.206 361.802L259.929 326.551L261.159 323.385L261.718 321.957L263.721 316.803L265.149 313.13L272.725 313.844L272.681 317.157Z" fill="#430B12"/>
<path d="M163.078 533.949L161.34 558.186L155.34 558.098L153.603 533.905L163.078 533.949Z" fill="#430B12"/>
<path d="M284.616 534.56L282.797 559.894H282.79L276.893 559.813L275.074 534.516L284.616 534.56Z" fill="#430B12"/>
<path d="M179.718 122.93L184.113 88.7977L187.102 88.459L184.525 118.969L197.601 118.88L199.051 123.784L179.718 122.93Z" fill="#430B12"/>
<path d="M287.258 107.506L284.998 105.621L296.174 90.6016L300.017 94.3343L287.258 107.506Z" fill="#430B12"/>
<path d="M295.143 106.276L290.004 101.888L291.918 99.6428L297.624 103.375L295.143 106.276Z" fill="#430B12"/>
<path d="M253.979 90.8005L251.704 88.1795L304.235 78.2108L304.809 81.8478L253.979 90.8005Z" fill="#430B12"/>
<path d="M208.059 89.3869C187.717 76.1125 173.243 88.3267 172.624 88.8421L171.571 86.28C171.741 86.1401 186.355 72.1369 208.744 86.2505L208.052 89.3795L208.059 89.3869Z" fill="#430B12"/>
<path d="M161.699 224.229L161.684 224.339L127.84 491.174L122.443 533.743L122.421 533.92L120.963 533.736H120.956L119.498 533.552L124.328 495.054L124.799 491.328L128.524 461.643L141.07 361.699L141.99 354.403V354.381L143.109 345.428L158.312 224.31L158.327 224.214L159.807 224.221L161.699 224.229Z" fill="#EF223A"/>
<path d="M506.783 527.073L498.258 535.65L474.89 559.15L441.501 592.723L395.207 582.556L379.319 579.066L370.984 577.233L330.035 582.997L319.705 584.455L317.666 581.017L329.475 576.629L325.963 568.994L333.245 566.785L354.927 560.211C354.264 560.314 344.664 561.838 333.885 563.561C325.22 564.937 315.796 566.454 309.619 567.455C305.732 568.096 302.831 568.604 302.831 568.604H302.824L302.801 568.574L297.184 564.231L295.977 563.296L297.375 562.876L298.09 562.662L311.865 558.554L309.781 550.227L333.444 545.685L337.53 545.14L354.213 542.931L338.325 541.127L335.365 540.789L297.721 547.408L292.59 538.757L311.106 535.223L309.037 526.984L309.825 526.852L346.446 520.984L355.192 523.708L345.569 518.635L309.008 525.026L306.218 518.761L321.833 516.824V506.826L345.503 504.89L350.767 504.455C350.767 504.455 364.123 510.345 383.309 518.805C393.314 523.222 404.91 528.332 417.029 533.669L457.087 485.461L467.432 494.126L471.135 497.226L497.603 519.386L499.517 520.984L506.783 527.073Z" fill="white"/>
<path d="M529.355 504.382L528.001 505.736L519.048 499.795L516.081 497.837L501.908 488.435L498.875 486.417L485.019 477.237L485.012 477.229L483.061 475.933L471.421 468.218L474.962 463.948L529.355 504.382Z" fill="#EF223A"/>
<path d="M485.017 477.237L471.132 497.226L467.429 494.126L483.059 475.934L483.427 475.507L485.01 477.23L485.017 477.237Z" fill="#EF223A"/>
<path d="M480.978 505.339C481.331 504.986 499.782 485.461 499.782 485.461L502.491 487.846L483.246 507.268L480.971 505.346L480.978 505.339Z" fill="#EF223A"/>
<path d="M519.901 498.868L519.047 499.795L499.515 520.984L497.601 519.387L516.08 497.837L516.927 496.85L519.901 498.868Z" fill="#EF223A"/>
<path d="M52.8848 494.944L127.841 491.182L126.685 494.944L52.8848 498.345V494.944Z" fill="#EF223A"/>
<path d="M63.1992 473.997V496.504H63.987L66.5491 473.055L63.1992 473.997Z" fill="#EF223A"/>
<path d="M87.3691 467.202L82.7529 468.498L86.9053 494.76H89.2686L87.3691 467.202Z" fill="#EF223A"/>
<path d="M113.242 459.935L114.84 493.272H113.242L109.229 461.061L113.242 459.935Z" fill="#EF223A"/>
<path d="M311.104 535.223L292.588 538.757L291.513 536.946L290.114 534.59L287.699 530.526L305.42 527.581L309.035 526.984L311.104 535.223Z" fill="#EF223A"/>
<path d="M309.035 526.984L305.42 527.581L309.005 526.852L309.035 526.984Z" fill="#430B12"/>
<path d="M311.863 558.554L298.088 562.662L297.374 562.876L295.975 563.295L294.473 562.132L293.715 561.543H293.707L291.992 560.211L291.948 560.027L290.585 553.923L290.578 553.908L300.451 552.016L306.179 550.919L309.779 550.227L311.863 558.554Z" fill="#EF223A"/>
<path d="M309.779 550.227L306.179 550.92V550.912L309.764 550.176L309.779 550.227Z" fill="#430B12"/>
<path d="M329.476 576.629L317.666 581.017L316.466 578.993L312.881 572.955L324.83 569.333L325.964 568.995L329.476 576.629Z" fill="#EF223A"/>
<path d="M321.831 506.826V516.824L306.216 518.761L305.295 516.692L301.629 508.475L319.91 506.981L321.831 506.826Z" fill="#EF223A"/>
<path d="M287.699 530.526L292.588 538.757L291.564 538.698L287.95 534.273L287.699 530.526Z" fill="#430B12"/>
<path d="M309.78 550.227L289.275 554.041L290.579 562.721L293.516 562.375L291.941 555.116L310.081 551.435L309.78 550.227Z" fill="#430B12"/>
<path d="M325.92 568.995L312.881 572.955L317.666 581.017L319.824 580.222L316.047 573.964L326.361 569.871L325.92 568.995Z" fill="#430B12"/>
<path d="M92.5307 285.778L76.5544 294.348L72.748 286.279L88.5772 275.802L92.5307 285.778Z" fill="#EF223A"/>
<path d="M72.748 286.279L88.5772 275.802L92.5307 285.778L91.1761 286.507L87.9808 278.843L73.2561 287.369L72.748 286.279Z" fill="#430B12"/>
<path d="M251.306 73.1991V65.3729L202.965 71.6603L204.997 77.3662L251.306 73.1991Z" fill="#EF223A"/>
<path d="M56.5527 406.168L59.9615 405.373L82.2695 412.249L80.878 439.026L78.5073 441.139L76.8508 418.478L56.5527 406.168Z" fill="#EF223A"/>
<path d="M56.5519 406.168L55.6758 433.085L78.5065 441.139L79.817 414.193L56.5519 406.168Z" fill="#430B12"/>
<path d="M292.507 119.293L288.826 174.106H317.282L304.861 124.454L302.528 125.529L310.31 169.004L294.657 169.792L296.144 121.428L297.978 120.81L296.932 118.174L292.507 119.293Z" fill="#430B12"/>
<path d="M151.166 117.769L151.129 118.056L150.415 123.718L128.688 163.423L143.001 169.814L145.799 160.544L143.862 175.969L121.532 164.623L149.649 117.423L151.166 117.769Z" fill="#430B12"/>
<path d="M151.917 120.979L150.415 123.718L151.129 118.056L151.166 117.769L154.096 118.432L153.839 121.252L151.917 120.979Z" fill="#430B12"/>
<path d="M178.871 99.0979C178.871 111.658 169.277 121.98 157.019 123.143C156.261 123.224 155.488 123.254 154.707 123.254C141.838 123.254 131.324 113.189 130.588 100.504C130.559 100.04 130.544 99.5691 130.544 99.0979C130.544 85.7573 141.359 74.942 154.7 74.942C157.571 74.942 160.325 75.4426 162.879 76.3629C169.911 78.8956 175.432 84.594 177.715 91.7429C178.208 93.2964 178.554 94.9161 178.723 96.5947C178.812 97.4193 178.856 98.2586 178.856 99.0979H178.871Z" fill="#430B12"/>
<path d="M171.302 64.5133L172.568 56.7902L132.561 55.4134L131.936 59.2713L171.302 64.5133Z" fill="#EF223A"/>
<path d="M142.934 348.152L136.241 350.206L136.499 361.927L142.323 359.962L142.934 348.152Z" fill="#EF223A"/>
<path d="M37.1582 223.596L99.4439 223.912L97.1395 226.475L125.087 295.504L122.341 297.102L96.2633 228.315L38.9178 227.873L37.1582 223.596Z" fill="#430B12"/>
<path d="M35.5069 216.196L24.6621 190.944" stroke="white" stroke-width="2.73449" stroke-miterlimit="10"/>
<path d="M29.1853 227.306L0.0302734 226.577" stroke="white" stroke-width="2.73449" stroke-miterlimit="10"/>
<path d="M30.0829 220.459L13.9004 212.508" stroke="white" stroke-width="2.73449" stroke-miterlimit="10"/>
<path d="M44.4717 215.357L52.8869 203.57" stroke="white" stroke-width="2.73449" stroke-miterlimit="10"/>
</g>
<defs>
<clipPath id="clip0_3191_3623">
<rect width="609.921" height="690.524" fill="white"/>
</clipPath>
</defs>
</svg>
